<svg xmlns="http://www.w3.org/2000/svg" width="62.783" height="62.783" viewBox="0 0 62.783 62.783">
  <g id="vuesax_bold_tick-circle" data-name="vuesax/bold/tick-circle" transform="translate(-748 -188)">
    <g id="tick-circle" transform="translate(748 188)">
      <path id="Vector" d="M29.392,0A29.392,29.392,0,1,0,58.783,29.392,29.44,29.44,0,0,0,29.392,0ZM43.441,22.632,26.776,39.3a2.2,2.2,0,0,1-3.116,0l-8.318-8.318a2.2,2.2,0,0,1,3.116-3.116l6.76,6.76L40.325,19.516a2.2,2.2,0,1,1,3.116,3.116Z" transform="translate(2 2)" fill="#85858a"/>
      <path id="Vector-2" data-name="Vector" d="M0,0H62.783V62.783H0Z" transform="translate(62.783 62.783) rotate(180)" fill="none" opacity="0"/>
    </g>
  </g>
</svg>
