<svg xmlns="http://www.w3.org/2000/svg" xmlns:xlink="http://www.w3.org/1999/xlink" width="61.373" height="30.103" viewBox="0 0 61.373 30.103">
  <defs>
    <clipPath id="clip-path">
      <rect id="Rectangle_316" data-name="Rectangle 316" width="61.373" height="30.103" transform="translate(0 0)" fill="#a8b400"/>
    </clipPath>
  </defs>
  <g id="Group_682" data-name="Group 682" transform="translate(0 0)">
    <g id="Group_640" data-name="Group 640" transform="translate(0 0)" clip-path="url(#clip-path)">
      <path id="Path_4274" data-name="Path 4274" d="M57.52,9.4,43.839,6.835,34.446,1.7A14.233,14.233,0,0,0,23.972.5L2.618,6.324A3.846,3.846,0,0,0,0,9.918v11.01A3.85,3.85,0,0,0,3.849,24.78H6.417a6.392,6.392,0,0,0,12.6,0h23.33a6.394,6.394,0,0,0,12.607,0H57.52a3.851,3.851,0,0,0,3.852-3.852v-7.7A3.852,3.852,0,0,0,57.52,9.4M21.2,3.707l2.926-.8h.947a11.654,11.654,0,0,1,8.063,1.078L38.27,6.6H19.758ZM15.168,5.579l2.792-.8-1,2.029H15.168ZM12.6,27.526h0a3.85,3.85,0,1,1,3.852-3.852A3.842,3.842,0,0,1,12.6,27.526m35.932,0a3.85,3.85,0,1,1,3.852-3.852,3.836,3.836,0,0,1-3.852,3.852M58.8,14.511H57.52a1.285,1.285,0,0,0,0,2.568H58.8v3.849a1.284,1.284,0,0,1-1.284,1.284H54.75a6.392,6.392,0,0,0-12.45,0H18.814a6.392,6.392,0,0,0-12.45,0H3.618a1.284,1.284,0,0,1-1.284-1.284V17.076H3.618a1.283,1.283,0,0,0,0-2.565H2.334l0-4.594a1.282,1.282,0,0,1,.951-1.078L12.6,6.271V8.094a1.286,1.286,0,0,0,1.284,1.284H43.4l13.887,2.54c.021,0,.039,0,.06,0A1.385,1.385,0,0,1,58.8,13.227Z" transform="translate(0 0)" fill="#a8b400"/>
      <path id="Path_4275" data-name="Path 4275" d="M77.663,49.462a1.288,1.288,0,0,1-1.245,1.245H58.448a1.285,1.285,0,0,1-.074-2.568H76.418a1.284,1.284,0,0,1,1.245,1.323" transform="translate(-36.864 -31.063)" fill="#1a206d"/>
    </g>
  </g>
</svg>
