<svg id="Group_33" data-name="Group 33" xmlns="http://www.w3.org/2000/svg" xmlns:xlink="http://www.w3.org/1999/xlink" width="67.999" height="23.858" viewBox="0 0 67.999 23.858">
  <defs>
    <clipPath id="clip-path">
      <rect id="Rectangle_46" data-name="Rectangle 46" width="67.999" height="23.858" fill="none"/>
    </clipPath>
    <clipPath id="clip-path-3">
      <rect id="Rectangle_32" data-name="Rectangle 32" width="27.248" height="2.112" fill="none"/>
    </clipPath>
    <clipPath id="clip-path-4">
      <rect id="Rectangle_33" data-name="Rectangle 33" width="4.807" height="0.355" fill="none"/>
    </clipPath>
    <clipPath id="clip-path-5">
      <rect id="Rectangle_34" data-name="Rectangle 34" width="2.744" height="1.327" fill="none"/>
    </clipPath>
    <clipPath id="clip-path-6">
      <rect id="Rectangle_35" data-name="Rectangle 35" width="5.224" height="2.354" fill="none"/>
    </clipPath>
    <clipPath id="clip-path-7">
      <rect id="Rectangle_36" data-name="Rectangle 36" width="5.579" height="5.228" fill="none"/>
    </clipPath>
    <clipPath id="clip-path-8">
      <rect id="Rectangle_37" data-name="Rectangle 37" width="5.422" height="5.103" fill="none"/>
    </clipPath>
    <clipPath id="clip-path-9">
      <rect id="Rectangle_38" data-name="Rectangle 38" width="7.69" height="6.301" fill="none"/>
    </clipPath>
    <clipPath id="clip-path-10">
      <rect id="Rectangle_39" data-name="Rectangle 39" width="4.473" height="3.747" fill="none"/>
    </clipPath>
    <clipPath id="clip-path-11">
      <rect id="Rectangle_40" data-name="Rectangle 40" width="2.043" height="1.725" fill="none"/>
    </clipPath>
    <clipPath id="clip-path-12">
      <rect id="Rectangle_41" data-name="Rectangle 41" width="4.325" height="3.932" fill="none"/>
    </clipPath>
    <clipPath id="clip-path-13">
      <rect id="Rectangle_42" data-name="Rectangle 42" width="7.635" height="5.751" fill="none"/>
    </clipPath>
    <clipPath id="clip-path-14">
      <rect id="Rectangle_43" data-name="Rectangle 43" width="4.794" height="3.37" fill="none"/>
    </clipPath>
    <clipPath id="clip-path-15">
      <rect id="Rectangle_44" data-name="Rectangle 44" width="2.741" height="2.299" fill="none"/>
    </clipPath>
  </defs>
  <g id="Group_74" data-name="Group 74" transform="translate(0)" clip-path="url(#clip-path)">
    <g id="Group_73" data-name="Group 73" transform="translate(0 0)">
      <g id="Group_72" data-name="Group 72" clip-path="url(#clip-path)">
        <path id="Path_97" data-name="Path 97" d="M67.449,19.956c-.218-.071-.187-.7-.17-1.661.669.266-.247-4.773-.829-6.171-.482-1.157-2.2-3.784-18.623-4.307C41.855,4.309,34.749-.267,26.862.013,15.2.426,10.852,2.682,7.788,4.463A9.456,9.456,0,0,0,3.33,9.406c-1.176.14-2.03,1.6-2.236,3.488-.382.274-.31,2.878-.31,2.878-1.085,0-.8,3.08-.579,3.653.47,1.23,2.83,1.458,7.085,1.831s33.519.149,40.91-.074,22.906-.029,19.249-1.224" transform="translate(0 0)" fill="#a8b400"/>
        <path id="Path_98" data-name="Path 98" d="M15.759,20.871A6.346,6.346,0,0,1,22.1,27.217c0,.2.039,1.527.081,3.108-5.263-.014-9.483-.072-10.906-.2-.674-.059-1.307-.124-1.9-.2.013-1.354.03-2.461.03-2.713a6.346,6.346,0,0,1,6.346-6.346" transform="translate(-3.989 -8.873)"/>
        <path id="Path_99" data-name="Path 99" d="M86.406,20.871a6.346,6.346,0,0,1,6.346,6.346c0,.175.013,1.373.049,2.712-3.365.1-7.2.022-10.576.125-.6.018-1.338.036-2.2.053.013-1.434.032-2.628.032-2.89a6.346,6.346,0,0,1,6.346-6.346" transform="translate(-34.025 -8.873)"/>
        <path id="Path_100" data-name="Path 100" d="M81.821,28.083a5.413,5.413,0,1,0,5.413-5.413,5.413,5.413,0,0,0-5.413,5.413" transform="translate(-34.787 -9.638)" fill="#070000"/>
        <path id="Path_101" data-name="Path 101" d="M83.964,28.994a4.181,4.181,0,1,0,4.181-4.181,4.181,4.181,0,0,0-4.181,4.181m.767,1.268.529-.084-.435.316c-.034-.076-.065-.153-.094-.232m-.165-.585a3.543,3.543,0,0,1,0-1.35l1.777.283.541.392-.54.392Zm6.875.865-.5-.364.615.1c-.034.091-.071.179-.113.266m-1.583-1.148L89.317,29l.542-.392,1.865-.3a3.567,3.567,0,0,1,0,1.379Zm1.7-1.667-.62.1.508-.368c.041.088.078.178.113.269m-6.739-.221.441.32-.535-.085c.029-.079.059-.158.094-.235m1.243-1.5,1.07,1.477.105.659-.659-.1-1.467-1.063a3.66,3.66,0,0,1,.951-.968m.526-.3c.08-.038.161-.074.244-.106l.09.567Zm1.556-.352a3.662,3.662,0,0,1,.64.059l-.293,1.835-.392.54-.393-.541-.29-1.821a3.654,3.654,0,0,1,.727-.073m1.226.216c.089.032.177.066.263.1l-.358.494Zm1.776,1.364L89.62,28.037l-.66.1.105-.659,1.1-1.519a3.661,3.661,0,0,1,.98.967m-.988,5.1-1.094-1.508-.105-.66.66.105,1.519,1.1a3.669,3.669,0,0,1-.98.961m-.535.292c-.083.037-.17.07-.256.1l-.093-.583Zm-1.48.316a3.672,3.672,0,0,1-.725-.072l.287-1.806.393-.541.392.54.29,1.82a3.63,3.63,0,0,1-.637.059m-1.309-.247c-.081-.031-.16-.065-.238-.1l.326-.45Zm-1.717-1.366,1.46-1.059.659-.105-.105.66-1.063,1.466a3.668,3.668,0,0,1-.951-.962" transform="translate(-35.698 -10.549)" fill="#757575"/>
        <path id="Path_102" data-name="Path 102" d="M88.127,32.845l-.456-.189.623-.86Zm1.834,0L89.794,31.8l.624.859Zm-1.525-1.391.162-1.023-1.021.163.837-.608-.838-.608,1.022.163-.162-1.023.608.838.608-.838-.163,1.022,1.023-.163-.839.608.839.608-1.023-.163.163,1.023-.608-.839Zm-2.063-.095-.189-.456,1.049-.167Zm5.341,0-.859-.623L91.9,30.9Zm-.86-2.123.86-.623.189.456Zm-3.621,0-1.049-.167.189-.456Zm1.061-1.061-.623-.859.456-.189Zm1.5,0,.167-1.048.456.189Z" transform="translate(-36.642 -11.533)" fill="#999"/>
        <path id="Path_103" data-name="Path 103" d="M87.388,23.592A5.2,5.2,0,0,0,82.2,28.517c0-.093-.014-.186-.014-.28a5.206,5.206,0,1,1,10.411,0c0,.094-.01.187-.014.28a5.2,5.2,0,0,0-5.192-4.925" transform="translate(-34.941 -9.792)"/>
        <path id="Path_104" data-name="Path 104" d="M88.122,36.448a4.209,4.209,0,0,0,4.2-3.985c0,.075.011.15.011.226a4.212,4.212,0,1,1-8.424,0c0-.076.007-.151.011-.226a4.209,4.209,0,0,0,4.2,3.985" transform="translate(-35.675 -13.802)" fill="#262626"/>
        <path id="Path_105" data-name="Path 105" d="M10.654,28.083a5.413,5.413,0,1,0,5.413-5.413,5.413,5.413,0,0,0-5.413,5.413" transform="translate(-4.53 -9.638)" fill="#070000"/>
        <path id="Path_106" data-name="Path 106" d="M12.8,28.994a4.181,4.181,0,1,0,4.181-4.181A4.181,4.181,0,0,0,12.8,28.994m.767,1.268.529-.084-.435.316c-.034-.076-.065-.153-.094-.232m-.165-.585a3.541,3.541,0,0,1,0-1.35l1.777.283.541.392-.54.392Zm6.875.865-.5-.364.615.1q-.051.136-.112.266m-1.584-1.148L18.15,29l.54-.392,1.867-.3a3.706,3.706,0,0,1,.066.682,3.622,3.622,0,0,1-.068.7Zm1.7-1.667-.62.1.508-.368c.041.088.078.178.113.269m-6.739-.221.441.32-.535-.085c.029-.079.059-.158.094-.235m1.243-1.5,1.071,1.477.1.659-.659-.1-1.467-1.063a3.661,3.661,0,0,1,.951-.968m.526-.3c.08-.038.161-.074.244-.106l.09.567Zm1.556-.352a3.661,3.661,0,0,1,.639.059l-.293,1.835-.392.54-.392-.541-.29-1.821a3.655,3.655,0,0,1,.728-.073m1.226.216c.089.032.177.066.263.1l-.358.494ZM19.98,26.93l-1.527,1.107-.66.1.105-.659L19,25.963a3.661,3.661,0,0,1,.98.967m-.988,5.1L17.9,30.523l-.105-.66.66.105,1.519,1.1a3.668,3.668,0,0,1-.98.961m-.534.292c-.084.037-.17.07-.257.1l-.093-.583Zm-1.48.316a3.674,3.674,0,0,1-.725-.072l.288-1.806.392-.541.392.54.29,1.82a3.629,3.629,0,0,1-.636.059m-1.309-.247c-.081-.031-.16-.065-.238-.1l.326-.45Zm-1.716-1.366,1.46-1.059.659-.105-.1.66L14.9,31.989a3.667,3.667,0,0,1-.951-.962" transform="translate(-5.441 -10.549)" fill="#757575"/>
        <path id="Path_107" data-name="Path 107" d="M16.96,32.845l-.456-.189.624-.86Zm1.834,0L18.627,31.8l.624.859ZM17.27,31.454l.163-1.023-1.022.163.838-.608-.838-.608,1.023.163-.163-1.023.608.838.608-.838-.163,1.022,1.023-.163-.839.608.838.608-1.023-.163.163,1.023-.608-.839Zm-2.063-.095-.189-.456,1.049-.167Zm5.341,0-.859-.623,1.048.167Zm-.86-2.123.86-.623.189.456Zm-3.621,0-1.049-.167.189-.456Zm1.061-1.061-.624-.859.456-.189Zm1.5,0,.167-1.048.456.189Z" transform="translate(-6.385 -11.533)" fill="#999"/>
        <path id="Path_108" data-name="Path 108" d="M16.221,23.592a5.2,5.2,0,0,0-5.192,4.925c0-.093-.014-.186-.014-.28a5.206,5.206,0,1,1,10.411,0c0,.094-.009.187-.014.28a5.2,5.2,0,0,0-5.191-4.925" transform="translate(-4.683 -9.792)"/>
        <path id="Path_109" data-name="Path 109" d="M16.955,36.448a4.209,4.209,0,0,0,4.2-3.985c0,.075.011.15.011.226a4.212,4.212,0,1,1-8.425,0c0-.076.007-.151.011-.226a4.209,4.209,0,0,0,4.2,3.985" transform="translate(-5.418 -13.802)" fill="#262626"/>
        <path id="Path_110" data-name="Path 110" d="M107.407,23.018c-.474-2.156-2.335-3.2-5.689-3.2-.936,0-1.859.078-2.6.141l-.225.019-.016.145A7.8,7.8,0,0,1,102.269,23l.022.036h.042c.008,0,.832-.019,1.855-.019.944,0,2.255.016,3.139.093l.1.009Z" transform="translate(-42.038 -8.424)" fill="#191919"/>
        <path id="Path_111" data-name="Path 111" d="M107.35,23.09c-1.718-.149-5-.075-5-.075A7.813,7.813,0,0,0,98.914,20.1c2.688-.224,7.614-.746,8.436,2.986" transform="translate(-42.054 -8.479)" fill="#fff"/>
        <path id="Path_112" data-name="Path 112" d="M105.79,23c-.962-1.027-1.956-2.03-2.933-3.042.392-.011.791-.013,1.191,0a38.784,38.784,0,0,1,3.13,3.049C106.7,23,106.226,23,105.79,23" transform="translate(-43.731 -8.481)" fill="#fff"/>
        <path id="Path_113" data-name="Path 113" d="M106.137,20.053c1.981.2,3.812.936,4.284,3.083-.368-.032-.808-.053-1.271-.068a39.457,39.457,0,0,0-3.013-3.015" transform="translate(-45.125 -8.526)" fill="#fff"/>
        <path id="Path_114" data-name="Path 114" d="M107.169,22.586l.022,0a4.035,4.035,0,0,1,.16.537c-1.717-.149-5-.075-5-.075a7.816,7.816,0,0,0-3.434-2.912c.422-.035.9-.078,1.407-.11a20.66,20.66,0,0,0,6.846,2.556" transform="translate(-42.055 -8.516)" fill="#e8e8e7"/>
        <path id="Path_115" data-name="Path 115" d="M109.025,31.826h4.211c.057.553.109,1.108.17,1.661l-5.11.21c-.212.009-.266-.183-.121-.43Z" transform="translate(-45.957 -13.531)" fill="#fff"/>
        <path id="Path_116" data-name="Path 116" d="M21.233,8.58H19.406c-3.173,0-2.649-6.274,15.651-7.07,5.816-.253,15.695,6.238,16.654,6.783.024.014,0,.056,0,.084Z" transform="translate(-7.619 -0.639)"/>
        <path id="Path_117" data-name="Path 117" d="M19.577,8.519c-.75,0-1.243-.378-1.255-.962-.029-1.364,2.952-5.038,16.916-5.645.107,0,.217-.007.327-.007,3.446,0,8.706,2.159,15.634,6.415l-29.8.2H19.577Z" transform="translate(-7.79 -0.81)" fill="#070000"/>
        <path id="Path_118" data-name="Path 118" d="M59.077,6.579c-5.484-3.1-9.745-4.674-12.683-4.674-.11,0-.22,0-.326.007-.795.034-1.549.08-2.274.133.89,2.143,1.945,4.217,2.785,6.378l11.863-.08c.217-.586.431-1.174.635-1.765" transform="translate(-18.62 -0.81)" fill="#e8e8e7"/>
        <path id="Path_119" data-name="Path 119" d="M24.653,8.656l12.723-.085c-.851-2.14-1.9-4.2-2.772-6.33-5.354.447-8.763,1.394-10.874,2.4.291,1.341.608,2.676.923,4.012" transform="translate(-10.089 -0.953)" fill="#e8e8e7"/>
        <path id="Path_120" data-name="Path 120" d="M57.644,1.3c4.37,1,11.066,4.926,14.728,7.069l-1.555-.022C65.854,4.678,57.163,1.649,57.644,1.3" transform="translate(-24.5 -0.554)" fill="#e8e8e7"/>
        <path id="Path_121" data-name="Path 121" d="M4.368,16.325l5.449,2.09-3.285,2.09L1.9,19.834s.224-3.434,2.464-3.509" transform="translate(-0.81 -6.941)"/>
        <path id="Path_122" data-name="Path 122" d="M3.59,18.8c-.439-.014-.878-.024-1.314-.052a3.109,3.109,0,0,1,1.61-2.2c.742.786,1.458,1.6,2.13,2.453-.808-.085-1.618-.175-2.427-.2" transform="translate(-0.968 -7.036)" fill="#5d5d5d"/>
        <path id="Path_123" data-name="Path 123" d="M3.627,21.154c.862.049,1.723.145,2.583.231q.346.454.672.921l-.35.223L1.9,21.857a6.154,6.154,0,0,1,.116-.773c.533.033,1.069.039,1.608.07" transform="translate(-0.81 -8.964)" fill="#e8e8e7"/>
        <path id="Path_124" data-name="Path 124" d="M10.8,18.267l-5.006-1.92a1.956,1.956,0,0,1,.229-.021l5.449,2.09-2.979,1.9Z" transform="translate(-2.463 -6.941)" fill="#e8e8e7"/>
        <path id="Path_125" data-name="Path 125" d="M63.59,16.328s-33.033-.863-47.239.875c-4.549-.984-4.043-1.382-7.876-1.671,32.584-3.508,55.115.8,55.115.8" transform="translate(-3.603 -6.019)" fill="#a8b400"/>
        <path id="Path_126" data-name="Path 126" d="M85.73,19.79c2.729-.189,8.1,1.166,9.856,6.578l-2.752-.536c-1.812-4.853-4.986-5.047-7.008-4.907a6.424,6.424,0,0,0-5.763,5.416A6.336,6.336,0,0,1,85.73,19.79" transform="translate(-34.032 -8.407)"/>
        <g id="Group_35" data-name="Group 35" transform="translate(18.339 16.775)" opacity="0.5">
          <g id="Group_34" data-name="Group 34">
            <g id="Group_33-2" data-name="Group 33" clip-path="url(#clip-path-3)">
              <path id="Path_127" data-name="Path 127" d="M59.152,30.974,31.9,29.182l7.838,2.113Z" transform="translate(-31.904 -29.182)" fill="#a8b400"/>
            </g>
          </g>
        </g>
        <path id="Path_128" data-name="Path 128" d="M106.528,30.851,102.247,30l.139,1.251Z" transform="translate(-43.472 -12.757)" fill="#e8e8e7"/>
        <path id="Path_129" data-name="Path 129" d="M110.919,34.716l-8.675.228,2.192.547,6.951-.567Z" transform="translate(-43.47 -14.76)" fill="#e8e8e7"/>
        <g id="Group_38" data-name="Group 38" transform="translate(62.662 17.891)" opacity="0.5">
          <g id="Group_37" data-name="Group 37">
            <g id="Group_36" data-name="Group 36" clip-path="url(#clip-path-4)">
              <path id="Path_130" data-name="Path 130" d="M113.5,31.13l-4.495-.006,1.043.355,3.763-.123Z" transform="translate(-109.007 -31.124)" fill="#fff"/>
            </g>
          </g>
        </g>
        <path id="Path_131" data-name="Path 131" d="M49.528,16.271c0,.209.692.378,1.546.378s1.546-.169,1.546-.378-.692-.377-1.546-.377-1.546.168-1.546.377" transform="translate(-21.057 -6.757)"/>
        <path id="Path_132" data-name="Path 132" d="M49.851,16.223c0,.139.609.251,1.36.251s1.36-.113,1.36-.251-.609-.251-1.36-.251-1.36.113-1.36.251" transform="translate(-21.195 -6.791)" fill="#757575"/>
        <path id="Path_133" data-name="Path 133" d="M23.832,16.271c0,.209.692.378,1.546.378s1.546-.169,1.546-.378-.692-.377-1.546-.377-1.546.168-1.546.377" transform="translate(-10.132 -6.757)" fill="#231f20"/>
        <path id="Path_134" data-name="Path 134" d="M24.155,16.223c0,.139.609.251,1.36.251s1.36-.113,1.36-.251-.609-.251-1.36-.251-1.36.113-1.36.251" transform="translate(-10.27 -6.791)" fill="#757575"/>
        <path id="Path_135" data-name="Path 135" d="M75.223,13.114c-.153.775-1.783,1.107-2.553.955a1.431,1.431,0,0,1,.553-2.808c.771.152,2.153,1.077,2,1.852" transform="translate(-30.409 -4.777)"/>
        <g id="Group_41" data-name="Group 41" transform="translate(41.576 6.569)" opacity="0.5">
          <g id="Group_40" data-name="Group 40">
            <g id="Group_39" data-name="Group 39" clip-path="url(#clip-path-5)">
              <path id="Path_136" data-name="Path 136" d="M72.326,11.97a1.227,1.227,0,0,0,.9.754,2.932,2.932,0,0,0,1.841-.355,3,3,0,0,0-1.488-.918,1.232,1.232,0,0,0-1.257.519" transform="translate(-72.326 -11.428)" fill="#e8e8e7"/>
            </g>
          </g>
        </g>
        <g id="Group_44" data-name="Group 44" transform="translate(0.226 15.876)" opacity="0.5">
          <g id="Group_43" data-name="Group 43">
            <g id="Group_42" data-name="Group 42" clip-path="url(#clip-path-6)">
              <path id="Path_137" data-name="Path 137" d="M5.617,28.127s-3.544-.434-4.34-.506-.94.94-.867,2.351c.289-.759.687-1.989,5.207-1.844" transform="translate(-0.393 -27.617)"/>
            </g>
          </g>
        </g>
        <path id="Path_138" data-name="Path 138" d="M18.883,2.477a26.013,26.013,0,0,0-7.444,3.039,11.685,11.685,0,0,0-2.8,2.239A42.644,42.644,0,0,1,18.883,2.477" transform="translate(-3.65 -1.053)" fill="#e8e8e7"/>
        <path id="Path_139" data-name="Path 139" d="M115.757,26.37a.763.763,0,0,0,.438.493,21.654,21.654,0,0,0-.985-5.421h-.356c-.259,0-.4.238-.321.532Z" transform="translate(-48.686 -9.116)"/>
        <g id="Group_47" data-name="Group 47" transform="translate(14.082 1.912)" opacity="0.7">
          <g id="Group_46" data-name="Group 46">
            <g id="Group_45" data-name="Group 45" clip-path="url(#clip-path-7)">
              <path id="Path_140" data-name="Path 140" d="M27.7,3.839,24.5,7.045q.174.755.351,1.51l5.228-5.229c-.867.157-1.653.33-2.374.513" transform="translate(-24.498 -3.326)" fill="#fff"/>
            </g>
          </g>
        </g>
        <g id="Group_50" data-name="Group 50" transform="translate(19.966 2.564)" opacity="0.7">
          <g id="Group_49" data-name="Group 49">
            <g id="Group_48" data-name="Group 48" clip-path="url(#clip-path-8)">
              <path id="Path_141" data-name="Path 141" d="M34.733,9.564l1.061-.007L40.155,5.2c-.11-.243-.214-.489-.319-.734Z" transform="translate(-34.733 -4.461)" fill="#fff"/>
            </g>
          </g>
        </g>
        <g id="Group_53" data-name="Group 53" transform="translate(15.703 1.395)" opacity="0.7">
          <g id="Group_52" data-name="Group 52">
            <g id="Group_51" data-name="Group 51" clip-path="url(#clip-path-9)">
              <path id="Path_142" data-name="Path 142" d="M35.007,2.427c-.542.056-1.07.115-1.57.181l-6.12,6.12,1.4-.01,6.291-6.291" transform="translate(-27.317 -2.427)" fill="#fff"/>
            </g>
          </g>
        </g>
        <g id="Group_56" data-name="Group 56" transform="translate(21.917 3.907)" opacity="0.7">
          <g id="Group_55" data-name="Group 55">
            <g id="Group_54" data-name="Group 54" clip-path="url(#clip-path-10)">
              <path id="Path_143" data-name="Path 143" d="M42.6,8.425c-.24-.543-.48-1.086-.726-1.627l-3.747,3.747,2.369-.016Z" transform="translate(-38.127 -6.798)" fill="#fff"/>
            </g>
          </g>
        </g>
        <g id="Group_59" data-name="Group 59" transform="translate(25.544 1.099)" opacity="0.7">
          <g id="Group_58" data-name="Group 58">
            <g id="Group_57" data-name="Group 57" clip-path="url(#clip-path-11)">
              <path id="Path_144" data-name="Path 144" d="M46.342,1.915c-.331.014-.651.032-.967.05l-.937.937c.105.245.209.491.318.735l1.725-1.725-.139,0" transform="translate(-44.438 -1.912)" fill="#fff"/>
            </g>
          </g>
        </g>
        <g id="Group_62" data-name="Group 62" transform="translate(26.139 1.123)" opacity="0.7">
          <g id="Group_61" data-name="Group 61">
            <g id="Group_60" data-name="Group 60" clip-path="url(#clip-path-12)">
              <path id="Path_145" data-name="Path 145" d="M49.8,2.291a12.971,12.971,0,0,0-2.017-.337L45.471,4.263q.367.811.731,1.623Z" transform="translate(-45.471 -1.954)" fill="#fff"/>
            </g>
          </g>
        </g>
        <g id="Group_65" data-name="Group 65" transform="translate(27.448 1.863)" opacity="0.7">
          <g id="Group_64" data-name="Group 64">
            <g id="Group_63" data-name="Group 63" clip-path="url(#clip-path-13)">
              <path id="Path_146" data-name="Path 146" d="M50.842,8.973l4.542-4.542A32.039,32.039,0,0,0,52.252,3.24l-4.5,4.5c.176.413.348.828.511,1.247Z" transform="translate(-47.749 -3.24)" fill="#fff"/>
            </g>
          </g>
        </g>
        <g id="Group_68" data-name="Group 68" transform="translate(34.15 4.202)" opacity="0.7">
          <g id="Group_67" data-name="Group 67">
            <g id="Group_66" data-name="Group 66" clip-path="url(#clip-path-14)">
              <path id="Path_147" data-name="Path 147" d="M64.2,8.047q-.728-.387-1.424-.736l-3.37,3.37,2.176-.015Z" transform="translate(-59.409 -7.311)" fill="#fff"/>
            </g>
          </g>
        </g>
        <g id="Group_71" data-name="Group 71" transform="translate(37.216 5.252)" opacity="0.7">
          <g id="Group_70" data-name="Group 70">
            <g id="Group_69" data-name="Group 69" clip-path="url(#clip-path-15)">
              <path id="Path_148" data-name="Path 148" d="M67.484,9.379l-.442-.243-2.3,2.3.689,0Z" transform="translate(-64.743 -9.136)" fill="#fff"/>
            </g>
          </g>
        </g>
      </g>
    </g>
  </g>
</svg>
