<svg xmlns="http://www.w3.org/2000/svg" width="21" height="24.839" viewBox="0 0 21 24.839">
  <g id="Group_204" data-name="Group 204" transform="translate(-2156.062 -1104.062)">
    <rect id="Rectangle_149" data-name="Rectangle 149" width="21" height="21" transform="translate(2156.062 1104.062)" fill="none"/>
    <g id="telemarketer-customer-service-svgrepo-com" transform="translate(2111.982 1105.062)">
      <g id="Group_699" data-name="Group 699" transform="translate(45.08 0)">
        <g id="Group_698" data-name="Group 698">
          <path id="Path_4327" data-name="Path 4327" d="M62.946,5.6h-.583a7.775,7.775,0,0,0-14.925,0h-.583A1.777,1.777,0,0,0,45.08,7.372v.6a1.777,1.777,0,0,0,1.775,1.775h.525a7.705,7.705,0,0,0,.4,1.141.518.518,0,0,0,.475.31h2.091a5.679,5.679,0,1,0-.62-1.036H48.6a6.668,6.668,0,0,1-.3-1.036h0a6.764,6.764,0,0,1,.042-2.887h0a6.738,6.738,0,0,1,13.119,0h0A6.764,6.764,0,0,1,61.5,9.121h0a6.666,6.666,0,0,1-.427,1.346.518.518,0,1,0,.949.416,7.7,7.7,0,0,0,.4-1.141h.525a1.777,1.777,0,0,0,1.775-1.775v-.6A1.777,1.777,0,0,0,62.946,5.6ZM47.183,8.706h-.328a.739.739,0,0,1-.738-.738v-.6a.739.739,0,0,1,.738-.738h.356a7.814,7.814,0,0,0-.028,2.073Zm7.718-5.6a4.664,4.664,0,1,1-3.167,8.084H54.9a.518.518,0,0,0,0-1.036H50.893A4.662,4.662,0,0,1,54.9,3.109Zm8.784,4.858a.739.739,0,0,1-.738.738h-.328a7.812,7.812,0,0,0-.028-2.073h.356a.739.739,0,0,1,.738.738v.6Z" transform="translate(-45.08 0)" fill="#fff"/>
          <path id="Path_4328" data-name="Path 4328" d="M71.539,312.384a8.751,8.751,0,0,0-3.516-.73h-.777a8.8,8.8,0,0,0-8.81,8.81.518.518,0,0,0,.518.518H76.315a.518.518,0,0,0,.518-.518,8.818,8.818,0,0,0-5.294-8.08Zm-4.293.307h.777a7.739,7.739,0,0,1,2.374.369l-2.762,2.828-2.762-2.828A7.738,7.738,0,0,1,67.246,312.69Zm4.509,6.322h3.907a7.8,7.8,0,0,1,.118.933H59.49a7.765,7.765,0,0,1,.12-.933h1.34a.518.518,0,0,0,0-1.036H59.882a7.774,7.774,0,0,1,3.951-4.5l3.431,3.512a.518.518,0,0,0,.742,0l3.431-3.513a7.8,7.8,0,0,1,3.955,4.5H71.755a.518.518,0,0,0,0,1.036Z" transform="translate(-57.814 -297.143)" fill="#fff"/>
          <path id="Path_4329" data-name="Path 4329" d="M279.063,447.44h-.285a.518.518,0,1,0,0,1.036h.285a.518.518,0,0,0,0-1.036Z" transform="translate(-267.403 -426.607)" fill="#fff"/>
        </g>
      </g>
    </g>
  </g>
</svg>
