<svg xmlns="http://www.w3.org/2000/svg" width="21" height="21" viewBox="0 0 21 21">
  <g id="Group_204" data-name="Group 204" transform="translate(-2156.062 -1104.062)">
    <rect id="Rectangle_149" data-name="Rectangle 149" width="21" height="21" transform="translate(2156.062 1104.062)" fill="none"/>
    <path id="Path_485" data-name="Path 485" d="M148.71,11.494c0-3.422-3.332-6.244-7.415-6.244s-7.415,2.822-7.415,6.244a5.74,5.74,0,0,0,.51,2.252,5.844,5.844,0,0,0-.06.751,3.467,3.467,0,0,0,.66,2.131l.18.751a.826.826,0,0,0,.24.45c.03.03.03.06.06.06.06.03.09.09.15.12.03,0,.06.03.09.03h.06c.06.18.15.36.21.51a13.548,13.548,0,0,0,.66,1.321,22.453,22.453,0,0,0,1.441,2.282,4.819,4.819,0,0,0,1.441,1.381,3.164,3.164,0,0,0,.33.21c.03.03.09.03.12.06a3.056,3.056,0,0,0,1.351.3,2.967,2.967,0,0,0,1.351-.3c.03-.03.09-.03.12-.06a2.017,2.017,0,0,0,.33-.21,4.4,4.4,0,0,0,1.411-1.381,20.774,20.774,0,0,0,2.312-4.113c.03,0,.03,0,.03-.03h.03c.03,0,.06-.03.09-.03a1.013,1.013,0,0,0,.45-.6l.18-.751a3.671,3.671,0,0,0,.66-2.131,6.321,6.321,0,0,0-.06-.751,5.713,5.713,0,0,0,.48-2.252Zm-2.642,1.771v3.842a1.067,1.067,0,0,0-.33.48c-.03.12-.09.21-.12.33a5.159,5.159,0,0,1-3.692,2.011,1.182,1.182,0,0,0-.6-.15c-.51,0-.9.27-.9.6s.39.57.9.57a1.111,1.111,0,0,0,.69-.21A5.83,5.83,0,0,0,144.6,19.9c-.3.51-.66,1.051-1.051,1.621a3.885,3.885,0,0,1-1.051,1.051c-.03,0-.03.03-.06.03-.12.09-.21.12-.3.18a1.918,1.918,0,0,1-.841.18h-.03a2.014,2.014,0,0,1-.841-.18.709.709,0,0,1-.27-.18c-.03,0-.03-.03-.06-.03a3.5,3.5,0,0,1-1.051-1.051,20.365,20.365,0,0,1-2.192-3.873,1.257,1.257,0,0,0-.33-.48V12.815l6.544-1.441a1.838,1.838,0,0,1,1.261.15l1.741.811Zm1.711-.69a1.966,1.966,0,0,0-.45-.54,4.945,4.945,0,0,0-.54-2.612c-1.171-1.951-3.332-2.4-5.494-2.4s-4.323.45-5.494,2.4a4.78,4.78,0,0,0-.54,2.582,2.907,2.907,0,0,0-.45.57,4.419,4.419,0,0,1-.12-1.081c0-3.032,2.972-5.524,6.6-5.524s6.6,2.492,6.6,5.524a6.266,6.266,0,0,1-.12,1.081Z" transform="translate(2025.126 1099.745)" fill="#fff"/>
  </g>
</svg>
