<svg xmlns="http://www.w3.org/2000/svg" width="67" height="67" viewBox="0 0 67 67">
  <g id="Group_372" data-name="Group 372" transform="translate(-8434.45 -1484.45)">
    <rect id="Rectangle_211" data-name="Rectangle 211" width="67" height="67" transform="translate(8434.45 1484.45)" fill="none"/>
    <g id="Group_372-2" data-name="Group 372" transform="translate(8439.463 1497.859)">
      <path id="Path_695" data-name="Path 695" d="M78.683,79.188c-5.341,0-9.561,1.975-9.561,4.489s4.174,4.489,9.561,4.489c5.341,0,9.561-1.975,9.561-4.489C88.243,81.118,84.024,79.188,78.683,79.188Z" transform="translate(-69.122 -79.188)" fill="#1a0f55"/>
      <path id="Path_696" data-name="Path 696" d="M79.431,156.372c5.341,0,9.426-1.975,9.426-4.489V149.19c0,2.514-4.085,4.489-9.426,4.489s-9.426-1.975-9.426-4.489v2.693C70.005,154.4,74.09,156.372,79.431,156.372Z" transform="translate(-69.914 -142.008)" fill="#a8b400"/>
      <path id="Path_697" data-name="Path 697" d="M70,203.943c0,2.514,4.085,4.489,9.426,4.489s9.426-1.975,9.426-4.489V201.25c0,2.514-4.085,4.488-9.426,4.488S70,203.764,70,201.25Z" transform="translate(-69.91 -188.727)" fill="#a8b400"/>
      <path id="Path_698" data-name="Path 698" d="M98.5,242.88c-5.341,0-9.65-1.93-9.65-4.444,0,2.514-4.085,4.489-9.426,4.489S70,240.95,70,238.436v2.693c0,2.514,4.085,4.489,9.426,4.489s9.426-1.975,9.426-4.489c0,2.514,4.309,4.489,9.65,4.489,5.252,0,9.471-1.885,9.65-4.309.135,2.469,4.264,4.354,9.516,4.354,5.341,0,9.561-1.975,9.561-4.489s-4.174-4.489-9.561-4.489c-5.162,0-9.2,1.84-9.516,4.174v-2.424c0,2.514-4.309,4.444-9.65,4.444Z" transform="translate(-69.908 -220.527)" fill="#1a0f55"/>
      <path id="Path_699" data-name="Path 699" d="M117.807,362.8c-5.341,0-9.65-1.975-9.65-4.489,0,2.514-4.309,4.489-9.65,4.489s-9.65-1.975-9.65-4.489c0,2.514-4.085,4.489-9.426,4.489S70,360.824,70,358.31V361c0,2.514,4.085,4.488,9.426,4.488s9.426-1.975,9.426-4.488c0,2.514,4.309,4.488,9.65,4.488s9.65-1.975,9.65-4.488c0,2.514,4.309,4.488,9.65,4.488s9.65-1.975,9.65-4.488V358.31C127.457,360.824,123.148,362.8,117.807,362.8Z" transform="translate(-69.913 -329.673)" fill="#a8b400"/>
      <path id="Path_700" data-name="Path 700" d="M117.807,309.953c-5.341,0-9.65-1.975-9.65-4.489v-.09c0,2.514-4.309,4.489-9.65,4.489s-9.65-1.93-9.65-4.444c0,2.513-4.085,4.489-9.426,4.489S70,307.934,70,305.42v2.693c0,2.514,4.085,4.489,9.426,4.489s9.426-1.975,9.426-4.489c0,2.514,4.309,4.489,9.65,4.489s9.65-1.975,9.65-4.489v.045c0,2.514,4.309,4.488,9.65,4.488s9.65-1.975,9.65-4.488v-2.693C127.457,307.979,123.148,309.953,117.807,309.953Z" transform="translate(-69.913 -282.169)" fill="#a8b400"/>
      <path id="Path_701" data-name="Path 701" d="M117.807,415.739c-5.341,0-9.65-1.975-9.65-4.489,0,2.514-4.309,4.489-9.65,4.489s-9.65-1.975-9.65-4.489c0,2.514-4.085,4.489-9.426,4.489S70,413.764,70,411.25v2.693c0,2.514,4.085,4.489,9.426,4.489s9.426-1.975,9.426-4.489c0,2.514,4.309,4.489,9.65,4.489s9.65-1.975,9.65-4.489c0,2.514,4.309,4.489,9.65,4.489s9.65-1.975,9.65-4.489V411.25C127.457,413.764,123.148,415.739,117.807,415.739Z" transform="translate(-69.913 -377.182)" fill="#a8b400"/>
      <path id="Path_702" data-name="Path 702" d="M265.063,184.19c-5.341,0-9.561,1.975-9.561,4.489s4.174,4.489,9.561,4.489c5.341,0,9.561-1.975,9.561-4.489C274.579,186.165,270.4,184.19,265.063,184.19Z" transform="translate(-236.38 -173.417)" fill="#1a0f55"/>
    </g>
  </g>
</svg>
