<svg xmlns="http://www.w3.org/2000/svg" width="61.003" height="57.634" viewBox="0 0 61.003 57.634">
  <g id="coins" transform="translate(-40.186 -40.186)">
    <rect id="Rectangle_317" data-name="Rectangle 317" width="46" height="46" transform="translate(40.186 40.186)" fill="none"/>
    <path id="Path_4334" data-name="Path 4334" d="M10.1,12.839v7.729a6.018,6.018,0,0,0,2.995,4.859A18.994,18.994,0,0,0,23.432,28.1a18.994,18.994,0,0,0,10.337-2.676,6.018,6.018,0,0,0,2.995-4.859V12.839a1.739,1.739,0,0,0-3.478,0v7.729c0,.775-.626,1.407-1.478,1.986a15.457,15.457,0,0,1-8.376,2.071,15.457,15.457,0,0,1-8.376-2.071c-.852-.58-1.478-1.211-1.478-1.986V12.839a1.739,1.739,0,0,0-3.478,0Z" transform="translate(47.482 47.487)" fill="#a8b400" fill-rule="evenodd"/>
    <path id="Path_4335" data-name="Path 4335" d="M10.1,16.839v7.729a6.018,6.018,0,0,0,2.995,4.859A18.994,18.994,0,0,0,23.432,32.1a18.994,18.994,0,0,0,10.337-2.676,6.018,6.018,0,0,0,2.995-4.859V16.839a1.739,1.739,0,1,0-3.478,0v7.729c0,.775-.626,1.407-1.478,1.986a15.457,15.457,0,0,1-8.376,2.071,15.457,15.457,0,0,1-8.376-2.071c-.852-.58-1.478-1.211-1.478-1.986V16.839a1.739,1.739,0,1,0-3.478,0Z" transform="translate(47.482 51.216)" fill="#a8b400" fill-rule="evenodd"/>
    <path id="Path_4341" data-name="Path 4341" d="M10.1,16.839v7.729a6.018,6.018,0,0,0,2.995,4.859A18.994,18.994,0,0,0,23.432,32.1a18.994,18.994,0,0,0,10.337-2.676,6.018,6.018,0,0,0,2.995-4.859V16.839a1.739,1.739,0,1,0-3.478,0v7.729c0,.775-.626,1.407-1.478,1.986a15.457,15.457,0,0,1-8.376,2.071,15.457,15.457,0,0,1-8.376-2.071c-.852-.58-1.478-1.211-1.478-1.986V16.839a1.739,1.739,0,1,0-3.478,0Z" transform="translate(47.482 58.717)" fill="#a8b400" fill-rule="evenodd"/>
    <path id="Path_4342" data-name="Path 4342" d="M10.1,16.839v7.729a6.018,6.018,0,0,0,2.995,4.859A18.994,18.994,0,0,0,23.432,32.1a18.994,18.994,0,0,0,10.337-2.676,6.018,6.018,0,0,0,2.995-4.859V16.839a1.739,1.739,0,1,0-3.478,0v7.729c0,.775-.626,1.407-1.478,1.986a15.457,15.457,0,0,1-8.376,2.071,15.457,15.457,0,0,1-8.376-2.071c-.852-.58-1.478-1.211-1.478-1.986V16.839a1.739,1.739,0,1,0-3.478,0Z" transform="translate(47.482 65.717)" fill="#a8b400" fill-rule="evenodd"/>
    <path id="Path_4336" data-name="Path 4336" d="M23.432,8.1A18.992,18.992,0,0,0,13.1,10.776a6.021,6.021,0,0,0-3,4.859,6.021,6.021,0,0,0,3,4.859,18.992,18.992,0,0,0,10.335,2.676,18.992,18.992,0,0,0,10.335-2.676,6.021,6.021,0,0,0,3-4.859,6.021,6.021,0,0,0-3-4.859A18.992,18.992,0,0,0,23.432,8.1Zm0,3.478a15.483,15.483,0,0,1,8.376,2.071c.852.582,1.478,1.211,1.478,1.986s-.626,1.4-1.478,1.986a15.483,15.483,0,0,1-8.376,2.071,15.483,15.483,0,0,1-8.376-2.071c-.852-.582-1.478-1.211-1.478-1.986s.626-1.4,1.478-1.986A15.483,15.483,0,0,1,23.432,11.578Z" transform="translate(47.482 44.691)" fill="#a8b400" fill-rule="evenodd"/>
    <path id="Path_4337" data-name="Path 4337" d="M10.1,12.839v7.729a5.5,5.5,0,0,0,1.984,4.063,14.564,14.564,0,0,0,7.149,3.111,1.739,1.739,0,1,0,.609-3.424A12.441,12.441,0,0,1,15,22.515c-.821-.57-1.422-1.19-1.422-1.948V12.839a1.739,1.739,0,0,0-3.478,0Z" transform="translate(32.025 36.822)" fill="#1a206d" fill-rule="evenodd"/>
    <path id="Path_4344" data-name="Path 4344" d="M10.1,12.839v7.729a5.5,5.5,0,0,0,1.984,4.063,14.564,14.564,0,0,0,7.149,3.111,1.739,1.739,0,1,0,.609-3.424A12.441,12.441,0,0,1,15,22.515c-.821-.57-1.422-1.19-1.422-1.948V12.839a1.739,1.739,0,0,0-3.478,0Z" transform="translate(32.025 52.086)" fill="#1a206d" fill-rule="evenodd"/>
    <path id="Path_4340" data-name="Path 4340" d="M21.277,12.839v7.729a5.5,5.5,0,0,1-1.984,4.063,14.564,14.564,0,0,1-7.149,3.111,1.739,1.739,0,1,1-.609-3.424,12.441,12.441,0,0,0,4.842-1.8c.821-.57,1.422-1.19,1.422-1.948V12.839a1.739,1.739,0,1,1,3.478,0Z" transform="translate(79.911 36.822)" fill="#1a206d" fill-rule="evenodd"/>
    <path id="Path_4343" data-name="Path 4343" d="M21.277,12.839v7.729a5.5,5.5,0,0,1-1.984,4.063,14.564,14.564,0,0,1-7.149,3.111,1.739,1.739,0,1,1-.609-3.424,12.441,12.441,0,0,0,4.842-1.8c.821-.57,1.422-1.19,1.422-1.948V12.839a1.739,1.739,0,1,1,3.478,0Z" transform="translate(79.911 52.086)" fill="#1a206d" fill-rule="evenodd"/>
    <path id="Path_4338" data-name="Path 4338" d="M10.1,23.364v7.729a5.757,5.757,0,0,0,2.492,4.492,16.925,16.925,0,0,0,8.77,2.958,1.739,1.739,0,0,0,.29-3.466,13.415,13.415,0,0,1-6.921-2.234,2.4,2.4,0,0,1-1.153-1.751V23.364a1.739,1.739,0,0,0-3.478,0Zm11.529-3.746a13.4,13.4,0,0,1-6.9-2.235,2.394,2.394,0,0,1-1.152-1.747c0-.775.626-1.4,1.478-1.986a15.483,15.483,0,0,1,8.376-2.071,15.483,15.483,0,0,1,8.376,2.071c.852.582,1.478,1.211,1.478,1.986a1.739,1.739,0,1,0,3.478,0,6.021,6.021,0,0,0-3-4.859A18.992,18.992,0,0,0,23.432,8.1,18.992,18.992,0,0,0,13.1,10.776a6.021,6.021,0,0,0-3,4.859,5.751,5.751,0,0,0,2.487,4.486,16.9,16.9,0,0,0,8.749,2.96,1.738,1.738,0,1,0,.294-3.464Z" transform="translate(32.025 34.025)" fill="#1a206d" fill-rule="evenodd"/>
    <path id="Path_4339" data-name="Path 4339" d="M36.763,23.364v7.729a5.757,5.757,0,0,1-2.492,4.492,16.925,16.925,0,0,1-8.77,2.958,1.739,1.739,0,0,1-.29-3.466,13.415,13.415,0,0,0,6.921-2.234,2.4,2.4,0,0,0,1.153-1.751V23.364a1.739,1.739,0,1,1,3.478,0ZM25.234,19.617a13.4,13.4,0,0,0,6.9-2.235,2.394,2.394,0,0,0,1.152-1.747c0-.775-.626-1.4-1.478-1.986a15.483,15.483,0,0,0-8.376-2.071,15.483,15.483,0,0,0-8.376,2.071c-.852.582-1.478,1.211-1.478,1.986a1.739,1.739,0,1,1-3.478,0,6.021,6.021,0,0,1,3-4.859A18.991,18.991,0,0,1,23.432,8.1a18.991,18.991,0,0,1,10.335,2.676,6.021,6.021,0,0,1,3,4.859,5.751,5.751,0,0,1-2.487,4.486,16.9,16.9,0,0,1-8.749,2.96,1.738,1.738,0,1,1-.294-3.464Z" transform="translate(64.425 34.025)" fill="#1a206d" fill-rule="evenodd"/>
  </g>
</svg>
