<svg xmlns="http://www.w3.org/2000/svg" width="13.157" height="13.157" viewBox="0 0 13.157 13.157">
  <g id="Group_448" data-name="Group 448" transform="translate(-241.421 -257.422)">
    <path id="Vector" d="M.628,12.407a1.378,1.378,0,0,1-.975-2.353l10.4-10.4A1.378,1.378,0,0,1,12,1.6L1.6,12A1.374,1.374,0,0,1,.628,12.407Z" transform="translate(242.171 258.172)" fill="red"/>
    <path id="Vector-2" data-name="Vector" d="M11.029,12.407a1.374,1.374,0,0,1-.975-.4L-.346,1.6A1.378,1.378,0,0,1,1.6-.346L12,10.054a1.378,1.378,0,0,1-.975,2.353Z" transform="translate(242.171 258.172)" fill="red"/>
  </g>
</svg>
