<svg xmlns="http://www.w3.org/2000/svg" xmlns:xlink="http://www.w3.org/1999/xlink" width="78.945" height="84.412" viewBox="0 0 78.945 84.412">
  <defs>
    <clipPath id="clip-path">
      <rect id="Rectangle_140" data-name="Rectangle 140" width="78.945" height="84.412" fill="none"/>
    </clipPath>
    <clipPath id="clip-path-2">
      <rect id="Rectangle_133" data-name="Rectangle 133" width="78.945" height="84.412" fill="#1a0f55"/>
    </clipPath>
    <clipPath id="clip-path-3">
      <rect id="Rectangle_127" data-name="Rectangle 127" width="23.243" height="12.901" fill="none"/>
    </clipPath>
    <clipPath id="clip-path-4">
      <rect id="Rectangle_128" data-name="Rectangle 128" width="5.567" height="4.302" fill="#5d5d5d"/>
    </clipPath>
    <clipPath id="clip-path-5">
      <rect id="Rectangle_129" data-name="Rectangle 129" width="7.765" height="2.668" fill="none"/>
    </clipPath>
    <clipPath id="clip-path-6">
      <rect id="Rectangle_130" data-name="Rectangle 130" width="24.851" height="12.072" fill="#e8e8e7"/>
    </clipPath>
    <clipPath id="clip-path-7">
      <rect id="Rectangle_132" data-name="Rectangle 132" width="28.95" height="27.263" fill="none"/>
    </clipPath>
    <clipPath id="clip-path-8">
      <path id="Path_424" data-name="Path 424" d="M62.868,72.035,67.14,75.91l-5.87-.793,5.506,2.647L54.384,76.7l11.474,3.258L54.146,81.239l8.692.87,2.256,1.136L59.525,85.3,67.6,83.923l-9.872,6.8L67.6,86.794l-4.764,4.519h4.32l-.249,1.711-4.647,1.064,4.144.931,5.857-2.135,3.733,2.376.882-4.779,3.292,1.682-4.174-5.739,3.408-3-2.8-1.093,6.492-.4-4.083-.967-2.4-1.811,4.582-7.382-3.366.27L79.212,68l-5.4,3.483a44.733,44.733,0,0,0-3.937,2.557c.115.121-4.845-4.166-4.845-4.166l2.573,3.6Z" transform="translate(-54.146 -67.997)" fill="none"/>
    </clipPath>
    <linearGradient id="linear-gradient" x1="-1.224" y1="1.464" x2="-1.202" y2="1.464" gradientUnits="objectBoundingBox">
      <stop offset="0" stop-color="#fff"/>
      <stop offset="0.131" stop-color="#fcfcfc"/>
      <stop offset="0.226" stop-color="#f3f2f2"/>
      <stop offset="0.308" stop-color="#e3e3e3"/>
      <stop offset="0.384" stop-color="#cdcccd"/>
      <stop offset="0.456" stop-color="#b1b0b0"/>
      <stop offset="0.524" stop-color="#8e8c8d"/>
      <stop offset="0.59" stop-color="#656263"/>
      <stop offset="0.651" stop-color="#373334"/>
      <stop offset="0.675" stop-color="#231f20"/>
      <stop offset="0.747" stop-color="#5e5b5c"/>
      <stop offset="0.837" stop-color="#a2a1a1"/>
      <stop offset="0.912" stop-color="#d4d3d4"/>
      <stop offset="0.969" stop-color="#f3f3f3"/>
      <stop offset="1" stop-color="#fff"/>
    </linearGradient>
    <clipPath id="clip-path-9">
      <rect id="Rectangle_135" data-name="Rectangle 135" width="12.712" height="1.223" fill="#1a0f55"/>
    </clipPath>
    <clipPath id="clip-path-10">
      <rect id="Rectangle_137" data-name="Rectangle 137" width="10.326" height="1.223" fill="#1a0f55"/>
    </clipPath>
    <clipPath id="clip-path-11">
      <path id="Path_425" data-name="Path 425" d="M74.7,2.4V77.192c.836,2.137,9.576,1.416,9.684,0V2.4Z" transform="translate(-74.702 -2.4)" fill="#1a0f55"/>
    </clipPath>
  </defs>
  <g id="Group_187" data-name="Group 187" clip-path="url(#clip-path)">
    <g id="Group_178" data-name="Group 178">
      <g id="Group_177" data-name="Group 177" clip-path="url(#clip-path-2)">
        <path id="Path_347" data-name="Path 347" d="M11.475,67.358H8.107a1.146,1.146,0,0,1-1.128-.945L6.6,64.252a.928.928,0,0,1,.914-1.09h3.9a.942.942,0,0,1,.941.942v2.379a.875.875,0,0,1-.876.875" transform="translate(-2.274 -21.817)" fill="#1a0f55"/>
        <path id="Path_348" data-name="Path 348" d="M99.249,67.358h3.368a1.145,1.145,0,0,0,1.128-.945l.382-2.161a.928.928,0,0,0-.914-1.09h-3.9a.942.942,0,0,0-.941.942v2.379a.875.875,0,0,0,.876.875" transform="translate(-33.979 -21.817)" fill="#1a0f55"/>
        <path id="Path_349" data-name="Path 349" d="M16.249,69.422c-.251.366-1.083.231-1.86-.3s-1.2-1.26-.952-1.626,1.083-.231,1.86.3,1.2,1.26.952,1.626" transform="translate(-4.616 -23.242)" fill="#1a0f55"/>
        <path id="Path_350" data-name="Path 350" d="M95.958,69.422c.251.366,1.084.231,1.86-.3s1.2-1.26.952-1.626-1.084-.231-1.86.3-1.2,1.26-.952,1.626" transform="translate(-33.12 -23.242)" fill="#1a0f55"/>
        <rect id="Rectangle_117" data-name="Rectangle 117" width="0.877" height="17.482" transform="translate(9.916 59.086)" fill="#1a0f55"/>
        <rect id="Rectangle_118" data-name="Rectangle 118" width="0.877" height="17.482" transform="translate(15.019 59.086)" fill="#1a0f55"/>
        <rect id="Rectangle_119" data-name="Rectangle 119" width="0.877" height="17.482" transform="translate(13.743 59.086)" fill="#1a0f55"/>
        <path id="Path_351" data-name="Path 351" d="M24.893,90.263v17.482a1.46,1.46,0,0,0,1.545-1.356V91.618a1.46,1.46,0,0,0-1.545-1.355" transform="translate(-8.598 -31.177)" fill="#1a0f55"/>
        <rect id="Rectangle_120" data-name="Rectangle 120" width="0.877" height="17.482" transform="translate(12.467 59.086)" fill="#1a0f55"/>
        <path id="Path_352" data-name="Path 352" d="M12.179,91.618V106.39a1.459,1.459,0,0,0,1.544,1.355V90.263a1.459,1.459,0,0,0-1.544,1.355" transform="translate(-4.207 -31.177)" fill="#1a0f55"/>
        <rect id="Rectangle_121" data-name="Rectangle 121" width="0.877" height="17.482" transform="translate(11.192 59.086)" fill="#1a0f55"/>
        <path id="Path_353" data-name="Path 353" d="M14.937,90.547h-.4v17.11h.4V90.547Z" transform="translate(-5.022 -31.276)" fill="#5d5d5d"/>
        <path id="Path_354" data-name="Path 354" d="M16.887,90.547h-.4v17.11h.4V90.547Z" transform="translate(-5.695 -31.276)" fill="#5d5d5d"/>
        <path id="Path_355" data-name="Path 355" d="M18.836,90.547h-.4v17.11h.4V90.547Z" transform="translate(-6.368 -31.276)" fill="#5d5d5d"/>
        <path id="Path_356" data-name="Path 356" d="M20.785,90.547h-.4v17.11h.4V90.547Z" transform="translate(-7.041 -31.276)" fill="#5d5d5d"/>
        <path id="Path_357" data-name="Path 357" d="M22.734,90.547h-.4v17.11h.4V90.547Z" transform="translate(-7.715 -31.276)" fill="#5d5d5d"/>
        <path id="Path_358" data-name="Path 358" d="M24.683,90.547h-.4v17.11h.4V90.547Z" transform="translate(-8.388 -31.276)" fill="#5d5d5d"/>
        <rect id="Rectangle_122" data-name="Rectangle 122" width="0.877" height="17.482" transform="translate(62.129 59.303) rotate(-22.131)" fill="#1a0f55"/>
        <rect id="Rectangle_123" data-name="Rectangle 123" width="0.877" height="17.482" transform="translate(57.402 61.226) rotate(-22.131)" fill="#1a0f55"/>
        <rect id="Rectangle_124" data-name="Rectangle 124" width="0.877" height="17.482" transform="translate(58.584 60.745) rotate(-22.131)" fill="#1a0f55"/>
        <path id="Path_359" data-name="Path 359" d="M86.593,93.762l6.586,16.194a1.46,1.46,0,0,1-1.942-.674L85.673,95.6a1.46,1.46,0,0,1,.92-1.837" transform="translate(-29.561 -32.386)" fill="#1a0f55"/>
        <rect id="Rectangle_125" data-name="Rectangle 125" width="0.877" height="17.482" transform="translate(59.765 60.265) rotate(-22.131)" fill="#1a0f55"/>
        <path id="Path_360" data-name="Path 360" d="M98.659,90.467l5.565,13.684a1.459,1.459,0,0,1-.92,1.837L96.718,89.793a1.459,1.459,0,0,1,1.941.674" transform="translate(-33.407 -30.971)" fill="#1a0f55"/>
        <rect id="Rectangle_126" data-name="Rectangle 126" width="0.877" height="17.482" transform="translate(60.947 59.784) rotate(-22.131)" fill="#1a0f55"/>
        <path id="Path_361" data-name="Path 361" d="M96.261,90.275l.37-.151.109.268,6.228,15.314.109.268-.37.151-.109-.268L96.37,90.542Z" transform="translate(-33.249 -31.129)" fill="#5d5d5d"/>
        <path id="Path_362" data-name="Path 362" d="M94.455,91.009l.369-.151.109.268,6.228,15.314.109.268-.37.151-.109-.268L94.564,91.277Z" transform="translate(-32.626 -31.383)" fill="#5d5d5d"/>
        <path id="Path_363" data-name="Path 363" d="M92.65,91.743l.369-.15.109.268,6.228,15.313.109.268-.369.15-.109-.268L92.759,92.011Z" transform="translate(-32.002 -31.637)" fill="#5d5d5d"/>
        <path id="Path_364" data-name="Path 364" d="M90.845,92.478l.369-.15.109.268,6.228,15.314.109.268-.369.151-.109-.268L90.954,92.746Z" transform="translate(-31.378 -31.891)" fill="#5d5d5d"/>
        <path id="Path_365" data-name="Path 365" d="M89.039,93.212l.37-.151.109.268,6.228,15.314.109.268-.37.151-.109-.268L89.148,93.48Z" transform="translate(-30.755 -32.144)" fill="#5d5d5d"/>
        <path id="Path_366" data-name="Path 366" d="M87.233,93.946l.37-.151.109.268,6.228,15.314.109.268-.37.151-.109-.268L87.342,94.214Z" transform="translate(-30.131 -32.398)" fill="#5d5d5d"/>
        <path id="Path_367" data-name="Path 367" d="M40.58,41.544q-9.561,0-19.22.706a3.614,3.614,0,0,0-3,2.211l-.056.1a39.062,39.062,0,0,0-3.691,10.36h0l-.031.168c-.011.06-.022.12-.033.179l-.519,2.848c-.259,1.784-.865,1.934-1.008,1.993-.852.349-3.338,1.645-3.338,5.908l.749,14.778c0,1.627,1.815,3.814,3.131,3.814A222.86,222.86,0,0,0,40.58,86.122q5.158.017,10.27-.19c.918-.037,2.318-1.194,3.234-1.242,2.328-.123,3.634-1.04,5.851-.353,2.129.659,2.537,1.509,4.875,1.231,1.316,0,5.344-3.81,5.344-5.437l1.325-14.114c0-4.263-2.486-5.559-3.338-5.908-.142-.058-.748-.208-1.007-1.993l-.519-2.848c-.01-.06-.022-.119-.033-.179l-.031-.168h0a39.039,39.039,0,0,0-3.691-10.36l-.055-.1a3.614,3.614,0,0,0-3-2.211q-9.659-.7-19.219-.706m0,14.006-24.33-.591a37.328,37.328,0,0,1,3.47-9.641c.392-.694.77-1.451,1.72-1.5,7.278-.348,10.9-.525,18.082-.53h2.116c7.182.005,10.8.182,18.082.53.95.045,1.328.8,1.72,1.5a37.352,37.352,0,0,1,3.47,9.641Z" transform="translate(-3.344 -14.35)" fill="#a8b400"/>
        <path id="Path_368" data-name="Path 368" d="M68.511,57.406c.079.755-.761,1.337-1.7,1.29q-10.934-.519-21.89-.514H42.855q-10.95,0-21.89.514c-.939.047-1.778-.535-1.7-1.29a34.644,34.644,0,0,1,3.724-11.26c.388-.677.76-1.417,1.7-1.458,7.29-.346,10.867-.519,18.167-.519h2.37c7.1.005,10.673.179,17.863.519.939.042,1.311.782,1.7,1.458A35.027,35.027,0,0,1,68.469,57.07c.016.115.031.226.042.336" transform="translate(-6.653 -15.256)" fill="#c2fcff"/>
        <path id="Path_369" data-name="Path 369" d="M49.077,100.464l-.927.024q-7.164.174-15-.06a2.752,2.752,0,0,1-2.842-2.562V91.019a1.664,1.664,0,0,1,1.856-1.464l23.1.549,1,.5,1.792.263,1.093.022,4.57-.583a1.371,1.371,0,0,1,1.374,1.32v5.847a2.312,2.312,0,0,1-2.12,2.289c-1.384.115-1.788.151-3.209.24-.086.005-.435-.958-.846-.244-.134.008-1.644.084-1.779.092-2.639.156-4.379.526-7.15.593l-.919.02" transform="translate(-10.47 -30.933)" fill="#9ea205"/>
        <path id="Path_370" data-name="Path 370" d="M21.35,83.063l-8.045-.338c-.615-.025-.959-.488-1.221-1.13a29.832,29.832,0,0,1-.37-5.861,1.4,1.4,0,0,1,1.306-1.424l2.106-.139a3.179,3.179,0,0,1,2.839,1.387l4.154,6.123a.885.885,0,0,1-.769,1.38" transform="translate(-4.043 -25.617)" fill="#1a0f55"/>
        <path id="Path_371" data-name="Path 371" d="M88.2,83.532l1.7-1.073,2.482-.6,3.643-.216c.6-.145.847-.664.979-1.345a29.861,29.861,0,0,0-.775-5.821,1.4,1.4,0,0,0-1.557-1.143l-2.093.272a3.179,3.179,0,0,0-2.516,1.912L89.3,79.348l-2.125,2.978A.885.885,0,0,0,88.2,83.532" transform="translate(-30.085 -25.325)" fill="#1a0f55"/>
        <path id="Path_372" data-name="Path 372" d="M21.44,98.724l-5.618-.516A1.844,1.844,0,0,1,14,96.812l-.4-4.12c-.035-.353.365-.65.854-.634l7.2.223c.52.016.931.326.931.7V98c0,.439-.532.778-1.134.723" transform="translate(-4.695 -31.797)" fill="#1a0f55"/>
        <path id="Path_373" data-name="Path 373" d="M87.936,98.9l5.487-1.312c.968-.232,1.642-.919,1.608-1.643l-.19-4.135c-.016-.355-.453-.591-.935-.506l-7.091,1.247c-.513.09-.875.456-.822.828l.716,4.967c.062.435.638.695,1.226.554" transform="translate(-29.701 -31.532)" fill="#1a0f55"/>
        <path id="Path_374" data-name="Path 374" d="M86.326,96.627a.663.663,0,0,1-.634-.723l.145-1.566c.029-.32.4-.551.847-.524l6.137.376c.418.026.733.309.676.607l-.272,1.419a.807.807,0,0,1-.824.654Z" transform="translate(-29.598 -32.403)" fill="#fff"/>
        <path id="Path_375" data-name="Path 375" d="M35.039,41.846l-5.612.206-.014-.377a.431.431,0,0,1,.4-.442c1.686-.129,3.283-.181,4.805-.176a.414.414,0,0,1,.41.4Z" transform="translate(-10.159 -14.181)" fill="#e94e1b"/>
        <path id="Path_376" data-name="Path 376" d="M75.759,41.846l5.612.206.014-.377a.431.431,0,0,0-.4-.442c-1.686-.129-3.283-.181-4.8-.176a.413.413,0,0,0-.41.4Z" transform="translate(-26.168 -14.181)" fill="#e94e1b"/>
        <path id="Path_377" data-name="Path 377" d="M19.047,78.047l-5.342.15c0,.132,0,.261,0,.391l5.64-.1Z" transform="translate(-4.733 -26.958)" fill="#9ea205"/>
        <path id="Path_378" data-name="Path 378" d="M91.266,78.039l5.27-.89q.039.192.077.384l-5.554.992Z" transform="translate(-31.453 -26.648)" fill="#9ea205"/>
        <path id="Path_379" data-name="Path 379" d="M18.778,77.213a2.522,2.522,0,0,0-.369-.425l-4.638.178a1.127,1.127,0,0,0-.063.389v.005l5.073-.142Z" transform="translate(-4.735 -26.523)" fill="#9ea205"/>
        <path id="Path_380" data-name="Path 380" d="M91.662,77.189a2.58,2.58,0,0,1,.279-.488l4.584-.725a1.135,1.135,0,0,1,.138.369v.005l-5,.845Z" transform="translate(-31.66 -26.242)" fill="#9ea205"/>
        <path id="Path_381" data-name="Path 381" d="M22.276,84.787l-.23-.34-7.964-.107c.019.125.033.255.055.376l.008.018,8.187.164a.718.718,0,0,0-.056-.113" transform="translate(-4.864 -29.132)" fill="#9ea205"/>
        <path id="Path_382" data-name="Path 382" d="M88.068,85.2l.16-.378,7.792-1.65c.005.126.017.257.02.38l0,.02-8,1.75a.687.687,0,0,1,.032-.121" transform="translate(-30.408 -28.728)" fill="#9ea205"/>
        <path id="Path_383" data-name="Path 383" d="M19.612,79.32l-5.911.109c0,.133.009.261.012.392l6.2-.06Z" transform="translate(-4.732 -27.398)" fill="#9ea205"/>
        <path id="Path_384" data-name="Path 384" d="M90.664,79.375l5.819-1.039c.025.13.043.257.065.387l-6.092,1.144Z" transform="translate(-31.245 -27.058)" fill="#9ea205"/>
        <path id="Path_385" data-name="Path 385" d="M18.048,76.033a2.577,2.577,0,0,0-1.41-.318l-1.708.113a1.131,1.131,0,0,0-.749.354Z" transform="translate(-4.898 -26.151)" fill="#9ea205"/>
        <path id="Path_386" data-name="Path 386" d="M92.762,75.924a2.574,2.574,0,0,1,1.322-.586l1.7-.221a1.131,1.131,0,0,1,.8.2Z" transform="translate(-32.041 -25.943)" fill="#9ea205"/>
        <path id="Path_387" data-name="Path 387" d="M20.195,80.6l-6.455.062c.005.13.007.264.014.392l6.742-.01Z" transform="translate(-4.746 -27.841)" fill="#9ea205"/>
        <path id="Path_388" data-name="Path 388" d="M90.058,80.724,96.4,79.532c.02.13.045.261.062.388l-6.616,1.3Z" transform="translate(-31.035 -27.471)" fill="#9ea205"/>
        <path id="Path_389" data-name="Path 389" d="M14.5,85.565a.943.943,0,0,0,.774.492l6.525.274a.713.713,0,0,0,.734-.6Z" transform="translate(-5.007 -29.555)" fill="#9ea205"/>
        <path id="Path_390" data-name="Path 390" d="M95.922,84.452a.942.942,0,0,1-.663.632L88.91,86.619a.711.711,0,0,1-.837-.45Z" transform="translate(-30.421 -29.17)" fill="#9ea205"/>
        <path id="Path_391" data-name="Path 391" d="M21.711,83.623l-.306-.451-7.5-.046c.015.134.036.262.053.393Z" transform="translate(-4.805 -28.712)" fill="#9ea205"/>
        <path id="Path_392" data-name="Path 392" d="M88.622,83.947l.212-.5,7.344-1.5c.012.135.016.264.024.4Z" transform="translate(-30.611 -28.304)" fill="#9ea205"/>
        <path id="Path_393" data-name="Path 393" d="M20.793,81.9l-6.986.011c.01.132.022.262.034.393l7.256.045Z" transform="translate(-4.769 -28.287)" fill="#9ea205"/>
        <path id="Path_394" data-name="Path 394" d="M89.449,82.08,96.3,80.735c.016.132.03.261.044.391l-7.109,1.452Z" transform="translate(-30.823 -27.886)" fill="#9ea205"/>
        <path id="Path_395" data-name="Path 395" d="M93.764,77.566a1.983,1.983,0,0,1,1.447-1.2,2.049,2.049,0,0,1,.795,4.018c-.017,0-.034,0-.05.005a3.1,3.1,0,0,0-.05-.516,2.974,2.974,0,0,0-2.141-2.3" transform="translate(-32.387 -26.364)" fill="#fff"/>
        <path id="Path_396" data-name="Path 396" d="M88.465,82.713l1.755-4.28c.065-.018.124-.046.191-.059a2.811,2.811,0,0,1,1.283.052,2.974,2.974,0,0,1,2.14,2.3,3.091,3.091,0,0,1,.05.516,2.975,2.975,0,0,1-1.036,2.338l-2.482.6a2.951,2.951,0,0,1-1.9-1.475" transform="translate(-30.556 -27.053)" fill="#fff"/>
        <path id="Path_397" data-name="Path 397" d="M88.465,82.713l1.755-4.28c.065-.018.124-.046.191-.059a2.811,2.811,0,0,1,1.283.052,2.974,2.974,0,0,1,2.14,2.3,3.091,3.091,0,0,1,.05.516,2.975,2.975,0,0,1-1.036,2.338l-2.482.6a2.951,2.951,0,0,1-1.9-1.475" transform="translate(-30.556 -27.053)" fill="#fff"/>
        <path id="Path_398" data-name="Path 398" d="M61.282,57.555c-15.746,0-29.523-4.98-37.1-12.423a2.726,2.726,0,0,0-1.2,1.347,34.636,34.636,0,0,0-3.725,11.259c-.079.757.76,1.337,1.7,1.292q10.937-.516,21.894-.516h2.063q10.951,0,21.894.516c.938.045,1.779-.535,1.7-1.292-.019-.175-.043-.356-.069-.538-2.33.23-4.72.355-7.161.355" transform="translate(-6.652 -15.589)" fill="#b8eff2"/>
        <path id="Path_399" data-name="Path 399" d="M79.905,61.211l-16.05,3.122v-.007a.517.517,0,0,1,.409-.606L79.3,60.795a.518.518,0,0,1,.607.41Z" transform="translate(-22.052 -20.996)" fill="#1a0f55"/>
        <path id="Path_400" data-name="Path 400" d="M74.278,63,66.75,65.248l-.168-.5,7.606-2.02Z" transform="translate(-22.998 -21.668)" fill="#1a0f55"/>
        <path id="Path_401" data-name="Path 401" d="M65.957,66.232a.514.514,0,1,0,.4-.509.463.463,0,0,0-.4.509" transform="translate(-22.779 -22.696)" fill="#5d5d5d"/>
        <path id="Path_402" data-name="Path 402" d="M52.9,65.069l-16.345.441V65.5a.517.517,0,0,1,.5-.531l15.31-.414a.519.519,0,0,1,.532.5Z" transform="translate(-12.626 -22.299)" fill="#1a0f55"/>
        <path id="Path_403" data-name="Path 403" d="M38.574,66.429a.513.513,0,1,0,.478-.437.463.463,0,0,0-.478.437" transform="translate(-13.323 -22.794)" fill="#5d5d5d"/>
        <path id="Path_404" data-name="Path 404" d="M47.181,65.222l-7.8.983-.084-.518,7.835-.743Z" transform="translate(-13.575 -22.432)" fill="#1a0f55"/>
        <path id="Path_405" data-name="Path 405" d="M22.369,95.477a.663.663,0,0,0,.7-.662V93.243c0-.322-.35-.586-.8-.6l-6.146-.19c-.418-.012-.759.24-.729.542l.14,1.437a.807.807,0,0,0,.76.727Z" transform="translate(-5.317 -31.933)" fill="#e8e8e7"/>
        <path id="Path_406" data-name="Path 406" d="M17.541,77.755a1.98,1.98,0,0,0-1.653-.9,2.049,2.049,0,0,0,0,4.1c.017,0,.033-.005.051-.005a2.944,2.944,0,0,1,1.6-3.192" transform="translate(-4.798 -26.547)" fill="#e8e8e7"/>
        <path id="Path_407" data-name="Path 407" d="M23,81.832l-2.552-3.858c-.067,0-.13-.02-.2-.02a2.816,2.816,0,0,0-1.248.3,2.974,2.974,0,0,0-1.654,2.676,3.043,3.043,0,0,0,.051.516,2.975,2.975,0,0,0,1.47,2.093l2.553.11A2.947,2.947,0,0,0,23,81.832" transform="translate(-5.994 -26.926)" fill="#e8e8e7"/>
        <path id="Path_408" data-name="Path 408" d="M23,81.832l-2.552-3.858c-.067,0-.13-.02-.2-.02a2.816,2.816,0,0,0-1.248.3,2.974,2.974,0,0,0-1.654,2.676,3.043,3.043,0,0,0,.051.516,2.975,2.975,0,0,0,1.47,2.093l2.553.11A2.947,2.947,0,0,0,23,81.832" transform="translate(-5.994 -26.926)" fill="#e8e8e7"/>
        <path id="Path_409" data-name="Path 409" d="M64.234,92.828a.528.528,0,0,0,.539-.527.549.549,0,0,0-.539-.545l-4.491.168L33.4,91.159a.658.658,0,0,0-.718.6.686.686,0,0,0,.718.628l26.345.25Z" transform="translate(-11.288 -31.487)" fill="#fff"/>
        <path id="Path_410" data-name="Path 410" d="M33.392,93.936a.669.669,0,0,0-.729.6.676.676,0,0,0,.707.633c1.475.086,15.225.206,16.518.214.8,0,5.961-.374,9.848-.378,2.339,0,4.085.384,4.508.362a.532.532,0,0,0,.531-.539.545.545,0,0,0-.547-.533c-.429.021-2.1.02-4.492.01-3.865-.018-9.062-.061-9.848-.069-1.286-.014-15.029-.206-16.5-.3" transform="translate(-11.282 -32.446)" fill="#fff"/>
        <path id="Path_411" data-name="Path 411" d="M33.385,96.714a.678.678,0,0,0-.74.6.665.665,0,0,0,.7.636c2.932.149,13.938.2,16.54.194,1.61,0,6.243-.278,9.848-.34,2.087-.036,3.693.157,4.525.106a.536.536,0,1,0-.033-1.072c-.847.047-2.344.328-4.492.354-3.57.041-8.269-.19-9.848-.2-2.588-.007-13.58-.116-16.5-.279" transform="translate(-11.276 -33.406)" fill="#fff"/>
        <path id="Path_412" data-name="Path 412" d="M33.379,99.431a.69.69,0,0,0-.751.592.656.656,0,0,0,.686.64c4.372.189,12.636.216,16.562.175,2.39-.025,6.554-.363,9.848-.478,1.928-.067,3.278.112,4.54.025a.542.542,0,0,0,.515-.564.535.535,0,0,0-.564-.507c-1.251.079-2.581.713-4.492.77-3.291.1-7.462-.407-9.848-.394-3.906.021-12.149-.049-16.5-.26" transform="translate(-11.27 -34.304)" fill="#fff"/>
        <path id="Path_413" data-name="Path 413" d="M49.87,103.469c3.234-.06,6.8-.338,9.848-.506,1.688-.093,2.925-.041,4.557-.166a.546.546,0,0,0,.507-.575.531.531,0,0,0-.572-.494c-1.642.117-3,.559-4.7.644-3.02.15-6.442-.092-9.643-.05q-7.858.106-16.5-.24a.7.7,0,0,0-.762.588.646.646,0,0,0,.676.645q8.692.307,16.583.155" transform="translate(-11.264 -35.137)" fill="#fff"/>
        <path id="Path_414" data-name="Path 414" d="M56.331,92.6c-.435,0-1.049-1.174-1.049-1.922s.614-.787,1.049-.787,1.049.039,1.049.787S56.765,92.6,56.331,92.6" transform="translate(-19.095 -31.049)" fill="#fff"/>
        <path id="Path_415" data-name="Path 415" d="M56.492,92.412c-.308,0-.743-.832-.743-1.362s.435-.557.743-.557.743.027.743.557-.435,1.362-.743,1.362" transform="translate(-19.256 -31.257)" fill="#1a0f55"/>
        <g id="Group_162" data-name="Group 162" transform="translate(38.573 28.913)" opacity="0.5">
          <g id="Group_161" data-name="Group 161">
            <g id="Group_160" data-name="Group 160" clip-path="url(#clip-path-3)">
              <path id="Path_416" data-name="Path 416" d="M82.17,57.071c-11.066-.535-20.233-5.811-23.243-12.9,7.1.005,10.673.178,17.863.519.939.042,1.311.782,1.7,1.458A35.047,35.047,0,0,1,82.17,57.071" transform="translate(-58.927 -44.17)" fill="#fff"/>
            </g>
          </g>
        </g>
        <path id="Path_417" data-name="Path 417" d="M60.753,80.086H34.317v4.169l17.132.877,5.593-.123,3.711.123Z" transform="translate(-11.853 -27.662)" fill="#9ea205"/>
        <path id="Path_418" data-name="Path 418" d="M30.69,79.965c-1.655,0-3.727-.155-4.625-1.423l-6.352-8.96a.753.753,0,0,1,.643-1.166q6.295-.372,12.57-.55c.072,0,.278-.29.35-.292,3.692-.1,7.245-.283,10.926-.285s7.235.182,10.926.285c.073,0,1.385,2.274,1.458,2.277.466.013.823-.059,1.289-.044,1.411.045,1.8-.453,3.213-.393,2.309.1,4.647-1.134,6.961-1a.753.753,0,0,1,.643,1.166l-7.516,8.066c-.484.682.01,2.113-.763,2.463a5.27,5.27,0,0,1-2.171.465L57.2,79.635H54.75l-2.01-.9Z" transform="translate(-6.763 -23.242)" fill="#9ea205"/>
        <path id="Path_419" data-name="Path 419" d="M50.646,66.856c-3.925,0-7.192.06-11.069.26-.666.111-.926.748-.633,1.623l3.263,10.278L39.676,68.544c-.051-.574.11-.9.678-.944,3.508-.26,6.736-.263,10.292-.264s7.068.713,10.576.973c.568.043.444-.339.394.235L58.295,78.582l4.712-9.1a1.8,1.8,0,0,0-1.231-2.054c-3.876-.2-7.2-.572-11.129-.568" transform="translate(-13.411 -23.092)" fill="#e8e8e7"/>
        <g id="Group_165" data-name="Group 165" transform="translate(57.065 52.246)" opacity="0.4">
          <g id="Group_164" data-name="Group 164">
            <g id="Group_163" data-name="Group 163" clip-path="url(#clip-path-4)">
              <path id="Path_420" data-name="Path 420" d="M87.87,82.863c.178-.14.359-.42.543-.244.169.16.338.319.506.48s.34.334.507.5c.056.057.429-.141.513-.2.09.14.27.617.394.682.179.094.676-.028.885-.037-.255-.043-.513-.079-.767-.132a1.655,1.655,0,0,1-.243-.42c-.06-.188-.057-.459-.181-.514-.194-.086-.428.426-.557.31a6.291,6.291,0,0,1-.547-.918,3.771,3.771,0,0,0,1.2.431c.2.032.782-.419.952-.522s.472.971.6.9l1.064-.54c-.336.111-.67.228-1.01.328-.064-.03-.128-.381-.154-.456-.084-.25-.275-.3-.367-.551-.372.144-.643.415-1.019.551-.26.093-1.115-.467-1.377-.551.1-.08.594-.677.7-.649a9.147,9.147,0,0,1,.964.468c.11-.416.041-.948.137-1.367.065-.283.939-.446,1.182-.6-.342.144-.839.3-1.182.443-.293.124-.13.81-.281,1.082-.173-.118-.58-.411-.763-.516s-.2.106-.37.2-.329.175-.494.263c-.259.138-.227.116-.392-.125-.1.085-.3.334-.419.357s-.376-.12-.5-.159q-.115.485-.23.971c.433.069.454.162.695.531" transform="translate(-87.176 -79.814)" fill="#5d5d5d"/>
            </g>
          </g>
        </g>
        <g id="Group_168" data-name="Group 168" transform="translate(55.242 61.419)" opacity="0.4">
          <g id="Group_167" data-name="Group 167">
            <g id="Mask_Group_166" data-name="Mask Group 166" clip-path="url(#clip-path-5)">
              <path id="Path_421" data-name="Path 421" d="M90.963,96.317c-.325-.211-.981-.763-1.371-.7-.294.048-.837.217-1.131.262s-.624-.355-.836-.535c.133-.114.606-.819.77-.792.349.057.7.294,1.048.362.478.094.858-.249,1.279-.476-.209.075-.821.426-1.019.355-.243-.087-1.324-.607-1.492-.5-.145.095-.67.539-.806.424l-1.052-.893-.591.8.266.168-1.611-.161q-.013.5-.025,1l2.247-.105a1.013,1.013,0,0,1,.642.059c.256.162.949.759,1.2.689a10.186,10.186,0,0,0,1.153-.349,2.945,2.945,0,0,1,.8.362c.368.171.453.313.775.082l.952-.681-1.194.622" transform="translate(-84.392 -93.828)" fill="#5d5d5d"/>
            </g>
          </g>
        </g>
        <g id="Group_171" data-name="Group 171" transform="translate(36.693 31.628)" opacity="0.2">
          <g id="Group_170" data-name="Group 170">
            <g id="Group_169" data-name="Group 169" clip-path="url(#clip-path-6)">
              <path id="Path_422" data-name="Path 422" d="M70.347,58.067l-5.883-6.325-1.04.384-.729.278-.93-1.932,1.44-2.154-1.593,1.837-.217-.452-2.929-.041,2.812.211.185.453,0,.005.009.007.559,1.371-2.664.1,2.847.352.285.7,1.064-.331c.292-.089.661-.2.754-.225l4.211,5.121-3.2-1.941-3.065,1.778L60.572,54.6l-2.957.863-1.388-1.846,1.34,1.981,2.878-.685.888,1.577-1.954,1.686-2.852-.8-.471,1.242.52-1.138,2.863,1.011,2.12-1.6.537.953,3.2-1.647,6.2,4.2.538-.841-2-1.211Z" transform="translate(-56.055 -48.317)"/>
              <path id="Path_423" data-name="Path 423" d="M89.957,62.985l.031-.5.034-.686-4.316-.4-.029.577L89.807,62l.01.19.009.292.017.665,1.295-.508Z" transform="translate(-66.287 -52.834)"/>
            </g>
          </g>
        </g>
        <g id="Group_176" data-name="Group 176" transform="translate(35.444 44.51)" style="mix-blend-mode: multiply;isolation: isolate">
          <g id="Group_175" data-name="Group 175">
            <g id="Group_174" data-name="Group 174" clip-path="url(#clip-path-7)">
              <g id="Group_173" data-name="Group 173" transform="translate(0 0)">
                <g id="Group_172" data-name="Group 172" clip-path="url(#clip-path-8)">
                  <rect id="Rectangle_131" data-name="Rectangle 131" width="28.951" height="27.263" fill="url(#linear-gradient)"/>
                </g>
              </g>
            </g>
          </g>
        </g>
      </g>
    </g>
    <g id="Group_180" data-name="Group 180" transform="translate(36.187 7.077)">
      <g id="Group_179" data-name="Group 179" clip-path="url(#clip-path-9)">
        <rect id="Rectangle_134" data-name="Rectangle 134" width="12.712" height="1.223" transform="translate(0 0)" fill="#1a0f55"/>
      </g>
    </g>
    <g id="Group_182" data-name="Group 182" transform="translate(38.573 13.808)">
      <g id="Group_181" data-name="Group 181" clip-path="url(#clip-path-10)">
        <rect id="Rectangle_136" data-name="Rectangle 136" width="10.326" height="1.223" transform="translate(0 0)" fill="#1a0f55"/>
      </g>
    </g>
    <g id="Group_184" data-name="Group 184" transform="translate(48.899 1.571)">
      <g id="Group_183" data-name="Group 183" clip-path="url(#clip-path-11)">
        <rect id="Rectangle_138" data-name="Rectangle 138" width="9.684" height="76.929" transform="translate(0 0)" fill="#1a0f55"/>
      </g>
    </g>
    <g id="Group_186" data-name="Group 186">
      <g id="Group_185" data-name="Group 185" clip-path="url(#clip-path)">
        <path id="Path_426" data-name="Path 426" d="M41.669,2.767l8.919,15.448H32.75Zm0-2.767a1.827,1.827,0,0,0-1.6.922L30.353,17.754a1.845,1.845,0,0,0,1.6,2.767H51.386a1.845,1.845,0,0,0,1.6-2.767L43.266.922A1.827,1.827,0,0,0,41.669,0" transform="translate(-10.398 0)" fill="#e94e1b"/>
        <path id="Path_427" data-name="Path 427" d="M47.177,18.385a1.118,1.118,0,0,1,.795,1.913,1.112,1.112,0,0,1-1.6,0,1.13,1.13,0,0,1,0-1.581,1.077,1.077,0,0,1,.8-.331M48.2,9.279q0,.829-.033,1.755t-.083,1.888c-.033.64-.061,1.273-.083,1.9s-.033,1.206-.033,1.746a.5.5,0,0,1-.282.48,1.137,1.137,0,0,1-.53.149,1.059,1.059,0,0,1-.571-.149.52.52,0,0,1-.24-.48q0-.811-.034-1.746c-.022-.623-.046-1.256-.074-1.9s-.052-1.269-.075-1.888-.033-1.2-.033-1.755a.814.814,0,0,1,.3-.67,1.128,1.128,0,0,1,.729-.24,1.159,1.159,0,0,1,.736.24.8.8,0,0,1,.306.67" transform="translate(-15.906 -2.891)"/>
        <path id="Path_428" data-name="Path 428" d="M97.564,63.231a1,1,0,1,1-1-1,1,1,0,0,1,1,1" transform="translate(-33.005 -21.493)" fill="#d5d5d5"/>
        <path id="Path_429" data-name="Path 429" d="M94.753,51.666a1,1,0,1,1-1-1,1,1,0,0,1,1,1" transform="translate(-32.034 -17.499)" fill="#d5d5d5"/>
        <path id="Path_430" data-name="Path 430" d="M94.632,67.121a.747.747,0,1,1-.747-.747.747.747,0,0,1,.747.747" transform="translate(-32.171 -22.926)" fill="#d5d5d5"/>
        <path id="Path_431" data-name="Path 431" d="M102.21,59.76a1,1,0,1,1-1-1,1,1,0,0,1,1,1" transform="translate(-34.61 -20.294)" fill="#d5d5d5"/>
        <path id="Path_432" data-name="Path 432" d="M104.246,50.489a2.067,2.067,0,1,1-2.067-2.067,2.067,2.067,0,0,1,2.067,2.067" transform="translate(-34.579 -16.725)" fill="#d5d5d5"/>
        <path id="Path_433" data-name="Path 433" d="M98.966,57.787a1.783,1.783,0,1,1-1.782-1.836,1.81,1.81,0,0,1,1.782,1.836" transform="translate(-32.952 -19.326)" fill="#d5d5d5"/>
        <path id="Path_434" data-name="Path 434" d="M114.857,33.1a1.783,1.783,0,1,1-1.782-1.836,1.81,1.81,0,0,1,1.782,1.836" transform="translate(-38.441 -10.798)" fill="#d5d5d5"/>
        <path id="Path_435" data-name="Path 435" d="M104.45,38.069a1.783,1.783,0,1,1-1.782-1.836,1.81,1.81,0,0,1,1.782,1.836" transform="translate(-34.846 -12.515)" fill="#d5d5d5"/>
        <path id="Path_436" data-name="Path 436" d="M108.076,47.806a1.783,1.783,0,1,1-1.782-1.836,1.81,1.81,0,0,1,1.782,1.836" transform="translate(-36.099 -15.878)" fill="#d5d5d5"/>
        <path id="Path_437" data-name="Path 437" d="M102.668,54.827a2.658,2.658,0,1,1-2.656-2.737,2.7,2.7,0,0,1,2.656,2.737" transform="translate(-33.627 -17.992)" fill="#d5d5d5"/>
        <path id="Path_438" data-name="Path 438" d="M113.882,38.97a2.658,2.658,0,1,1-2.656-2.737,2.7,2.7,0,0,1,2.656,2.737" transform="translate(-37.501 -12.515)" fill="#d5d5d5"/>
        <path id="Path_439" data-name="Path 439" d="M111.212,38.97a2.658,2.658,0,1,1-2.656-2.737,2.7,2.7,0,0,1,2.656,2.737" transform="translate(-36.578 -12.515)" fill="#d5d5d5"/>
        <path id="Path_440" data-name="Path 440" d="M112.547,41.775a2.658,2.658,0,1,1-2.656-2.737,2.7,2.7,0,0,1,2.656,2.737" transform="translate(-37.039 -13.484)" fill="#d5d5d5"/>
        <path id="Path_441" data-name="Path 441" d="M102.1,53.294a2.658,2.658,0,1,1-2.656-2.737,2.7,2.7,0,0,1,2.656,2.737" transform="translate(-33.432 -17.463)" fill="#bfbfbf"/>
        <path id="Path_442" data-name="Path 442" d="M118.678,48.838a1.283,1.283,0,1,1-1.282-1.322,1.3,1.3,0,0,1,1.282,1.322" transform="translate(-40.106 -16.412)" fill="#bfbfbf"/>
        <path id="Path_443" data-name="Path 443" d="M108.978,58.538a1.283,1.283,0,1,1-1.282-1.321,1.3,1.3,0,0,1,1.282,1.321" transform="translate(-36.756 -19.763)" fill="#bfbfbf"/>
        <path id="Path_444" data-name="Path 444" d="M100.048,34.789a2.658,2.658,0,1,1-2.656-2.737,2.7,2.7,0,0,1,2.656,2.737" transform="translate(-32.722 -11.071)" fill="#d5d5d5"/>
        <path id="Path_445" data-name="Path 445" d="M103.005,24.643a4.49,4.49,0,1,1-4.488-4.623,4.557,4.557,0,0,1,4.488,4.623" transform="translate(-32.479 -6.915)" fill="#d5d5d5"/>
        <path id="Path_446" data-name="Path 446" d="M107.766,16.849a4.489,4.489,0,1,1-4.487-4.623,4.557,4.557,0,0,1,4.487,4.623" transform="translate(-34.123 -4.223)" fill="#d5d5d5"/>
        <path id="Path_447" data-name="Path 447" d="M105.253,43.15a2.658,2.658,0,1,1-2.656-2.737,2.7,2.7,0,0,1,2.656,2.737" transform="translate(-34.52 -13.959)" fill="#d5d5d5"/>
        <path id="Path_448" data-name="Path 448" d="M108.489,41.775a2.658,2.658,0,1,1-2.656-2.737,2.7,2.7,0,0,1,2.656,2.737" transform="translate(-35.638 -13.484)" fill="#d5d5d5"/>
        <path id="Path_449" data-name="Path 449" d="M116.189,30.193a3.422,3.422,0,1,1-3.42-3.524,3.472,3.472,0,0,1,3.42,3.524" transform="translate(-37.77 -9.212)" fill="#bfbfbf"/>
        <path id="Path_450" data-name="Path 450" d="M111.572,30.193a3.421,3.421,0,1,1-3.42-3.524,3.472,3.472,0,0,1,3.42,3.524" transform="translate(-36.175 -9.212)" fill="#bfbfbf"/>
        <path id="Path_451" data-name="Path 451" d="M107.947,31.576a3.421,3.421,0,1,1-3.42-3.524,3.472,3.472,0,0,1,3.42,3.524" transform="translate(-34.923 -9.689)" fill="#bfbfbf"/>
        <path id="Path_452" data-name="Path 452" d="M106.127,27.471a4.511,4.511,0,1,1-4.509-4.645,4.579,4.579,0,0,1,4.509,4.645" transform="translate(-33.542 -7.884)" fill="#a6a6a6"/>
        <path id="Path_453" data-name="Path 453" d="M112.916,22.828a3.439,3.439,0,1,1-3.437-3.541,3.49,3.49,0,0,1,3.437,3.541" transform="translate(-36.627 -6.662)" fill="#d5d5d5"/>
        <path id="Path_454" data-name="Path 454" d="M109.824,50.752a2.657,2.657,0,1,1-2.656-2.737,2.7,2.7,0,0,1,2.656,2.737" transform="translate(-36.099 -16.585)" fill="#bfbfbf"/>
        <path id="Path_455" data-name="Path 455" d="M117.8,38.97a2.658,2.658,0,1,1-2.656-2.737A2.7,2.7,0,0,1,117.8,38.97" transform="translate(-38.853 -12.515)" fill="#bfbfbf"/>
        <path id="Path_456" data-name="Path 456" d="M109.824,43.15a2.657,2.657,0,1,1-2.656-2.737,2.7,2.7,0,0,1,2.656,2.737" transform="translate(-36.099 -13.959)" fill="#a6a6a6"/>
        <path id="Path_457" data-name="Path 457" d="M100.8,46.571a2.658,2.658,0,1,1-2.656-2.737,2.7,2.7,0,0,1,2.656,2.737" transform="translate(-32.984 -15.141)" fill="#d5d5d5"/>
        <path id="Path_458" data-name="Path 458" d="M102.1,40.4a2.658,2.658,0,1,1-2.656-2.737A2.7,2.7,0,0,1,102.1,40.4" transform="translate(-33.432 -13.009)" fill="#bfbfbf"/>
        <path id="Path_459" data-name="Path 459" d="M114.6,119.133l-2.99-.682-2.256-.422,1.331-1,.094-2.775,2.211,1.833,3.137.37-1.038,1.378Z" transform="translate(-37.772 -39.465)" fill="#a8b400"/>
        <path id="Path_460" data-name="Path 460" d="M72.276,124.287l-.8-.046-.615.016.5-.676.324-1.5.451.745.878-.137-.451.848Z" transform="translate(-24.475 -42.169)" fill="#a8b400"/>
        <path id="Path_461" data-name="Path 461" d="M63.031,119.159l-.262-1.271-1.36.865.617-1.144.289-1.256,1.248,1.933,2.155-.531-.661.877Z" transform="translate(-21.211 -40.189)" fill="#a8b400"/>
        <path id="Path_462" data-name="Path 462" d="M70.714,118.816l.722-.921-1.4.191,1.151-.587,1.036-.755-.6,1.641,1.634.257-.993.4Z" transform="translate(-24.192 -40.324)" fill="#5d5d5d"/>
        <path id="Path_463" data-name="Path 463" d="M89.067,117.527l.471.9-3.051-.787.336-1.114.875.715,1.426-.451,1.3.145-.276.916Z" transform="translate(-29.873 -40.25)" fill="#a8b400"/>
        <path id="Path_464" data-name="Path 464" d="M111.98,110.9l.3.577-1.948-.5.214-.711.559.456.911-.288.833.093-.176.585Z" transform="translate(-38.109 -38.085)" fill="#a8b400"/>
        <path id="Path_465" data-name="Path 465" d="M86.5,122.663l-2.952-.893-2.023,1.664-.39-1.9,2.048-.62h2.657l1.115-1.1-.455,1.555Z" transform="translate(-28.026 -41.382)" fill="#a8b400"/>
        <path id="Path_466" data-name="Path 466" d="M100.921,118.62l1.9-.07.545-1.714.842,1.3-.9.956-1.439.652-.239,1.08-.269-1.25Z" transform="translate(-34.859 -40.356)" fill="#5d5d5d"/>
        <path id="Path_467" data-name="Path 467" d="M94.2,121.591l.6.936,1.026-.233-.405.81-.751-.173-.755-.534-.616.2.551-.507Z" transform="translate(-32.224 -41.998)" fill="#5d5d5d"/>
      </g>
    </g>
  </g>
</svg>
