<svg id="Group_249" data-name="Group 249" xmlns="http://www.w3.org/2000/svg" width="66.941" height="33.215" viewBox="0 0 66.941 33.215">
  <path id="Path_563" data-name="Path 563" d="M250.094,314.59l-7.7-10.041.007-.022-20.528.066.007.015-7.695,10.041a2.029,2.029,0,0,0,.373,2.85,2.026,2.026,0,0,0,2.85-.373l6.745-8.791,2.4,3.924,2.865.015a3.615,3.615,0,1,0,6.6,2.039,3.556,3.556,0,0,0-.607-2l2.931.015,1.98-3.8,6.548,8.535a2.033,2.033,0,0,0,3.23-2.47Zm-17.7,1.885a2.169,2.169,0,0,1-.775-4.195,2.094,2.094,0,0,1,.775-.146,2.062,2.062,0,0,1,.8.153,2.169,2.169,0,0,1-.8,4.188Z" transform="translate(-198.069 -284.715)" fill="#1a0f55"/>
  <path id="Path_564" data-name="Path 564" d="M160.459,153.873v.139s-.175,0-.49.007-.753.022-1.293.022c-1.067.007-2.485.022-3.91.029-1.425-.015-2.843-.022-3.91-.029-.453,0-.848-.015-1.147-.022v3.128h.68a1.678,1.678,0,0,1,1.673,1.673v5.554a1.672,1.672,0,0,1-1.673,1.667h-2.265a1.414,1.414,0,0,1-.307-.029l-10.838,4.048H117.722l-11.035-4.092a1.746,1.746,0,0,1-.482.073h-2.265a1.671,1.671,0,0,1-1.666-1.667v-5.554a1.677,1.677,0,0,1,1.666-1.673h.234v-2.821a3.354,3.354,0,0,1-.329.117c-.219.073-.46.161-.731.226a12.787,12.787,0,0,1-1.82.351c-.336.044-.68.081-1.03.095s-.7.029-1.06.037-.716-.007-1.06-.037c-.175-.007-.351-.022-.519-.044s-.344-.029-.5-.051a12.721,12.721,0,0,1-1.827-.358c-.27-.073-.512-.153-.731-.226a5.843,5.843,0,0,1-.563-.212c-.153-.059-.278-.124-.358-.161s-.124-.066-.124-.066v-.139s.175-.007.49-.015.753-.022,1.293-.022c1.067-.007,2.492-.022,3.91-.029s2.843.022,3.91.029c.534,0,.979.022,1.293.022s.49.015.49.015a1,1,0,0,1,.124-.066c.08-.037.2-.1.358-.161a5.784,5.784,0,0,1,.563-.212c.219-.073.46-.161.731-.226a12.717,12.717,0,0,1,1.827-.351c.168-.029.336-.044.5-.059s.344-.029.519-.044c.351-.022.7-.029,1.06-.029s.709.007,1.06.037.694.051,1.03.095a12.627,12.627,0,0,1,1.82.358c.27.066.512.153.731.226a5.174,5.174,0,0,1,.563.212c.161.059.278.124.358.161s.132.066.132.066V154s-.175,0-.49.007-.753.022-1.293.022c-1.067.007-2.485.022-3.91.029-1.425-.015-2.843-.022-3.91-.029-.453,0-.848-.015-1.147-.022v3.128h.679a1.678,1.678,0,0,1,1.674,1.674v3.26L118.46,166h.621a5.862,5.862,0,0,1,5.393-3.566h6.774a5.852,5.852,0,0,1,5.335,3.442l9.866-3.691V158.82a1.677,1.677,0,0,1,1.666-1.674h.234v-2.821a3.4,3.4,0,0,1-.329.117c-.219.073-.46.161-.731.226a12.8,12.8,0,0,1-1.82.351c-.336.044-.679.081-1.03.095s-.7.029-1.06.037-.716-.007-1.06-.037c-.175-.007-.351-.022-.519-.044s-.344-.029-.5-.051a12.72,12.72,0,0,1-1.827-.358c-.27-.073-.512-.153-.731-.226a5.86,5.86,0,0,1-.563-.212c-.153-.059-.278-.124-.358-.161S137.7,154,137.7,154v-.139s.175-.007.49-.015.753-.022,1.293-.022c1.067-.007,2.492-.022,3.91-.029s2.843.022,3.91.029c.534,0,.979.022,1.293.022s.49.015.49.015a.974.974,0,0,1,.124-.066c.08-.037.2-.1.358-.161a5.825,5.825,0,0,1,.563-.212c.219-.073.46-.16.731-.226a12.711,12.711,0,0,1,1.827-.351c.168-.029.336-.044.5-.059s.343-.029.519-.044c.351-.022.7-.029,1.06-.029s.709.007,1.06.037.694.051,1.03.095a12.62,12.62,0,0,1,1.82.358c.27.066.512.153.731.226a5.169,5.169,0,0,1,.563.212c.161.059.278.124.358.161.087.053.13.074.13.074Z" transform="translate(-93.518 -152.711)" fill="#a8b400"/>
</svg>
