<svg xmlns="http://www.w3.org/2000/svg" width="67" height="67" viewBox="0 0 67 67">
  <g id="Group_371" data-name="Group 371" transform="translate(-8438.171 -1692.171)">
    <rect id="Rectangle_210" data-name="Rectangle 210" width="67" height="67" transform="translate(8438.171 1692.171)" fill="none"/>
    <g id="insurance" transform="translate(8443.864 1697.067)">
      <path id="Path_662" data-name="Path 662" d="M42.635,25.121a.8.8,0,0,1-.795-.795V22.919a.8.8,0,0,1,.795-.795c.439,0,.795-1.233.795-.795v3A.8.8,0,0,1,42.635,25.121Zm21.9-22.033a.8.8,0,0,1-.795-.788L63.726.8a.794.794,0,0,1,.786-.8h.007a.8.8,0,0,1,.795.788l.012,1.5a.794.794,0,0,1-.787.8ZM55.812,24.815a.8.8,0,0,1-.795-.795V20.5a.795.795,0,1,1,1.589,0V24.02a.8.8,0,0,1-.795.795Zm17.621.092a.8.8,0,0,1-.795-.795V20.6a.795.795,0,1,1,1.589,0v3.517A.8.8,0,0,1,73.433,24.907Zm13,.214a.8.8,0,0,1-.795-.795v-3c0-.439.356.795.795.795a.8.8,0,0,1,.795.795v1.407a.794.794,0,0,1-.795.795ZM64.624,41.132a.8.8,0,0,1-.795-.795V21.067a.795.795,0,1,1,1.589,0v19.27a.8.8,0,0,1-.795.795Z" transform="translate(-38.201)" fill="#5d5d5d"/>
      <path id="Path_663" data-name="Path 663" d="M41.83,42.556C41.83,31.206,51.989,22,64.522,22s22.694,9.2,22.694,20.556A15.444,15.444,0,0,0,81.9,40.725a15.743,15.743,0,0,0-8.467,1.128,36.413,36.413,0,0,0-17.625-.091,16.379,16.379,0,0,0-8.653-1.037A16.051,16.051,0,0,0,41.83,42.556Z" transform="translate(-38.192 -19.669)" fill="#a8b400"/>
      <path id="Path_664" data-name="Path 664" d="M262.042,41.188a15.587,15.587,0,0,1,3.231,1.368c0-11.35-10.159-20.556-22.693-20.556q-.8,0-1.589.052C252.281,22.766,261.3,30.954,262.042,41.188Z" transform="translate(-216.249 -19.669)" fill="#1a0f55"/>
      <path id="Path_665" data-name="Path 665" d="M173.7,41.825c.841-11.7,5.23-19.737,8.721-19.755s8,8.023,8.906,19.846a36.413,36.413,0,0,0-17.625-.091Z" transform="translate(-156.089 -19.731)" fill="#1a0f55"/>
      <circle id="Ellipse_27" data-name="Ellipse 27" cx="2.401" cy="2.401" r="2.401" transform="translate(9.043 26.012)" fill="#1a0f55"/>
      <path id="Path_666" data-name="Path 666" d="M108.795,245.49a2.41,2.41,0,0,0-.795.135,2.4,2.4,0,0,1,0,4.533,2.4,2.4,0,1,0,.795-4.668Z" transform="translate(-97.351 -219.478)" fill="#1a0f55"/>
      <path id="Path_667" data-name="Path 667" d="M79.04,280.643a4.456,4.456,0,0,1-8.89,0q-.139-.585-.276-1.172a4.768,4.768,0,0,1,4.749-5.862h.157a4.768,4.768,0,0,1,4.535,5.868Z" transform="translate(-63.152 -244.617)" fill="#1a0f55"/>
      <path id="Path_668" data-name="Path 668" d="M108.609,273.631h-.157a4.889,4.889,0,0,0-.831.054,4.768,4.768,0,0,1,3.937,5.812l-.275,1.166a4.666,4.666,0,0,1-3.694,4.065,4.265,4.265,0,0,0,.424.06,4.606,4.606,0,0,0,4.864-4.125l.276-1.166a4.768,4.768,0,0,0-4.544-5.866Z" transform="translate(-96.984 -244.636)" fill="#1a0f55"/>
      <path id="Path_669" data-name="Path 669" d="M30.387,391.852v5.4H7.5v-5.4a4.155,4.155,0,0,1,2.942-3.973l2.02-.617h0l1.025-.312,1.2-.367a2.075,2.075,0,0,0,1.471-1.986v-.947h5.51v.932a2.077,2.077,0,0,0,1.471,1.986l2.225.679,2.073.636a4.155,4.155,0,0,1,2.944,3.973Z" transform="translate(-7.5 -342.998)" fill="#a8b400"/>
      <path id="Path_670" data-name="Path 670" d="M75.885,387.247a8.476,8.476,0,0,1-6.344,2.4A8.355,8.355,0,0,1,64,386.95l1.2-.367a2.07,2.07,0,0,0,.981-.646,1.975,1.975,0,0,0,.186-.261,2.062,2.062,0,0,0,.3-1.079v-.947h5.51v.932a2.069,2.069,0,0,0,.4,1.224c.029.04.06.079.092.118a2.073,2.073,0,0,0,.978.643Z" transform="translate(-58.013 -342.998)" fill="#fdd8ae"/>
      <path id="Path_671" data-name="Path 671" d="M92.547,385.8a3.915,3.915,0,0,1-3.019,2.172,3.989,3.989,0,0,1-3.2-2.3,2.063,2.063,0,0,0,.3-1.079v-.947h5.51v.932A2.07,2.07,0,0,0,92.547,385.8Z" transform="translate(-77.977 -342.989)" fill="#fbbf7d"/>
      <path id="Path_672" data-name="Path 672" d="M84.445,318.279c-.356,1.785-1.93,5.011-4.181,5.018-2.413.01-3.987-3.3-4.255-5.2-.318-2.237,1.117-3.815,3.228-5.016a6.214,6.214,0,0,0,.848.913,4.007,4.007,0,0,0,1.969.819c.61.1,1.378.106,1.758.59A3.5,3.5,0,0,1,84.445,318.279Z" transform="translate(-68.71 -279.906)" fill="#fdd8ae"/>
      <path id="Path_673" data-name="Path 673" d="M102.83,315.4c-.382-.487-1.148-.495-1.758-.59a4.005,4.005,0,0,1-1.969-.819,6.588,6.588,0,0,1-.848-.913,11.128,11.128,0,0,0-1.016.65c.131.131.243.237.271.263a4,4,0,0,0,1.969.819c.61.1,1.377.106,1.758.59a3.48,3.48,0,0,1,.636,2.877c-.318,1.576-1.577,4.269-3.414,4.888a2.625,2.625,0,0,0,.822.13c2.252-.008,3.825-3.233,4.181-5.018A3.482,3.482,0,0,0,102.83,315.4Z" transform="translate(-87.731 -279.906)" fill="#fbbf7d"/>
      <path id="Path_674" data-name="Path 674" d="M359.517,264.725h-8.189l-.758-3.5a3.513,3.513,0,0,1,3.2-4.4h.051a9.753,9.753,0,0,1,2.155.341c.433.1.936.2,1.5.3a3.573,3.573,0,0,1,2.668,4.344Q359.83,263.274,359.517,264.725Z" transform="translate(-314.139 -229.616)" fill="#1a0f55"/>
      <path id="Path_675" data-name="Path 675" d="M379.522,257.492c-.566-.106-1.068-.206-1.5-.3a9.7,9.7,0,0,0-2.155-.341h-.05a3.073,3.073,0,0,0-.676.073c.4.061.787.157,1.292.268.433.1.936.2,1.5.3a3.574,3.574,0,0,1,2.668,4.344q-.318,1.451-.628,2.9h1.589q.318-1.45.628-2.9A3.578,3.578,0,0,0,379.522,257.492Z" transform="translate(-336.185 -229.634)" fill="#1a0f55"/>
      <path id="Path_676" data-name="Path 676" d="M311.387,359.5v5.4H288.5v-5.4a4.155,4.155,0,0,1,2.942-3.973l1.957-.6.063-.019h0l2.225-.678a2.065,2.065,0,0,0,.98-.645h0a2.075,2.075,0,0,0,.489-1.339q.121-.992.244-1.985a4.08,4.08,0,0,1,1.541-2.084,2.72,2.72,0,0,1,2.463-.583,2.543,2.543,0,0,1,1.215,2.733c.023.78.041,1.408.051,1.907a2.067,2.067,0,0,0,.493,1.343l.047.054a2.079,2.079,0,0,0,.848.562l.084.028,2.225.679.119.036,1.954.6A4.155,4.155,0,0,1,311.387,359.5Z" transform="translate(-258.725 -310.645)" fill="#a8b400"/>
      <path id="Path_677" data-name="Path 677" d="M396.6,355.492l-1.954-.6-.119-.036-2.225-.679-.084-.028a2.078,2.078,0,0,1-.848-.562l-.047-.054a2.067,2.067,0,0,1-.493-1.343c-.01-.5-.028-1.124-.051-1.907a2.552,2.552,0,0,0-1.215-2.733,2.721,2.721,0,0,0-2.461.582,2.962,2.962,0,0,1,.5,2.151c.023.78.041,1.408.051,1.907a2.068,2.068,0,0,0,.493,1.343l.047.054a2.077,2.077,0,0,0,.848.562l.083.028,2.225.679.119.036,1.954.6a4.155,4.155,0,0,1,2.944,3.973v5.4h3.179v-5.4a4.154,4.154,0,0,0-2.943-3.973Z" transform="translate(-346.877 -310.612)" fill="#a8b400"/>
      <path id="Path_678" data-name="Path 678" d="M372.1,353.563l-3.221,3.184-3.274-3.172a2.076,2.076,0,0,0,.49-1.339c.017-.136.033-.27.05-.406.064-.53.129-1.052.194-1.579a4.08,4.08,0,0,1,1.541-2.084,2.72,2.72,0,0,1,2.462-.583,2.542,2.542,0,0,1,1.215,2.733c.018.6.033,1.106.043,1.534,0,.131.005.254.008.37A2.067,2.067,0,0,0,372.1,353.563Z" transform="translate(-327.656 -310.636)" fill="#fdd8ae"/>
      <path id="Path_679" data-name="Path 679" d="M376.146,351.89a3.107,3.107,0,0,1-5.456-.021c.064-.53.129-1.052.194-1.579a4.081,4.081,0,0,1,1.541-2.084,2.72,2.72,0,0,1,2.462-.583,2.543,2.543,0,0,1,1.215,2.733C376.12,350.949,376.135,351.458,376.146,351.89Z" transform="translate(-332.206 -310.672)" fill="#fbbf7d"/>
      <path id="Path_680" data-name="Path 680" d="M366.477,305.052c0,2.091-1.8,5.14-4.032,5.14s-4.026-3.049-4.026-5.14v-1.5a1.794,1.794,0,0,1,.469-1.6c.675-.567,1.589,0,2.416-.582a1.766,1.766,0,0,1,2.322-.181c.9.626,1.737.159,2.386.763a1.859,1.859,0,0,1,.469,1.6Z" transform="translate(-321.226 -268.957)" fill="#fdd8ae"/>
      <path id="Path_681" data-name="Path 681" d="M393.367,301.988c-.649-.6-1.483-.137-2.386-.763a1.587,1.587,0,0,0-1.808-.135,2.261,2.261,0,0,1,.218.135c.9.626,1.737.159,2.386.763a1.858,1.858,0,0,1,.469,1.6v1.5c0,1.834-1.391,4.408-3.237,5.01a2.533,2.533,0,0,0,.795.13c2.225,0,4.032-3.049,4.032-5.14v-1.5A1.868,1.868,0,0,0,393.367,301.988Z" transform="translate(-348.585 -268.989)" fill="#fbbf7d"/>
      <path id="Path_682" data-name="Path 682" d="M341.212,407.161l-2.9,2.331a.742.742,0,0,1-1.024-.09l-2.549-2.9.063-.019h0l2.225-.678a2.064,2.064,0,0,0,.98-.646Zm6.618-.656-2.625,2.9a.742.742,0,0,1-1.022.089l-2.9-2.331,3.221-2.013.047.054a2.077,2.077,0,0,0,.848.562l.084.028,2.225.679Z" transform="translate(-300.065 -362.22)" fill="#1a0f55"/>
      <path id="Path_683" data-name="Path 683" d="M390.589,424.925v8.41a.717.717,0,0,1-.008.106h-1.574a.708.708,0,0,1-.008-.106v-8.41a.795.795,0,1,1,1.589,0Z" transform="translate(-348.576 -379.189)" fill="#1a0f55"/>
      <path id="Path_684" data-name="Path 684" d="M223.154,314.135H216l-.662-2.809a2.872,2.872,0,0,1,2.793-3.536h.043a9.193,9.193,0,0,1,1.882.274c.379.076.817.159,1.312.242a2.879,2.879,0,0,1,2.331,3.5Z" transform="translate(-193.25 -275.177)" fill="#1a0f55"/>
      <path id="Path_685" data-name="Path 685" d="M239.921,308.306c-.495-.083-.933-.165-1.312-.242a9.188,9.188,0,0,0-1.882-.274h-.043a2.863,2.863,0,0,0-.674.076c.306.05.619.119,1.01.2s.817.159,1.312.242a2.879,2.879,0,0,1,2.331,3.5l-.549,2.331H241.7l.549-2.331a2.879,2.879,0,0,0-2.331-3.5Z" transform="translate(-211.797 -275.176)" fill="#1a0f55"/>
      <path id="Path_686" data-name="Path 686" d="M161.525,433.139v5.4H154.18v-4.5a3.34,3.34,0,0,1,2.366-3.194l1.623-.5.75-.228.962-.294A4.152,4.152,0,0,1,161.525,433.139Z" transform="translate(-138.638 -384.285)" fill="#a9ae08"/>
      <path id="Path_687" data-name="Path 687" d="M295.844,434.051v4.495H288.5v-5.4a4.155,4.155,0,0,1,1.642-3.307l1.579.481.093.029,1.666.508A3.34,3.34,0,0,1,295.844,434.051Z" transform="translate(-258.725 -384.294)" fill="#a2a707"/>
      <path id="Path_688" data-name="Path 688" d="M187.578,413.944v4.495h-18.4v-4.5a3.34,3.34,0,0,1,2.366-3.194l1.623-.5.75-.228,1.039-.318a1.666,1.666,0,0,0,1.182-1.6v-.761h4.431v.749a1.67,1.67,0,0,0,1.182,1.6l1.7.517.093.029,1.666.508A3.34,3.34,0,0,1,187.578,413.944Z" transform="translate(-152.048 -364.187)" fill="#a8b400"/>
      <path id="Path_689" data-name="Path 689" d="M267.946,410.759l-1.666-.507-.093-.029-1.7-.517a1.67,1.67,0,0,1-1.182-1.6v-.749H261.72v.749a1.67,1.67,0,0,0,1.182,1.6l1.7.517.093.029,1.666.507a3.34,3.34,0,0,1,2.366,3.194v4.495h1.589v-4.495A3.34,3.34,0,0,0,267.946,410.759Z" transform="translate(-234.783 -364.196)" fill="#a8b400"/>
      <path id="Path_690" data-name="Path 690" d="M223.445,410.243a6.827,6.827,0,0,1-5.1,1.932,6.741,6.741,0,0,1-4.437-2.149l1.039-.318a1.667,1.667,0,0,0,1.182-1.6v-.761h4.431v.749a1.662,1.662,0,0,0,.055.424,1.611,1.611,0,0,0,.129.337,1.728,1.728,0,0,0,.212.318,1.675,1.675,0,0,0,.786.517l1.7.517Z" transform="translate(-192.039 -364.187)" fill="#fdd8ae"/>
      <path id="Path_691" data-name="Path 691" d="M234.87,408.191H239.3v.749a1.662,1.662,0,0,0,.184.762,1.322,1.322,0,0,0,.212.318,1.283,1.283,0,0,0,.784.37l1.308.2a1.652,1.652,0,0,0,.4-.336v-.029l-1.7-.517a1.676,1.676,0,0,1-.786-.517,1.729,1.729,0,0,1-.212-.318,1.659,1.659,0,0,1-.184-.762v-.749H234.87Z" transform="translate(-210.778 -364.196)" fill="#fbbf7d"/>
      <path id="Path_692" data-name="Path 692" d="M238.981,408.534a3.563,3.563,0,0,1-4.531-.029,1.658,1.658,0,0,0,.045-.385v-.761h4.431v.749A1.661,1.661,0,0,0,238.981,408.534Z" transform="translate(-210.402 -364.196)" fill="#fbbf7d"/>
      <path id="Path_693" data-name="Path 693" d="M229.391,348a3.567,3.567,0,1,1-7.133,0v-1.412a1.753,1.753,0,0,1,.415-1.5c.6-.535,1.407,0,2.137-.549s1.308-.725,2.055-.171c.8.59,1.536.149,2.111.72a1.83,1.83,0,0,1,.415,1.5Z" transform="translate(-199.493 -307.573)" fill="#fdd8ae"/>
      <path id="Path_694" data-name="Path 694" d="M252.449,345.1c-.574-.57-1.315-.129-2.111-.719a1.358,1.358,0,0,0-1.7-.073c.035.023.07.047.106.073.8.59,1.536.149,2.111.719a1.829,1.829,0,0,1,.415,1.5v1.412A3.566,3.566,0,0,1,248.5,351.5a3.565,3.565,0,0,0,4.361-3.477v-1.411A1.833,1.833,0,0,0,252.449,345.1Z" transform="translate(-222.967 -307.593)" fill="#fbbf7d"/>
    </g>
  </g>
</svg>
