<svg xmlns="http://www.w3.org/2000/svg" width="303.629" height="218.399" viewBox="0 0 303.629 218.399">
  <g id="File_not_Found" data-name="File not Found" transform="translate(-98.135 -220.509)">
    <g id="File_not_Found-2" data-name="File not Found" transform="translate(98.135 220.509)">
      <g id="Background" transform="translate(0)">
        <path id="Path_794" data-name="Path 794" d="M382.557,456.224c-.246,1.682-.455,2.727-.506,2.967a71.356,71.356,0,0,1-6.186,17.441v0q-1.2,2.374-2.567,4.679a89.505,89.505,0,0,1-9.095,12.629q-3.091,3.614-6.59,7.007c-10.1,9.823-22.534,18.224-36.181,25.018q-3.845,1.917-7.813,3.657a196.255,196.255,0,0,1-25.791,9.218q-2.734.769-5.475,1.456c-3.175.8-6.364,1.518-9.546,2.15q-6.449,1.287-12.851,2.119c-5.458.711-10.869,1.162-16.173,1.357a184.073,184.073,0,0,1-19-.321c-3.244-.212-6.535-.513-9.854-.9a.029.029,0,0,1-.024,0q-4.414-.507-8.886-1.217c-.813-.13-1.627-.267-2.444-.4-5.52-.947-11.057-2.129-16.535-3.555-.1-.024-.2-.048-.3-.079a1.446,1.446,0,0,1-.164-.041q-.231-.056-.461-.123c-4.881-1.292-9.7-2.779-14.42-4.467-3.319-1.186-6.586-2.474-9.775-3.866q-2.276-.989-4.494-2.051-2.03-.969-4.013-2a105.563,105.563,0,0,1-21.163-14.235,79.193,79.193,0,0,1-7.868-7.953,65.4,65.4,0,0,1-9.286-14.129,59.084,59.084,0,0,1-3.1-7.786q-.528-1.656-.967-3.37a72.006,72.006,0,0,1-2.16-15.934q-.051-1.933,0-3.883a74.482,74.482,0,0,1,1.555-13.459c2.457-11.672,7.827-22.469,16.429-29.67,14.813-12.407,37.681-12.858,51.848-11.675,5.52.461,9.72,1.169,11.607,1.518,2.806.516,5.554,1.155,8.333,1.825,10.3,2.478,21.03,5.342,36.656,3.585a113.229,113.229,0,0,0,17.677-3.756,153.456,153.456,0,0,0,22.664-8.1l.974-.444c.831-.386,1.63-.766,2.413-1.145.2-.1.4-.195.595-.291,1.576-.772,3.062-1.535,4.484-2.28h.007l.15-.082c.195-.1.386-.2.578-.3a.283.283,0,0,0,.055-.031c2.071-1.09,4.016-2.146,5.916-3.148.393-.208.786-.414,1.176-.615.273-.14.547-.284.82-.42.188-.1.376-.191.561-.287h0c1.142-.574,2.276-1.128,3.435-1.654,1.8-.824,3.65-1.582,5.619-2.266,1.552-.543,3.175-1.036,4.911-1.477,17.212-4.378,42.952-2.98,59.326,12.174,13.336,12.349,16.556,30.21,16.809,43.533A94.717,94.717,0,0,1,382.557,456.224Z" transform="translate(-105.19 -327.638)" fill="#e6edfa"/>
        <path id="Path_795" data-name="Path 795" d="M272.853,501.809v95.644a182.463,182.463,0,0,1-29.024,3.476c-24.957.912-55.919-3.667-81.857-14.967a133.134,133.134,0,0,1-12.6-6.275s0,0-.007,0q-3.707-2.107-7.181-4.436-3.173-2.128-6.121-4.447-1.933-1.528-3.76-3.134c-9.378-8.254-16.532-18.162-20.251-29.861-.349-1.1-.673-2.225-.964-3.367a71.859,71.859,0,0,1-2.163-15.934v-3.886a74.446,74.446,0,0,1,1.555-13.456h25.053v34.544h4.289V466.831h26.608V570.466h16.306V484.857l63.513,31.755v-14.8A12.447,12.447,0,0,1,258.7,489.361H260.4a12.447,12.447,0,0,1,12.448,12.448Z" transform="translate(-105.236 -382.643)" fill="#d8dff3"/>
        <path id="Path_796" data-name="Path 796" d="M716.691,520.891v10.175c-.243,1.679-.452,2.724-.5,2.964-8.591,40.523-53.183,69.434-99.7,81.11V496.966H643.1v89.258h4.292V532.679L673.992,521v-.106a21.349,21.349,0,1,1,42.7,0Z" transform="translate(-439.326 -402.478)" fill="#d8dff3"/>
        <path id="Path_797" data-name="Path 797" d="M865.063,670.138a89.43,89.43,0,0,1-9.1,12.629v-7.548c0-2.807,3.843-5.081,8.586-5.081Z" transform="translate(-596.953 -516.463)" fill="#bdcfd3"/>
        <path id="Path_798" data-name="Path 798" d="M327.062,755.04q-1.219-.192-2.443-.4a191.045,191.045,0,0,1-31.878-8.26l15.546-41.708Z" transform="translate(-226.228 -539.193)" fill="#cad4ef"/>
        <path id="Path_799" data-name="Path 799" d="M187.354,700.729c-13.013-6.213-24.527-14.222-33.043-24.19l12.014-32.23Z" transform="translate(-135.111 -499.462)" fill="#cad4ef"/>
        <path id="Path_800" data-name="Path 800" d="M666.863,647.626q-1.2,2.376-2.565,4.679a89.493,89.493,0,0,1-9.1,12.629q-3.093,3.615-6.588,7.006c-17.972,17.481-43.348,30.459-69.787,37.9q-2.73.766-5.473,1.456-4.765,1.2-9.549,2.15-6.446,1.285-12.851,2.119a17.281,17.281,0,0,1,1.957-1.391c3.939-2.4,8.54-3.668,12.178-6.5-1.886-1.439-.4-4.443,1.306-6.1a39.76,39.76,0,0,1,14.218-8.861c-.854-6.672,6.471-12.96,12.936-11.108a6.888,6.888,0,0,1,13.473-1.834,21.576,21.576,0,0,1,1.945-6.75,2.336,2.336,0,0,1,4.3.239.273.273,0,0,0,.013.038c2.144-4.314,8.886-5.318,12.193-1.812-1.154-4.3,4.021-8.778,8.108-7.024-1.961-2.878-2.49-6.9-.641-9.851s6.343-4.125,9.034-1.914c-1.912-3.259.5-8.122,4.248-8.579,1.914-.232,3.814.505,5.744.555a5.236,5.236,0,0,0,2.833-.758,5.182,5.182,0,0,1,6.631.716,13.822,13.822,0,0,1,2.649,4.439C665.043,648.618,665.96,648.117,666.863,647.626Z" transform="translate(-396.188 -498.63)" fill="#cad4ef"/>
        <path id="Path_801" data-name="Path 801" d="M319.168,335.564c-11.5-2.477-23.679-7.239-29.341-17.55-2.033-3.7-3.059-8.228-1.564-12.18,2.007-5.306,7.922-8.109,13.535-8.925a33.48,33.48,0,0,1,20.454,3.585c8.523,4.562,15.358,12.937,24.931,14.286,7.323,1.031,14.432-2.355,21.486-4.577s15.681-2.971,20.984,2.184a6.15,6.15,0,0,1,1.6,3.54c1.034,5.639-4.552,10.814-6.572,12.686-2.757,2.554-9.16,7.38-29.2,9C344.7,338.479,333.7,338.695,319.168,335.564Z" transform="translate(-222.813 -270.575)" fill="#e6edfa"/>
        <path id="Path_802" data-name="Path 802" d="M166.841,354.142H99.551a10.59,10.59,0,0,1,14.069-14.68,16.289,16.289,0,1,1,31.139,7.868C152.111,349.665,159.321,352.517,166.841,354.142Z" transform="translate(-98.135 -288.933)" fill="#dae8eb"/>
        <path id="Path_803" data-name="Path 803" d="M721.285,442.165H757.5a5.7,5.7,0,0,0-7.571-7.9,8.766,8.766,0,1,0-16.757,4.234C729.212,439.754,725.332,441.289,721.285,442.165Z" transform="translate(-508.304 -355.893)" fill="#d8dff3"/>
        <path id="Path_804" data-name="Path 804" d="M624.541,261.007h91.81a14.449,14.449,0,0,0-19.2-20.028,22.224,22.224,0,1,0-42.483,10.735C644.639,254.9,634.8,258.789,624.541,261.007Z" transform="translate(-444.625 -220.509)" fill="#dae8eb"/>
      </g>
      <g id="Human" transform="translate(0.454 35.865)">
        <path id="Path_805" data-name="Path 805" d="M446.174,817.978c-.643.133-1.282.267-1.924.393h0c-.537.109-1.073.212-1.61.314-.383.072-.766.147-1.148.215-.461.085-.926.171-1.388.25-.338.065-.673.123-1.008.178q-.641.113-1.282.215c-.52.085-1.036.171-1.555.253l-.15.021c-.5.079-1,.154-1.5.229q-1.6.236-3.2.444-1.025.133-2.044.253c-.6.072-1.21.14-1.811.205-.342.041-.684.075-1.022.106q-.4.046-.8.082c-.328.034-.656.065-.981.092-.437.044-.878.082-1.316.116-.089.01-.178.017-.263.024-.625.055-1.251.1-1.873.147-.034,0-.072.007-.106.007-.581.041-1.162.082-1.743.116-.1.007-.2.014-.3.017-.5.031-.988.058-1.48.082-.817.044-1.63.079-2.44.109q-3.086.113-6.285.113c-.6,0-1.206,0-1.811-.01-.54,0-1.087-.01-1.63-.024-.232,0-.465-.007-.7-.014-.482-.01-.967-.024-1.456-.038a.486.486,0,0,1-.072,0c-.639-.017-1.278-.041-1.921-.068q-1.758-.072-3.537-.174c-.068,0-.137-.01-.2-.014-.2-.01-.4-.024-.6-.038-.5-.031-1-.062-1.5-.1-.461-.031-.923-.065-1.388-.1q-1.174-.087-2.348-.195c-.256-.021-.516-.044-.772-.068-.3-.027-.6-.058-.909-.085-.226-.024-.455-.044-.68-.068q-2.03-.205-4.074-.451c-.6-.072-1.2-.143-1.794-.222-.427-.055-.854-.113-1.278-.171-.338-.044-.673-.092-1.012-.14-1.261-.174-2.522-.366-3.784-.564a.013.013,0,0,1-.01,0c-.4-.062-.807-.13-1.21-.195s-.813-.137-1.224-.205c-.393-.068-.786-.137-1.179-.208q-1.2-.21-2.413-.444c-.393-.072-.783-.147-1.172-.225-.314-.058-.629-.12-.94-.185v0L370,807.93v0l.376-5.448h.779l6.76,0h.133l.157,0h0l30.374-.007h0l.82,0h.482l5.54,0h.007l.557,0h.051l17.363,0,3.059,0h2.707l.608,0,4.464,0h.321v.01l.649,6.244.646,6.238,0,.027v.014l.058.584v0Z" transform="translate(-277.086 -639.425)" fill="#cccf4f"/>
        <path id="Path_806" data-name="Path 806" d="M445.887,802.457l-74.564,5.466.373-5.449Z" transform="translate(-278.406 -639.423)" fill="#a8b400"/>
        <path id="Path_807" data-name="Path 807" d="M483.28,815.487l1.3.005-.067-13.09-1.3-.008Z" transform="translate(-352.053 -639.382)" fill="#a8b400"/>
        <path id="Path_808" data-name="Path 808" d="M487.086,811.382a4.424,4.424,0,0,0,3.205-1.162c2.567-2.455,1.421-7.878,1.372-8.108l-1.272.268c.011.049,1.041,4.938-1,6.89-.9.862-2.349,1.03-4.3.5l-.329,1.262A9.078,9.078,0,0,0,487.086,811.382Z" transform="translate(-353.073 -639.196)" fill="#a8b400"/>
        <path id="Path_809" data-name="Path 809" d="M369.176,816.872a6.3,6.3,0,0,0,4.768-1.922c3.7-3.862,2.7-12.187,2.657-12.54l-1.3.146c.01.08.972,8.066-2.308,11.481a5.193,5.193,0,0,1-4.459,1.494l-.093,1.308Q368.813,816.871,369.176,816.872Z" transform="translate(-276.506 -639.392)" fill="#a8b400"/>
        <path id="Path_810" data-name="Path 810" d="M577.047,815.588a5.581,5.581,0,0,0,1.147-.12l-.264-1.274a3.267,3.267,0,0,1-2.937-.67c-3.16-2.666-3.008-11.091-3-11.176l-1.295-.039c-.008.372-.163,9.146,3.473,12.211A4.382,4.382,0,0,0,577.047,815.588Z" transform="translate(-409.634 -639.325)" fill="#a8b400"/>
        <path id="Path_811" data-name="Path 811" d="M413.752,553.051l-23.368,18.856-10.093-20.182v52.846H305.937V550.929l-11.419,18.323-23.1-20.979,23.18-37.446A19.055,19.055,0,0,1,310.8,501.8h64.026a19.075,19.075,0,0,1,16.788,10.038Z" transform="translate(-212.644 -441.525)" fill="#1a0f55"/>
        <path id="Path_812" data-name="Path 812" d="M532.024,401.525s1.623,7.519.205,9S525.215,397.522,532.024,401.525Z" transform="translate(-382.007 -375.06)" fill="#32477b"/>
        <path id="Path_813" data-name="Path 813" d="M447.982,377.03l19.2,5.732c7.763,31.461-5.973,31.266-5.973,31.266l.457,4.878a10.269,10.269,0,0,1-10.683,11.216h0a10.269,10.269,0,0,1-9.8-10.718l.944-21.106-3.683-.165h0a5.591,5.591,0,0,1-5.336-5.836h0q.014-.3.055-.606a6.679,6.679,0,0,1,7.521-5.714l1.931.263Z" transform="translate(-319.073 -359.399)" fill="#ffc1c2"/>
        <path id="Path_814" data-name="Path 814" d="M463.745,360.641l-.079,0c-6.5.371-14.252-.936-17.748-1.62a2.218,2.218,0,0,0-2.454,1.327,19.644,19.644,0,0,1-3.685,5.345.972.972,0,0,1-1.678-.724l.185-3.271a.973.973,0,0,0-.84-1.019l-1.04-.142a6.678,6.678,0,0,0-7.523,5.711c-.027.2-.044.4-.055.608,0,.085-.007.167-.007.253a5.593,5.593,0,0,0,5.342,5.581l3.684.164-.4,8.9c-21.457-24.581-4.467-36.7-4.467-36.7-.039-2.085,1.719-2.7,3.319-2.828a5.616,5.616,0,0,1,3.182.76c3.394,1.9,9.025-2,14.946-3.5,2.265-.572,10.6-2.677,14.11,1.038C473.317,345.587,468.216,360.352,463.745,360.641Z" transform="translate(-314.789 -333.963)"/>
        <path id="Path_815" data-name="Path 815" d="M439.9,414.428a3.7,3.7,0,0,1,.4-3c.624-.731,1.789-1,3.466-.792l.126-1.033c-2.048-.251-3.525.137-4.387,1.155-1.3,1.534-.635,3.866-.606,3.965Z" transform="translate(-322.76 -380.789)" fill="#ed9c9c"/>
        <path id="Path_816" data-name="Path 816" d="M517.612,428.989l-3.339-7.2-.944.437,2.918,6.295-3.921,2,.473.926Z" transform="translate(-371.217 -388.859)" fill="#ed9c9c"/>
        <path id="Path_817" data-name="Path 817" d="M530.7,419.191c.071.734.478,1.3.9,1.256s.718-.673.646-1.407a2.027,2.027,0,0,0-.087-.426,1.5,1.5,0,0,0-.28-.553,7.408,7.408,0,0,0-.957.01,1.347,1.347,0,0,0-.208.545A2.167,2.167,0,0,0,530.7,419.191Z" transform="translate(-383.301 -386.398)" fill="#32477b"/>
        <path id="Path_818" data-name="Path 818" d="M485.813,407.134a.293.293,0,0,1,.231-.344l5.712-1.182a1.3,1.3,0,0,1,1.458.755l.117.27a.833.833,0,0,1-.82,1.165l-6.428-.428A.293.293,0,0,1,485.813,407.134Z" transform="translate(-353.762 -378.191)" fill="#32477b"/>
        <path id="Path_819" data-name="Path 819" d="M527.7,406.472a.256.256,0,0,0-.231-.28l-5.085-.5a1.142,1.142,0,0,0-1.2.793l-.077.246a.728.728,0,0,0,.82.938l5.559-.971A.256.256,0,0,0,527.7,406.472Z" transform="translate(-376.976 -378.263)" fill="#32477b"/>
        <path id="Path_820" data-name="Path 820" d="M496.4,489.348a17.516,17.516,0,0,1-10.538-5.392c3.09,1.186,10.075.451,10.075.451Z" transform="translate(-353.8 -429.779)" fill="#ed9c9c"/>
        <path id="Path_821" data-name="Path 821" d="M593.915,325.867a7.527,7.527,0,0,0-5.03.018,1.428,1.428,0,0,0-.795,2.024l.013.027a1.454,1.454,0,0,0,1.734.679,4.042,4.042,0,0,1,2.618,0,2.463,2.463,0,0,1,1.644,3.355c-.835,2.358-4.775,2.783-6.549,5.718a1.665,1.665,0,0,0-.241.867,1.687,1.687,0,0,0,1.126,1.595,1.659,1.659,0,0,0,2-.71c1.644-2.868,5.951-3.02,7.188-6.5C598.81,329.593,597.139,327.011,593.915,325.867Zm-6.281,16.474a2.558,2.558,0,1,0,1.439,3.234,2.448,2.448,0,0,0-1.44-3.233Z" transform="translate(-418.466 -325.443)" fill="#32477b"/>
        <path id="Path_822" data-name="Path 822" d="M375.741,366.888a5.278,5.278,0,0,0-2.768,2.187,1,1,0,0,0,.437,1.46l.019.009a1.018,1.018,0,0,0,1.25-.376,2.834,2.834,0,0,1,1.444-1.133,1.726,1.726,0,0,1,2.358,1.139c.56,1.663-1.43,3.6-1.138,5.989a1.162,1.162,0,0,0,.242.581,1.183,1.183,0,0,0,1.311.393,1.162,1.162,0,0,0,.8-1.258c-.334-2.294,1.976-4.241,1.153-6.7C380.054,366.825,378.016,366.123,375.741,366.888ZM379.4,378.7a1.793,1.793,0,1,0,2.194,1.162A1.716,1.716,0,0,0,379.4,378.7Z" transform="translate(-279.386 -352.528)" fill="#32477b"/>
        <path id="Path_823" data-name="Path 823" d="M504.455,460.388l.228-.908a32.161,32.161,0,0,0-7.114-.957l-.021.936A31.217,31.217,0,0,1,504.455,460.388Z" transform="translate(-361.49 -413.038)" fill="#ed9c9c"/>
        <path id="Path_824" data-name="Path 824" d="M521.294,417.883h.034l5.427-.241a.371.371,0,1,0-.034-.74l-5.427.241a.37.37,0,0,0,0,.74Z" transform="translate(-376.888 -385.643)" fill="#32477b"/>
        <path id="Path_825" data-name="Path 825" d="M498.08,419.434c.071.734.478,1.3.9,1.256s.718-.673.646-1.407a2.032,2.032,0,0,0-.086-.427,1.5,1.5,0,0,0-.28-.553,7.412,7.412,0,0,0-.957.01,1.344,1.344,0,0,0-.208.545,2.155,2.155,0,0,0-.021.577Z" transform="translate(-361.833 -386.558)" fill="#32477b"/>
        <path id="Path_826" data-name="Path 826" d="M488.983,418.329h.034l5.427-.241a.37.37,0,0,0-.034-.74l-5.427.241a.371.371,0,0,0,0,.74Z" transform="translate(-355.62 -385.937)" fill="#32477b"/>
        <path id="Path_827" data-name="Path 827" d="M589.977,609.022l10.091,33.46L589.977,622.3Z" transform="translate(-422.328 -512.1)" fill="#0b0f3a"/>
        <path id="Path_828" data-name="Path 828" d="M350.432,609.022l-11.419,30.8L350.432,621.5Z" transform="translate(-257.139 -512.1)" fill="#0b0f3a"/>
        <rect id="Rectangle_217" data-name="Rectangle 217" width="0.826" height="16.73" transform="translate(167.236 93.47)" fill="#0b0f3a"/>
        <rect id="Rectangle_218" data-name="Rectangle 218" width="0.826" height="16.73" transform="translate(92.88 93.47)" fill="#0b0f3a"/>
        <path id="Path_829" data-name="Path 829" d="M209.136,590.566l-6.891,9.194a8.378,8.378,0,0,1-13.018.482l-43.834-50.263,13.994-12.439Z" transform="translate(-129.695 -465.049)" fill="#ffc1c2"/>
        <path id="Path_830" data-name="Path 830" d="M621.011,604.107l6.62,8.966a8.523,8.523,0,0,0,13.323.489l43.229-50.358-13.042-11.763Z" transform="translate(-442.755 -474.2)" fill="#ffc1c2"/>
        <rect id="Rectangle_219" data-name="Rectangle 219" width="52.049" height="69.576" rx="11.655" transform="translate(261.358 6.929) rotate(36.542)" fill="#687ed4"/>
        <path id="Path_831" data-name="Path 831" d="M792.773,436.239l-30.962-22.084a2.077,2.077,0,0,1-.184-3.353A155.34,155.34,0,0,0,796.06,364.34a2.073,2.073,0,0,1,3.222-.828l29.093,21.561a3.315,3.315,0,0,1,1,3.864,155.565,155.565,0,0,1-32.55,46.995,3.287,3.287,0,0,1-4.054.307Z" transform="translate(-534.809 -350.197)" fill="#4863c9"/>
        <path id="Path_832" data-name="Path 832" d="M794.328,434.017,765.3,412.5a2.074,2.074,0,0,1-.146-3.325,150.339,150.339,0,0,0,33.228-44.837,2.074,2.074,0,0,1,3.223-.828l29.033,21.516a3.307,3.307,0,0,1,.968,3.934A150.341,150.341,0,0,1,798.373,433.8,3.307,3.307,0,0,1,794.328,434.017Z" transform="translate(-537.127 -350.198)" fill="#fff"/>
        <rect id="Rectangle_220" data-name="Rectangle 220" width="15.269" height="8.117" rx="3.594" transform="translate(277.477 16.065) rotate(36.542)" fill="#4863c9"/>
        <path id="Path_833" data-name="Path 833" d="M890.918,412.489,868.16,395.624a1.053,1.053,0,0,1-.145-1.538h0a1.053,1.053,0,0,1,1.515-.309l22.758,16.865a1.254,1.254,0,0,1,.334,1.68h0A1.253,1.253,0,0,1,890.918,412.489Z" transform="translate(-605.162 -370.291)" fill="#4863c9"/>
        <path id="Path_834" data-name="Path 834" d="M874.3,440.789l-22.758-16.866a1.053,1.053,0,0,1-.145-1.538h0a1.053,1.053,0,0,1,1.515-.309l22.758,16.864a1.254,1.254,0,0,1,.334,1.68h0A1.253,1.253,0,0,1,874.3,440.789Z" transform="translate(-594.221 -388.918)" fill="#4863c9"/>
        <path id="Path_835" data-name="Path 835" d="M854.864,467.006,832.1,450.14a1.053,1.053,0,0,1-.145-1.538h0a1.052,1.052,0,0,1,1.515-.31l22.758,16.866a1.253,1.253,0,0,1,.334,1.68h0a1.253,1.253,0,0,1-1.7.168Z" transform="translate(-581.429 -406.175)" fill="#4863c9"/>
        <path id="Path_836" data-name="Path 836" d="M788.146,532.475c-2.968,2.586-6.977,5.513-10.339,5.963-6.207.83-12.143-11.887-12.143-11.887s-.037-3.238,2.024-9.239c.564-1.641,1.285-3.489,2.206-5.533a2.222,2.222,0,0,1,2.509-1.254l4.73,1.06,1.349.3a1.223,1.223,0,0,1,.217.068,1.3,1.3,0,0,1,.526,2.006,4.827,4.827,0,0,1-3.331,1.677,8.486,8.486,0,0,1-1.184.066s.118.5.211,1.214c.186,1.481.258,3.9-1.1,4.7a.009.009,0,0,0,.008.008.122.122,0,0,0,.027.023l10.912,8.3,1.167.889Z" transform="translate(-537.968 -447.233)" fill="#ffc1c2"/>
        <path id="Path_837" data-name="Path 837" d="M640.922,644.332l-16.81,25.115-3.1-4.2Z" transform="translate(-442.755 -535.342)" fill="#ed9c9c"/>
        <path id="Path_838" data-name="Path 838" d="M278.3,635.564,294.284,658.2l2.335-3.115Z" transform="translate(-217.178 -529.571)" fill="#ed9c9c"/>
        <rect id="Rectangle_221" data-name="Rectangle 221" width="4.682" height="45.05" rx="2.341" transform="translate(36.293 45.75) rotate(51.399)" fill="#a8b400"/>
        <rect id="Rectangle_222" data-name="Rectangle 222" width="8.166" height="31.113" rx="4.083" transform="translate(24.315 53.083) rotate(51.399)" fill="#32477b"/>
        <circle id="Ellipse_37" data-name="Ellipse 37" cx="15.439" cy="15.439" r="15.439" transform="translate(29.198 26.645)" fill="#a8b400"/>
        <circle id="Ellipse_38" data-name="Ellipse 38" cx="12.674" cy="12.674" r="12.674" transform="translate(31.963 29.411)" fill="#32477b"/>
        <path id="Path_839" data-name="Path 839" d="M201.961,425.446a.858.858,0,0,1-.114-.884A10.535,10.535,0,0,1,215,418.876a.859.859,0,1,1-.573,1.621,8.816,8.816,0,0,0-11.014,4.76.86.86,0,0,1-1.457.189Z" transform="translate(-166.805 -386.543)" fill="#fff"/>
        <path id="Path_840" data-name="Path 840" d="M199.921,449.872c-.014-.017-.027-.034-.039-.053a6.142,6.142,0,0,1-.817-4.972.86.86,0,1,1,1.643.507,4.383,4.383,0,0,0,.594,3.5.859.859,0,0,1-1.38,1.021Z" transform="translate(-164.887 -403.638)" fill="#fff"/>
        <path id="Path_841" data-name="Path 841" d="M135.2,505.453l-2.226-2.173a3.308,3.308,0,0,1-.951-1.811c-.584-3.414-2.714-14.05-6.651-14.678l-1.593-1.6a2.958,2.958,0,0,0-3.884-.664c-.988.674-1.967,2.018-1.443,3.094l.046-.134s-4.658.052-5.141,2.646c0,0-4.093-.513-4.682,2.936a4.7,4.7,0,0,0-3.631,1.141,4.043,4.043,0,0,0-.847,1.387c-.208.621-.672,2.725,6.441,11.364a42.7,42.7,0,0,0,4.079,4.556,39.07,39.07,0,0,1,3.677,3.4c.587.674,3.826,3.638,3.826,3.638l3.706,4.466Z" transform="translate(-102.514 -429.866)" fill="#ffc1c2"/>
        <rect id="Rectangle_223" data-name="Rectangle 223" width="0.853" height="2.21" transform="translate(19.71 64.592) rotate(-31.394)" fill="#e29474"/>
        <path id="Path_842" data-name="Path 842" d="M153.165,527.932a2.839,2.839,0,0,1-.912.633,4.032,4.032,0,0,1-3.558-.513l.41-.748a2.582,2.582,0,0,0,4.341-1.725l.825.216A4.815,4.815,0,0,1,153.165,527.932Z" transform="translate(-131.869 -457.177)" fill="#ed9c9c"/>
        <path id="Path_843" data-name="Path 843" d="M142.593,505.424a4.179,4.179,0,0,1-2.077-2.363,13.647,13.647,0,0,1-.792-2.329c-.174-.677-.292-1.286-.365-1.713l-2.632,1.5a5.217,5.217,0,0,1-3.146.948,6.221,6.221,0,0,1-4.306-2.515l-.264-.373,12.536-7.643.444.728-11.725,7.15a5.152,5.152,0,0,0,3.359,1.8,4.418,4.418,0,0,0,2.658-.82l3.75-2.139.079.636a20.02,20.02,0,0,0,.44,2.234,12.869,12.869,0,0,0,.741,2.184,3.417,3.417,0,0,0,1.6,1.919Z" transform="translate(-118.912 -434.372)" fill="#ed9c9c"/>
        <path id="Path_844" data-name="Path 844" d="M132.99,526.2a2.33,2.33,0,0,1-.262.231c-.8.606-1.964.658-3.452.156a3.026,3.026,0,0,1-.818,2.119,3.537,3.537,0,0,1-3.314.57l.171-.808a2.8,2.8,0,0,0,2.569-.355,2.62,2.62,0,0,0,.539-2.065l-.119-.729.684.28c1.492.613,2.584.671,3.244.174a2.857,2.857,0,0,0,.773-2.286l-2.213-3.625.7-.43,2.314,3.789.01.091A3.965,3.965,0,0,1,132.99,526.2Z" transform="translate(-116.366 -453.131)" fill="#ed9c9c"/>
        <rect id="Rectangle_224" data-name="Rectangle 224" width="0.855" height="11.265" transform="translate(5.873 63.664) rotate(-33.079)" fill="#ed9c9c"/>
        <rect id="Rectangle_225" data-name="Rectangle 225" width="0.825" height="2.959" transform="matrix(0.853, -0.521, 0.521, 0.853, 15.614, 57.932)" fill="#ed9c9c"/>
        <path id="Path_845" data-name="Path 845" d="M459.969,515.869c-6.46,0-12.023-4.99-13.525-12.137l-.435-2.07.669-.141.435,2.07c1.435,6.826,6.721,11.594,12.855,11.594,5.458,0,10.426-3.925,12.363-9.766l1.3-3.936.649.215-1.3,3.936C470.951,511.756,465.722,515.869,459.969,515.869Z" transform="translate(-327.566 -441.317)" fill="#fff"/>
        <path id="Path_846" data-name="Path 846" d="M359.121,502.669a8.866,8.866,0,0,1-15.377,6.015A19.071,19.071,0,0,1,358.41,501.8h.67C359.107,502.085,359.121,502.375,359.121,502.669Z" transform="translate(-260.253 -441.525)" fill="#fff"/>
        <path id="Path_847" data-name="Path 847" d="M588.322,508.934a8.867,8.867,0,0,1-15.137-6.265c0-.294.014-.584.041-.868h.232a19.049,19.049,0,0,1,14.866,7.135Z" transform="translate(-411.275 -441.525)" fill="#fff"/>
        <rect id="Rectangle_226" data-name="Rectangle 226" width="0.684" height="31.436" transform="translate(61.349 102.438) rotate(-45.82)" fill="#fff"/>
        <rect id="Rectangle_227" data-name="Rectangle 227" width="30.448" height="0.684" transform="translate(175.124 125.376) rotate(-43.655)" fill="#fff"/>
        <path id="Path_848" data-name="Path 848" d="M372.423,671.143l4.555,24.2a18.428,18.428,0,0,0,16.136,14.913l53.664,5.782H372.423Z" transform="translate(-279.13 -552.989)" fill="#0b0f3a"/>
        <ellipse id="Ellipse_39" data-name="Ellipse 39" cx="8.023" cy="5.494" rx="8.023" ry="5.494" transform="translate(143.063 91.236)" fill="#fff"/>
        <ellipse id="Ellipse_40" data-name="Ellipse 40" cx="5.63" cy="2.968" rx="5.63" ry="2.968" transform="translate(145.455 93.762)" fill="#0b0f3a"/>
      </g>
    </g>
  </g>
</svg>
