<svg xmlns="http://www.w3.org/2000/svg" width="74.655" height="72.724" viewBox="0 0 74.655 72.724">
  <g id="Group_735" data-name="Group 735" transform="translate(3510 -4397)">
    <path id="Union_7" data-name="Union 7" d="M12.072,71.108A5.165,5.165,0,0,1,3.45,67.262V51.447A5.189,5.189,0,0,1,0,46.566V29.86a12.61,12.61,0,0,1,25.151-1.311.946.946,0,0,1,.006.178V46.566a1.724,1.724,0,1,1-3.449,0V28.825A9.158,9.158,0,0,0,3.45,29.86V46.566a1.73,1.73,0,0,0,1.724,1.724A1.722,1.722,0,0,1,6.9,50.016V67.262a1.725,1.725,0,0,0,3.45,0v-20.7a1.725,1.725,0,0,1,3.45,0v20.7a1.724,1.724,0,1,0,3.449,0V52.315a1.725,1.725,0,0,1,3.45,0V67.262a5.166,5.166,0,0,1-8.624,3.846ZM4.6,7.473a7.474,7.474,0,1,1,7.473,7.474A7.481,7.481,0,0,1,4.6,7.473Zm3.45,0A4.024,4.024,0,1,0,12.072,3.45,4.028,4.028,0,0,0,8.049,7.473Z" transform="translate(-3510 4397)" fill="#1a206d"/>
    <path id="Union_6" data-name="Union 6" d="M11.941,72.43a1.725,1.725,0,0,1-1.587-1.851l1.006-13.09H7.037l1.006,13.09A1.725,1.725,0,0,1,6.456,72.43a1.033,1.033,0,0,1-.132.006A1.724,1.724,0,0,1,4.6,70.843L3.576,57.489H3.45A3.452,3.452,0,0,1,0,54.039a1.725,1.725,0,0,1,3.45,0h11.5V44.267a1.725,1.725,0,1,1,3.45,0v9.773a3.452,3.452,0,0,1-3.45,3.45H14.82L13.792,70.843a1.728,1.728,0,0,1-1.719,1.593A1.074,1.074,0,0,1,11.941,72.43ZM25.87,46.808A16.586,16.586,0,0,1,18.9,34.9l-.627-6A9.162,9.162,0,0,0,3.783,22.438a1.725,1.725,0,0,1-2.024-2.794,12.613,12.613,0,0,1,19.943,8.9l.627,6C22.967,40.708,29,45.455,29,45.455s1.717,1.564.74,2.542a1.579,1.579,0,0,1-1.107.582C27.994,48.579,27.208,48.043,25.87,46.808ZM1.724,7.473A7.474,7.474,0,1,1,9.2,14.947,7.481,7.481,0,0,1,1.724,7.473Zm3.45,0A4.024,4.024,0,1,0,9.2,3.45,4.029,4.029,0,0,0,5.174,7.473Z" transform="translate(-3465.382 4397)" fill="#1a206d"/>
    <g id="Group_734" data-name="Group 734" transform="translate(-3484.13 4415.397)">
      <path id="Union_8" data-name="Union 8" d="M7.448,44.764A3.137,3.137,0,0,1,5.32,45.6a3.23,3.23,0,0,1-3.192-3.257V32.387A3.263,3.263,0,0,1,0,29.315V18.8a7.869,7.869,0,0,1,7.778-7.94,7.82,7.82,0,0,1,7.739,7.115.608.608,0,0,1,0,.112v11.23a1.064,1.064,0,1,1-2.128,0V18.146a5.679,5.679,0,0,0-5.615-5.117A5.717,5.717,0,0,0,2.128,18.8V29.315A1.078,1.078,0,0,0,3.192,30.4a1.074,1.074,0,0,1,1.064,1.086V42.343a1.064,1.064,0,1,0,2.128,0V29.315a1.064,1.064,0,1,1,2.128,0V42.343a1.064,1.064,0,1,0,2.128,0v-9.41a1.064,1.064,0,1,1,2.128,0v9.41A3.23,3.23,0,0,1,9.576,45.6,3.137,3.137,0,0,1,7.448,44.764ZM2.837,4.7A4.663,4.663,0,0,1,7.448,0a4.663,4.663,0,0,1,4.611,4.7,4.663,4.663,0,0,1-4.611,4.7A4.663,4.663,0,0,1,2.837,4.7Zm2.128,0A2.483,2.483,0,1,0,7.448,2.172,2.511,2.511,0,0,0,4.966,4.7Z" transform="translate(1.437 8.439)" fill="#a8b400"/>
      <path id="Union_8_-_Outline" data-name="Union 8 - Outline" d="M9.364,45.675a3.421,3.421,0,0,1-2.128-.746,3.42,3.42,0,0,1-2.128.746,3.517,3.517,0,0,1-3.48-3.545V32.37A3.558,3.558,0,0,1-.5,29.1V18.585a8.157,8.157,0,0,1,8.066-8.228,8.11,8.11,0,0,1,8.025,7.373v.009a.876.876,0,0,1,0,.144V29.1a1.352,1.352,0,1,1-2.7,0V17.95A5.4,5.4,0,0,0,7.566,13.1,5.429,5.429,0,0,0,2.2,18.585V29.1a.788.788,0,0,0,.776.8,1.364,1.364,0,0,1,1.351,1.373V42.131a.777.777,0,1,0,1.553,0V29.1a1.352,1.352,0,1,1,2.7,0V42.131a.777.777,0,1,0,1.553,0v-9.41a1.352,1.352,0,1,1,2.7,0v9.41A3.517,3.517,0,0,1,9.364,45.675ZM7.235,44.162l.194.178a2.857,2.857,0,0,0,1.934.76,2.941,2.941,0,0,0,2.9-2.97v-9.41a.777.777,0,1,0-1.553,0v9.41a1.352,1.352,0,1,1-2.7,0V29.1a.777.777,0,1,0-1.553,0V42.131a1.352,1.352,0,1,1-2.7,0V31.274a.789.789,0,0,0-.776-.8A1.364,1.364,0,0,1,1.628,29.1V18.585a6,6,0,0,1,5.937-6.056,5.869,5.869,0,0,1,3.962,1.538A6.086,6.086,0,0,1,13.466,17.9l0,.016V29.1a.777.777,0,1,0,1.553,0V17.844a.528.528,0,0,0,0-.054v0a7.536,7.536,0,0,0-7.453-6.855A7.582,7.582,0,0,0,.075,18.585V29.1a2.976,2.976,0,0,0,1.939,2.8l.19.069V42.131a2.941,2.941,0,0,0,2.9,2.97,2.856,2.856,0,0,0,1.933-.76Zm0-34.677a4.952,4.952,0,0,1-4.9-4.992A4.951,4.951,0,0,1,7.236-.5a4.952,4.952,0,0,1,4.9,4.992A4.952,4.952,0,0,1,7.236,9.485Zm0-9.41A4.376,4.376,0,0,0,2.912,4.492,4.376,4.376,0,0,0,7.236,8.91a4.376,4.376,0,0,0,4.324-4.418A4.376,4.376,0,0,0,7.236.075Zm0,7.238a2.821,2.821,0,1,1,2.77-2.821A2.8,2.8,0,0,1,7.236,7.313Zm0-5.067a2.223,2.223,0,0,0-2.2,2.246,2.2,2.2,0,1,0,4.39,0A2.223,2.223,0,0,0,7.236,2.246Z" transform="translate(1.65 8.652)" fill="#a8b400"/>
      <path id="graduation-cap-solid-svgrepo-com" d="M9.331,4.875l-.269.144L1.3,9.043l-.988.5.97.485v4.851a1.147,1.147,0,1,0,1.725.988,1.139,1.139,0,0,0-.575-.988V10.624l1.15.593v2.928a.954.954,0,0,0,.252.629A1.66,1.66,0,0,0,4.3,15.1a4.974,4.974,0,0,0,1.24.413c1,.222,2.326-.737,3.791-.737s2.794.959,3.791.737a4.974,4.974,0,0,0,1.24-.413,1.659,1.659,0,0,0,.467-.323.954.954,0,0,0,.252-.629V11.217l2.282-1.168.988-.5-.988-.5L9.6,5.019Zm0,1.293,6.5,3.377-1.024.521a1.7,1.7,0,0,0-.449-.323,4.94,4.94,0,0,0-1.24-.413,18.059,18.059,0,0,0-3.791-.359A18.058,18.058,0,0,0,5.54,9.33a4.94,4.94,0,0,0-1.24.413,1.7,1.7,0,0,0-.449.323L2.828,9.546Zm0,3.952a17.189,17.189,0,0,1,3.539.323,4.439,4.439,0,0,1,.97.305.351.351,0,0,1,.09.072v2.192a6.284,6.284,0,0,0-.808-.234,18.121,18.121,0,0,0-3.791-.359,18.121,18.121,0,0,0-3.791.359,6.283,6.283,0,0,0-.808.234V10.822a.35.35,0,0,1,.09-.072,4.437,4.437,0,0,1,.97-.305A17.188,17.188,0,0,1,9.331,10.121Z" transform="translate(-0.313 -4.875)" fill="#a8b400" stroke="#a8b400" stroke-width="0.3"/>
    </g>
  </g>
</svg>
