<svg xmlns="http://www.w3.org/2000/svg" width="68" height="67" viewBox="0 0 68 67">
  <g id="Group_226" data-name="Group 226" transform="translate(-2466.24 -593.24)">
    <rect id="Rectangle_55" data-name="Rectangle 55" width="68" height="67" transform="translate(2466.24 593.24)" fill="none"/>
    <g id="Group_227" data-name="Group 227" transform="translate(2473.442 600.415)">
      <g id="family">
        <path id="Path_162" data-name="Path 162" d="M38.947,4.133a9.632,9.632,0,0,0-9.653,9.614v11.57H48.6V13.747A9.633,9.633,0,0,0,38.947,4.133Z" transform="translate(3.606 -0.097)" fill="#1a0f55"/>
        <path id="Path_163" data-name="Path 163" d="M32.354,34.429a10.835,10.835,0,0,0,1.7,5.159c1.268,2.115,1.268,3.16.871,4.049a30.278,30.278,0,0,1-2.563,4.5l-.008,2.574H45.9V48.128a30.276,30.276,0,0,1-2.563-4.5c-.394-.889-.4-1.934.871-4.049A11,11,0,0,0,45.9,34.628V50.7h4.276V30.185a2.593,2.593,0,0,0-1.32-2.257l-6.875-3.88H36.285l-6.878,3.885a2.593,2.593,0,0,0-1.32,2.257V50.707h4.265Z" transform="translate(3.422 1.943)" fill="#a8b400"/>
        <rect id="Rectangle_49" data-name="Rectangle 49" width="4.277" height="14.148" transform="translate(49.319 38.496)" fill="#e8e8e7"/>
        <rect id="Rectangle_50" data-name="Rectangle 50" width="4.277" height="14.148" transform="translate(31.502 38.496)" fill="#9a9e05"/>
        <path id="Path_164" data-name="Path 164" d="M31.786,30.955v2.712l.384-2.712Z" transform="translate(3.986 3.31)" fill="#9a9e05"/>
        <path id="Path_165" data-name="Path 165" d="M43.59,30.955v2.712l-.384-2.712Z" transform="translate(5.729 3.31)" fill="#9a9e05"/>
        <path id="Path_166" data-name="Path 166" d="M38.01,21.366a5.425,5.425,0,0,1-2.811-.8v3.892a2.848,2.848,0,1,0,5.7,0V20.542a5.43,5.43,0,0,1-2.861.824Z" transform="translate(4.507 1.918)" fill="#e8e8e7"/>
        <path id="Path_167" data-name="Path 167" d="M38.01,21.366a5.425,5.425,0,0,1-2.811-.8v2.305a7.492,7.492,0,0,0,2.811.547h.023a7.5,7.5,0,0,0,2.861-.565V20.542a5.43,5.43,0,0,1-2.861.824Z" transform="translate(4.507 1.955)" fill="#e8e8e7"/>
        <path id="Path_168" data-name="Path 168" d="M24.837,24.717l-7.978-2.863H11.112L2.98,24.724A3.343,3.343,0,0,0,.75,27.868V51.035h26.3V27.856A3.343,3.343,0,0,0,24.837,24.717Z" transform="translate(-0.75 1.608)" fill="#a8b400"/>
        <path id="Path_169" data-name="Path 169" d="M12.576,19.425a5.482,5.482,0,0,1-2.838-.807v3.616a2.873,2.873,0,0,0,5.747,0V18.592a5.471,5.471,0,0,1-2.881.831Z" transform="translate(0.622 1.671)" fill="#e8e8e7"/>
        <path id="Path_170" data-name="Path 170" d="M12.576,19.425a5.482,5.482,0,0,1-2.838-.807v2.327a7.566,7.566,0,0,0,2.838.552H12.6a7.559,7.559,0,0,0,2.882-.571V18.594a5.471,5.471,0,0,1-2.882.831Z" transform="translate(0.622 1.702)" fill="#e8e8e7"/>
        <rect id="Rectangle_51" data-name="Rectangle 51" width="5.181" height="13.991" transform="translate(0 38.653)" fill="#e8e8e7"/>
        <rect id="Rectangle_52" data-name="Rectangle 52" width="5.181" height="13.991" transform="translate(21.12 38.653)" fill="#fcd3c4"/>
        <path id="Path_171" data-name="Path 171" d="M5.629,30.783H5.245v6.806Z" transform="translate(-0.064 3.228)" fill="#9a9e05"/>
        <path id="Path_172" data-name="Path 172" d="M18.741,30.783h.384v6.806Z" transform="translate(1.995 3.228)" fill="#9a9e05"/>
        <path id="Path_173" data-name="Path 173" d="M24.756,50.823V27.642A3.343,3.343,0,0,0,22.541,24.5l-3.489-1.252c.036.077.062.151.1.231a6.906,6.906,0,0,0,1.81,2.062c-1.045-.231-2.083-.4-2.22.818a3.017,3.017,0,0,0,1.268,3.046,3.2,3.2,0,0,0,1.037.164,4.13,4.13,0,0,0,2.075,2.792v2.294c0,.028.007.054.008.082h-.008L17.386,36.8a2.4,2.4,0,0,0-1.593,2.258V50.823Z" transform="translate(1.546 1.821)" fill="#9a9e05"/>
        <path id="Path_174" data-name="Path 174" d="M18.346,34.454l5.74-2.061h4.132l5.851,2.065a2.4,2.4,0,0,1,1.606,2.263V49.428H16.753V36.712A2.4,2.4,0,0,1,18.346,34.454Z" transform="translate(1.692 3.216)" fill="#a8b400"/>
        <path id="Path_175" data-name="Path 175" d="M25.209,30.646a3.93,3.93,0,0,0,2.04-.576v2.6a2.068,2.068,0,0,1-4.134,0V30.048a3.938,3.938,0,0,0,2.075.6Z" transform="translate(2.663 3.166)" fill="#e8e8e7"/>
        <path id="Path_176" data-name="Path 176" d="M25.209,30.646a3.93,3.93,0,0,0,2.04-.576v1.675a5.434,5.434,0,0,1-2.04.4h-.018a5.46,5.46,0,0,1-2.075-.41V30.048a3.938,3.938,0,0,0,2.075.6Z" transform="translate(2.663 3.2)" fill="#e8e8e7"/>
        <rect id="Rectangle_53" data-name="Rectangle 53" width="3.728" height="6.105" transform="translate(37.366 52.645) rotate(180)" fill="#e8e8e7"/>
        <rect id="Rectangle_54" data-name="Rectangle 54" width="3.728" height="6.105" transform="translate(22.173 52.645) rotate(180)" fill="#e8e8e7"/>
        <path id="Path_177" data-name="Path 177" d="M29.7,38.817h.277v4.9Z" transform="translate(3.667 4.196)" fill="#9a9e05"/>
        <path id="Path_178" data-name="Path 178" d="M20.262,38.817h-.275v4.9Z" transform="translate(2.186 4.196)" fill="#9a9e05"/>
        <path id="Path_179" data-name="Path 179" d="M33.677,12.629c1.992-1.97,2.19-2.872,2.19-2.872A6.081,6.081,0,0,0,38.9,13.2a17.951,17.951,0,0,0,5.235,1.835V17.69a5.693,5.693,0,0,1-5.695,5.694h-.022a5.693,5.693,0,0,1-5.694-5.695v-2.65a3.753,3.753,0,0,1,.954-2.41Z" transform="translate(4.129 0.499)" fill="#e8e8e7"/>
        <path id="Path_180" data-name="Path 180" d="M22.526,11.931c-.194-1.689-1.662-1.453-3.141-1.136-.032.007-.138.02-.206.028v4.416a5.476,5.476,0,0,1-.124,1.153,5.06,5.06,0,0,0,1.682-.231C21.919,15.7,22.738,13.772,22.526,11.931ZM7.915,10.822c-.068-.008-.173-.021-.205-.028-1.48-.317-2.947-.552-3.141,1.136-.212,1.844.606,3.772,1.789,4.235A5.313,5.313,0,0,0,8.04,16.4a5.552,5.552,0,0,1-.124-1.153Z" transform="translate(-0.172 0.646)" fill="#e8e8e7"/>
        <path id="Path_181" data-name="Path 181" d="M21.195.864a3.049,3.049,0,0,1-2.528,1.095C16.938,1.613,15.65.631,12.25.631c-2.523,0-6.836.508-7.634,4.38-.945,4.6,3.1,7.3,3.1,7.3v4.444a5.792,5.792,0,0,0,5.825,5.757h.024a5.792,5.792,0,0,0,5.825-5.757V12.311a9.668,9.668,0,0,0,2.561-2.867,7.261,7.261,0,0,0,.8-3.5A8,8,0,0,0,21.195.864Z" transform="translate(-0.182 -0.631)" fill="#e8e8e7"/>
        <path id="Path_182" data-name="Path 182" d="M19.394,12.311S18.7,8.428,17.7,9.142a5.26,5.26,0,0,1-4.514,1.194A8.615,8.615,0,0,1,9.839,9.165a8.677,8.677,0,0,1-1.292,2.229,8.04,8.04,0,0,1-.828.922s-4.049-2.709-3.1-7.3c.8-3.873,5.111-4.38,7.634-4.38,3.4,0,4.693.983,6.418,1.328A3.046,3.046,0,0,0,21.2.865a8,8,0,0,1,1.559,5.086,7.254,7.254,0,0,1-.8,3.495A9.668,9.668,0,0,1,19.394,12.311Z" transform="translate(-0.182 -0.631)" fill="#1a0f55"/>
        <path id="Path_183" data-name="Path 183" d="M19.224,25.255c.139-1.215,1.2-1.047,2.26-.818.023,0,.1.014.148.02v3.178a3.967,3.967,0,0,0,.09.832,3.649,3.649,0,0,1-1.21-.165A3,3,0,0,1,19.224,25.255Zm10.512-.8a.9.9,0,0,0,.148-.02c1.065-.231,2.121-.4,2.26.818A3,3,0,0,1,30.856,28.3a3.822,3.822,0,0,1-1.21.165,3.892,3.892,0,0,0,.09-.832Z" transform="translate(2.061 2.426)" fill="#e8e8e7"/>
        <path id="Path_184" data-name="Path 184" d="M20.2,17.291a2.19,2.19,0,0,0,1.819.787,14.857,14.857,0,0,1,4.617-.955c1.815,0,4.918.367,5.492,3.153A5.364,5.364,0,0,1,29.9,25.528v3.2a4.167,4.167,0,0,1-4.191,4.141H25.69A4.167,4.167,0,0,1,21.5,28.725v-3.2a6.964,6.964,0,0,1-1.844-2.062,5.215,5.215,0,0,1-.576-2.515A5.755,5.755,0,0,1,20.2,17.291Z" transform="translate(2.046 1.384)" fill="#e8e8e7"/>
        <path id="Path_185" data-name="Path 185" d="M21.5,25.528s.494-2.794,1.218-2.281a3.786,3.786,0,0,0,3.247.86,6.21,6.21,0,0,0,2.409-.843,6.239,6.239,0,0,0,.93,1.6,5.72,5.72,0,0,0,.595.66,5.364,5.364,0,0,0,2.23-5.251c-.576-2.787-3.677-3.154-5.492-3.154a14.857,14.857,0,0,0-4.617.956,2.19,2.19,0,0,1-1.819-.787,5.755,5.755,0,0,0-1.121,3.66,5.215,5.215,0,0,0,.576,2.515A6.964,6.964,0,0,0,21.5,25.528Z" transform="translate(2.046 1.466)" fill="#1a0f55"/>
      </g>
    </g>
  </g>
</svg>
