<svg xmlns="http://www.w3.org/2000/svg" width="52.646" height="51.716" viewBox="0 0 52.646 51.716">
  <g id="Group_723" data-name="Group 723" transform="translate(2108 -710.241)">
    <path id="Path_4361" data-name="Path 4361" d="M58.977,150.961a3.509,3.509,0,0,0-4.114-1.045l-13.345,5.595a1.063,1.063,0,0,0,.827,1.959l13.345-5.595a1.426,1.426,0,0,1,1.633.414,1.39,1.39,0,0,1,.283,1.088,1.428,1.428,0,0,1-.61.958c-5.812,3.788-19.027,11.277-19.68,11.647-.022.022-.044.022-.087.044h0a7.82,7.82,0,0,1-5.682.805c-.152-.022-3.178-.392-10.384-1.284l-3.875-.479V150.482c.61-.044,1.132-.065,1.371-.065h.131c5.029-.327,9.84.653,14.934,1.676l1.959.392a1.491,1.491,0,0,1,1.2,1.459.613.613,0,0,1-.022.174,1.553,1.553,0,0,1-.414.871,1.466,1.466,0,0,1-1.045.435H25.191a1.067,1.067,0,1,0,0,2.133H35.379a3.661,3.661,0,0,0,2.569-1.067,3.9,3.9,0,0,0,1.067-2.569,3.639,3.639,0,0,0-2.939-3.57c-.653-.131-1.306-.261-1.937-.392-5.007-1-10.166-2.068-15.478-1.72h-.109c-.239.022-.762.044-1.328.065A1.071,1.071,0,0,0,16.2,147.5H8.167A1.068,1.068,0,0,0,7.1,148.567v18.178a1.068,1.068,0,0,0,1.067,1.067H16.2a1.031,1.031,0,0,0,.958-.631l3.723.457c4.245.522,10.036,1.219,10.275,1.263a12.323,12.323,0,0,0,2.308.218,9.049,9.049,0,0,0,4.811-1.284c.022,0,.022-.022.044-.022.131-.087,13.824-7.815,19.81-11.734a3.475,3.475,0,0,0,1.567-2.416A3.414,3.414,0,0,0,58.977,150.961ZM15.133,165.7h-5.9V149.677h5.9Z" transform="translate(-2115.1 592.839)" fill="#1a206d"/>
    <path id="Path_4365" data-name="Path 4365" d="M37.541,43.5H58.766a2.043,2.043,0,0,1,2.041,2.041v7.787c0,11.81-10.008,15.72-12.014,16.384a1.987,1.987,0,0,1-1.311-.011C45.508,69.048,35.5,65.137,35.5,53.328V45.541A2.043,2.043,0,0,1,37.541,43.5ZM48.129,67.852c1.829-.59,10.718-4.062,10.718-14.524V45.541l-21.306-.082a.082.082,0,0,0-.082.082v7.787C37.459,63.79,46.348,67.262,48.129,67.852Z" transform="translate(-2124.201 666.741)" fill="#a8b400"/>
  </g>
</svg>
