<svg id="Group_88" data-name="Group 88" xmlns="http://www.w3.org/2000/svg" xmlns:xlink="http://www.w3.org/1999/xlink" width="67.393" height="43.609" viewBox="0 0 67.393 43.609">
  <defs>
    <clipPath id="clip-path">
      <rect id="Rectangle_81" data-name="Rectangle 81" width="67.393" height="43.609" fill="none"/>
    </clipPath>
    <clipPath id="clip-path-3">
      <rect id="Rectangle_57" data-name="Rectangle 57" width="3.735" height="0.783" fill="none"/>
    </clipPath>
    <clipPath id="clip-path-4">
      <rect id="Rectangle_58" data-name="Rectangle 58" width="12.522" height="15.074" fill="none"/>
    </clipPath>
    <clipPath id="clip-path-5">
      <path id="Path_203" data-name="Path 203" d="M157.262,713.764l-.18,0a.047.047,0,0,0-.046.048l.014.636a.047.047,0,0,0,.048.046l.18,0a.047.047,0,0,0,.046-.048l-.014-.637a.047.047,0,0,0-.047-.046h0" transform="translate(-157.036 -713.764)" fill="#5d5d5d"/>
    </clipPath>
    <clipPath id="clip-path-6">
      <path id="Path_204" data-name="Path 204" d="M494.762,680.942l-.18,0a.046.046,0,0,0-.046.048l.014.637a.047.047,0,0,0,.048.046l.18,0a.046.046,0,0,0,.046-.048l-.014-.637a.047.047,0,0,0-.047-.046h0" transform="translate(-494.536 -680.942)" fill="none"/>
    </clipPath>
    <clipPath id="clip-path-7">
      <path id="Path_205" data-name="Path 205" d="M1437.742,345.484l-.155.092a.047.047,0,0,0-.016.064l.326.547a.046.046,0,0,0,.063.016l.155-.092a.046.046,0,0,0,.016-.064l-.325-.547a.049.049,0,0,0-.041-.023.048.048,0,0,0-.023.007" transform="translate(-1437.564 -345.477)" fill="none"/>
    </clipPath>
    <clipPath id="clip-path-8">
      <path id="Path_206" data-name="Path 206" d="M1134.091,496.411l-.155.092a.047.047,0,0,0-.016.064l.325.547a.047.047,0,0,0,.064.016l.155-.092a.046.046,0,0,0,.016-.064l-.325-.547a.047.047,0,0,0-.041-.023.049.049,0,0,0-.024.007" transform="translate(-1133.913 -496.405)" fill="#5d5d5d"/>
    </clipPath>
    <linearGradient id="linear-gradient" x1="-45.935" y1="32.284" x2="-45.895" y2="32.284" gradientUnits="objectBoundingBox">
      <stop offset="0" stop-color="#e1473d"/>
      <stop offset="1" stop-color="#e9605a"/>
    </linearGradient>
    <clipPath id="clip-path-9">
      <path id="Path_207" data-name="Path 207" d="M1549.621,132.718a5.884,5.884,0,1,0,5.884-5.884,5.884,5.884,0,0,0-5.884,5.884" transform="translate(-1549.621 -126.834)" fill="none"/>
    </clipPath>
    <clipPath id="clip-path-11">
      <rect id="Rectangle_65" data-name="Rectangle 65" width="0.196" height="0.78" rx="0.098" fill="none"/>
    </clipPath>
    <clipPath id="clip-path-12">
      <rect id="Rectangle_66" data-name="Rectangle 66" width="5.758" height="3.008" fill="none"/>
    </clipPath>
    <clipPath id="clip-path-13">
      <rect id="Rectangle_67" data-name="Rectangle 67" width="9.628" height="9.628" fill="none"/>
    </clipPath>
    <clipPath id="clip-path-14">
      <path id="Path_223" data-name="Path 223" d="M1771.732,584.949a5.884,5.884,0,1,0,5.884-5.884,5.883,5.883,0,0,0-5.884,5.884" transform="translate(-1771.732 -579.065)" fill="none"/>
    </clipPath>
    <linearGradient id="linear-gradient-2" x1="-3.187" y1="1.684" x2="-3.185" y2="1.684" gradientUnits="objectBoundingBox">
      <stop offset="0" stop-color="#4042e2"/>
      <stop offset="1" stop-color="#4f52ff"/>
    </linearGradient>
    <clipPath id="clip-path-16">
      <rect id="Rectangle_71" data-name="Rectangle 71" width="0.196" height="0.78" fill="none"/>
    </clipPath>
    <clipPath id="clip-path-19">
      <path id="Path_291" data-name="Path 291" d="M1501.743,970.2a5.884,5.884,0,1,0,5.883-5.883,5.884,5.884,0,0,0-5.883,5.883" transform="translate(-1501.743 -964.314)" fill="#a8b400"/>
    </clipPath>
    <clipPath id="clip-path-21">
      <path id="Path_293" data-name="Path 293" d="M1520.406,1120.877a5.476,5.476,0,0,0-.076.667.059.059,0,0,0,.057.063h0a.06.06,0,0,0,.06-.057,5.109,5.109,0,0,1,.076-.651.061.061,0,0,0-.05-.071h-.01a.061.061,0,0,0-.059.05" transform="translate(-1520.329 -1120.827)" fill="none"/>
    </clipPath>
    <linearGradient id="linear-gradient-3" x1="-233.709" y1="11.06" x2="-233.555" y2="11.06" gradientUnits="objectBoundingBox">
      <stop offset="0" stop-color="#dae3fe"/>
      <stop offset="1" stop-color="#e9effd"/>
    </linearGradient>
    <clipPath id="clip-path-22">
      <path id="Path_294" data-name="Path 294" d="M1538.057,985.589a.059.059,0,0,0,.026.081.062.062,0,0,0,.027.007.06.06,0,0,0,.054-.033,5.169,5.169,0,0,1,4.637-2.855,5.247,5.247,0,0,1,.937.084.059.059,0,0,0,.069-.048.06.06,0,0,0-.048-.07,5.347,5.347,0,0,0-.958-.086,5.289,5.289,0,0,0-4.744,2.921" transform="translate(-1538.05 -982.668)" fill="none"/>
    </clipPath>
    <linearGradient id="linear-gradient-4" x1="-8.317" y1="4.301" x2="-8.312" y2="4.301" xlink:href="#linear-gradient-3"/>
    <clipPath id="clip-path-23">
      <path id="Path_295" data-name="Path 295" d="M1539.976,1007.361a4.814,4.814,0,1,0,4.815-4.814,4.814,4.814,0,0,0-4.815,4.814" transform="translate(-1539.976 -1002.547)" fill="none"/>
    </clipPath>
  </defs>
  <g id="Group_142" data-name="Group 142" clip-path="url(#clip-path)">
    <g id="Group_95" data-name="Group 95" transform="translate(0 0)">
      <g id="Group_94" data-name="Group 94" clip-path="url(#clip-path)">
        <path id="Path_191" data-name="Path 191" d="M33.113,51.2S10.23,51.47,3.856,45.458s-3.975-12.006.906-13.7,5.713-3.464,3.087-5.846-5.961-7.271-.423-12.185,11.857,2.144,16.806,1.207,2.989-4.093,9.5-1.914S38.8,8.851,44.036,8.275s4.7,6.6,10.079,3.892,9.785-2.335,12.1,1.967,1.309,10.1-3.768,13.549-4.532,3.218-2.634,6.611,3.6,14.552-5.039,16.145-21.66.764-21.66.764" transform="translate(0 -7.985)" fill="none"/>
        <path id="Path_192" data-name="Path 192" d="M715.511,402c-.105,4.946-.445,22.009-.282,28.055a1.137,1.137,0,0,0,1,1.176c2.708.1,12.636.366,17.066.149a1.922,1.922,0,0,0,1.676-2c.092-5.192.295-19.795-.188-26.485a1.568,1.568,0,0,0-1.279-1.52c-2.95-.345-12.92-1.189-16.747-.9A1.476,1.476,0,0,0,715.511,402" transform="translate(-692.862 -387.917)" fill="#1a0f55"/>
        <path id="Path_193" data-name="Path 193" d="M749.188,458.78c-.145,3.993-.6,17.275-.459,22.186a1.308,1.308,0,0,0,1.118,1.341,136.546,136.546,0,0,0,14.836.207,1.471,1.471,0,0,0,1.225-1.474c.188-4.073.727-16.441.586-21.3a1.453,1.453,0,0,0-1.2-1.477,148.464,148.464,0,0,0-15.025-.769,1.261,1.261,0,0,0-1.086,1.283" transform="translate(-725.332 -443.182)" fill="#e8e8e7"/>
        <g id="Group_90" data-name="Group 90" transform="translate(29.341 13.129)" opacity="0.5">
          <g id="Group_89" data-name="Group 89">
            <g id="Group_88-2" data-name="Group 88" clip-path="url(#clip-path-3)">
              <path id="Path_194" data-name="Path 194" d="M940.042,420.925h0a.27.27,0,0,0,.231.285c.64.039,2.441.15,3.246.2a.273.273,0,0,0,.254-.339l-.005-.031a.262.262,0,0,0-.217-.23,26.661,26.661,0,0,0-3.275-.175.268.268,0,0,0-.234.285" transform="translate(-940.042 -420.632)" fill="#fff"/>
            </g>
          </g>
        </g>
        <path id="Path_195" data-name="Path 195" d="M813.539,628.623a.475.475,0,0,1,.368-.127,8.274,8.274,0,0,0,5.916-2.374c.122-.125.346-.055.487.05,1.963,1.468,5.219,1.772,6.349,1.834a.478.478,0,0,1,.448.427c1.027,9.926-5.435,13.522-6.775,14.157a.477.477,0,0,1-.457-.026c-6.68-4.161-6.394-9.572-6.487-13.582a.476.476,0,0,1,.151-.359" transform="translate(-788 -606.514)" fill="#a8b400"/>
        <g id="Group_93" data-name="Group 93" transform="translate(26.046 20.342)" opacity="0.59">
          <g id="Group_92" data-name="Group 92">
            <g id="Group_91" data-name="Group 91" clip-path="url(#clip-path-4)">
              <path id="Path_196" data-name="Path 196" d="M840.575,666.778a.221.221,0,0,1-.118-.034,12,12,0,0,1-5.127-6.014,18.688,18.688,0,0,1-.855-6.243l0-.255a.214.214,0,0,1,.063-.156.218.218,0,0,1,.157-.066,9.152,9.152,0,0,0,5.672-2.249.219.219,0,0,1,.267-.02,13.588,13.588,0,0,0,6.086,1.742.217.217,0,0,1,.2.2,13.84,13.84,0,0,1-2.406,9.775,11.547,11.547,0,0,1-3.836,3.3h0a.212.212,0,0,1-.1.024m-.068-14.888a.033.033,0,0,0-.022.008,9.348,9.348,0,0,1-5.795,2.3.036.036,0,0,0-.026.01.031.031,0,0,0-.009.023l0,.255a18.559,18.559,0,0,0,.844,6.183,11.813,11.813,0,0,0,5.052,5.92.033.033,0,0,0,.033,0,11.358,11.358,0,0,0,3.772-3.244,13.66,13.66,0,0,0,2.37-9.648.032.032,0,0,0-.03-.03,13.77,13.77,0,0,1-6.175-1.772.032.032,0,0,0-.018-.006" transform="translate(-834.471 -651.704)" fill="#fff"/>
            </g>
          </g>
        </g>
        <path id="Path_197" data-name="Path 197" d="M917.9,740.223l3.421,6.88,4.4-9.773-4.568,5.058Z" transform="translate(-889.249 -714.316)" fill="#fff"/>
        <path id="Path_198" data-name="Path 198" d="M650.191,43.541a1.721,1.721,0,0,1-2.175-1.39l-.192-1.306a.365.365,0,1,1,.723-.106l.192,1.3a.991.991,0,0,0,1.252.8,1.3,1.3,0,0,0,.887-1.6L639.192.464a.365.365,0,1,1,.7-.2l11.685,40.774a2.027,2.027,0,0,1-1.388,2.5" transform="translate(-619.227 0.002)" fill="#5d5d5d"/>
        <path id="Path_199" data-name="Path 199" d="M157.626,144.791a18.422,18.422,0,0,1,10.635-1.006l5.88-17.595s-14.377,3.028-16.515,18.6" transform="translate(-152.706 -122.252)" fill="#a8b400"/>
        <path id="Path_200" data-name="Path 200" d="M707.784,101.556a18.419,18.419,0,0,0-9.553,4.78L683.924,94.527s13.8-5.047,23.86,7.029" transform="translate(-662.577 -90.563)" fill="#a8b400"/>
        <path id="Path_201" data-name="Path 201" d="M493.885,122.515s-7.949,2.753-5.78,17.613l1.154-.7a34.7,34.7,0,0,1,17.508-5.018l1.35-.018c-6.031-13.753-14.232-11.878-14.232-11.878" transform="translate(-472.507 -118.608)" fill="#a8b400"/>
        <path id="Path_202" data-name="Path 202" d="M660.086,113.138l-1.46.418a.063.063,0,0,1-.078-.043l-.066-.231a.062.062,0,0,1,.043-.077l1.46-.418a.062.062,0,0,1,.077.043l.066.231a.062.062,0,0,1-.043.077" transform="translate(-637.927 -109.264)" fill="#5d5d5d"/>
      </g>
    </g>
    <g id="Group_97" data-name="Group 97" transform="translate(4.902 22.279)">
      <g id="Group_96" data-name="Group 96" clip-path="url(#clip-path-5)">
        <rect id="Rectangle_60" data-name="Rectangle 60" width="0.48" height="0.786" transform="matrix(0.961, -0.276, 0.276, 0.961, -0.195, 0.056)" fill="#5d5d5d"/>
      </g>
    </g>
    <g id="Group_99" data-name="Group 99" transform="translate(15.436 21.254)">
      <g id="Group_98" data-name="Group 98" clip-path="url(#clip-path-6)">
        <rect id="Rectangle_61" data-name="Rectangle 61" width="0.48" height="0.786" transform="matrix(0.961, -0.275, 0.275, 0.961, -0.195, 0.056)" fill="#5d5d5d"/>
      </g>
    </g>
    <g id="Group_101" data-name="Group 101" transform="translate(44.87 10.783)">
      <g id="Group_100" data-name="Group 100" clip-path="url(#clip-path-7)">
        <rect id="Rectangle_62" data-name="Rectangle 62" width="0.768" height="0.873" transform="translate(-0.203 0.056) rotate(-15.992)" fill="#5d5d5d"/>
      </g>
    </g>
    <g id="Group_103" data-name="Group 103" transform="translate(35.393 15.494)">
      <g id="Group_102" data-name="Group 102" clip-path="url(#clip-path-8)">
        <rect id="Rectangle_63" data-name="Rectangle 63" width="0.768" height="0.873" transform="translate(-0.203 0.056) rotate(-15.992)" fill="url(#linear-gradient)"/>
      </g>
    </g>
    <g id="Group_105" data-name="Group 105" transform="translate(48.368 3.959)">
      <g id="Group_104" data-name="Group 104" clip-path="url(#clip-path-9)">
        <rect id="Rectangle_64" data-name="Rectangle 64" width="16.595" height="16.595" transform="translate(-5.819 6.754) rotate(-49.254)" fill="#fff"/>
      </g>
    </g>
    <g id="Group_116" data-name="Group 116" transform="translate(0 0)">
      <g id="Group_115" data-name="Group 115" clip-path="url(#clip-path)">
        <path id="Path_208" data-name="Path 208" d="M1567.263,138.79a5.688,5.688,0,1,1-5.688-5.688,5.688,5.688,0,0,1,5.688,5.688" transform="translate(-1507.324 -128.947)" fill="#1a0f55"/>
        <g id="Group_108" data-name="Group 108" transform="translate(48.948 8.844)" style="isolation: isolate">
          <g id="Group_107" data-name="Group 107">
            <g id="Group_106" data-name="Group 106" clip-path="url(#clip-path-11)">
              <path id="Path_209" data-name="Path 209" d="M1568.269,284.132h0a.061.061,0,0,1-.056-.063,5.3,5.3,0,0,1,.078-.667.06.06,0,0,1,.07-.048.061.061,0,0,1,.048.07,5.154,5.154,0,0,0-.075.652.061.061,0,0,1-.06.057" transform="translate(-1568.208 -283.352)" fill="#fff"/>
            </g>
          </g>
        </g>
        <g id="Group_111" data-name="Group 111" transform="translate(49.501 4.532)">
          <g id="Group_110" data-name="Group 110">
            <g id="Group_109" data-name="Group 109" clip-path="url(#clip-path-12)">
              <path id="Path_210" data-name="Path 210" d="M1585.989,148.2a.061.061,0,0,1-.028-.007.06.06,0,0,1-.026-.081,5.287,5.287,0,0,1,4.743-2.921,5.344,5.344,0,0,1,.958.086.062.062,0,0,1,.049.07.06.06,0,0,1-.07.048,5.23,5.23,0,0,0-.937-.084,5.168,5.168,0,0,0-4.636,2.855.062.062,0,0,1-.054.033" transform="translate(-1585.929 -145.188)" fill="#fff"/>
            </g>
          </g>
        </g>
        <g id="Group_114" data-name="Group 114" transform="translate(49.561 5.152)" style="isolation: isolate">
          <g id="Group_113" data-name="Group 113">
            <g id="Group_112" data-name="Group 112" clip-path="url(#clip-path-13)">
              <path id="Path_211" data-name="Path 211" d="M1597.482,169.882a4.814,4.814,0,0,1-4.815,4.814,4.264,4.264,0,0,1-.8,0,4.93,4.93,0,0,1-4.012-4.814,4.814,4.814,0,1,1,9.628,0" transform="translate(-1587.854 -165.068)" fill="#fff"/>
            </g>
          </g>
        </g>
        <path id="Path_212" data-name="Path 212" d="M1679.612,207.775a.729.729,0,1,1-.729-.729.729.729,0,0,1,.729.729" transform="translate(-1625.773 -200.583)" fill="#a8b400"/>
        <path id="Path_213" data-name="Path 213" d="M1727.654,262.865h-.347v-2.4h.178a.169.169,0,0,1,.169.169Z" transform="translate(-1673.393 -252.338)" fill="#a8b400"/>
        <path id="Path_214" data-name="Path 214" d="M1664.612,262.865h.347v-2.4h-.179a.168.168,0,0,0-.169.169Z" transform="translate(-1612.655 -252.338)" fill="#a8b400"/>
        <rect id="Rectangle_68" data-name="Rectangle 68" width="1.336" height="2.547" transform="translate(52.436 8.13)" fill="#a8b400"/>
        <path id="Path_215" data-name="Path 215" d="M1680.73,338.051h-.295a.139.139,0,0,1-.139-.139V335.1h.573v2.812a.139.139,0,0,1-.139.139" transform="translate(-1627.849 -324.64)" fill="#a8b400"/>
        <path id="Path_216" data-name="Path 216" d="M1705.181,338.051h-.3a.139.139,0,0,1-.138-.139V335.1h.572v2.812a.139.139,0,0,1-.138.139" transform="translate(-1651.537 -324.64)" fill="#a8b400"/>
        <path id="Path_217" data-name="Path 217" d="M1761.968,207.775a.729.729,0,1,1-.729-.729.729.729,0,0,1,.729.729" transform="translate(-1705.559 -200.583)" fill="#a8b400"/>
        <path id="Path_218" data-name="Path 218" d="M1810.012,262.865h-.347v-2.4h.179a.169.169,0,0,1,.168.169Z" transform="translate(-1753.18 -252.338)" fill="#a8b400"/>
        <path id="Path_219" data-name="Path 219" d="M1746.969,262.865h.347v-2.4h-.18a.168.168,0,0,0-.168.169Z" transform="translate(-1692.441 -252.338)" fill="#a8b400"/>
        <path id="Path_220" data-name="Path 220" d="M1758.421,264.15h-1.684l.175-3.682h1.336Z" transform="translate(-1701.905 -252.338)" fill="#a8b400"/>
        <path id="Path_221" data-name="Path 221" d="M1763.087,338.051h-.3a.139.139,0,0,1-.138-.139V335.1h.572v2.812a.139.139,0,0,1-.138.139" transform="translate(-1707.636 -324.64)" fill="#a8b400"/>
        <path id="Path_222" data-name="Path 222" d="M1787.537,338.051h-.295a.139.139,0,0,1-.139-.139V335.1h.572v2.812a.139.139,0,0,1-.138.139" transform="translate(-1731.323 -324.64)" fill="#a8b400"/>
      </g>
    </g>
    <g id="Group_118" data-name="Group 118" transform="translate(55.301 18.074)">
      <g id="Group_117" data-name="Group 117" clip-path="url(#clip-path-14)">
        <rect id="Rectangle_70" data-name="Rectangle 70" width="16.595" height="16.595" transform="translate(-5.819 6.754) rotate(-49.254)" fill="url(#linear-gradient-2)"/>
      </g>
    </g>
    <g id="Group_129" data-name="Group 129" transform="translate(0 0)">
      <g id="Group_128" data-name="Group 128" clip-path="url(#clip-path)">
        <path id="Path_224" data-name="Path 224" d="M1789.375,591.021a5.688,5.688,0,1,1-5.687-5.688,5.688,5.688,0,0,1,5.687,5.688" transform="translate(-1722.503 -567.063)" fill="#1a0f55"/>
        <g id="Group_121" data-name="Group 121" transform="translate(55.881 22.96)" opacity="0.78">
          <g id="Group_120" data-name="Group 120">
            <g id="Group_119" data-name="Group 119" clip-path="url(#clip-path-16)">
              <path id="Path_225" data-name="Path 225" d="M1790.378,736.361h0a.06.06,0,0,1-.056-.063,5.355,5.355,0,0,1,.077-.667.06.06,0,1,1,.118.022,5.264,5.264,0,0,0-.075.652.06.06,0,0,1-.06.057" transform="translate(-1790.318 -735.581)" fill="#fff"/>
            </g>
          </g>
        </g>
        <g id="Group_124" data-name="Group 124" transform="translate(56.434 18.647)" opacity="0.78">
          <g id="Group_123" data-name="Group 123">
            <g id="Group_122" data-name="Group 122" clip-path="url(#clip-path-12)">
              <path id="Path_226" data-name="Path 226" d="M1808.1,600.427a.059.059,0,0,1-.027-.006.06.06,0,0,1-.026-.081,5.314,5.314,0,0,1,5.7-2.834.06.06,0,1,1-.021.118,5.242,5.242,0,0,0-.937-.085,5.169,5.169,0,0,0-4.636,2.855.06.06,0,0,1-.054.033" transform="translate(-1808.039 -597.419)" fill="#fff"/>
            </g>
          </g>
        </g>
        <g id="Group_127" data-name="Group 127" transform="translate(56.494 19.268)">
          <g id="Group_126" data-name="Group 126">
            <g id="Group_125" data-name="Group 125" clip-path="url(#clip-path-13)">
              <path id="Path_227" data-name="Path 227" d="M1819.593,622.113a4.814,4.814,0,1,1-4.814-4.814,4.814,4.814,0,0,1,4.814,4.814" transform="translate(-1809.965 -617.299)" fill="#fff"/>
            </g>
          </g>
        </g>
        <path id="Path_228" data-name="Path 228" d="M1870.846,665.77h-6.223l3.111-2.371Z" transform="translate(-1806.423 -642.693)" fill="#a8b400"/>
        <path id="Path_229" data-name="Path 229" d="M1888.358,744.776V748.8h1.567V746h1.651V748.8h1.523v-4.021Z" transform="translate(-1829.418 -721.529)" fill="#a8b400"/>
        <path id="Path_230" data-name="Path 230" d="M1623.251,514.253l-.076.165a.092.092,0,0,1-.168-.078h0v0l.078-.161h0a.09.09,0,0,1,.163.077" transform="translate(-1572.341 -498.078)" fill="#a8b400"/>
        <path id="Path_231" data-name="Path 231" d="M1614.273,531.31l-.084.161a.1.1,0,0,1-.132.043.1.1,0,0,1-.043-.134h0l.085-.157h0a.1.1,0,0,1,.131-.039.1.1,0,0,1,.04.13" transform="translate(-1563.624 -514.589)" fill="#a8b400"/>
        <path id="Path_232" data-name="Path 232" d="M1604.56,547.966l-.091.158a.106.106,0,0,1-.184-.106v0l.092-.153h0a.1.1,0,0,1,.143-.035.105.105,0,0,1,.037.141" transform="translate(-1554.197 -530.711)" fill="#a8b400"/>
        <path id="Path_233" data-name="Path 233" d="M1594.141,564.2l-.1.154a.113.113,0,0,1-.191-.121,0,0,0,0,0,0,0l0,0,.1-.149h0a.111.111,0,0,1,.187.121" transform="translate(-1544.087 -546.424)" fill="#a8b400"/>
        <path id="Path_234" data-name="Path 234" d="M1583.041,579.992l-.1.149a.12.12,0,0,1-.2-.136l0,0v0l.105-.145h0a.118.118,0,0,1,.164-.027.12.12,0,0,1,.027.163" transform="translate(-1533.318 -561.71)" fill="#a8b400"/>
        <path id="Path_235" data-name="Path 235" d="M1571.284,595.323l-.11.145a.127.127,0,0,1-.2-.153s0,0,0,0v0l.112-.14h0a.125.125,0,0,1,.2.153" transform="translate(-1521.913 -576.547)" fill="#a8b400"/>
        <path id="Path_236" data-name="Path 236" d="M1558.9,610.17l-.116.14a.134.134,0,0,1-.206-.17v0l0,0,.115-.135,0,0a.132.132,0,0,1,.2.17" transform="translate(-1509.898 -590.916)" fill="#a8b400"/>
        <path id="Path_237" data-name="Path 237" d="M1545.908,624.516l-.121.136a.141.141,0,1,1-.21-.188l0,0v0l.122-.131h0a.139.139,0,0,1,.205.187" transform="translate(-1497.3 -604.8)" fill="#a8b400"/>
        <path id="Path_238" data-name="Path 238" d="M1532.338,638.339l-.127.131a.148.148,0,1,1-.212-.206l0,0,0,0,.127-.125h0a.146.146,0,0,1,.207.2" transform="translate(-1484.141 -618.175)" fill="#a8b400"/>
        <path id="Path_239" data-name="Path 239" d="M1518.215,651.619l-.132.126a.155.155,0,0,1-.213-.224l0,0,0,0,.132-.12h0a.153.153,0,0,1,.208.224" transform="translate(-1470.446 -631.025)" fill="#a8b400"/>
        <path id="Path_240" data-name="Path 240" d="M1503.564,664.337l-.137.12a.162.162,0,1,1-.213-.243l0,0v0l.137-.115h0a.159.159,0,0,1,.207.242" transform="translate(-1456.24 -643.33)" fill="#a8b400"/>
        <path id="Path_241" data-name="Path 241" d="M1488.409,676.472l-.143.115a.169.169,0,0,1-.237-.024.171.171,0,0,1,.024-.237l0,0,0,0,.142-.109h0a.167.167,0,0,1,.207.261" transform="translate(-1441.547 -655.071)" fill="#a8b400"/>
        <path id="Path_242" data-name="Path 242" d="M1472.784,688l-.147.109a.176.176,0,1,1-.21-.282h0l0,0,.145-.1h0a.173.173,0,0,1,.2.28" transform="translate(-1426.401 -666.224)" fill="#a8b400"/>
        <path id="Path_243" data-name="Path 243" d="M1456.7,698.911l-.151.1a.183.183,0,0,1-.207-.3l0,0,0,0,.149-.1h0a.18.18,0,0,1,.2.3" transform="translate(-1410.809 -676.778)" fill="#a8b400"/>
        <path id="Path_244" data-name="Path 244" d="M1440.187,709.179l-.154.1a.189.189,0,1,1-.2-.321l0,0,0,0,.154-.091h0a.187.187,0,0,1,.2.319" transform="translate(-1394.804 -686.708)" fill="#a8b400"/>
        <path id="Path_245" data-name="Path 245" d="M1423.276,718.782l-.159.091a.2.2,0,0,1-.2-.341l0,0,0,0,.157-.084h0a.194.194,0,0,1,.189.339" transform="translate(-1378.412 -695.995)" fill="#a8b400"/>
        <path id="Path_246" data-name="Path 246" d="M1405.988,727.7l-.163.084a.2.2,0,1,1-.187-.361h0l0,0,.16-.078h0a.2.2,0,0,1,.181.359" transform="translate(-1361.657 -704.62)" fill="#a8b400"/>
        <path id="Path_247" data-name="Path 247" d="M1388.349,735.916l-.166.078a.21.21,0,0,1-.178-.381l0,0h0l.163-.072h0a.208.208,0,0,1,.171.379" transform="translate(-1344.565 -712.562)" fill="#a8b400"/>
        <path id="Path_248" data-name="Path 248" d="M1370.39,743.407l-.169.07a.217.217,0,0,1-.167-.4h0l0,0,.165-.065h0a.215.215,0,0,1,.161.4" transform="translate(-1327.162 -719.802)" fill="#a8b400"/>
        <path id="Path_249" data-name="Path 249" d="M1352.134,750.151l-.172.064a.224.224,0,0,1-.155-.421h.008l.167-.057h0a.222.222,0,0,1,.149.418" transform="translate(-1309.471 -726.319)" fill="#a8b400"/>
        <path id="Path_250" data-name="Path 250" d="M1333.61,756.129l-.174.056a.231.231,0,1,1-.141-.44h.008l.17-.051h0a.229.229,0,0,1,.134.438" transform="translate(-1291.523 -732.094)" fill="#a8b400"/>
        <path id="Path_251" data-name="Path 251" d="M1314.843,761.32l-.178.048a.238.238,0,0,1-.125-.459h.008l.172-.043h0a.236.236,0,0,1,.12.456" transform="translate(-1273.34 -737.108)" fill="#a8b400"/>
        <path id="Path_252" data-name="Path 252" d="M1295.863,765.7l-.179.041a.245.245,0,1,1-.109-.478h.008l.174-.035h0a.243.243,0,0,1,.1.474" transform="translate(-1254.951 -741.341)" fill="#a8b400"/>
        <path id="Path_253" data-name="Path 253" d="M1707.66,774.783l-.178.028a.094.094,0,1,1-.029-.185h0l.178-.021a.09.09,0,0,1,.026.179" transform="translate(-1654.08 -750.426)" fill="#a8b400"/>
        <path id="Path_254" data-name="Path 254" d="M1688.181,776.935l-.179.027a.106.106,0,1,1-.031-.21h0l.179-.019a.1.1,0,0,1,.026.2" transform="translate(-1635.197 -752.487)" fill="#a8b400"/>
        <path id="Path_255" data-name="Path 255" d="M1668.787,779.011l-.179.024a.115.115,0,1,1-.031-.229h0l.178-.019a.113.113,0,0,1,.028.224" transform="translate(-1616.399 -754.478)" fill="#a8b400"/>
        <path id="Path_256" data-name="Path 256" d="M1649.364,780.957l-.179.023a.125.125,0,0,1-.14-.108.126.126,0,0,1,.108-.141h0l.179-.017a.122.122,0,0,1,.027.242" transform="translate(-1597.572 -756.346)" fill="#a8b400"/>
        <path id="Path_257" data-name="Path 257" d="M1629.922,782.754l-.178.021a.135.135,0,0,1-.033-.267h0l.18-.016h0a.132.132,0,0,1,.027.262" transform="translate(-1578.728 -758.068)" fill="#a8b400"/>
        <path id="Path_258" data-name="Path 258" d="M1610.544,784.413l-.179.019a.142.142,0,0,1-.03-.283h0l.178-.015h0a.141.141,0,0,1,.026.28" transform="translate(-1559.949 -759.657)" fill="#a8b400"/>
        <path id="Path_259" data-name="Path 259" d="M1591.189,786.015l-.18.018a.148.148,0,0,1-.028-.294h0l.18-.014h0a.146.146,0,0,1,.026.291" transform="translate(-1541.193 -761.199)" fill="#a8b400"/>
        <path id="Path_260" data-name="Path 260" d="M1571.82,787.467l-.179.016a.153.153,0,1,1-.028-.306h0l.18-.012h0a.152.152,0,0,1,.024.3" transform="translate(-1522.423 -762.595)" fill="#a8b400"/>
        <path id="Path_261" data-name="Path 261" d="M1552.44,788.767l-.18.015a.159.159,0,1,1-.025-.317h0l.179-.011h0a.158.158,0,0,1,.022.315" transform="translate(-1503.643 -763.842)" fill="#a8b400"/>
        <path id="Path_262" data-name="Path 262" d="M1533.05,789.916l-.181.013a.165.165,0,1,1-.024-.329h0l.18-.01h0a.163.163,0,0,1,.021.326" transform="translate(-1484.853 -764.945)" fill="#a8b400"/>
        <path id="Path_263" data-name="Path 263" d="M1513.65,790.913l-.181.012a.171.171,0,0,1-.021-.341h0l.18-.008h0a.169.169,0,0,1,.018.337" transform="translate(-1466.053 -765.899)" fill="#a8b400"/>
        <path id="Path_264" data-name="Path 264" d="M1494.311,791.775l-.181.009a.175.175,0,0,1-.019-.35h0l.179-.008h0a.174.174,0,0,1,.017.348" transform="translate(-1447.316 -766.724)" fill="#a8b400"/>
        <path id="Path_265" data-name="Path 265" d="M1474.98,792.552l-.18.008a.178.178,0,0,1-.017-.356h0l.18-.007h0a.177.177,0,0,1,.013.354" transform="translate(-1428.588 -767.471)" fill="#a8b400"/>
        <path id="Path_266" data-name="Path 266" d="M1455.647,793.177l-.181.007a.181.181,0,0,1-.013-.362h0l.18,0h0a.18.18,0,0,1,.011.359" transform="translate(-1409.855 -768.072)" fill="#a8b400"/>
        <path id="Path_267" data-name="Path 267" d="M1436.309,793.651l-.181.005a.184.184,0,1,1-.01-.367h0l.18,0h0a.183.183,0,0,1,.008.366" transform="translate(-1391.12 -768.525)" fill="#a8b400"/>
        <path id="Path_268" data-name="Path 268" d="M1417.028,794l-.18,0a.186.186,0,0,1-.007-.371h0l.18,0h0a.185.185,0,0,1,.006.37" transform="translate(-1372.442 -768.855)" fill="#a8b400"/>
        <path id="Path_269" data-name="Path 269" d="M1397.745,794.226h-.182a.186.186,0,0,1,0-.373h.181a.186.186,0,0,1,0,.372" transform="translate(-1353.76 -769.075)" fill="#a8b400"/>
        <path id="Path_270" data-name="Path 270" d="M1378.461,794.3h-.182a.187.187,0,1,1,0-.374h.182a.187.187,0,0,1,0,.374" transform="translate(-1335.077 -769.141)" fill="#a8b400"/>
        <path id="Path_271" data-name="Path 271" d="M1359.176,794.178H1359a.188.188,0,0,1,0-.377h0l.18,0h0a.188.188,0,0,1,0,.376" transform="translate(-1316.397 -769.023)" fill="#a8b400"/>
        <path id="Path_272" data-name="Path 272" d="M1343.253,794.029a.437.437,0,0,1-.179-.054.155.155,0,0,1-.061-.211.163.163,0,0,1,.064-.061h0a.457.457,0,0,1,.181-.048h0a.188.188,0,0,1,.026.376h-.032" transform="translate(-1301.075 -768.881)" fill="#a8b400"/>
        <path id="Path_273" data-name="Path 273" d="M1287.093,826.762l.165.075a.194.194,0,0,1-.156.356h0l-.164-.07h0a.2.2,0,1,1,.155-.36h0" transform="translate(-1246.651 -800.94)" fill="#a8b400"/>
        <path id="Path_274" data-name="Path 274" d="M1304.8,834.947l.163.081a.189.189,0,0,1-.163.34h0l-.161-.076h0a.19.19,0,0,1,.162-.344l0,0" transform="translate(-1263.81 -808.867)" fill="#a8b400"/>
        <path id="Path_275" data-name="Path 275" d="M1322.234,843.707l.16.086a.182.182,0,0,1-.169.323h0l-.16-.081h0a.184.184,0,1,1,.168-.328l0,0" transform="translate(-1280.701 -817.351)" fill="#a8b400"/>
        <path id="Path_276" data-name="Path 276" d="M1339.372,853.03l.158.091a.177.177,0,0,1-.174.308h0l-.157-.087h0a.18.18,0,0,1-.07-.242.177.177,0,0,1,.242-.069l0,0" transform="translate(-1297.307 -826.381)" fill="#a8b400"/>
        <path id="Path_277" data-name="Path 277" d="M1356.2,862.9l.154.1a.17.17,0,0,1-.177.291h0l-.154-.091h0a.173.173,0,1,1,.177-.3l0,0" transform="translate(-1313.617 -835.943)" fill="#a8b400"/>
        <path id="Path_278" data-name="Path 278" d="M1372.712,873.313l.15.1a.165.165,0,0,1-.18.275h0l-.15-.1h0a.166.166,0,0,1,.179-.28l0,0" transform="translate(-1329.614 -846.027)" fill="#a8b400"/>
        <path id="Path_279" data-name="Path 279" d="M1388.88,884.247l.147.106a.159.159,0,0,1-.182.26h0l-.148-.1h0a.16.16,0,1,1,.182-.264l0,0" transform="translate(-1345.282 -856.618)" fill="#a8b400"/>
        <path id="Path_280" data-name="Path 280" d="M1404.694,895.692l.144.111a.153.153,0,0,1-.184.244h0l-.143-.106h0a.154.154,0,1,1,.183-.249l0,0" transform="translate(-1360.608 -867.704)" fill="#a8b400"/>
        <path id="Path_281" data-name="Path 281" d="M1420.136,907.633l.141.116a.147.147,0,0,1-.184.228h0l-.141-.11h0a.149.149,0,0,1,.184-.233l0,0" transform="translate(-1375.574 -879.271)" fill="#a8b400"/>
        <path id="Path_282" data-name="Path 282" d="M1435.193,920.059l.136.12a.141.141,0,0,1-.182.214h0l-.137-.115h0a.142.142,0,1,1,.184-.218l0,0" transform="translate(-1390.167 -891.307)" fill="#a8b400"/>
        <path id="Path_283" data-name="Path 283" d="M1449.848,932.957l.134.124a.135.135,0,0,1-.182.2h0l-.133-.12h0a.137.137,0,0,1,.183-.2v0" transform="translate(-1404.372 -903.801)" fill="#a8b400"/>
        <path id="Path_284" data-name="Path 284" d="M1464.088,946.313l.129.129a.129.129,0,0,1-.18.184h0l-.13-.124h0a.13.13,0,1,1,.18-.189l0,0" transform="translate(-1418.174 -916.739)" fill="#a8b400"/>
        <path id="Path_285" data-name="Path 285" d="M1477.9,960.114l.124.132a.123.123,0,0,1-.177.17h0l-.125-.128h0a.125.125,0,1,1,.178-.174v0" transform="translate(-1431.559 -930.108)" fill="#a8b400"/>
        <path id="Path_286" data-name="Path 286" d="M1491.256,974.349l.12.136a.117.117,0,0,1-.174.156h0l-.121-.132h0a.119.119,0,0,1,.175-.16v0" transform="translate(-1444.509 -943.898)" fill="#a8b400"/>
        <path id="Path_287" data-name="Path 287" d="M1504.154,989l.115.14a.111.111,0,0,1-.17.143h0l-.117-.136h0a.113.113,0,0,1,.171-.147v0" transform="translate(-1457.012 -958.092)" fill="#a8b400"/>
        <path id="Path_288" data-name="Path 288" d="M1516.573,1004.059l.111.144a.1.1,0,0,1-.164.13h0l-.112-.14h0a.107.107,0,1,1,.167-.133h0" transform="translate(-1469.052 -972.679)" fill="#a8b400"/>
        <path id="Path_289" data-name="Path 289" d="M1528.5,1019.511l.106.147a.1.1,0,0,1-.16.117h0l-.109-.144h0a.1.1,0,0,1,.161-.121v0" transform="translate(-1480.611 -987.648)" fill="#a8b400"/>
        <path id="Path_290" data-name="Path 290" d="M1539.91,1035.341l.1.15a.093.093,0,0,1-.154.106h0l-.1-.147h0a.1.1,0,0,1,.023-.132.094.094,0,0,1,.132.023v0" transform="translate(-1491.678 -1002.984)" fill="#a8b400"/>
      </g>
    </g>
    <g id="Group_131" data-name="Group 131" transform="translate(46.874 30.099)">
      <g id="Group_130" data-name="Group 130" clip-path="url(#clip-path-19)">
        <rect id="Rectangle_75" data-name="Rectangle 75" width="16.595" height="16.595" transform="matrix(0.653, -0.758, 0.758, 0.653, -5.819, 6.754)" fill="#a8b400"/>
      </g>
    </g>
    <g id="Group_133" data-name="Group 133" transform="translate(0 0)">
      <g id="Group_132" data-name="Group 132" clip-path="url(#clip-path)">
        <path id="Path_292" data-name="Path 292" d="M1519.386,976.27a5.688,5.688,0,1,1-5.688-5.688,5.687,5.687,0,0,1,5.688,5.688" transform="translate(-1460.941 -940.287)" fill="#1a0f55"/>
      </g>
    </g>
    <g id="Group_135" data-name="Group 135" transform="translate(47.454 34.984)">
      <g id="Group_134" data-name="Group 134" clip-path="url(#clip-path-21)">
        <rect id="Rectangle_77" data-name="Rectangle 77" width="0.203" height="0.78" transform="translate(-0.002)" fill="url(#linear-gradient-3)"/>
      </g>
    </g>
    <g id="Group_137" data-name="Group 137" transform="translate(48.007 30.672)">
      <g id="Group_136" data-name="Group 136" clip-path="url(#clip-path-22)">
        <rect id="Rectangle_78" data-name="Rectangle 78" width="5.771" height="3.008" transform="translate(-0.008 0)" fill="url(#linear-gradient-4)"/>
      </g>
    </g>
    <g id="Group_139" data-name="Group 139" transform="translate(48.067 31.292)">
      <g id="Group_138" data-name="Group 138" clip-path="url(#clip-path-23)">
        <rect id="Rectangle_79" data-name="Rectangle 79" width="9.628" height="9.628" fill="#fff"/>
      </g>
    </g>
    <g id="Group_141" data-name="Group 141" transform="translate(0 0)">
      <g id="Group_140" data-name="Group 140" clip-path="url(#clip-path)">
        <path id="Path_296" data-name="Path 296" d="M1602.239,1066.895h-1.191v-1.19a.569.569,0,0,0-.569-.569h-1.455a.569.569,0,0,0-.569.569v1.19h-1.191a.569.569,0,0,0-.568.569v1.455a.569.569,0,0,0,.568.569h1.191v1.19a.569.569,0,0,0,.569.569h1.455a.569.569,0,0,0,.569-.569v-1.19h1.191a.569.569,0,0,0,.568-.569v-1.455a.57.57,0,0,0-.568-.569" transform="translate(-1546.858 -1031.889)" fill="#a8b400"/>
      </g>
    </g>
  </g>
</svg>
