<svg xmlns="http://www.w3.org/2000/svg" width="43.728" height="43.729" viewBox="0 0 43.728 43.729">
  <g id="Group_690" data-name="Group 690" transform="translate(1785.159 -1215.871)">
    <g id="support-svgrepo-com" transform="translate(-1785.159 1215.871)">
      <g id="Group_680" data-name="Group 680" transform="translate(0)">
        <g id="Group_679" data-name="Group 679" transform="translate(0)">
          <path id="Path_4322" data-name="Path 4322" d="M108.717,334.523a.911.911,0,0,0-1.284.108c-.125.148-.249.3-.369.453a.911.911,0,1,0,1.433,1.125c.106-.135.216-.27.327-.4A.911.911,0,0,0,108.717,334.523Z" transform="translate(-97.742 -305.755)" fill="#1a206d"/>
          <path id="Path_4323" data-name="Path 4323" d="M321.963,106.831a.911.911,0,0,0,1.285-.086c.125-.143.24-.287.341-.427a.911.911,0,1,0-1.478-1.065c-.067.094-.146.192-.234.293A.911.911,0,0,0,321.963,106.831Z" transform="translate(-294.181 -95.917)" fill="#1a206d"/>
          <path id="Path_4324" data-name="Path 4324" d="M42.819,38.262H41.431a19.57,19.57,0,0,0-9.873-16.11c.117-.308.227-.65.332-1.034h1.878a3.1,3.1,0,0,0,3.1-3.1V15.148a3.1,3.1,0,0,0-3.1-3.1h-.323a10.031,10.031,0,0,0-.251-3.387,12.223,12.223,0,0,0-4.335-6.383,11.868,11.868,0,0,0-13.987,0,12.225,12.225,0,0,0-4.336,6.383,10.034,10.034,0,0,0-.25,3.387H9.964a3.1,3.1,0,0,0-3.1,3.1v2.871a3.1,3.1,0,0,0,3.1,3.1h1.878c.105.385.215.727.332,1.034A19.57,19.57,0,0,0,2.3,38.262H.913a.911.911,0,1,0,0,1.822h8.25l.9,2.995a.911.911,0,0,0,.873.649H32.8a.911.911,0,0,0,.873-.649l.9-2.995h8.25a.911.911,0,0,0,0-1.822Zm-10.3-20.213c.048-.291.12-.667.2-1.1.172-.9.377-1.968.53-3.075h.513a1.278,1.278,0,0,1,1.277,1.277v2.871A1.278,1.278,0,0,1,33.769,19.3H32.3C32.375,18.911,32.448,18.5,32.522,18.049ZM9.964,19.3h0a1.278,1.278,0,0,1-1.277-1.277V15.148a1.278,1.278,0,0,1,1.277-1.277h.513c.153,1.107.358,2.177.53,3.074.084.436.156.812.2,1.1.074.448.147.862.22,1.247Zm2.142-7.359a8.286,8.286,0,0,1,.177-2.753,9.918,9.918,0,0,1,19.166,0,9.907,9.907,0,0,1,.108,3.559.907.907,0,0,0-.027.217c0,.007,0,.013,0,.019-.151,1.308-.4,2.626-.595,3.623-.086.448-.16.835-.212,1.149-.127.771-.246,1.422-.366,1.979a10.565,10.565,0,0,1-5.953,2.255.91.91,0,0,0-.9-.775h-1.64a.911.911,0,0,0-.911.911v.729c0,.01,0,.019,0,.029s0,.036,0,.054,0,.025,0,.037,0,.035.008.052.006.027.009.04.007.03.012.045.009.029.014.043.009.027.015.04.013.029.019.044.011.024.017.036.016.028.024.042l.021.034.027.038.025.034.028.033.03.033.029.028.035.032.03.024.039.029.033.021.042.025.037.019.042.02.043.017.039.014.05.014.037.01.053.009.029.005.017,0h.007a12.821,12.821,0,0,0,1.581.1,14.315,14.315,0,0,0,5.9-1.274A6.957,6.957,0,0,1,27.446,24c-.339.216-.723.459-1.149.748a8.876,8.876,0,0,1-4.431,1.272,8.876,8.876,0,0,1-4.43-1.272c-.427-.289-.81-.533-1.149-.748a4.879,4.879,0,0,1-2.831-3.9.9.9,0,0,0-.042-.184c-.133-.595-.265-1.3-.406-2.16-.052-.315-.126-.7-.212-1.151-.153-.8-.347-1.808-.495-2.851a29.489,29.489,0,0,0,7.675-2l.6,1.435c.061.147.112.276.156.389.2.512.391,1,.961,1.188a1.233,1.233,0,0,0,.4.066,3.682,3.682,0,0,0,1.12-.274c.128-.044.272-.093.435-.147a15.586,15.586,0,0,0,3.1-1.635.911.911,0,1,0-1.009-1.517,14,14,0,0,1-2.663,1.422c-.17.056-.32.107-.453.153l-.2.069c-.047-.121-.1-.258-.167-.414l-.99-2.374A.911.911,0,0,0,19.928,9.7C17.957,10.986,13.916,11.68,12.106,11.937ZM33.022,38.9v0l-.9,3H30.054l.379-1.416a.911.911,0,1,0-1.76-.472l-.506,1.887H11.612l-.9-3,0-.013L9.425,34.618h2.008l.506,1.887a.911.911,0,0,0,1.76-.472l-.379-1.416H34.307Zm2.094-.639L36.4,33.969a.911.911,0,0,0-.873-1.173H8.2a.911.911,0,0,0-.873,1.173l1.288,4.293H4.125a17.692,17.692,0,0,1,8.935-14.518,6.654,6.654,0,0,0,1.462,1.276A16.031,16.031,0,0,0,12,26.644a.911.911,0,0,0,1.127,1.431,14.209,14.209,0,0,1,2.3-1.478l.844-.433.162.108.056.035a10.684,10.684,0,0,0,5.369,1.532h0a10.684,10.684,0,0,0,5.369-1.532l.056-.035c.416-.282.8-.524,1.133-.738a8.881,8.881,0,0,0,2.249-1.792,17.692,17.692,0,0,1,8.935,14.518H35.116Z" transform="translate(-0.002)" fill="#a8b400"/>
          <path id="Path_4325" data-name="Path 4325" d="M148.772,446.473a.911.911,0,0,0-.644,1.116l.106.4a.911.911,0,1,0,1.76-.472l-.106-.4A.911.911,0,0,0,148.772,446.473Z" transform="translate(-135.448 -408.313)" fill="#1a206d"/>
          <path id="Path_4326" data-name="Path 4326" d="M344.7,425.753a.91.91,0,0,0,1.116-.644l.106-.4a.911.911,0,1,0-1.76-.472l-.106.4A.911.911,0,0,0,344.7,425.753Z" transform="translate(-314.647 -387.389)" fill="#1a206d"/>
        </g>
      </g>
    </g>
  </g>
</svg>
