<svg id="Group_152" data-name="Group 152" xmlns="http://www.w3.org/2000/svg" width="56.344" height="35.492" viewBox="0 0 56.344 35.492">
  <path id="Path_338" data-name="Path 338" d="M297.051,116.93c-.006-.072-.013-.141-.02-.213-.036-.347-.095-.691-.145-1.056.056.143.108.27.153.4s.085.257.127.386a.21.21,0,0,0-.005-.068,5.161,5.161,0,0,0-.367-1.194c-.038-.079-.072-.16-.1-.242-.1-.283-.206-.565-.309-.848-.008-.022-.016-.044-.024-.065l.028-.015.451.713a2.333,2.333,0,0,0-.083-.236,2.45,2.45,0,0,0-.579-.884.983.983,0,0,1-.148-.173,2.548,2.548,0,0,0-1.069-.961c-.2-.089-.408-.175-.611-.262l-.154-.066a5.576,5.576,0,0,1,1.956.564.353.353,0,0,0-.067-.052,4.615,4.615,0,0,0-2.094-.731,3.2,3.2,0,0,1-.835-.139,2.341,2.341,0,0,0-.295-.083c-.141-.037-.283-.072-.424-.107,0-.008,0-.016,0-.025h1.3c-.009-.024-.021-.032-.034-.035a7.3,7.3,0,0,0-1.707-.09,2.609,2.609,0,0,1-.585,0c-.087-.012-.173-.015-.261-.022,0-.008,0-.016,0-.025.424-.079.85-.159,1.3-.242a8.323,8.323,0,0,0-1.3.115c-.234.042-.463.116-.7.147-.337.044-.678.062-1.018.09a6.533,6.533,0,0,1,2.127-.541c-.138,0-.275,0-.413.005a7.121,7.121,0,0,0-1.506.221,2.987,2.987,0,0,0-1.13.539,2.051,2.051,0,0,1-.21.13c-.008-.012-.014-.022-.022-.032.153-.111.3-.231.461-.331a5.092,5.092,0,0,1,.51-.275c.168-.079.343-.142.516-.212a5.037,5.037,0,0,0-.988.363,10.089,10.089,0,0,0-1.644,1.244s0,0-.005.007c-.035.057-.073.111-.1.17-.046.087-.081.182-.133.264a.246.246,0,0,1-.118.082c-.089.037-.185.058-.272.1a1.478,1.478,0,0,0-.861,1.071,1.93,1.93,0,0,1,.461-.608c-.056.193-.1.365-.156.535a.811.811,0,0,1-.092.2,2.162,2.162,0,0,0-.261.562l.242-.412.019.009c-.008.036-.015.072-.024.107a9.657,9.657,0,0,0-.268,2.248,1.369,1.369,0,0,0-1.1,1.342v2.1a1.368,1.368,0,0,0,1.368,1.367h.431a12.558,12.558,0,0,0,1.485,2.924,4.473,4.473,0,0,0,3.489,2.19h.07a4.548,4.548,0,0,0,3.538-2.065,10.217,10.217,0,0,0,.924-1.473,10.081,10.081,0,0,0,.431-.958c.345-.251.613-.474.783-.622a1.367,1.367,0,0,0,1.293-1.363v-2.1a1.371,1.371,0,0,0-1.221-1.361Zm-3,7.283a3.581,3.581,0,0,1-2.8,1.672,3.487,3.487,0,0,1-2.7-1.765,11.879,11.879,0,0,1-.735-1.22,11.031,11.031,0,0,1-.516-1.145,6.443,6.443,0,0,1-.425-2.48c0-.039,0-.077,0-.115a.462.462,0,0,1,.008-.118c.034-.116.079-.229.109-.347.016-.065.034-.13.05-.2.08-.311.155-.623.241-.933a1.255,1.255,0,0,1,.131-.294c.1-.178.226-.178.345-.007l.052.077a.168.168,0,0,0,.01.016.892.892,0,0,1,.26-.652,1,1,0,0,1,.614-.305,6.3,6.3,0,0,0,5.564-.042,1.563,1.563,0,0,1,.429.058.792.792,0,0,1,.518.432,3.438,3.438,0,0,1,.142.445,1.454,1.454,0,0,1,.11-.13c.1-.1.183-.085.242.046a.648.648,0,0,1,.054.169c.041.276.076.55.118.826a.127.127,0,0,0,0,.016c.014.093.03.185.046.277.021.122.043.242.064.364,0,.051-.007.1-.013.154a11.414,11.414,0,0,1-.6,2.739q-.1.281-.218.552a7.342,7.342,0,0,1-2.528,1.042.786.786,0,0,0-.689-.406h-.525a.788.788,0,1,0,0,1.576h.525a.788.788,0,0,0,.747-.54,7.041,7.041,0,0,0,1.954-.658,8.787,8.787,0,0,1-.588.893Z" transform="translate(-263.171 -110.969)" fill="#1a0f55"/>
  <path id="Path_339" data-name="Path 339" d="M242.051,285.171l-.975-6.839,0-.161.751-.84.034-.2a.837.837,0,0,0-.824-.977l-1.467,0a.837.837,0,0,0-.828.974l.033.2.837.868-1.116,6.9-1.968-9.231-.095-.358-.262.154a10.152,10.152,0,0,1-3.158,1.213c-2.181.441-4.2.964-4.926,3.391-.494,1.658-.554,8.331-.667,11.023a1.18,1.18,0,0,0,.958,1.208,63.537,63.537,0,0,0,8.967,1.135h0l.146.007.679.03.25.009c.187.006.373.011.559.015l-.118,0h0l.118,0h0l.079,0,.108,0,.083,0h.118c.247,0,.493.008.74.008.189,0,.378,0,.567,0-.19,0-.379,0-.567,0a70.07,70.07,0,0,0,12.038-1.163,1.18,1.18,0,0,0,.977-1.205c-.1-2.7-.124-9.355-.609-11.013-.715-2.443-2.762-2.971-4.946-3.424a10.175,10.175,0,0,1-3.22-1.27l-.241-.146Zm-.392,8.517-.12,0h0l.12,0S241.66,293.688,241.659,293.689Zm-2.411.009h0Z" transform="translate(-212.116 -258.216)" fill="#a8b400"/>
  <path id="Path_340" data-name="Path 340" d="M132.862,138.474c0-.053-.009-.1-.015-.157-.027-.256-.07-.508-.107-.776.041.1.079.2.113.294s.062.189.093.284a.15.15,0,0,0,0-.051,3.781,3.781,0,0,0-.27-.877c-.027-.058-.052-.118-.075-.177q-.114-.311-.227-.624c-.007-.016-.012-.032-.018-.048l.02-.011.332.524q-.026-.088-.061-.173a1.786,1.786,0,0,0-.425-.65.737.737,0,0,1-.109-.128,1.873,1.873,0,0,0-.785-.707c-.149-.065-.3-.129-.449-.192l-.113-.049a4.108,4.108,0,0,1,1.438.415.248.248,0,0,0-.05-.039,3.387,3.387,0,0,0-1.539-.537,2.324,2.324,0,0,1-.615-.1,1.789,1.789,0,0,0-.217-.061l-.312-.078c0-.007,0-.012,0-.018h.957c-.007-.018-.016-.024-.025-.026a5.358,5.358,0,0,0-1.255-.066,1.927,1.927,0,0,1-.43,0c-.064-.008-.128-.011-.192-.016a.138.138,0,0,0,0-.018l.955-.177a6.186,6.186,0,0,0-.953.085c-.173.031-.341.085-.513.108-.248.032-.5.046-.749.066a4.8,4.8,0,0,1,1.563-.4c-.1,0-.2,0-.3,0a5.2,5.2,0,0,0-1.107.162,2.194,2.194,0,0,0-.83.4,1.407,1.407,0,0,1-.154.095l-.016-.024c.113-.082.221-.17.339-.244a3.629,3.629,0,0,1,.375-.2c.124-.058.253-.1.379-.156a3.8,3.8,0,0,0-.727.267,7.422,7.422,0,0,0-1.209.915l0,0c-.026.041-.053.082-.076.125-.034.064-.06.134-.1.195a.2.2,0,0,1-.087.061c-.065.027-.136.042-.2.072a1.088,1.088,0,0,0-.634.787,1.418,1.418,0,0,1,.339-.447c-.041.142-.075.268-.115.393a.621.621,0,0,1-.068.144,1.619,1.619,0,0,0-.192.413l.178-.3.014.007c-.007.027-.012.052-.018.078a7.115,7.115,0,0,0-.2,1.653,1.006,1.006,0,0,0-.811.987v1.543a1.006,1.006,0,0,0,1.006,1.005h.317a9.193,9.193,0,0,0,1.092,2.15,3.292,3.292,0,0,0,2.565,1.61h.051a3.342,3.342,0,0,0,2.6-1.519,7.513,7.513,0,0,0,.679-1.082,7.378,7.378,0,0,0,.317-.7c.253-.184.451-.348.576-.458a1,1,0,0,0,.95-1v-1.543a1,1,0,0,0-.9-1Zm-2.2,5.353a2.632,2.632,0,0,1-2.059,1.229,2.565,2.565,0,0,1-1.984-1.3,8.492,8.492,0,0,1-.54-.9,8.2,8.2,0,0,1-.379-.841,4.726,4.726,0,0,1-.313-1.823c0-.028,0-.056,0-.084a.293.293,0,0,1,.007-.087c.025-.085.058-.168.08-.255.012-.048.025-.1.037-.144.059-.229.114-.458.177-.686a.9.9,0,0,1,.1-.216c.077-.131.166-.131.254,0l.039.056.007.012a.657.657,0,0,1,.191-.479.731.731,0,0,1,.451-.224,4.634,4.634,0,0,0,4.091-.031,1.192,1.192,0,0,1,.315.042.586.586,0,0,1,.381.318,2.725,2.725,0,0,1,.1.327,1.116,1.116,0,0,1,.081-.095c.074-.074.134-.062.178.034a.5.5,0,0,1,.041.124c.03.2.056.405.087.607a.064.064,0,0,0,0,.012c.01.068.022.136.034.2l.047.267c0,.038-.005.075-.009.114a8.4,8.4,0,0,1-.445,2.014q-.074.207-.161.405a5.39,5.39,0,0,1-1.859.765.579.579,0,0,0-.507-.3h-.387a.579.579,0,1,0,0,1.159h.387a.578.578,0,0,0,.549-.4,5.212,5.212,0,0,0,1.437-.483,6.652,6.652,0,0,1-.433.654Z" transform="translate(-119.203 -131.666)" fill="#1a0f55"/>
  <path id="Path_341" data-name="Path 341" d="M95.286,261.235a6.409,6.409,0,0,1,3.777-4.227,6.385,6.385,0,0,0-2.585-.956,7.48,7.48,0,0,1-2.367-.933l-.176-.107-1.511,7.12-.716-5.029v-.118l.552-.617.025-.147a.616.616,0,0,0-.605-.718l-1.078,0a.616.616,0,0,0-.609.716l.024.146.616.639-.821,5.074-1.447-6.787-.07-.264-.192.114a7.487,7.487,0,0,1-2.322.892c-1.6.324-3.089.708-3.622,2.493-.364,1.219-.407,6.125-.49,8.1a.867.867,0,0,0,.7.888,46.773,46.773,0,0,0,6.592.835h0l.107,0,.5.022.184.006.325.009h0l.087,0h.059l.079,0,.061,0h.087l.544.007c1.278,0,2.518-.065,3.672-.164a36.192,36.192,0,0,1,.621-7.006ZM90.361,268.4h0Z" transform="translate(-81.663 -239.888)" fill="#a8b400"/>
  <path id="Path_342" data-name="Path 342" d="M180.55,382.479l.088,0h0Z" transform="translate(-170.168 -353.972)"/>
  <path id="Path_343" data-name="Path 343" d="M489.522,138.474c0-.053-.009-.1-.015-.157-.027-.256-.07-.508-.107-.776.042.1.079.2.113.294s.062.189.094.284a.144.144,0,0,0,0-.051,3.772,3.772,0,0,0-.27-.877c-.027-.058-.052-.118-.075-.177q-.115-.311-.227-.624c-.006-.016-.012-.032-.017-.048l.02-.011.332.524q-.026-.088-.06-.173a1.791,1.791,0,0,0-.425-.65.733.733,0,0,1-.11-.128,1.87,1.87,0,0,0-.785-.707c-.149-.065-.3-.129-.449-.192l-.113-.049a4.108,4.108,0,0,1,1.438.415.246.246,0,0,0-.05-.039,3.387,3.387,0,0,0-1.539-.537,2.323,2.323,0,0,1-.615-.1,1.8,1.8,0,0,0-.217-.061l-.312-.078c0-.007,0-.012,0-.018h.957c-.008-.018-.016-.024-.025-.026a5.357,5.357,0,0,0-1.255-.066,1.927,1.927,0,0,1-.43,0c-.063-.008-.128-.011-.192-.016a.159.159,0,0,0,0-.018l.956-.177a6.185,6.185,0,0,0-.953.085c-.173.031-.341.085-.513.108-.248.032-.5.046-.749.066a4.8,4.8,0,0,1,1.563-.4c-.1,0-.2,0-.3,0a5.2,5.2,0,0,0-1.107.162,2.193,2.193,0,0,0-.83.4,1.4,1.4,0,0,1-.154.095l-.016-.024c.113-.082.222-.17.339-.244a3.64,3.64,0,0,1,.375-.2c.124-.058.253-.1.38-.156a3.809,3.809,0,0,0-.727.267,7.41,7.41,0,0,0-1.209.915l0,0c-.026.041-.053.082-.076.125-.034.064-.06.134-.1.195a.2.2,0,0,1-.088.061c-.065.027-.136.042-.2.072a1.088,1.088,0,0,0-.634.787,1.415,1.415,0,0,1,.339-.447c-.041.142-.075.268-.115.393a.622.622,0,0,1-.068.144,1.616,1.616,0,0,0-.192.413c.065-.11.122-.207.178-.3l.014.007c-.006.027-.012.052-.018.078a7.117,7.117,0,0,0-.2,1.653,1.006,1.006,0,0,0-.811.987v1.543a1.006,1.006,0,0,0,1.006,1.005h.317a9.222,9.222,0,0,0,1.092,2.15,3.292,3.292,0,0,0,2.565,1.61h.051a3.342,3.342,0,0,0,2.6-1.519,7.506,7.506,0,0,0,.679-1.082,7.4,7.4,0,0,0,.317-.7c.253-.184.451-.348.576-.458a1,1,0,0,0,.95-1v-1.543a1.006,1.006,0,0,0-.9-1Zm-2.2,5.353a2.632,2.632,0,0,1-2.059,1.229,2.565,2.565,0,0,1-1.984-1.3,8.487,8.487,0,0,1-.54-.9,8.137,8.137,0,0,1-.38-.841,4.737,4.737,0,0,1-.313-1.823c0-.028,0-.056,0-.084a.28.28,0,0,1,.007-.087c.025-.085.058-.168.08-.255.012-.048.025-.1.037-.144.059-.229.114-.458.177-.686a.892.892,0,0,1,.1-.216c.077-.131.166-.131.254,0l.038.056.007.012a.657.657,0,0,1,.191-.479.73.73,0,0,1,.451-.224,4.634,4.634,0,0,0,4.091-.031,1.191,1.191,0,0,1,.315.042.586.586,0,0,1,.381.318,2.7,2.7,0,0,1,.1.327,1.112,1.112,0,0,1,.081-.095c.074-.074.134-.062.179.034a.5.5,0,0,1,.04.124c.03.2.056.405.086.607a.055.055,0,0,0,0,.012c.01.068.022.136.034.2.015.09.031.178.047.267,0,.038-.005.075-.009.114a8.41,8.41,0,0,1-.445,2.014c-.05.138-.1.273-.161.405a5.393,5.393,0,0,1-1.859.765.578.578,0,0,0-.507-.3h-.387a.579.579,0,0,0,0,1.159h.387a.578.578,0,0,0,.55-.4,5.214,5.214,0,0,0,1.437-.483,6.622,6.622,0,0,1-.433.654Z" transform="translate(-438.418 -131.666)" fill="#1a0f55"/>
  <path id="Path_344" data-name="Path 344" d="M537.21,382.479l.088,0h0Z" transform="translate(-489.384 -353.972)"/>
  <path id="Path_345" data-name="Path 345" d="M469.2,258.577c-.525-1.8-2.031-2.183-3.636-2.517a7.477,7.477,0,0,1-2.367-.933l-.177-.107-1.511,7.12-.716-5.029v-.119l.552-.617.025-.147a.616.616,0,0,0-.605-.719l-1.078,0a.616.616,0,0,0-.609.716l.024.146.616.639-.821,5.075L457.45,255.3l-.07-.264-.192.114a7.481,7.481,0,0,1-2.322.892,6.039,6.039,0,0,0-2.656,1,6.434,6.434,0,0,1,3.847,4.283,35.755,35.755,0,0,1,.583,6.939c.453.038.919.073,1.41.1h0l.107,0,.5.022.184.007.325.009h0l.086,0h.059l.079,0,.061,0h.088l.543.007a51.49,51.49,0,0,0,8.851-.855.868.868,0,0,0,.718-.887C469.578,264.692,469.56,259.8,469.2,258.577Zm-9.754,9.831h0Z" transform="translate(-413.308 -239.896)" fill="#a8b400"/>
</svg>
