<svg id="Group_237" data-name="Group 237" xmlns="http://www.w3.org/2000/svg" width="53.146" height="52.123" viewBox="0 0 53.146 52.123">
  <path id="Path_531" data-name="Path 531" d="M446.191,55.261s-2.308,2.694-1.922,4.521a3.4,3.4,0,0,1-.228-3.265c1.208-3.633.323-6.448-1.7-7.892,0,0,.349,5-1.269,5.674,0,0,.479-6.886-3.465-8.906,0,0,.811,4.955-1.153,6.828A10.081,10.081,0,0,0,433.88,56.9s-1.153-.386-.769-4.041a20.93,20.93,0,0,0-2.4,4.614l5.629,4.536a18.453,18.453,0,0,1,2.93-3.341c-1.267,3.85.369,5.326.369,5.326a3.328,3.328,0,0,1,.369-3.269c.371,2.321,2.995,3.227,2.728,6.17-.008.083-.024.16-.035.239l1.609,1.3a6.018,6.018,0,0,0,2.565-4.606c.585-5.944-1.345-5.623-.686-8.563Z" transform="translate(-393.844 -45.394)" fill="#1a0f55"/>
  <path id="Path_532" data-name="Path 532" d="M183.173,155.66l-18.421-14.846a2.063,2.063,0,0,0-2.589,0l-8.883,7.16a15.912,15.912,0,0,1-.073,2.5,6.012,6.012,0,0,1-5.48,5.531,20.742,20.742,0,0,1-4.3-.025,2.06,2.06,0,0,0,2.9,2.887l1.053-.848v17.115h11.539V161.666h9.072v13.472h11.537V158.022l1.054.848a2.061,2.061,0,0,0,2.587-3.21Zm-21.226-.043h-5.226v-4.124h5.226Zm8.247,0H164.97v-4.124h5.223Z" transform="translate(-132.845 -131.532)" fill="#a8b400"/>
  <path id="Path_533" data-name="Path 533" d="M101.808,97.818c-1.028,3.131.3,4.33.3,4.33a2.7,2.7,0,0,1,.3-2.657c.3,1.887,2.434,2.623,2.219,5.015a2.993,2.993,0,0,1-1.254,2.193,5.107,5.107,0,0,0,4.619-4.686c.475-4.836-1.1-4.575-.558-6.963,0,0-1.877,2.189-1.564,3.673a2.764,2.764,0,0,1-.186-2.654c.985-2.953.263-5.242-1.377-6.415,0,0,.282,4.064-1.031,4.613,0,0,.388-5.6-2.817-7.239,0,0,.66,4.026-.939,5.55a8.217,8.217,0,0,0-2.094,3.8s-.938-.313-.627-3.284c0,0-7.087,9.74,1.939,13.473-2.611-3.9,3.069-8.749,3.069-8.749Z" transform="translate(-88.562 -83.159)" fill="#1a0f55"/>
  <g id="Group_235" data-name="Group 235" transform="translate(0 29.807)">
    <path id="Path_535" data-name="Path 535" d="M402.579,380.162l4.131-.091a1.223,1.223,0,0,1,1.271,1.18,1.26,1.26,0,0,1-1.226,1.271l-4.132.136h-.091a2.424,2.424,0,0,1-2.134-1.226c.636-.772,1.544-1.907,1.862-2.315Z" transform="translate(-390.543 -365.972)" fill="#1a0f55"/>
    <path id="Path_536" data-name="Path 536" d="M477.172,280.711l2.543.181a.234.234,0,0,0,.181-.091c1.907-3,2.179-3.042,2.633-3.133l.454-.091c.409-.091.954-.182,1.226-.227a1.408,1.408,0,0,1,1.044.182c.863.545,1.816,4.858,2,5.584a1.761,1.761,0,0,1-.227,1.771c-.5.681-2.542,3.224-2.542,3.224a7.79,7.79,0,0,0-1.18,2.179l-1.135,3.587a1.252,1.252,0,0,1-1.18.863.888.888,0,0,1-.363-.045,1.314,1.314,0,0,1-.817-1.589l1.135-3.587a10.547,10.547,0,0,1,1.589-3l1.135-1.407-1.5-3.949c-.136.227-.318.5-.5.772a2.2,2.2,0,0,1-2.089,1.044l-2.543-.181a1.032,1.032,0,0,1-.954-1.135,1,1,0,0,1,1.09-.953Z" transform="translate(-476.079 -272.422)" fill="#1a0f55"/>
    <path id="Path_537" data-name="Path 537" d="M507.578,217.038a2.316,2.316,0,1,0,2.793,1.71,2.316,2.316,0,0,0-2.793-1.71" transform="translate(-501.542 -216.974)" fill="#1a0f55"/>
    <g id="Group_236" data-name="Group 236" transform="translate(10.128 4.584)">
      <path id="Path_542" data-name="Path 542" d="M390.971,278.311c-.727-2.815-1.226-4.086-1.771-4.722,2.951-.318,8.218.318,8.218,4.04C397.418,281.217,393.241,281.444,390.971,278.311Z" transform="translate(-388.026 -273.47)" fill="#fff"/>
      <path id="Path_534" data-name="Path 534" d="M390.971,278.311c-.727-2.815-1.226-4.086-1.771-4.722,2.951-.318,8.218.318,8.218,4.04C397.418,281.217,393.241,281.444,390.971,278.311Z" transform="translate(-389.2 -273.518)" fill="#a8b400"/>
    </g>
  </g>
</svg>
