<svg xmlns="http://www.w3.org/2000/svg" width="20.5" height="20.5" viewBox="0 0 20.5 20.5">
  <g id="vuesax_linear_home" data-name="vuesax/linear/home" transform="translate(-556 -188)">
    <g id="home" transform="translate(556 188)">
      <path id="Vector" d="M0,2.563V0" transform="translate(10.25 12.813)" fill="none" stroke="#fff" stroke-linecap="round" stroke-linejoin="round" stroke-width="1.5"/>
      <path id="Vector-2" data-name="Vector" d="M6.9.543.976,5.284A2.881,2.881,0,0,0,.028,7.77l1.136,6.8a2.725,2.725,0,0,0,2.6,2.2h9.567a2.741,2.741,0,0,0,2.6-2.2l1.136-6.8a2.929,2.929,0,0,0-.948-2.486L10.193.552A2.755,2.755,0,0,0,6.9.543Z" transform="translate(1.706 1.865)" fill="none" stroke="#fff" stroke-linecap="round" stroke-linejoin="round" stroke-width="1.5"/>
      <path id="Vector-3" data-name="Vector" d="M0,0H20.5V20.5H0Z" fill="none" opacity="0"/>
    </g>
  </g>
</svg>
