<svg xmlns="http://www.w3.org/2000/svg" width="20" height="20" viewBox="0 0 20 20">
  <g id="vuesax_bold_home" data-name="vuesax/bold/home" transform="translate(-556 -188)">
    <g id="home" transform="translate(556 188)">
      <path id="Vector" d="M15.833,5.008,10.375.642A3.138,3.138,0,0,0,6.583.633L1.125,5.008A3.264,3.264,0,0,0,.033,7.867l1.05,6.283a3.1,3.1,0,0,0,2.975,2.517h8.833a3.144,3.144,0,0,0,2.983-2.525l1.05-6.283A3.348,3.348,0,0,0,15.833,5.008ZM9.1,13.333a.625.625,0,0,1-1.25,0v-2.5a.625.625,0,0,1,1.25,0Z" transform="translate(1.525 1.667)" fill="#5d5d5d"/>
      <path id="Vector-2" data-name="Vector" d="M0,0H20V20H0Z" transform="translate(20 20) rotate(180)" fill="none" opacity="0"/>
    </g>
  </g>
</svg>
