<svg xmlns="http://www.w3.org/2000/svg" width="50.491" height="50.496" viewBox="0 0 50.491 50.496">
  <g id="Group_712" data-name="Group 712" transform="translate(-26 -17)">
    <path id="Path_4359" data-name="Path 4359" d="M-.36.44H.36V-.12a1.211,1.211,0,0,0,.952-1.336A1.974,1.974,0,0,0,.344-3.112c-.592-.472-.752-.752-.752-1.12,0-.328.16-.48.44-.48s.44.152.44.5V-4H1.3v-.16A1.189,1.189,0,0,0,.36-5.472V-5.96H-.36v.488a1.188,1.188,0,0,0-.928,1.3A1.956,1.956,0,0,0-.32-2.552C.272-2.088.432-1.8.432-1.4c0,.36-.176.5-.456.5S-.48-1.04-.48-1.384v-.424h-.832v.368A1.2,1.2,0,0,0-.36-.12Z" transform="translate(58 43)" fill="#1a206d"/>
    <g id="investment_2_" data-name="investment (2)" transform="translate(25.746 16.748)">
      <path id="Path_4292" data-name="Path 4292" d="M7.669,27.57a1.666,1.666,0,0,0-1.657-1.558H2.175A1.673,1.673,0,0,0,.5,27.683V41.729A1.673,1.673,0,0,0,2.175,43.4H6.012a1.668,1.668,0,0,0,1.521-.993L20.566,49.05a13.166,13.166,0,0,0,11.068.433c5-2.08,13.875-5.906,17.125-8.161a4.067,4.067,0,0,0,1.076-5.554l0-.007-.019-.028a4.05,4.05,0,0,0-4.564-1.453c-.858.284-2.657.875-4.615,1.5a14.18,14.18,0,0,0,.591-22.038,3.317,3.317,0,0,0,.272-.233,3.454,3.454,0,0,0-2.444-5.89H38.99l1.136-3.242a1.9,1.9,0,0,0-.238-1.746A1.977,1.977,0,0,0,38.281,1.8a1.575,1.575,0,0,0-1.343.661l-.165-.377a2.571,2.571,0,0,0-4.443-.536,1,1,0,0,0-.094.122.567.567,0,0,1-.485.26.576.576,0,0,1-.483-.259,2.576,2.576,0,0,0-4.515.381l-.087.4a2,2,0,0,0-3.053.181,1.894,1.894,0,0,0-.235,1.748l1.147,3.278A3.415,3.415,0,0,0,21.46,11.07a3.457,3.457,0,0,0,1.271,2.68,14.132,14.132,0,0,0-4.612,13.815ZM5.68,41.4H2.5V28.012H5.68Zm40.192-5.22a2.03,2.03,0,0,1,2.277.667h0l.015.023a2.055,2.055,0,0,1-.545,2.808c-3.1,2.15-11.827,5.909-16.755,7.959a11.282,11.282,0,0,1-9.391-.369L7.681,40.237V29.57h10.46c4.432,0,4,4.643,9.491,4.643h5.652a2.008,2.008,0,0,1,1.967,1.552A1.844,1.844,0,0,1,33.439,37.9H20.346a1,1,0,0,0,0,2H33.439C34.654,39.9,44.628,36.591,45.872,36.18ZM26.611,4.45a1.9,1.9,0,0,0,1.778-1.171l.193-.422a.562.562,0,0,1,.528-.35.568.568,0,0,1,.485.263,2.582,2.582,0,0,0,4.222.126,1,1,0,0,0,.1-.13A.558.558,0,0,1,34.4,2.5a.572.572,0,0,1,.536.367l.165.379a1.939,1.939,0,0,0,1.788,1.19,1.914,1.914,0,0,0,1.265-.476L36.871,7.62H26.63L25.35,3.962A1.9,1.9,0,0,0,26.611,4.45ZM23.9,10.039c.6-.61,1.34-.361,2.024-.419H39.051a1.456,1.456,0,0,1,.092,2.909H24.92l-.134-.005A1.458,1.458,0,0,1,23.46,11.07,1.422,1.422,0,0,1,23.9,10.039Zm1.089,4.491H38.978a12.187,12.187,0,0,1-1.732,21,3.879,3.879,0,0,0-3.807-3.313h-.154l-.023,0H27.63a5.018,5.018,0,0,1-3.113-1.09c-.015-.012-.031-.022-.046-.034-.929-.753-1.655-2.436-4.222-3.205A12.21,12.21,0,0,1,24.985,14.53Z" fill="#a8b400"/>
      <path id="Path_4292_-_Outline" data-name="Path 4292 - Outline" d="M26.576,50.748a13.519,13.519,0,0,1-6.124-1.475L7.638,42.741a1.919,1.919,0,0,1-1.627.908H2.175a1.923,1.923,0,0,1-1.921-1.92V27.683a1.923,1.923,0,0,1,1.921-1.921H6.012A1.921,1.921,0,0,1,7.888,27.32l9.923,0a14.373,14.373,0,0,1,4.542-13.567,3.709,3.709,0,0,1-.244-5.1,3.663,3.663,0,0,1,2.081-1.195L23.141,4.463a2.14,2.14,0,0,1,.268-1.975,2.267,2.267,0,0,1,3.1-.505V1.976l.009-.021a2.788,2.788,0,0,1,2.589-1.7,2.824,2.824,0,0,1,2.365,1.277.327.327,0,0,0,.275.147.314.314,0,0,0,.277-.148,1.248,1.248,0,0,1,.108-.142,2.821,2.821,0,0,1,4.868.6L37.01,2a1.919,1.919,0,0,1,1.271-.452,2.229,2.229,0,0,1,1.81.936,2.146,2.146,0,0,1,.271,1.973L39.338,7.381a3.7,3.7,0,0,1,2.336,6.3c-.021.022-.043.043-.065.063a14.419,14.419,0,0,1,.16,21.406c1.445-.466,2.7-.878,3.4-1.11a4.371,4.371,0,0,1,1.364-.216,4.2,4.2,0,0,1,3.486,1.768l.01.015.011.017,0,.005a4.319,4.319,0,0,1-1.143,5.9C45.633,43.8,36.74,47.63,31.73,49.714A13.322,13.322,0,0,1,26.576,50.748ZM7.412,42.065l13.267,6.763a13.017,13.017,0,0,0,5.9,1.42,12.825,12.825,0,0,0,4.962-1c4.992-2.076,13.848-5.894,17.079-8.135a3.816,3.816,0,0,0,1.014-5.2l-.015-.023,0,0L49.6,35.87a3.7,3.7,0,0,0-3.069-1.544,3.871,3.871,0,0,0-1.208.191c-.892.295-2.678.882-4.617,1.5l-.228-.437a13.93,13.93,0,0,0,.58-21.649l-.226-.193.229-.19.074-.06a1.977,1.977,0,0,0,.179-.155A3.2,3.2,0,0,0,39.051,7.87h-.414l1.252-3.575a1.651,1.651,0,0,0-.206-1.519,1.728,1.728,0,0,0-1.4-.726,1.33,1.33,0,0,0-1.134.548l-.253.385-.35-.8A2.322,2.322,0,0,0,32.531,1.7l-.015.019a.744.744,0,0,0-.07.092.832.832,0,0,1-1.387,0A2.325,2.325,0,0,0,29.111.756a2.29,2.29,0,0,0-2.119,1.371l-.185.856-.327-.364a1.678,1.678,0,0,0-1.253-.539,1.714,1.714,0,0,0-1.41.7,1.647,1.647,0,0,0-.2,1.52l1.251,3.574-.312.035A3.149,3.149,0,0,0,21.71,11.07a3.206,3.206,0,0,0,1.179,2.487l.231.189-.226.194a13.877,13.877,0,0,0-4.572,13.375h.05v.236l.058.263H18.1l-10.666,0-.016-.233a1.42,1.42,0,0,0-1.407-1.325H2.175A1.423,1.423,0,0,0,.754,27.683V41.729a1.422,1.422,0,0,0,1.421,1.42H6.012a1.42,1.42,0,0,0,1.293-.845ZM26.58,48.736a11.514,11.514,0,0,1-5.219-1.245l-13.93-7.1V29.32h10.71a5.564,5.564,0,0,1,4.345,2.21,6.321,6.321,0,0,0,5.146,2.432h5.652A2.268,2.268,0,0,1,35.5,35.718v.008a2.094,2.094,0,0,1-2.059,2.42H20.346a.75.75,0,1,0,0,1.5H33.439c.721,0,5.31-1.374,12.275-3.677l.08-.027a2.423,2.423,0,0,1,.756-.12,2.186,2.186,0,0,1,1.768.828l.082.041v.081a2.307,2.307,0,0,1-.638,3.11c-3.115,2.162-11.863,5.93-16.8,7.984A11.326,11.326,0,0,1,26.58,48.736ZM7.931,40.084l13.657,6.962a11.012,11.012,0,0,0,4.992,1.19,10.829,10.829,0,0,0,4.189-.83c4.919-2.046,13.631-5.8,16.709-7.934a1.8,1.8,0,0,0,.479-2.465l-.015-.023a1.665,1.665,0,0,0-1.392-.663,1.923,1.923,0,0,0-.6.095l-.08.026c-4.182,1.382-11.359,3.7-12.432,3.7H20.346a1.25,1.25,0,1,1,0-2.5H33.439a1.587,1.587,0,0,0,1.207-.563,1.563,1.563,0,0,0,.36-1.275,1.761,1.761,0,0,0-1.723-1.346h-5.65a6.817,6.817,0,0,1-5.505-2.584c-1.07-1.1-1.995-2.058-3.986-2.058H7.931Zm-2,1.566H2.254V27.762H5.93Zm-3.176-.5H5.43V28.262H2.754ZM37.048,35.9,37,35.563a3.639,3.639,0,0,0-3.559-3.1h-.154l-.038,0H27.63a5.293,5.293,0,0,1-3.268-1.144l-.011-.008-.038-.029a6.751,6.751,0,0,1-.8-.829,6.582,6.582,0,0,0-3.337-2.33l-.131-.039-.038-.131a12.46,12.46,0,0,1,4.832-13.624l.065-.045H39.056l.064.045a12.429,12.429,0,0,1-1.768,21.427Zm-3.609-3.934a4.14,4.14,0,0,1,3.99,3.195A11.937,11.937,0,0,0,38.9,14.78H25.064a11.961,11.961,0,0,0-4.611,12.9,7.129,7.129,0,0,1,3.44,2.441,6.317,6.317,0,0,0,.735.768l.01.008.035.026A4.79,4.79,0,0,0,27.63,31.96h5.631l.038,0ZM24.92,12.78h-.01l-.148-.006a1.706,1.706,0,0,1-1.552-1.7,1.661,1.661,0,0,1,.51-1.21,1.761,1.761,0,0,1,1.356-.494c.1,0,.2,0,.3.007s.192.006.285.006.165,0,.234-.009H39.051a1.706,1.706,0,0,1,.114,3.408H24.92Zm-.117-.5.122,0H39.131a1.206,1.206,0,0,0-.08-2.409H25.93c-.081.006-.167.01-.265.01s-.2,0-.3-.007-.193-.006-.286-.006a1.268,1.268,0,0,0-1,.347,1.175,1.175,0,0,0-.364.856A1.208,1.208,0,0,0,24.8,12.275ZM37.049,7.87h-10.6L24.8,3.136l.72.639a1.663,1.663,0,0,0,2.641-.589l.005-.013.192-.419A.826.826,0,0,1,29.8,2.632a2.332,2.332,0,0,0,3.813.114l.016-.019a.752.752,0,0,0,.076-.1.811.811,0,0,1,.689-.377.824.824,0,0,1,.767.521l.164.375a1.69,1.69,0,0,0,1.559,1.04,1.656,1.656,0,0,0,1.1-.413l.718-.635Zm-10.241-.5h9.887l.992-2.833a2.187,2.187,0,0,1-2.817-1.191L34.7,2.969a.321.321,0,0,0-.307-.217.307.307,0,0,0-.27.15,1.249,1.249,0,0,1-.117.153A2.8,2.8,0,0,1,31.75,4.18a2.819,2.819,0,0,1-2.363-1.273.315.315,0,0,0-.276-.15.308.308,0,0,0-.3.2l0,.007-.191.416A2.158,2.158,0,0,1,26.611,4.7a2.109,2.109,0,0,1-.792-.155Z" fill="#a8b400"/>
      <path id="Path_4293" data-name="Path 4293" d="M29.967,27.988A6.484,6.484,0,1,0,23.484,21.5,6.49,6.49,0,0,0,29.967,27.988Zm0-11.442A4.958,4.958,0,1,1,25.009,21.5,4.963,4.963,0,0,1,29.967,16.547Z" transform="translate(2.016 2.016)" fill="#1a206d"/>
      <path id="Path_4293_-_Outline" data-name="Path 4293 - Outline" d="M29.967,28.238A6.734,6.734,0,1,1,36.7,21.5,6.741,6.741,0,0,1,29.967,28.238Zm0-12.967A6.234,6.234,0,1,0,36.2,21.5,6.241,6.241,0,0,0,29.967,15.271Zm0,11.442A5.208,5.208,0,1,1,35.174,21.5,5.214,5.214,0,0,1,29.967,26.713Zm0-9.916A4.708,4.708,0,1,0,34.674,21.5,4.713,4.713,0,0,0,29.967,16.8Z" transform="translate(2.016 2.016)" fill="#1a206d"/>
    </g>
  </g>
</svg>
