<svg xmlns="http://www.w3.org/2000/svg" width="56.301" height="54.864" viewBox="0 0 56.301 54.864">
  <g id="Group_232" data-name="Group 232" transform="translate(0.894)">
    <path id="Path_494" data-name="Path 494" d="M29.731,15.182l-2.349,6.481s-.23.915,3.045,2.371a7.042,7.042,0,0,0,4.375-.789s1.612-1.165-.315-1.819c-.57-.195-2.49.318-3.215-.163a15.771,15.771,0,0,1,6.068-4.429c1.979-.873-7.609-1.653-7.609-1.653" transform="translate(-7.445 -0.093)" fill="#da9957"/>
    <path id="Path_495" data-name="Path 495" d="M28.016,15.665l-2.348,6.481s-.23.915,3.045,2.371a7.042,7.042,0,0,0,4.375-.789s1.612-1.165-.315-1.819c-.57-.195-2.49.318-3.215-.163a15.771,15.771,0,0,1,6.068-4.429c1.979-.873-7.609-1.653-7.609-1.653" transform="translate(-7.435 -0.096)" fill="#e3a35b"/>
    <path id="Path_496" data-name="Path 496" d="M26.228,16.139,23.883,22.62s-.234.915,3.041,2.371A7.054,7.054,0,0,0,31.3,24.2s1.611-1.165-.315-1.819c-.574-.195-2.486.318-3.216-.163a17.412,17.412,0,0,0,3.686-5.448c.815-2.008-5.231-.633-5.231-.633" transform="translate(-7.425 -0.096)" fill="#ecae6b"/>
    <path id="Path_497" data-name="Path 497" d="M32.934,30.345a6.715,6.715,0,1,1-6.715-6.722,6.724,6.724,0,0,1,6.715,6.722" transform="translate(-7.398 -0.145)" fill="#a8b400"/>
    <path id="Path_498" data-name="Path 498" d="M26.226,24.693a5.661,5.661,0,1,0,5.665,5.657,5.646,5.646,0,0,0-5.665-5.657" transform="translate(-7.404 -0.151)" fill="#babf08"/>
    <path id="Path_500" data-name="Path 500" d="M54.252,3.925c-3.86,2.117-8.747,4.455-8.747,4.455-4.3,1.286-11.962,1.21-11.962,1.21-2.3.309-5.463,2.3-8.736,4.3a2.062,2.062,0,0,0-.984,1.635L23.5,20.8c-.129,1.184-.3,3.389-.3,3.389a6.412,6.412,0,0,1,2.987-.688q.069-.276.146-.567l.613-3.145c2.134-1.121,6.961-2.541,8.873-.384.037.041.537.706-3.175,2.528a24.6,24.6,0,0,0-5.316,3.5c-2.627,3.011-1.285,4.073-.289,4.429a2.074,2.074,0,0,0,1.346-.244c3.115-2.188,4.041-3.266,6.408-4.658,1.271-.737,5.5-2.275,6.809-2.94a10.221,10.221,0,0,0,3.375-2.985,22.935,22.935,0,0,1,4.134-4.083,21.123,21.123,0,0,1,7.78-3.224,15.636,15.636,0,0,1,1.608-.223c1.63-2.5-4.246-7.587-4.246-7.587" transform="translate(-7.421 -0.025)" fill="#fcc083"/>
    <path id="Path_501" data-name="Path 501" d="M54.253,3.925c-3.86,2.117-8.747,4.455-8.747,4.455-4.3,1.286-11.962,1.21-11.962,1.21-2.3.309-5.463,2.3-8.736,4.3a2.061,2.061,0,0,0-.984,1.635L23.5,20.8c-.092.845-.172,1.67-.234,2.454.072-.033.144-.062.214-.1a4.122,4.122,0,0,1,2.062-.569,1.874,1.874,0,0,1,.806.248l.594-3.047c2.134-1.121,6.961-2.541,8.873-.384.037.041.537.706-3.175,2.528a24.6,24.6,0,0,0-5.316,3.5c-2.627,3.011-1.285,4.073-.289,4.429a2.074,2.074,0,0,0,1.346-.244c3.115-2.188,4.041-3.266,6.408-4.658,1.271-.737,5.5-2.275,6.809-2.94a10.221,10.221,0,0,0,3.375-2.985,22.934,22.934,0,0,1,4.134-4.083,21.123,21.123,0,0,1,7.78-3.224,15.636,15.636,0,0,1,1.608-.223c1.63-2.5-4.246-7.587-4.246-7.587" transform="translate(-7.421 -0.025)" fill="#fcc083"/>
    <path id="Path_502" data-name="Path 502" d="M29.7,28.3s-1.8,1.651-2.712,1.113c-1.17-.676.445-2.479.782-2.7,0,0,1.389-.639,1.93,1.585" transform="translate(-7.441 -0.163)" fill="#faecd0"/>
    <path id="Path_503" data-name="Path 503" d="M57.989,0l4.968,10.974L49.136,17.187,44.168,6.213Z" transform="translate(-7.55 0)" fill="#1a0f55"/>
    <g id="Group_231" data-name="Group 231" transform="translate(-0.894 41.122) rotate(-9)">
      <path id="Subtraction_2" data-name="Subtraction 2" d="M31.557,13.914H0a15.9,15.9,0,0,1,31.557,0Z" transform="translate(0 0)" fill="#a8b400"/>
      <path id="Path_522" data-name="Path 522" d="M32.42,53.978a1.13,1.13,0,0,1-.64-.195,10.494,10.494,0,0,0-11.973-.018,1.14,1.14,0,0,1-1.468-.123.854.854,0,0,1,.134-1.3c.07-.052,7.144-5.16,14.588-.019a.856.856,0,0,1,.183,1.3,1.1,1.1,0,0,1-.824.357" transform="translate(-10.173 -46.025)" fill="#1a0f55"/>
    </g>
  </g>
</svg>
