<svg xmlns="http://www.w3.org/2000/svg" width="17.53" height="17.53" viewBox="0 0 17.53 17.53">
  <g id="vuesax_bold_location" data-name="vuesax/bold/location" transform="translate(-428 -188)">
    <path id="Vector" d="M13.567,5.039A6.659,6.659,0,0,0,6.884,0H6.876A6.658,6.658,0,0,0,.194,5.032c-.907,3.881,1.543,7.168,3.76,9.236a4.3,4.3,0,0,0,5.853,0C12.024,12.2,14.474,8.921,13.567,5.039ZM6.884,8.808A2.406,2.406,0,0,1,4.442,6.438,2.406,2.406,0,0,1,6.884,4.069,2.406,2.406,0,0,1,9.326,6.438,2.406,2.406,0,0,1,6.884,8.808Z" transform="translate(429.882 189.055)" fill="#a8b400"/>
    <path id="Vector-2" data-name="Vector" d="M0,0H17.53V17.53H0Z" transform="translate(428 188)" fill="none" opacity="0"/>
    <path id="Vector-3" data-name="Vector" d="M0,0H17.53V17.53H0Z" transform="translate(445.53 205.53) rotate(180)" fill="none" opacity="0"/>
  </g>
</svg>
