<svg xmlns="http://www.w3.org/2000/svg" width="235.991" height="121.34" viewBox="0 0 235.991 121.34">
  <g id="Layer_2" data-name="Layer 2" transform="translate(0 -0.016)">
    <g id="Layer_1" data-name="Layer 1" transform="translate(0 0.016)">
      <path id="Path_774" data-name="Path 774" d="M488.136,19.037h-3.989a4.48,4.48,0,0,0-4.743,4.609v.713h20.847c5.007,0,5.077-4.977,5.077-5.3h-6.685l.022-.026Zm13.14,17.085h-23.4v.717a4.371,4.371,0,0,0,4.163,4.557h23.25V39.787a4.214,4.214,0,0,0-4-3.662Zm4.126-8.583H480.89a4.492,4.492,0,0,0-4.6,4.643v.709h24.717a4.5,4.5,0,0,0,4.394-4.646v-.706Zm16.776,17.018H528.2a31.046,31.046,0,0,1-9.062,12.234c-.568.438-1.114.877-1.731,1.3a31.65,31.65,0,0,1-3.714,2.228c-.241.119-.49.249-.743.371-.338.16-.683.308-1.025.457-.594.249-1.188.505-1.768.709l-.13.052a34.688,34.688,0,0,1-6.529,1.6,31.889,31.889,0,1,1,24.81-44.569l.082.253a21.176,21.176,0,0,1,1.055,2.919l.279.929H514.168c-4.286,0-5.623-2.228-5.623-4V16.2a.334.334,0,0,0-.371-.371h-5.285a3.265,3.265,0,0,0-.468.03h-8.988c.635-2.4,2.67-5.285,8.171-5.289h6.622c1.608.067,5.616.695,5.671,5.177v1.939h7.584a26.59,26.59,0,0,0-6.225-6.845,26.165,26.165,0,0,0-16.045-5.423,26.506,26.506,0,1,0,.022,53.013,26.223,26.223,0,0,0,19.636-8.5h-.26c-3.525,0-21.378-.022-21.378-.022h-9.285c-2.637,0-4.386-2.778-4.386-4.613v-.717h38.6Z" transform="translate(-293.731 -0.016)" fill="#a3b53a" fill-rule="evenodd"/>
      <path id="Path_775" data-name="Path 775" d="M528.92,311.743h1.014l.847-2.306h3.435l.858,2.306H536.1l-3.276-8.613h-.65Zm2.162-3.112.884-2.477c.271-.743.427-1.159.52-1.486h.026c.1.327.245.743.505,1.486l.9,2.477Z" transform="translate(-332.476 -190.552)" fill="#6d6e71" fill-rule="evenodd"/>
      <path id="Path_776" data-name="Path 776" d="M549.76,315.263a3.487,3.487,0,0,0,1.857.524c1.263,0,2.28-.587,2.28-1.812,0-2.087-2.9-1.616-2.9-2.971,0-.665.594-.858,1.181-.858a3.558,3.558,0,0,1,1.486.338v-.847a4.272,4.272,0,0,0-1.519-.286c-1.367,0-2.084.743-2.084,1.694,0,2.046,2.875,1.616,2.875,2.971,0,.706-.6.992-1.315.992a2.782,2.782,0,0,1-1.534-.457Z" transform="translate(-345.576 -194.461)" fill="#6d6e71" fill-rule="evenodd"/>
      <path id="Path_777" data-name="Path 777" d="M563,315.263a3.488,3.488,0,0,0,1.857.524c1.263,0,2.277-.587,2.277-1.812,0-2.087-2.9-1.616-2.9-2.971,0-.665.6-.858,1.185-.858a3.557,3.557,0,0,1,1.486.338v-.847a4.294,4.294,0,0,0-1.523-.286c-1.367,0-2.08.743-2.08,1.694,0,2.046,2.875,1.616,2.875,2.971,0,.706-.6.992-1.315.992a2.763,2.763,0,0,1-1.534-.457Z" transform="translate(-353.898 -194.461)" fill="#6d6e71" fill-rule="evenodd"/>
      <path id="Path_778" data-name="Path 778" d="M579.484,316.013a3.086,3.086,0,0,0,2.043-.851l.182.717h.862a9.844,9.844,0,0,1-.13-2.084V309.71h-.951v4.565a2.333,2.333,0,0,1-1.731.873.955.955,0,0,1-1.014-.691,2.846,2.846,0,0,1-.1-.962v-3.777h-.962v4.026a3.541,3.541,0,0,0,.156,1.114A1.668,1.668,0,0,0,579.484,316.013Z" transform="translate(-363.125 -194.688)" fill="#6d6e71" fill-rule="evenodd"/>
      <path id="Path_779" data-name="Path 779" d="M595.36,315.627h.98v-4.535c.6-.613,1.044-.884,1.486-.884a1.114,1.114,0,0,1,.531.13l.342-.873a1.419,1.419,0,0,0-.665-.156,2.245,2.245,0,0,0-1.731.936l-.115-.78h-.81Z" transform="translate(-374.24 -194.436)" fill="#6d6e71" fill-rule="evenodd"/>
      <path id="Path_780" data-name="Path 780" d="M608.166,315.786a3.714,3.714,0,0,0,1.965-.55l-.312-.676a3.1,3.1,0,0,1-1.508.416,2.044,2.044,0,0,1-2.058-2.228h4v-.234c0-1.942-.884-3.164-2.448-3.164-1.486,0-2.522,1.289-2.522,3.164,0,1.8.947,3.287,2.886,3.287Zm-1.9-3.8a1.659,1.659,0,0,1,1.534-1.857c.936,0,1.434.94,1.445,1.857Z" transform="translate(-380.475 -194.461)" fill="#6d6e71" fill-rule="evenodd"/>
      <path id="Path_781" data-name="Path 781" d="M624.7,310.839a4.4,4.4,0,0,0,1.954-.42v-8.94h-.951v3.038a3.855,3.855,0,0,0-1.04-.13,3.142,3.142,0,0,0-3.176,3.309,2.979,2.979,0,0,0,3.213,3.142Zm.041-.825a2.132,2.132,0,0,1-2.262-2.344,2.245,2.245,0,0,1,2.247-2.462,2.691,2.691,0,0,1,.977.156v4.479A2.823,2.823,0,0,1,624.744,310.015Z" transform="translate(-390.665 -189.514)" fill="#6d6e71" fill-rule="evenodd"/>
      <path id="Path_782" data-name="Path 782" d="M425.82,309.49h3.829l-.286.78H425.82Z" transform="translate(-267.668 -194.549)" fill="#6d6e71" fill-rule="evenodd"/>
      <path id="Path_783" data-name="Path 783" d="M429.642,301.24a2.413,2.413,0,0,1,1.512.338l-.342.743a1.56,1.56,0,0,0-.962-.182c-.42,0-.643.253-.643.825v4.208h0v.839h0v2.559h-.958v-2.559h0v-.839h0v-4.39C428.231,301.8,428.732,301.24,429.642,301.24Z" transform="translate(-269.195 -189.363)" fill="#6d6e71" fill-rule="evenodd"/>
      <path id="Path_784" data-name="Path 784" d="M365.349,311.787h.966V304.01h2.418l.286-.81H362.89v.81h2.459Z" transform="translate(-228.111 -190.596)" fill="#6d6e71" fill-rule="evenodd"/>
      <path id="Path_785" data-name="Path 785" d="M382,310.706h.951v-4.535a3.071,3.071,0,0,1,1.9-.925c.873,0,1.114.706,1.114,1.63v3.829h.951V306.55c0-1.549-.862-2.162-1.824-2.162a3.343,3.343,0,0,0-2.132.936V301.48H382Z" transform="translate(-240.123 -189.514)" fill="#6d6e71" fill-rule="evenodd"/>
      <path id="Path_786" data-name="Path 786" d="M401.722,315.786a3.714,3.714,0,0,0,1.965-.55l-.312-.676a3.1,3.1,0,0,1-1.5.416,2.039,2.039,0,0,1-2.054-2.228h3.993v-.234c0-1.942-.884-3.164-2.448-3.164-1.486,0-2.522,1.289-2.522,3.164,0,1.8.947,3.287,2.886,3.287Zm-1.9-3.8a1.659,1.659,0,0,1,1.534-1.857c.936,0,1.434.94,1.445,1.857Z" transform="translate(-250.708 -194.461)" fill="#6d6e71" fill-rule="evenodd"/>
      <path id="Path_787" data-name="Path 787" d="M441.3,316.013a3.094,3.094,0,0,0,2.043-.851l.182.717h.858a9.848,9.848,0,0,1-.13-2.084V309.71H443.3v4.565a2.325,2.325,0,0,1-1.727.873.958.958,0,0,1-1.018-.691,2.97,2.97,0,0,1-.1-.962v-3.777h-.966v4.026a3.541,3.541,0,0,0,.156,1.114A1.675,1.675,0,0,0,441.3,316.013Z" transform="translate(-276.26 -194.688)" fill="#6d6e71" fill-rule="evenodd"/>
      <path id="Path_788" data-name="Path 788" d="M458.073,313.134a2.73,2.73,0,0,0,1.549-.483l-.338-.68a1.805,1.805,0,0,1-1,.338c-.416,0-.639-.234-.639-.769v-3.922h1.549l.286-.78h-1.846V305.13l-.947.312v1.4H455.64v.78h1.044V311.7A1.289,1.289,0,0,0,458.073,313.134Z" transform="translate(-286.413 -191.809)" fill="#6d6e71" fill-rule="evenodd"/>
      <path id="Path_789" data-name="Path 789" d="M471.137,316.013a3.094,3.094,0,0,0,2.043-.851l.182.717h.858a9.852,9.852,0,0,1-.13-2.084V309.71h-.951v4.565a2.325,2.325,0,0,1-1.727.873.951.951,0,0,1-1.014-.691,2.845,2.845,0,0,1-.1-.962v-3.777h-.966v4.026a3.54,3.54,0,0,0,.156,1.114A1.675,1.675,0,0,0,471.137,316.013Z" transform="translate(-295.017 -194.688)" fill="#6d6e71" fill-rule="evenodd"/>
      <path id="Path_790" data-name="Path 790" d="M487,315.627h.962v-4.535c.6-.613,1.044-.884,1.486-.884a1.114,1.114,0,0,1,.531.13l.338-.873a1.4,1.4,0,0,0-.661-.156,2.245,2.245,0,0,0-1.731.936l-.119-.78H487Z" transform="translate(-306.125 -194.436)" fill="#6d6e71" fill-rule="evenodd"/>
      <path id="Path_791" data-name="Path 791" d="M499.82,315.786a3.714,3.714,0,0,0,1.965-.55l-.312-.676a3.1,3.1,0,0,1-1.512.416,2.043,2.043,0,0,1-2.054-2.228H501.9v-.234c0-1.942-.884-3.164-2.444-3.164-1.486,0-2.526,1.289-2.526,3.164,0,1.8.951,3.287,2.89,3.287Zm-1.9-3.8a1.659,1.659,0,0,1,1.534-1.857c.936,0,1.43.94,1.445,1.857Z" transform="translate(-312.367 -194.461)" fill="#6d6e71" fill-rule="evenodd"/>
      <path id="Path_792" data-name="Path 792" d="M514.46,324.373a.643.643,0,0,0,.624-.654.62.62,0,1,0-1.237,0A.639.639,0,0,0,514.46,324.373Z" transform="translate(-323 -203.074)" fill="#6d6e71" fill-rule="evenodd"/>
      <path id="Path_793" data-name="Path 793" d="M59.254,216.615a5.574,5.574,0,0,0-4.334,1.742,6.771,6.771,0,0,0-1.582,4.743v14.515H58.86V223.571c0-2.325.769-3.5,2.314-3.5,1.757,0,5.675.045,5.675.045V216.6H59.262Zm24.658,0H71.4v21.014h5.523V222.773l-3.387-2.67h4.416c1.114,0,2.908-.03,4.048-.03,1.545,0,2.314,1.174,2.314,3.5v14.043h5.53V223.1a6.76,6.76,0,0,0-1.586-4.743,5.591,5.591,0,0,0-4.331-1.742Zm-45.549,0a10.39,10.39,0,0,0-7.74,2.882,12.238,12.238,0,0,0-.015,15.681,10.207,10.207,0,0,0,7.625,2.912,10.625,10.625,0,0,0,7.874-2.867,10.685,10.685,0,0,0,2.856-7.9,10.528,10.528,0,0,0-2.849-7.8,10.493,10.493,0,0,0-7.751-2.882Zm-.033,18.006a3.863,3.863,0,0,1-3.417-1.961,11.918,11.918,0,0,1,.011-10.641,4.033,4.033,0,0,1,6.908,0,9.636,9.636,0,0,1,1.259,5.293q0,7.309-4.754,7.309Zm-29.683-3.1c-1.694-1.857-1.857-4.784-1.857-8.126,0-3.4.1-5.72,1.679-7.573a8.369,8.369,0,0,1,6.741-2.774,26.586,26.586,0,0,1,8.475,1.779v-4.513a39,39,0,0,0-8.977-1.059q-7.083,0-10.893,3.762T0,223.776q0,6.864,3.788,10.693t10.585,3.837a23.294,23.294,0,0,0,9.575-1.794v-4.245a18.321,18.321,0,0,1-8.216,2.058A9.091,9.091,0,0,1,8.646,231.516Zm102.879-12.063c-1.382-1.887-3.989-2.838-6.982-2.838a9.337,9.337,0,0,0-7.179,2.908,10.779,10.779,0,0,0-2.719,7.673,10.651,10.651,0,0,0,2.971,7.967,11.078,11.078,0,0,0,8.1,2.919,26.592,26.592,0,0,0,7.469-1.159v-3.892a18.251,18.251,0,0,1-6.277,1.292c-3.915,0-6.061-1.965-6.436-5.872h12.713c0-4.085-.275-7.1-1.66-9Zm-11.142,5.876c.371-3.5,1.9-5.259,4.186-5.259s3.877,1.757,3.877,5.259Zm24.32-8.713a5.584,5.584,0,0,0-4.334,1.742,6.754,6.754,0,0,0-1.582,4.743v14.515h5.527V223.571c0-2.325.769-3.5,2.314-3.5,1.753,0,5.007.045,5.007.045V216.6h-6.919Zm19.4,8.579-1.6-.613c-1.69-.654-2.544-1.441-2.544-2.377,0-1.419,1.148-2.136,3.436-2.136a17.375,17.375,0,0,1,5.508,1.163v-3.9a29.4,29.4,0,0,0-5.942-.743,10.431,10.431,0,0,0-6.221,1.616,5.3,5.3,0,0,0-2.228,4.539,5.014,5.014,0,0,0,1.307,3.514,12.043,12.043,0,0,0,4.349,2.652l1.857.743c1.857.743,2.8,1.623,2.8,2.618,0,1.545-1.137,2.318-3.4,2.318a18.8,18.8,0,0,1-7.02-1.72v4.059a26.025,26.025,0,0,0,7.465,1.114,10.135,10.135,0,0,0,6.247-1.8,5.642,5.642,0,0,0,2.4-4.706,4.877,4.877,0,0,0-1.411-3.61,14.872,14.872,0,0,0-5.014-2.771Zm79.109,3.276h12.713c0-4.085-.271-7.1-1.653-9s-3.989-2.838-6.986-2.838a9.345,9.345,0,0,0-7.183,2.908,12.183,12.183,0,0,0,.256,15.64,11.06,11.06,0,0,0,8.108,2.919,26.564,26.564,0,0,0,7.462-1.159v-3.911a18.2,18.2,0,0,1-6.269,1.292c-3.918,0-6.065-1.965-6.444-5.872Zm4.115-8.383c2.251,0,3.877,1.757,3.877,5.259h-8.06C223.52,221.844,225.039,220.088,227.33,220.088Zm-48.153-3.454a10.406,10.406,0,0,0-7.74,2.882,12.24,12.24,0,0,0-.015,15.673,10.17,10.17,0,0,0,7.629,2.912,10.738,10.738,0,1,0,.126-21.452Zm-.037,18.006a3.859,3.859,0,0,1-3.417-1.961,11.886,11.886,0,0,1,.011-10.641,4.037,4.037,0,0,1,6.912,0,9.724,9.724,0,0,1,1.252,5.293Q183.9,234.639,179.14,234.639Zm27.543-18.006H194.175v21.014h5.53V222.866l-3.506-2.73h4.516c1.114,0,2.908-.03,4.052-.03,1.545,0,2.31,1.174,2.31,3.5v14.043H212.6V223.1a6.743,6.743,0,0,0-1.586-4.743,5.6,5.6,0,0,0-4.331-1.742Zm-46.34-4.65-5.527,1.63v17.723q0,6.734,7.187,6.734a11.834,11.834,0,0,0,3.112-.583v-3.361a6.923,6.923,0,0,1-1.7.286c-2.05,0-3.079-1.266-3.079-3.781v-7.361l-3.51-2.734h8.9v-3.462h-5.385Z" transform="translate(0 -131.539)" fill="#1a0f55" fill-rule="evenodd"/>
    </g>
  </g>
</svg>
