<svg id="noun-cruise-ship-2506982" xmlns="http://www.w3.org/2000/svg" width="56.539" height="29.58" viewBox="0 0 56.539 29.58">
  <path id="Path_543" data-name="Path 543" d="M149.829,226.98a181.681,181.681,0,0,0-56.5,15.041v3.436a2.155,2.155,0,0,0,2.156,2.153h39.169a7.378,7.378,0,0,0,5.765-2.776l6.364-7.978a14.123,14.123,0,0,0,3.044-9.876Zm-10.935,5.981a1.548,1.548,0,1,1-1.506,1.551,1.532,1.532,0,0,1,1.506-1.551Z" transform="translate(-93.33 -218.03)" fill="#a8b400"/>
  <path id="Path_544" data-name="Path 544" d="M267.659,145.72h-5.783l1.176,5.221q2.82-.361,5.657-.546Z" transform="translate(-243.312 -145.72)" fill="#1a0f55"/>
  <path id="Path_545" data-name="Path 545" d="M174.985,145.72H169.2l1.581,7.026q2.742-.662,5.522-1.153Z" transform="translate(-160.845 -145.72)" fill="#1a0f55"/>
  <path id="Path_546" data-name="Path 546" d="M181.438,216.29a107.745,107.745,0,0,0-33.288,7.434v5.218a182.6,182.6,0,0,1,36.759-10.52Z" transform="translate(-142.112 -208.517)" fill="#a8b400"/>
  <path id="Path_547" data-name="Path 547" d="M176.818,194.78a90.284,90.284,0,0,0-26.077,2.837,3.46,3.46,0,0,0-2.59,3.349v2.579a108.658,108.658,0,0,1,31.941-7.277l-1.591-.978h0a3.462,3.462,0,0,0-1.683-.509Z" transform="translate(-142.113 -189.32)" fill="#1a0f55"/>
</svg>
