<svg xmlns="http://www.w3.org/2000/svg" width="23" height="23" viewBox="0 0 23 23">
  <g id="Group_158" data-name="Group 158" transform="translate(-105.509 -56.509)">
    <g id="menu-Regular" transform="translate(105.509 56.509)">
      <rect id="Path" width="23" height="23" fill="rgba(255,255,255,0)"/>
      <path id="menu-Regular_1_" d="M205.25,1086.97a.72.72,0,0,1,.719-.719h12.468a.719.719,0,1,1,0,1.439H205.969A.72.72,0,0,1,205.25,1086.97Zm17.982,5.994H205.969a.719.719,0,1,0,0,1.439h17.263a.719.719,0,1,0,0-1.439Zm-8.631,6.714H205.97a.719.719,0,0,0,0,1.438h8.63a.719.719,0,1,0,0-1.438Z" transform="translate(-203.092 -1082.174)" fill="#fff" stroke="#fff" stroke-width="1"/>
    </g>
  </g>
</svg>
