<svg xmlns="http://www.w3.org/2000/svg" width="59.876" height="33.149" viewBox="0 0 59.876 33.149">
  <g id="Group_691" data-name="Group 691" transform="translate(2136.188 -353.931)">
    <path id="Path_486" data-name="Path 486" d="M449.638,247.076v-11.3h2.055v11.3Z" transform="translate(-2530.81 131.579)" fill="#1a206d" fill-rule="evenodd"/>
    <path id="Subtraction_4" data-name="Subtraction 4" d="M40.734,19.723V14.29c0-.37-.872-1.241-3.214-2a31.868,31.868,0,0,0-9.442-1.263,31.868,31.868,0,0,0-9.442,1.263c-2.341.76-3.214,1.631-3.214,2v5.4l-1.473-.268a2.205,2.205,0,0,1-.431-.125L.17,13.879A2.278,2.278,0,0,1,.182,9.654L26.85-1.014a3.314,3.314,0,0,1,2.454,0L55.974,9.654a2.278,2.278,0,0,1,.012,4.225L42.64,19.3a2.3,2.3,0,0,1-.41.123ZM1.622,11.77l11.3,4.591V14.29c0-1.266.857-3.054,4.942-4.38A34.39,34.39,0,0,1,28.078,8.526,34.39,34.39,0,0,1,38.293,9.911c4.084,1.326,4.942,3.113,4.942,4.38v2.071l11.3-4.591L28.377,1.307a.82.82,0,0,0-.6,0Z" transform="translate(-2134.938 355.18)" fill="#a8b400"/>
    <path id="Path_492" data-name="Path 492" d="M438.979,320.64h-4.521a1.574,1.574,0,0,1-1.572-1.572v-.206a3.833,3.833,0,0,1,7.665,0v.206A1.574,1.574,0,0,1,438.979,320.64Zm-2.261-4.11a2.335,2.335,0,0,0-2.333,2.332v.206a.072.072,0,0,0,.072.072h4.521a.072.072,0,0,0,.072-.072v-.206A2.335,2.335,0,0,0,436.719,316.53Z" transform="translate(-2516.863 62.516)" fill="#a8b400"/>
    <path id="Subtraction_5" data-name="Subtraction 5" d="M.311,16.6H0A1.25,1.25,0,0,1-1.25,15.35V4.515c0-1.266.857-3.054,4.942-4.38A34.384,34.384,0,0,1,13.906-1.25,34.384,34.384,0,0,1,24.12.135c4.084,1.326,4.942,3.114,4.942,4.38V15.349a1.25,1.25,0,0,1-1.246,1.25H27.5a1.25,1.25,0,0,1-1.046-.559c-.367-.553-1.631-1.376-4.08-2.026a34.3,34.3,0,0,0-8.473-.975,34.3,34.3,0,0,0-8.472.975c-2.449.65-3.713,1.473-4.08,2.026A1.251,1.251,0,0,1,.311,16.6ZM13.906,1.25A31.862,31.862,0,0,0,4.464,2.513c-2.341.76-3.214,1.632-3.214,2v8.446A15.6,15.6,0,0,1,4.793,11.6a36.842,36.842,0,0,1,9.113-1.059A36.843,36.843,0,0,1,23.02,11.6a15.6,15.6,0,0,1,3.542,1.363V4.515c0-.371-.872-1.242-3.214-2A31.862,31.862,0,0,0,13.906,1.25Z" transform="translate(-2120.766 365)" fill="#1a206d"/>
    <path id="Path_4295" data-name="Path 4295" d="M155.249,311.754a34.413,34.413,0,0,1-10.219-1.383c-4.08-1.325-4.937-3.114-4.937-4.381s.857-3.057,4.937-4.381a38.433,38.433,0,0,1,20.438,0c4.08,1.325,4.937,3.114,4.937,4.381s-.857,3.057-4.937,4.381A34.412,34.412,0,0,1,155.249,311.754Zm0-9.03a31.892,31.892,0,0,0-9.447,1.261c-2.338.759-3.209,1.632-3.209,2s.871,1.245,3.209,2a36.011,36.011,0,0,0,18.894,0c2.338-.759,3.209-1.632,3.209-2s-.871-1.245-3.209-2A31.891,31.891,0,0,0,155.249,302.724Z" transform="translate(-2262.109 75.326)" fill="#a8b400"/>
  </g>
</svg>
