<svg id="mortarboard" xmlns="http://www.w3.org/2000/svg" width="57.876" height="29.639" viewBox="0 0 57.876 29.639">
  <path id="Path_486" data-name="Path 486" d="M449.638,247.076v-11.3h2.055v11.3Z" transform="translate(-395.872 -223.601)" fill="#1a0f55" fill-rule="evenodd"/>
  <path id="Path_487" data-name="Path 487" d="M86.515,153.721,73.17,159.142a1.026,1.026,0,0,1-.387.076H45.373a1.026,1.026,0,0,1-.387-.076l-13.345-5.421a1.028,1.028,0,0,1,.005-1.906l26.669-10.667a2.056,2.056,0,0,1,1.527,0L86.51,151.815A1.028,1.028,0,0,1,86.515,153.721Z" transform="translate(-31 -141)" fill="#a8b400"/>
  <path id="Path_488" data-name="Path 488" d="M69.044,158.119l15.806-6.607a.4.4,0,0,0,.237-.267l-25.245-10.1a2.056,2.056,0,0,0-1.527,0L31.648,151.815a1.028,1.028,0,0,0-.005,1.906l13.324,5.413h0a1.027,1.027,0,0,0,.43.074l23.3-1.01A1.028,1.028,0,0,0,69.044,158.119Z" transform="translate(-31.002 -141)" fill="#a8b400" fill-rule="evenodd"/>
  <path id="Path_489" data-name="Path 489" d="M155.253,217.115c-7.68,0-13.906,2.021-13.906,4.515v10.836h27.812V221.63C169.159,219.136,162.933,217.115,155.253,217.115Z" transform="translate(-127.175 -207.339)" fill="#1a0f55"/>
  <path id="Path_490" data-name="Path 490" d="M165.494,226.577a32.255,32.255,0,0,0-10.242-1.461c-7.68,0-13.906,2.021-13.906,4.515v9.808h24.181V226.908A1.621,1.621,0,0,0,165.494,226.577Z" transform="translate(-127.175 -214.313)" fill="#1a0f55" fill-rule="evenodd"/>
  <path id="Path_491" data-name="Path 491" d="M169.155,305.989c0,2.494-6.226,4.515-13.906,4.515s-13.906-2.021-13.906-4.515,6.226-4.515,13.906-4.515S169.155,303.5,169.155,305.989Z" transform="translate(-127.172 -280.864)" fill="#a8b400"/>
  <path id="Path_492" data-name="Path 492" d="M433.636,318.863v.206a.822.822,0,0,0,.822.822h4.521a.822.822,0,0,0,.822-.822v-.206a3.083,3.083,0,0,0-6.165,0Z" transform="translate(-381.925 -293.333)" fill="#b9be0b"/>
  <path id="Path_493" data-name="Path 493" d="M434.374,319.968a.822.822,0,0,1-.738-.818v-.206a3.083,3.083,0,0,1,2.814-3.071,2.569,2.569,0,0,1,2.324,2.557v.719a.822.822,0,0,1-.822.822h-3.494A.829.829,0,0,1,434.374,319.968Z" transform="translate(-381.925 -293.415)" fill="#a8b400" fill-rule="evenodd"/>
</svg>
