<svg id="Group_333" data-name="Group 333" xmlns="http://www.w3.org/2000/svg" width="46.257" height="53.967" viewBox="0 0 46.257 53.967">
  <path id="Path_644" data-name="Path 644" d="M48.837,7.85l-21.2-5.782a1.927,1.927,0,0,0-1.014,0L5.42,7.85A1.927,1.927,0,0,0,4,9.71v15.9c0,13.2,7.249,24.7,18.035,28.622a17.332,17.332,0,0,0,5.094,1.735,17.357,17.357,0,0,0,5.092-1.735C43.014,50.31,50.257,38.813,50.257,25.611V9.71a1.928,1.928,0,0,0-1.421-1.86Z" transform="translate(-4 -2)" fill="#a8b400"/>
  <text id="MyMoto_Shield" data-name="MyMoto
Shield" transform="translate(23.128 22.984)" fill="#1a0f55" font-size="9" font-family="Roboto-Regular, Roboto"><tspan x="-16.545" y="0">MyMoto</tspan><tspan x="-12.254" y="11">Shield</tspan></text>
</svg>
