<svg xmlns="http://www.w3.org/2000/svg" width="226.423" height="165.971" viewBox="0 0 226.423 165.971">
  <g id="no-records" transform="translate(-43.625 -62.621)">
    <rect id="Rectangle_193" data-name="Rectangle 193" width="104.877" height="154.402" rx="6" transform="translate(125.709 72.748)" fill="#1a0f55"/>
    <path id="Path_646" data-name="Path 646" d="M336.406,215.3v22.381H279.343a2.312,2.312,0,0,1-2.312-2.312V110.142a2.312,2.312,0,0,1,2.312-2.312h77.225a2.312,2.312,0,0,1,2.312,2.312V215.3Z" transform="translate(-139.807 -28.562)" fill="#fff"/>
    <path id="Path_647" data-name="Path 647" d="M411.1,372.879V350.5h22.474Z" transform="translate(-214.505 -163.763)" fill="#dbe8ec"/>
    <path id="Path_849" data-name="Path 849" d="M3,0H28.075a3,3,0,0,1,3,3V15.655a3,3,0,0,1-3,3H3a3,3,0,0,1-3-3V3A3,3,0,0,1,3,0Z" transform="translate(75.064 100.738)" fill="#e8e8e7"/>
    <rect id="Rectangle_195" data-name="Rectangle 195" width="10.913" height="6.104" rx="3" transform="translate(85.144 98.149)" fill="#1a0f55"/>
    <rect id="Rectangle_196" data-name="Rectangle 196" width="31.075" height="18.655" rx="3" transform="translate(238.973 150.971)" fill="#e8e8e7"/>
    <rect id="Rectangle_197" data-name="Rectangle 197" width="10.913" height="6.104" rx="3" transform="translate(249.054 148.381)" fill="#1a0f55"/>
    <path id="Path_648" data-name="Path 648" d="M94.509,240.744h26.51a8.313,8.313,0,0,1,8.3,8.752c-.837,16.055-3.5,33.293-3.5,33.293s-23.3,2.791-26.288,2.791H97.42a6.473,6.473,0,0,1-6.3-7.972l7.012-29.467a6.473,6.473,0,0,0-6.3-7.972h0Z" transform="translate(-36.132 -102.294)" fill="#a8b400"/>
    <path id="Path_649" data-name="Path 649" d="M86.43,285.637h25.964L109.821,297.2l8.485-36.972A6.473,6.473,0,0,0,112,252.3h-4.134a6.473,6.473,0,0,0-6.293,4.956l-5.72,23.362a6.473,6.473,0,0,1-6.293,4.956ZM73.042,252.872l2.627-8.115a6.473,6.473,0,0,1,6.193-4.589h0a6.473,6.473,0,0,1,6.3,7.972l-1.126,4.732Z" transform="translate(-26.156 -102.294)" fill="#a7ab0c"/>
    <path id="Path_650" data-name="Path 650" d="M151.036,267.571a6.473,6.473,0,0,1,6.309,7.921l-14.068,61.3a6.473,6.473,0,0,0,6.309,7.921h2.522l35.151-7.921,14.068-61.3a6.473,6.473,0,0,0-6.309-7.921H151.036Z" transform="translate(-65.196 -117.561)" fill="#a8b400"/>
    <path id="Path_651" data-name="Path 651" d="M204.886,417.172h2.522a6.473,6.473,0,0,0,6.22-4.68l2.935-10.183a6.473,6.473,0,0,1,6.22-4.68H178.8a6.473,6.473,0,0,0-6.22,4.68l-2.935,10.183a6.473,6.473,0,0,1-6.22,4.681Z" transform="translate(-76.512 -190.022)" fill="#b6bb06"/>
    <path id="Path_652" data-name="Path 652" d="M198.143,397.629h.708a6.473,6.473,0,0,1,6.293,7.988l-1.066,4.428h43.982l1.066-4.428a6.473,6.473,0,0,0-6.293-7.988h-44.69Z" transform="translate(-95.855 -190.022)" fill="#bdc204"/>
    <line id="Line_4" data-name="Line 4" x2="30.838" transform="translate(88.484 196.915)" fill="none" stroke="#1a0f55" stroke-linecap="round" stroke-width="2"/>
    <line id="Line_5" data-name="Line 5" x2="30.838" transform="translate(90.601 189.539)" fill="none" stroke="#1a0f55" stroke-linecap="round" stroke-width="2"/>
    <line id="Line_6" data-name="Line 6" x2="30.838" transform="translate(92.765 182.097)" fill="none" stroke="#1a0f55" stroke-linecap="round" stroke-width="2"/>
    <line id="Line_7" data-name="Line 7" x2="30.838" transform="translate(94.93 174.654)" fill="none" stroke="#1a0f55" stroke-linecap="round" stroke-width="2"/>
    <line id="Line_8" data-name="Line 8" x2="30.838" transform="translate(97.094 167.211)" fill="none" stroke="#1a0f55" stroke-linecap="round" stroke-width="2"/>
    <line id="Line_9" data-name="Line 9" x2="30.838" transform="translate(99.258 159.768)" fill="none" stroke="#1a0f55" stroke-linecap="round" stroke-width="2"/>
    <line id="Line_10" data-name="Line 10" x2="15.221" transform="translate(61.664 174.23)" fill="none" stroke="#1a0f55" stroke-linecap="round" stroke-width="2"/>
    <line id="Line_11" data-name="Line 11" x2="15.221" transform="translate(62.708 166.854)" fill="none" stroke="#1a0f55" stroke-linecap="round" stroke-width="2"/>
    <line id="Line_12" data-name="Line 12" x2="15.221" transform="translate(63.777 159.412)" fill="none" stroke="#1a0f55" stroke-linecap="round" stroke-width="2"/>
    <line id="Line_13" data-name="Line 13" x2="15.221" transform="translate(64.845 151.969)" fill="none" stroke="#1a0f55" stroke-linecap="round" stroke-width="2"/>
    <path id="Path_653" data-name="Path 653" d="M353.031,197.39H341.278a1.292,1.292,0,0,1-1.119-1.939l5.876-10.178,5.876-10.178a1.292,1.292,0,0,1,2.239,0l5.876,10.178,5.876,10.178a1.292,1.292,0,0,1-1.119,1.939Z" transform="translate(-174.882 -65.679)" fill="#dbe8ec"/>
    <path id="Union_1" data-name="Union 1" d="M-13555.834-284.127a1.55,1.55,0,0,1-1.389-1.694,1.547,1.547,0,0,1,1.691-1.385,1.546,1.546,0,0,1,1.388,1.691,1.549,1.549,0,0,1-1.54,1.4C-13555.733-284.12-13555.784-284.122-13555.834-284.127Zm-.5-5.321v-10.932h1.293v10.932Z" transform="translate(13733.832 413.619)" fill="#1a0f55"/>
    <line id="Line_14" data-name="Line 14" x2="57.433" transform="translate(149.432 146.148)" fill="none" stroke="#1a0f55" stroke-linecap="round" stroke-width="3"/>
    <line id="Line_15" data-name="Line 15" x2="57.433" transform="translate(149.432 156.584)" fill="none" stroke="#1a0f55" stroke-linecap="round" stroke-width="3"/>
    <line id="Line_16" data-name="Line 16" x2="57.433" transform="translate(149.432 167.021)" fill="none" stroke="#1a0f55" stroke-linecap="round" stroke-width="3"/>
    <line id="Line_17" data-name="Line 17" x2="57.433" transform="translate(149.432 177.457)" fill="none" stroke="#1a0f55" stroke-linecap="round" stroke-width="3"/>
    <line id="Line_18" data-name="Line 18" x2="57.433" transform="translate(149.432 98.334)" fill="none" stroke="#1a0f55" stroke-linecap="round" stroke-width="3"/>
    <rect id="Rectangle_199" data-name="Rectangle 199" width="57.433" height="21.364" rx="6" transform="translate(149.432 62.621)" fill="#1a0f55"/>
    <line id="Line_19" data-name="Line 19" x2="13.427" transform="translate(103.635 129.973)" fill="none" stroke="#b9d4db" stroke-linecap="round" stroke-width="3"/>
    <line id="Line_20" data-name="Line 20" x2="13.427" transform="translate(103.635 133.843)" fill="none" stroke="#b9d4db" stroke-linecap="round" stroke-width="3"/>
    <line id="Line_21" data-name="Line 21" x2="13.427" transform="translate(103.635 137.713)" fill="none" stroke="#b9d4db" stroke-linecap="round" stroke-width="3"/>
    <line id="Line_22" data-name="Line 22" x2="13.428" transform="translate(239.498 65.074)" fill="none" stroke="#b9d4db" stroke-linecap="round" stroke-width="3"/>
    <line id="Line_23" data-name="Line 23" x2="13.428" transform="translate(239.498 68.945)" fill="none" stroke="#b9d4db" stroke-linecap="round" stroke-width="3"/>
    <line id="Line_24" data-name="Line 24" x2="13.428" transform="translate(239.498 72.815)" fill="none" stroke="#b9d4db" stroke-linecap="round" stroke-width="3"/>
    <line id="Line_25" data-name="Line 25" x2="13.428" transform="translate(239.498 203.996)" fill="none" stroke="#b9d4db" stroke-linecap="round" stroke-width="3"/>
    <line id="Line_26" data-name="Line 26" x2="13.428" transform="translate(239.498 207.866)" fill="none" stroke="#b9d4db" stroke-linecap="round" stroke-width="3"/>
    <line id="Line_27" data-name="Line 27" x2="13.428" transform="translate(239.498 211.736)" fill="none" stroke="#b9d4db" stroke-linecap="round" stroke-width="3"/>
    <circle id="Ellipse_15" data-name="Ellipse 15" cx="5.739" cy="5.739" r="5.739" transform="translate(48.514 217.113)" fill="#b9d4db"/>
    <circle id="Ellipse_16" data-name="Ellipse 16" cx="2.976" cy="2.976" r="2.976" transform="translate(43.625 206.165)" fill="#b9d4db"/>
    <circle id="Ellipse_17" data-name="Ellipse 17" cx="4.251" cy="4.251" r="4.251" transform="translate(61.816 207.866)" fill="#b9d4db"/>
    <circle id="Ellipse_18" data-name="Ellipse 18" cx="6.829" cy="6.829" r="6.829" transform="translate(247.114 114.557)" fill="#b9d4db"/>
    <circle id="Ellipse_19" data-name="Ellipse 19" cx="3.557" cy="3.557" r="3.557" transform="translate(237.336 112.966)" fill="#b9d4db"/>
    <circle id="Ellipse_20" data-name="Ellipse 20" cx="2.052" cy="2.052" r="2.052" transform="translate(242.109 102.379)" fill="#b9d4db"/>
    <circle id="Ellipse_21" data-name="Ellipse 21" cx="4.919" cy="4.919" r="4.919" transform="translate(250.6 100.964)" fill="#b9d4db"/>
    <circle id="Ellipse_22" data-name="Ellipse 22" cx="6.829" cy="6.829" r="6.829" transform="translate(89.082 74.9)" fill="#b9d4db"/>
    <circle id="Ellipse_23" data-name="Ellipse 23" cx="3.557" cy="3.557" r="3.557" transform="translate(92.631 64.249)" fill="#b9d4db"/>
    <circle id="Ellipse_24" data-name="Ellipse 24" cx="3.079" cy="3.079" r="3.079" transform="translate(116.801 66.806)" fill="#b9d4db"/>
    <circle id="Ellipse_25" data-name="Ellipse 25" cx="2.052" cy="2.052" r="2.052" transform="translate(106.628 64.841)" fill="#b9d4db"/>
    <circle id="Ellipse_26" data-name="Ellipse 26" cx="4.919" cy="4.919" r="4.919" transform="translate(106.145 73.173)" fill="#b9d4db"/>
  </g>
</svg>
