<svg xmlns="http://www.w3.org/2000/svg" xmlns:xlink="http://www.w3.org/1999/xlink" width="48.531" height="48.531" viewBox="0 0 48.531 48.531">
  <defs>
    <clipPath id="clip-path">
      <path id="Path_161" data-name="Path 161" d="M0-47.5H48.531V1.031H0Z" transform="translate(0 47.5)"/>
    </clipPath>
  </defs>
  <g id="plane_1_" data-name="plane (1)" clip-path="url(#clip-path)">
    <path id="Path_154" data-name="Path 154" d="M.085.161a1.273,1.273,0,0,1-1.806,0L-3.527-1.644a1.273,1.273,0,0,1,0-1.806L.085-7.062a1.276,1.276,0,0,1,1.806,0L3.7-5.256a1.273,1.273,0,0,1,0,1.806Z" transform="translate(39.506 31.547)" fill="#1a0f55"/>
    <path id="Path_155" data-name="Path 155" d="M.085.161a1.273,1.273,0,0,1-1.806,0L-3.527-1.644a1.273,1.273,0,0,1,0-1.806L.085-7.062a1.276,1.276,0,0,1,1.806,0L3.7-5.256a1.273,1.273,0,0,1,0,1.806Z" transform="translate(20.349 12.39)" fill="#1a0f55"/>
    <path id="Path_156" data-name="Path 156" d="M.045,0C2.6,0,14.093,1.277,14.093,1.277s1.277,11.494,1.277,14.048S12.816,17.88,11.539,16.6,6.431,8.94,6.431,8.94.045,5.109-1.232,3.831-2.509,0,.045,0" transform="translate(3.786 29.374)" fill="#a8b400"/>
    <path id="Path_157" data-name="Path 157" d="M.072,0C3.9-.05,32,1.227,32,1.227s1.18,28.1,1.229,31.928-3.527,5.111-4.932,0-6.513-21.713-6.513-21.713S3.96,5.8.065,4.928C-5.037,3.782-3.76.05.072,0" transform="translate(6.314 8.99)" fill="#a8b400"/>
    <path id="Path_158" data-name="Path 158" d="M.578.065C3.132-2.489,9.518-3.766,10.8-2.489s0,7.663-2.554,10.217S-16.025,30.716-16.025,30.716s-8.3,5.747-10.217,3.831S-22.41,24.33-22.41,24.33-1.976,2.619.578.065" transform="translate(35.182 5.044)" fill="#a8b400"/>
    <path id="Path_159" data-name="Path 159" d="M.245,0S.883.639-4.864,6.386s-6.386,5.109-6.386,5.109-.639-.639,5.109-6.386S.245,0,.245,0" transform="translate(18.912 29.374)" fill="#1a0f55"/>
    <path id="Path_160" data-name="Path 160" d="M0,.027A3.831,3.831,0,0,1,3.831,3.859H4.859a3.724,3.724,0,0,0,.249-1.277A3.831,3.831,0,0,0,1.277-1.25,3.718,3.718,0,0,0,0-1Z" transform="translate(38.314 6.359)" fill="#1a0f55"/>
  </g>
</svg>
