<svg xmlns="http://www.w3.org/2000/svg" width="54.715" height="54.841" viewBox="0 0 54.715 54.841">
  <g id="Group_695" data-name="Group 695" transform="translate(1614.634 -903.812)">
    <path id="Subtraction_5" data-name="Subtraction 5" d="M23.613,54.841h0l-.137-.023a17.889,17.889,0,0,1-5.212-1.766C9.839,49.966,3.382,42.259.991,32.437c.54-.127,1.065-.246,1.561-.355,2.271,9.311,8.368,16.594,16.31,19.484l.051.018.048.026a16.284,16.284,0,0,0,4.652,1.606,16.318,16.318,0,0,0,4.651-1.606l.048-.026.051-.018C36.247,48.7,42.33,41.48,44.632,32.251c.537.122,1.061.246,1.557.367-2.425,9.735-8.867,17.373-17.23,20.433a17.868,17.868,0,0,1-5.21,1.765l-.137.024Zm.505-4.328h0l-.089-.015a15.007,15.007,0,0,1-4.383-1.487C12.522,46.4,7.073,39.882,5.071,31.565c.394-.075.719-.135,1.024-.19,1.932,7.965,7.143,14.2,13.94,16.669l.034.012.031.016a13.937,13.937,0,0,0,4.019,1.383,14,14,0,0,0,4.018-1.383l.031-.016.034-.012c6.685-2.429,11.867-8.538,13.86-16.341l.268.054.249.051.5.1c-2.067,8.147-7.485,14.539-14.491,17.1A15.014,15.014,0,0,1,24.207,50.5l-.089.015Zm0-3.442h0l-.091-.016a12.787,12.787,0,0,1-3.733-1.265c-6.021-2.2-10.644-7.709-12.369-14.725l.212-.034.475-.073.372-.056c1.658,6.638,6.035,11.833,11.709,13.9l.035.012.032.017a11.751,11.751,0,0,0,3.36,1.159,11.734,11.734,0,0,0,3.359-1.159l.033-.017.034-.012c5.581-2.029,9.933-7.121,11.64-13.623.4.067.743.127,1.054.182-1.779,6.871-6.375,12.265-12.3,14.43a12.8,12.8,0,0,1-3.731,1.265l-.092.016ZM47.225,22.033h0c-.532-.122-1.07-.242-1.6-.355V8.405a1.1,1.1,0,0,0-.811-1.062L23.9,1.64a1.107,1.107,0,0,0-.578,0L2.413,7.343A1.1,1.1,0,0,0,1.6,8.4v13.1c-.514.106-1.052.22-1.6.342V8.405A2.706,2.706,0,0,1,1.991,5.8L22.9.1a2.7,2.7,0,0,1,1.422,0L45.234,5.8a2.707,2.707,0,0,1,1.991,2.607V22.031Zm-3.242-.692h0c-.343-.068-.693-.135-1.039-.2V11.293a1.094,1.094,0,0,0-.8-1.054L24.405,5.4a1.067,1.067,0,0,0-.574,0L6.1,10.24a1.094,1.094,0,0,0-.8,1.054v9.524c-.322.055-.671.115-1.04.182V11.293A2.138,2.138,0,0,1,5.823,9.236L23.557,4.4a2.137,2.137,0,0,1,1.122,0L42.412,9.236a2.136,2.136,0,0,1,1.571,2.057V21.339ZM41.035,20.8h0c-.354-.06-.712-.118-1.066-.174V13.762a.832.832,0,0,0-.613-.8l-15.018-4.1a.836.836,0,0,0-.218-.029.854.854,0,0,0-.22.029L8.882,12.96a.833.833,0,0,0-.614.8v6.594c-.331.047-.69.1-1.067.156v-6.75A1.9,1.9,0,0,1,8.6,11.93l15.018-4.1a1.915,1.915,0,0,1,1,0l15.018,4.1a1.9,1.9,0,0,1,1.4,1.832V20.8Z" transform="translate(-1610.489 903.812)" fill="#a8b400"/>
    <path id="Path_4310" data-name="Path 4310" d="M-5.218-.5a.39.39,0,0,1-.055.23.57.57,0,0,1-.175.145,1.108,1.108,0,0,1-.175.078,1.9,1.9,0,0,1-.23.065,2.467,2.467,0,0,1-.263.042A2.511,2.511,0,0,1-6.388.08a2.271,2.271,0,0,1-.675-.1A1.536,1.536,0,0,1-7.61-.312a1.4,1.4,0,0,1-.368-.493,1.631,1.631,0,0,1-.135-.685,1.625,1.625,0,0,1,.148-.715,1.5,1.5,0,0,1,.39-.507,1.633,1.633,0,0,1,.555-.3,2.1,2.1,0,0,1,.642-.1,1.569,1.569,0,0,1,.753.153.451.451,0,0,1,.277.4.389.389,0,0,1-.065.225.535.535,0,0,1-.15.15,2.054,2.054,0,0,0-.312-.148A1.164,1.164,0,0,0-6.3-2.41a.918.918,0,0,0-.668.24.883.883,0,0,0-.248.665,1.061,1.061,0,0,0,.068.4.757.757,0,0,0,.182.275.743.743,0,0,0,.265.16.962.962,0,0,0,.32.053.856.856,0,0,0,.2-.02.524.524,0,0,0,.13-.045v-.47h-.535A.793.793,0,0,1-6.645-1.3a.647.647,0,0,1-.028-.19.35.35,0,0,1,.083-.26.293.293,0,0,1,.212-.08h.845a.314.314,0,0,1,.233.082.314.314,0,0,1,.082.233ZM-3.642-.54a1.121,1.121,0,0,0,.188-.017A.457.457,0,0,0-3.3-.605V-1l-.36.03a.553.553,0,0,0-.23.06.162.162,0,0,0-.09.15A.2.2,0,0,0-3.905-.6.424.424,0,0,0-3.642-.54Zm-.04-1.965a2.053,2.053,0,0,1,.493.055,1.1,1.1,0,0,1,.38.168A.756.756,0,0,1-2.568-2a.912.912,0,0,1,.085.407V-.47a.31.31,0,0,1-.072.213.722.722,0,0,1-.172.143,1.787,1.787,0,0,1-.915.2A2.09,2.09,0,0,1-4.12.03a1.134,1.134,0,0,1-.365-.15A.689.689,0,0,1-4.72-.375.755.755,0,0,1-4.8-.735a.677.677,0,0,1,.205-.53,1.106,1.106,0,0,1,.635-.23l.655-.07V-1.6a.214.214,0,0,0-.128-.207A.858.858,0,0,0-3.8-1.87a1.7,1.7,0,0,0-.37.04,1.966,1.966,0,0,0-.325.1.346.346,0,0,1-.11-.138.435.435,0,0,1-.045-.193.321.321,0,0,1,.063-.207A.484.484,0,0,1-4.4-2.4a1.5,1.5,0,0,1,.342-.08A2.973,2.973,0,0,1-3.683-2.505Zm1.615,1.29a1.5,1.5,0,0,1,.1-.573,1.093,1.093,0,0,1,.278-.4,1.14,1.14,0,0,1,.415-.238,1.643,1.643,0,0,1,.513-.077,1.074,1.074,0,0,1,.2.017.778.778,0,0,1,.155.043v-.81a1.359,1.359,0,0,1,.16-.033,1.43,1.43,0,0,1,.225-.017,1.176,1.176,0,0,1,.2.015.336.336,0,0,1,.148.06.271.271,0,0,1,.09.122.57.57,0,0,1,.03.2v2.37a.427.427,0,0,1-.22.375A1.524,1.524,0,0,1-.158.008,1.764,1.764,0,0,1-.688.08,1.759,1.759,0,0,1-1.27-.01a1.183,1.183,0,0,1-.435-.26,1.118,1.118,0,0,1-.27-.408A1.472,1.472,0,0,1-2.068-1.215Zm1.42-.625a.541.541,0,0,0-.415.155.667.667,0,0,0-.145.47.7.7,0,0,0,.135.467.485.485,0,0,0,.39.158A.455.455,0,0,0-.52-.618.37.37,0,0,0-.408-.68v-1.1A.458.458,0,0,0-.648-1.84Zm2.8-.665a1.734,1.734,0,0,1,.517.072,1.364,1.364,0,0,1,.392.188.607.607,0,0,1,.158.155.385.385,0,0,1,.057.22V-.12a.98.98,0,0,1-.1.458A.92.92,0,0,1,2.9.658,1.162,1.162,0,0,1,2.5.845a1.985,1.985,0,0,1-.5.06A1.708,1.708,0,0,1,1.287.783a.412.412,0,0,1-.26-.4.418.418,0,0,1,.048-.2A.4.4,0,0,1,1.182.05,1.68,1.68,0,0,0,1.51.185,1.3,1.3,0,0,0,1.887.24a.877.877,0,0,0,.43-.09.308.308,0,0,0,.16-.29V-.22a1.242,1.242,0,0,1-.5.09A1.343,1.343,0,0,1,1.55-.2a.956.956,0,0,1-.355-.21A1.03,1.03,0,0,1,.95-.775,1.4,1.4,0,0,1,.857-1.31a1.325,1.325,0,0,1,.1-.53,1.009,1.009,0,0,1,.27-.372,1.13,1.13,0,0,1,.41-.22A1.765,1.765,0,0,1,2.152-2.505Zm.31.725a.5.5,0,0,0-.1-.04.6.6,0,0,0-.168-.02.467.467,0,0,0-.368.138A.571.571,0,0,0,1.7-1.31a.59.59,0,0,0,.122.418.415.415,0,0,0,.313.127A.51.51,0,0,0,2.462-.86ZM5.087.08A1.753,1.753,0,0,1,4.54,0,1.241,1.241,0,0,1,4.1-.25,1.146,1.146,0,0,1,3.8-.665,1.472,1.472,0,0,1,3.7-1.25,1.368,1.368,0,0,1,3.8-1.818a1.121,1.121,0,0,1,.283-.39,1.129,1.129,0,0,1,.4-.225,1.491,1.491,0,0,1,.46-.072,1.389,1.389,0,0,1,.483.08,1.161,1.161,0,0,1,.375.22.979.979,0,0,1,.245.335,1.026,1.026,0,0,1,.088.425.341.341,0,0,1-.1.26.475.475,0,0,1-.265.115L4.542-.885a.415.415,0,0,0,.225.247.883.883,0,0,0,.39.082,1.4,1.4,0,0,0,.388-.052,1.232,1.232,0,0,0,.3-.123.419.419,0,0,1,.135.14.359.359,0,0,1,.055.19.357.357,0,0,1-.21.335,1.113,1.113,0,0,1-.36.115A2.535,2.535,0,0,1,5.087.08Zm-.14-1.965a.5.5,0,0,0-.207.04.418.418,0,0,0-.142.1.426.426,0,0,0-.083.14.576.576,0,0,0-.032.158l.855-.14a.378.378,0,0,0-.11-.2A.368.368,0,0,0,4.947-1.885ZM7.4-.835A.206.206,0,0,0,7.48-.65.417.417,0,0,0,7.712-.6a1,1,0,0,0,.155-.012.871.871,0,0,0,.14-.033.611.611,0,0,1,.077.123.372.372,0,0,1,.033.163.387.387,0,0,1-.142.31.8.8,0,0,1-.5.12,1.024,1.024,0,0,1-.677-.2.805.805,0,0,1-.238-.65v-2.14q.055-.015.157-.033a1.292,1.292,0,0,1,.218-.018.64.64,0,0,1,.343.077A.362.362,0,0,1,7.4-2.56v.32h.655A.856.856,0,0,1,8.11-2.1a.575.575,0,0,1,.028.182.347.347,0,0,1-.078.252.28.28,0,0,1-.207.077H7.4Z" transform="translate(-1587.814 920.218)" fill="#1a206d"/>
    <path id="Path_4309" data-name="Path 4309" d="M-3.51-1.625a.478.478,0,0,0,.323-.1.373.373,0,0,0,.112-.3.367.367,0,0,0-.117-.293.507.507,0,0,0-.343-.1q-.08,0-.132,0a.819.819,0,0,0-.107.013v.775ZM-3.77-.02a1.389,1.389,0,0,1-.172.03,1.835,1.835,0,0,1-.233.015,1.041,1.041,0,0,1-.2-.018.36.36,0,0,1-.148-.063.27.27,0,0,1-.09-.125.61.61,0,0,1-.03-.21V-2.745a.22.22,0,0,1,.058-.163A.411.411,0,0,1-4.43-3a1.872,1.872,0,0,1,.388-.088A3.484,3.484,0,0,1-3.6-3.115a1.644,1.644,0,0,1,1.055.3.974.974,0,0,1,.365.8,1.2,1.2,0,0,1-.078.442.918.918,0,0,1-.23.34,1.033,1.033,0,0,1-.385.22,1.7,1.7,0,0,1-.537.077H-3.77Zm2.83.015L-1.1.023A1.351,1.351,0,0,1-1.32.04a1.176,1.176,0,0,1-.2-.015.336.336,0,0,1-.147-.06.289.289,0,0,1-.093-.122.53.53,0,0,1-.033-.2v-2.9l.163-.028a1.351,1.351,0,0,1,.218-.017,1.176,1.176,0,0,1,.2.015.336.336,0,0,1,.147.06.289.289,0,0,1,.092.122.53.53,0,0,1,.033.2ZM.635-.54A1.121,1.121,0,0,0,.823-.558.457.457,0,0,0,.975-.605V-1l-.36.03a.553.553,0,0,0-.23.06.162.162,0,0,0-.09.15A.2.2,0,0,0,.373-.6.424.424,0,0,0,.635-.54ZM.6-2.505a2.053,2.053,0,0,1,.493.055,1.1,1.1,0,0,1,.38.168A.756.756,0,0,1,1.71-2,.912.912,0,0,1,1.8-1.59V-.47a.31.31,0,0,1-.072.213.722.722,0,0,1-.172.143,1.787,1.787,0,0,1-.915.2A2.09,2.09,0,0,1,.158.03,1.134,1.134,0,0,1-.207-.12.689.689,0,0,1-.442-.375a.755.755,0,0,1-.083-.36.677.677,0,0,1,.205-.53A1.106,1.106,0,0,1,.315-1.5l.655-.07V-1.6a.214.214,0,0,0-.127-.207A.858.858,0,0,0,.475-1.87a1.7,1.7,0,0,0-.37.04,1.966,1.966,0,0,0-.325.1.346.346,0,0,1-.11-.138A.435.435,0,0,1-.375-2.06a.321.321,0,0,1,.063-.207A.484.484,0,0,1-.12-2.4a1.5,1.5,0,0,1,.343-.08A2.973,2.973,0,0,1,.6-2.505Zm3.26.965a.279.279,0,0,0-.088-.227A.361.361,0,0,0,3.53-1.84a.792.792,0,0,0-.2.025.5.5,0,0,0-.168.075V-.005a1.159,1.159,0,0,1-.158.03A1.609,1.609,0,0,1,2.785.04a1.176,1.176,0,0,1-.2-.015.336.336,0,0,1-.148-.06.289.289,0,0,1-.092-.122.53.53,0,0,1-.033-.2v-1.5a.385.385,0,0,1,.058-.22.607.607,0,0,1,.157-.155,1.433,1.433,0,0,1,.428-.195,2.044,2.044,0,0,1,.572-.075,1.349,1.349,0,0,1,.87.247A.836.836,0,0,1,4.7-1.57V-.005a1.159,1.159,0,0,1-.158.03A1.609,1.609,0,0,1,4.325.04a1.176,1.176,0,0,1-.2-.015.336.336,0,0,1-.148-.06.289.289,0,0,1-.093-.122.53.53,0,0,1-.032-.2Z" transform="translate(-1587.613 939.428)" fill="#1a206d"/>
    <path id="Path_4308" data-name="Path 4308" d="M-10.6-1.625a.478.478,0,0,0,.323-.1.373.373,0,0,0,.113-.3.367.367,0,0,0-.118-.293.507.507,0,0,0-.343-.1q-.08,0-.132,0a.819.819,0,0,0-.108.013v.775Zm-.26,1.605a1.388,1.388,0,0,1-.172.03,1.835,1.835,0,0,1-.233.015,1.041,1.041,0,0,1-.2-.018.36.36,0,0,1-.148-.063A.27.27,0,0,1-11.7-.18a.61.61,0,0,1-.03-.21V-2.745a.22.22,0,0,1,.057-.163A.411.411,0,0,1-11.515-3a1.872,1.872,0,0,1,.387-.088,3.484,3.484,0,0,1,.438-.028,1.644,1.644,0,0,1,1.055.3.974.974,0,0,1,.365.8,1.2,1.2,0,0,1-.077.442.918.918,0,0,1-.23.34,1.033,1.033,0,0,1-.385.22A1.7,1.7,0,0,1-10.5-.94h-.355Zm2.715.015A1.159,1.159,0,0,1-8.3.025,1.609,1.609,0,0,1-8.52.04a1.176,1.176,0,0,1-.2-.015.336.336,0,0,1-.148-.06.289.289,0,0,1-.093-.122.53.53,0,0,1-.032-.2v-1.5a.426.426,0,0,1,.042-.2.464.464,0,0,1,.123-.148.884.884,0,0,1,.2-.117,2.037,2.037,0,0,1,.252-.092,2.139,2.139,0,0,1,.28-.063A1.889,1.889,0,0,1-7.8-2.5a.682.682,0,0,1,.38.092.336.336,0,0,1,.14.3.482.482,0,0,1-.02.138.627.627,0,0,1-.05.123q-.105,0-.215.01t-.215.03q-.105.02-.2.043a.869.869,0,0,0-.157.053Zm3.625-1.21a1.506,1.506,0,0,1-.1.553,1.12,1.12,0,0,1-.267.407,1.138,1.138,0,0,1-.412.25A1.594,1.594,0,0,1-5.825.08,1.514,1.514,0,0,1-6.36-.01a1.177,1.177,0,0,1-.412-.258A1.149,1.149,0,0,1-7.04-.675a1.457,1.457,0,0,1-.095-.54A1.442,1.442,0,0,1-7.04-1.75a1.149,1.149,0,0,1,.267-.407,1.177,1.177,0,0,1,.412-.257,1.514,1.514,0,0,1,.535-.09,1.477,1.477,0,0,1,.535.092,1.208,1.208,0,0,1,.412.26,1.149,1.149,0,0,1,.267.408A1.428,1.428,0,0,1-4.515-1.215Zm-1.75,0a.79.79,0,0,0,.117.467.381.381,0,0,0,.327.163A.367.367,0,0,0-5.5-.75a.819.819,0,0,0,.113-.465A.793.793,0,0,0-5.5-1.678a.375.375,0,0,0-.325-.163.375.375,0,0,0-.325.163A.793.793,0,0,0-6.265-1.215Zm3.015.38a.206.206,0,0,0,.082.185A.417.417,0,0,0-2.935-.6,1,1,0,0,0-2.78-.608.871.871,0,0,0-2.64-.64a.611.611,0,0,1,.078.123.372.372,0,0,1,.033.163.387.387,0,0,1-.143.31.8.8,0,0,1-.5.12,1.024,1.024,0,0,1-.677-.2.805.805,0,0,1-.238-.65v-2.14q.055-.015.158-.033a1.292,1.292,0,0,1,.217-.018.64.64,0,0,1,.342.077.362.362,0,0,1,.123.328v.32H-2.6a.856.856,0,0,1,.058.138.575.575,0,0,1,.027.182.347.347,0,0,1-.077.252A.28.28,0,0,1-2.8-1.59H-3.25ZM-.845.08A1.753,1.753,0,0,1-1.393,0a1.241,1.241,0,0,1-.44-.247,1.146,1.146,0,0,1-.295-.415,1.472,1.472,0,0,1-.108-.585,1.368,1.368,0,0,1,.108-.568,1.121,1.121,0,0,1,.283-.39,1.129,1.129,0,0,1,.4-.225,1.491,1.491,0,0,1,.46-.072,1.389,1.389,0,0,1,.483.08,1.161,1.161,0,0,1,.375.22.979.979,0,0,1,.245.335A1.026,1.026,0,0,1,.2-1.445a.341.341,0,0,1-.1.26.475.475,0,0,1-.265.115L-1.39-.885a.415.415,0,0,0,.225.247.883.883,0,0,0,.39.082A1.4,1.4,0,0,0-.388-.608,1.232,1.232,0,0,0-.09-.73a.419.419,0,0,1,.135.14A.359.359,0,0,1,.1-.4a.357.357,0,0,1-.21.335A1.113,1.113,0,0,1-.47.05,2.535,2.535,0,0,1-.845.08Zm-.14-1.965a.5.5,0,0,0-.207.04.418.418,0,0,0-.143.1.426.426,0,0,0-.082.14.576.576,0,0,0-.033.158l.855-.14a.378.378,0,0,0-.11-.2A.368.368,0,0,0-.985-1.885Zm2.97.05a.7.7,0,0,0-.237.04.55.55,0,0,0-.2.118.574.574,0,0,0-.133.192.673.673,0,0,0-.05.27.584.584,0,0,0,.178.465A.635.635,0,0,0,1.98-.6.861.861,0,0,0,2.24-.63a1.6,1.6,0,0,0,.195-.075.519.519,0,0,1,.15.153.374.374,0,0,1,.05.2.35.35,0,0,1-.2.318A1.085,1.085,0,0,1,1.9.075a1.662,1.662,0,0,1-.57-.093,1.288,1.288,0,0,1-.437-.26A1.151,1.151,0,0,1,.61-.68a1.315,1.315,0,0,1-.1-.52,1.44,1.44,0,0,1,.108-.577A1.117,1.117,0,0,1,.91-2.185a1.24,1.24,0,0,1,.428-.24,1.625,1.625,0,0,1,.513-.08,1,1,0,0,1,.555.13A.389.389,0,0,1,2.6-2.04a.365.365,0,0,1-.045.178.619.619,0,0,1-.1.143A1.625,1.625,0,0,0,2.245-1.8.868.868,0,0,0,1.985-1.835Zm1.925,1a.206.206,0,0,0,.082.185A.417.417,0,0,0,4.225-.6,1,1,0,0,0,4.38-.608.871.871,0,0,0,4.52-.64.611.611,0,0,1,4.6-.518a.372.372,0,0,1,.032.163.387.387,0,0,1-.142.31.8.8,0,0,1-.5.12,1.024,1.024,0,0,1-.677-.2.805.805,0,0,1-.238-.65v-2.14q.055-.015.158-.033a1.292,1.292,0,0,1,.217-.018.64.64,0,0,1,.342.077.362.362,0,0,1,.123.328v.32h.655a.856.856,0,0,1,.057.138.575.575,0,0,1,.027.182.347.347,0,0,1-.077.252.28.28,0,0,1-.207.077H3.91Zm1.13-2.27a.439.439,0,0,1,.128-.32.451.451,0,0,1,.338-.13.451.451,0,0,1,.338.13.439.439,0,0,1,.128.32.439.439,0,0,1-.128.32.451.451,0,0,1-.338.13.451.451,0,0,1-.338-.13A.439.439,0,0,1,5.04-3.105Zm.89,3.1L5.767.023A1.351,1.351,0,0,1,5.55.04a1.176,1.176,0,0,1-.2-.015A.336.336,0,0,1,5.2-.035a.289.289,0,0,1-.093-.122.53.53,0,0,1-.032-.2V-2.4l.162-.027A1.351,1.351,0,0,1,5.46-2.44a1.176,1.176,0,0,1,.2.015.336.336,0,0,1,.148.06.289.289,0,0,1,.092.122.53.53,0,0,1,.033.2Zm3.055-1.21a1.506,1.506,0,0,1-.095.553,1.12,1.12,0,0,1-.267.407,1.138,1.138,0,0,1-.413.25A1.594,1.594,0,0,1,7.675.08,1.514,1.514,0,0,1,7.14-.01a1.177,1.177,0,0,1-.412-.258A1.149,1.149,0,0,1,6.46-.675a1.457,1.457,0,0,1-.095-.54A1.442,1.442,0,0,1,6.46-1.75a1.149,1.149,0,0,1,.267-.407,1.177,1.177,0,0,1,.412-.257,1.514,1.514,0,0,1,.535-.09,1.477,1.477,0,0,1,.535.092,1.208,1.208,0,0,1,.413.26,1.149,1.149,0,0,1,.267.408A1.428,1.428,0,0,1,8.985-1.215Zm-1.75,0a.79.79,0,0,0,.117.467.381.381,0,0,0,.328.163A.367.367,0,0,0,8-.75a.819.819,0,0,0,.113-.465A.793.793,0,0,0,8-1.678a.375.375,0,0,0-.325-.163.375.375,0,0,0-.325.163A.793.793,0,0,0,7.235-1.215ZM10.94-1.54a.279.279,0,0,0-.088-.227.361.361,0,0,0-.237-.073.792.792,0,0,0-.2.025.5.5,0,0,0-.167.075V-.005a1.159,1.159,0,0,1-.158.03A1.609,1.609,0,0,1,9.87.04a1.176,1.176,0,0,1-.2-.015.336.336,0,0,1-.148-.06.289.289,0,0,1-.093-.122A.53.53,0,0,1,9.4-.36v-1.5a.385.385,0,0,1,.057-.22.607.607,0,0,1,.158-.155,1.433,1.433,0,0,1,.427-.195,2.044,2.044,0,0,1,.573-.075,1.349,1.349,0,0,1,.87.247.836.836,0,0,1,.3.688V-.005a1.159,1.159,0,0,1-.157.03A1.609,1.609,0,0,1,11.41.04a1.176,1.176,0,0,1-.2-.015.336.336,0,0,1-.148-.06.289.289,0,0,1-.092-.122.53.53,0,0,1-.033-.2Z" transform="translate(-1588.083 929.823)" fill="#1a206d"/>
    <path id="Path_4308-2" data-name="Path 4308" d="M50.751,14.314a.7.7,0,0,1-.173-.022c-1.54-.395-3.1-.755-4.645-1.071-1.566-.32-3.157-.6-4.729-.844-1.85-.282-3.827-.516-6.41-.759-2.677-.227-5.4-.342-8.087-.342s-5.406.115-8.086.342c-2.6.245-4.576.479-6.411.759-1.59.243-3.18.527-4.728.844s-3.12.679-4.645,1.071a.694.694,0,0,1-.844-.5L-.628,3.584a.694.694,0,0,1,.5-.844c1.739-.446,3.5-.851,5.223-1.2C6.864,1.175,8.652.856,10.41.588c2.4-.366,4.82-.653,7.2-.854,3.012-.255,6.066-.384,9.075-.384h.043c3,0,6.056.129,9.071.384,2.389.2,4.813.489,7.2.854,1.763.269,3.552.589,5.315.949,1.735.354,3.492.759,5.223,1.2a.694.694,0,0,1,.5.844l-.648,2.527q-.986,3.842-1.972,7.682A.694.694,0,0,1,50.751,14.314ZM26.707,9.889c2.729,0,5.49.117,8.207.347h.006c2.612.246,4.614.483,6.493.769,1.595.244,3.209.532,4.8.856,1.341.274,2.7.582,4.04.916q.9-3.5,1.8-7.012l.475-1.853c-1.49-.372-2.995-.714-4.483-1.018C46.3,2.54,44.537,2.225,42.8,1.959c-2.36-.36-4.752-.644-7.111-.843C32.709.865,29.7.737,26.731.737h-.043c-2.97,0-5.984.127-8.958.379-2.353.2-4.745.482-7.11.843-1.735.265-3.5.58-5.247.937C3.889,3.2,2.385,3.54.889,3.914l2.277,8.864c1.332-.332,2.688-.639,4.039-.916,1.57-.322,3.184-.61,4.8-.856,1.863-.285,3.866-.522,6.493-.769H18.5C21.221,10.006,23.982,9.889,26.707,9.889Z" transform="translate(-1613.984 923.077)" fill="#1a206d"/>
  </g>
</svg>
