<svg width="800" height="800" viewBox="0 0 800 800" fill="none" xmlns="http://www.w3.org/2000/svg">
<path d="M150 275H650L700 700H100L150 275ZM250 450H300V350H250V450ZM500 450H550V350H500V450ZM300 225H250C250 185.218 265.804 147.064 293.934 118.934C322.064 90.8035 360.218 75 400 75C439.782 75 477.936 90.8035 506.066 118.934C534.196 147.064 550 185.218 550 225H500C500 198.478 489.464 173.043 470.711 154.289C451.957 135.536 426.522 125 400 125C373.478 125 348.043 135.536 329.289 154.289C310.536 173.043 300 198.478 300 225Z" fill="white"/>
</svg>
