<svg xmlns="http://www.w3.org/2000/svg" width="68" height="68" viewBox="0 0 68 68">
  <g id="Group_147" data-name="Group 147" transform="translate(-2524.836 -981.836)">
    <rect id="Rectangle_99" data-name="Rectangle 99" width="68" height="68" transform="translate(2524.836 981.836)" fill="none"/>
    <g id="renewable-energy" transform="translate(2532.685 989.685)">
      <path id="Path_306" data-name="Path 306" d="M99.164,109.36a26.957,26.957,0,0,1-40.8,35l-1.191,1.191a.87.87,0,0,1-1.487-.609v-6.6l2.417.27,3.609.4a.869.869,0,0,1,.522,1.478l-1.4,1.4a23.463,23.463,0,0,0,35.914-29.905l2.417.27Z" transform="translate(-50.471 -98.344)" fill="#a8b400"/>
      <path id="Path_308" data-name="Path 308" d="M82.51,50.186a23.282,23.282,0,0,1,4.139,14.122A23.463,23.463,0,0,1,46.6,80.091l1.4-1.4a.869.869,0,0,0-.522-1.478l-3.609-.4A23.282,23.282,0,0,1,39.726,62.69,23.463,23.463,0,0,1,79.78,46.907l-1.4,1.4a.869.869,0,0,0,.522,1.478Z" transform="translate(-36.234 -36.544)" fill="#e8e8e7"/>
      <path id="Path_309" data-name="Path 309" d="M56.409,19.035v2.9l-2.417-.27-3.609-.4a.869.869,0,0,1-.522-1.478l1.4-1.4A23.463,23.463,0,0,0,15.347,48.288l-2.417-.27v2.9a26.957,26.957,0,0,1,40.8-35l1.191-1.191a.87.87,0,0,1,1.487.609Z" transform="translate(-7.716 -8.019)" fill="#1a0f55"/>
      <path id="Path_313" data-name="Path 313" d="M218.87,147.478a.87.87,0,0,1-.723-1.352l1.159-1.739a.869.869,0,0,1,.723-.387h4.348a.87.87,0,1,1,0,1.739H220.5l-.9,1.352A.868.868,0,0,1,218.87,147.478Zm-2.319,3.478a.87.87,0,0,1-.723-1.352l.87-1.3a.87.87,0,1,1,1.447.965l-.87,1.3A.868.868,0,0,1,216.551,150.957Z" transform="translate(-193.076 -129.219)" fill="#e8e8e7"/>
    </g>
    <g id="health-insurance" transform="translate(2547.303 1003.381)">
      <path id="Path_93" data-name="Path 93" d="M26.358,4.917,15.786,2.034a.961.961,0,0,0-.506,0L4.708,4.917A.961.961,0,0,0,4,5.844v7.929c0,6.583,3.615,12.315,8.993,14.272a8.642,8.642,0,0,0,2.54.865,8.655,8.655,0,0,0,2.539-.865c5.382-1.956,8.994-7.689,8.994-14.272V5.844a.961.961,0,0,0-.708-.927Z" transform="translate(-4 -2)" fill="#a8b400"/>
      <path id="Path_186" data-name="Path 186" d="M92.895,217.777l-5.008-6.325,1.586-1.256,3.4,4.3,5.185-6.721,1.6,1.235Z" transform="translate(-82.241 -198.921)" fill="#fff"/>
    </g>
  </g>
</svg>
