<svg id="Group_146" data-name="Group 146" xmlns="http://www.w3.org/2000/svg" width="53.405" height="45.071" viewBox="0 0 53.405 45.071">
  <g id="reports" transform="translate(14.608)">
    <path id="Path_297" data-name="Path 297" d="M59.519,56.873A3.433,3.433,0,0,1,56.1,60.3H30.422A3.433,3.433,0,0,1,27,56.873V24.923A3.433,3.433,0,0,1,30.422,21.5H56.1a3.433,3.433,0,0,1,3.423,3.423V56.873" transform="translate(-20.723 -15.224)" fill="#a8b400"/>
    <path id="Path_298" data-name="Path 298" d="M22.275,20.2A3.433,3.433,0,0,1,25.7,16.776H48.52V13.923A3.433,3.433,0,0,0,45.1,10.5H19.422A3.434,3.434,0,0,0,16,13.923V45.873A3.433,3.433,0,0,0,19.422,49.3h2.853Z" transform="translate(-15.999 -10.5)" fill="#1a0f55"/>
    <path id="Path_299" data-name="Path 299" d="M40.357,40.409H57.471a.856.856,0,0,0,0-1.712H40.357a.856.856,0,0,0,0,1.712m0-5.705H57.471a.856.856,0,0,0,0-1.712H40.357a.856.856,0,0,0,0,1.712m0,11.411H57.471a.856.856,0,0,0,0-1.712H40.357a.856.856,0,0,0,0,1.712" transform="translate(-26.092 -20.16)" fill="#e8e8e7"/>
    <path id="Path_300" data-name="Path 300" d="M47.426,68.809a4.3,4.3,0,1,0-3.112,3.11l-1.036-4.147Z" transform="translate(-25.877 -33.259)" fill="#1a0f55"/>
    <path id="Path_301" data-name="Path 301" d="M50.647,72.03,46.5,70.993l1.036,4.147A4.282,4.282,0,0,0,50.647,72.03Z" transform="translate(-29.098 -36.48)" fill="#e8e8e7"/>
    <path id="Path_303" data-name="Path 303" d="M63.352,68.272V71.7a.856.856,0,1,0,1.712,0V68.272a.856.856,0,1,0-1.712,0M60.5,64.849V71.7a.856.856,0,1,0,1.712,0V64.849a.856.856,0,1,0-1.712,0M66.2,66.56V71.7a.856.856,0,1,0,1.712,0V66.56a.856.856,0,1,0-1.712,0" transform="translate(-35.111 -33.474)" fill="#1a0f55"/>
  </g>
  <g id="report-problem" transform="matrix(0.951, 0.309, -0.309, 0.951, 4.575, 25.873)">
    <path id="Path_304" data-name="Path 304" d="M0,0H14.806V14.806H0Z" transform="translate(0 0)" fill="none"/>
    <path id="Path_305" data-name="Path 305" d="M.619,11.106H12.05a.619.619,0,0,0,.537-.925L6.868.31A.614.614,0,0,0,5.8.31L.082,10.181a.619.619,0,0,0,.537.925ZM6.954,9.255H5.721V8.021H6.954ZM6.337,6.788a.619.619,0,0,1-.617-.617V4.937a.617.617,0,0,1,1.234,0V6.171A.619.619,0,0,1,6.337,6.788Z" transform="translate(1.065 1.849)" fill="#a8b400"/>
  </g>
</svg>
