<svg xmlns="http://www.w3.org/2000/svg" width="68" height="68" viewBox="0 0 68 68">
  <g id="Group_686" data-name="Group 686" transform="translate(-2439.722 -740.722)">
    <rect id="Rectangle_98" data-name="Rectangle 98" width="68" height="68" transform="translate(2439.722 740.722)" fill="none"/>
    <g id="Group_146" data-name="Group 146" transform="translate(2445.625 752.245)">
      <g id="reports" transform="translate(14.608)">
        <path id="Path_298" data-name="Path 298" d="M19.422,9.5H45.1a4.428,4.428,0,0,1,4.423,4.423v3.853H25.7A2.426,2.426,0,0,0,23.275,20.2V50.3H19.422A4.428,4.428,0,0,1,15,45.873V13.923A4.428,4.428,0,0,1,19.422,9.5Zm28.1,6.276V13.923A2.426,2.426,0,0,0,45.1,11.5H19.422A2.426,2.426,0,0,0,17,13.923V45.873A2.426,2.426,0,0,0,19.422,48.3h1.853V20.2A4.428,4.428,0,0,1,25.7,15.776Z" transform="translate(-15.999 -10.5)" fill="#1a206d"/>
        <path id="Path_299" data-name="Path 299" d="M40.357,40.409H57.471a.856.856,0,0,0,0-1.712H40.357a.856.856,0,0,0,0,1.712m0-5.705H57.471a.856.856,0,0,0,0-1.712H40.357a.856.856,0,0,0,0,1.712m0,11.411H57.471a.856.856,0,0,0,0-1.712H40.357a.856.856,0,0,0,0,1.712" transform="translate(-26.092 -20.16)" fill="#a8b400"/>
        <path id="Path_303" data-name="Path 303" d="M63.352,68.272V71.7a.856.856,0,1,0,1.712,0V68.272a.856.856,0,1,0-1.712,0M60.5,64.849V71.7a.856.856,0,1,0,1.712,0V64.849a.856.856,0,1,0-1.712,0M66.2,66.56V71.7a.856.856,0,1,0,1.712,0V66.56a.856.856,0,1,0-1.712,0" transform="translate(-35.111 -33.474)" fill="#a8b400"/>
        <path id="Path_297" data-name="Path 297" d="M56.1,61.3H30.422A4.428,4.428,0,0,1,26,56.873V24.923A4.428,4.428,0,0,1,30.422,20.5H56.1a4.428,4.428,0,0,1,4.423,4.423V56.873A4.428,4.428,0,0,1,56.1,61.3ZM30.422,22.5A2.426,2.426,0,0,0,28,24.923V56.873A2.426,2.426,0,0,0,30.422,59.3H56.1a2.426,2.426,0,0,0,2.423-2.423V24.923A2.426,2.426,0,0,0,56.1,22.5Z" transform="translate(-20.723 -15.224)" fill="#a8b400"/>
      </g>
      <g id="report-problem" transform="matrix(0.951, 0.309, -0.309, 0.951, 4.575, 25.873)">
        <path id="Path_304" data-name="Path 304" d="M0,0H14.806V14.806H0Z" transform="translate(0 0)" fill="none"/>
        <path id="Path_305" data-name="Path 305" d="M12.05,11.106a.619.619,0,0,0,.537-.925L6.868.31A.614.614,0,0,0,5.8.31L.082,10.181a.619.619,0,0,0,.537.925H12.05M5.721,8.021H6.954V9.255H5.721V8.021m.617-3.7a.619.619,0,0,1,.617.617V6.171a.617.617,0,1,1-1.234,0V4.937a.619.619,0,0,1,.617-.617m5.713,8.786H.619a2.626,2.626,0,0,1-2.262-1.3,2.63,2.63,0,0,1-.015-2.612l.009-.016L4.067-.687A2.616,2.616,0,0,1,6.332-2,2.63,2.63,0,0,1,8.6-.7l5.721,9.874.009.016a2.619,2.619,0,0,1-2.276,3.912Z" transform="translate(-0.19 4.456)" fill="#a8b400"/>
      </g>
    </g>
  </g>
</svg>
