<svg xmlns="http://www.w3.org/2000/svg" width="52.588" height="60.408" viewBox="0 0 52.588 60.408">
  <g id="Group_710" data-name="Group 710" transform="translate(1889.252 -379.886)">
    <g id="Path_523" data-name="Path 523" transform="translate(-1993.017 200.577)" fill="none" stroke-linecap="round" stroke-linejoin="round">
      <path d="M154.349,216.441a1.152,1.152,0,0,1-.086.541l-3.734,8.8a1.141,1.141,0,0,1-.467.534c-3.511,2.091-8.812,5.545-9.6,6.675-.684.977-.525,2.662-.448,3.471.049.512.077,1.25-.673,1.25h-8.111a1.141,1.141,0,0,1-1.143-1.137c0-.008,0-.4-.023-1.014-.022.609-.022,1.006-.022,1.014a1.141,1.141,0,0,1-1.143,1.137h-8.112c-.715,0-.721-.738-.673-1.25.076-.809.235-2.495-.448-3.471-.788-1.125-6.09-4.58-9.6-6.673-.21-.126-4.2-9.339-4.2-9.339a1.15,1.15,0,0,1-.086-.542s1-10,1.285-10.19,2.045-1.151,2.854,1.433a41.093,41.093,0,0,1,.927,6.2c-2.015.067-2.477,1.082-2.553,1.467-.321,1.633,1.935,4.754,2.39,5.363.034.045,3.894,2.871,4.938,5.675a.624.624,0,0,0,.809.328.529.529,0,0,0,.235-.716c-1.088-2.926-4.646-5.526-5.138-6.019-1.192-1.195-2.575-3.684-2.14-4.415.408-.686,2.161-.617,3.063-.066a25.217,25.217,0,0,1,5.532,5.07c.186.035,9,2.517,11.555,7.164a5.808,5.808,0,0,1,.533,1.413,5.436,5.436,0,0,1,.533-1.412c3.332-5.806,11.369-7.131,11.555-7.165a21.964,21.964,0,0,1,3.511-4.3c1.691-1.651,3.911-1.86,4.364-.845.289.648-.868,3.359-2.061,4.554-.493.494-4.05,3.094-5.138,6.019-.108.289-.1.554.249.679a.627.627,0,0,0,.8-.291c1.042-2.8,4.9-5.63,4.938-5.675.456-.609,2.711-3.729,2.39-5.363a1.906,1.906,0,0,0-1.911-1.388c.081-1.23.244-4.671.926-6.283a2.246,2.246,0,0,1,2.853-1.433,1.137,1.137,0,0,1,.5.854Z" stroke="none"/>
      <path d="M 108.1285552978516 205.9187164306641 C 107.6183013916016 205.9187316894531 107.1847076416016 206.1639709472656 107.0541687011719 206.2514801025391 C 106.7647552490234 206.4463958740234 105.7691650390625 216.4414215087891 105.7691650390625 216.4414215087891 C 105.753662109375 216.6259765625 105.7835693359375 216.8136596679688 105.85546875 216.9834747314453 C 105.85546875 216.9834747314453 109.8463439941406 226.1967468261719 110.0562133789062 226.3222808837891 C 113.5699615478516 228.4155120849609 118.8727569580078 231.869873046875 119.6603698730469 232.9951019287109 C 120.34423828125 233.9719085693359 120.1849365234375 235.6571502685547 120.1087799072266 236.4665374755859 C 120.0610046386719 236.9781799316406 120.0671691894531 237.7164611816406 120.7817687988281 237.7164611816406 L 128.8942413330078 237.7164611816406 C 129.5244750976562 237.7164611816406 130.0373992919922 237.2066802978516 130.0373992919922 236.5795135498047 C 130.0373992919922 236.5717468261719 130.0377807617188 236.1750335693359 130.0595703125 235.5657958984375 C 130.0820617675781 236.1750335693359 130.0824584960938 236.5717468261719 130.0824584960938 236.5795135498047 C 130.0824584960938 237.2066802978516 130.5957336425781 237.7164611816406 131.2256317138672 237.7164611816406 L 139.3365020751953 237.7168579101562 C 140.0864410400391 237.7168579101562 140.0580902099609 236.9786376953125 140.009521484375 236.4668884277344 C 139.9333038330078 235.6575012207031 139.7740325927734 233.9730682373047 140.4579010009766 232.9957733154297 C 141.250244140625 231.8651275634766 146.5510101318359 228.4114685058594 150.0620727539062 226.3202819824219 C 150.2723083496094 226.1947937011719 150.4331359863281 226.0106506347656 150.529541015625 225.7859954833984 L 154.2632446289062 216.98193359375 C 154.334716796875 216.8112640380859 154.3646240234375 216.6248474121094 154.3490905761719 216.4413757324219 L 153.5649719238281 207.1040496826172 C 153.5362396240234 206.7563171386719 153.3531951904297 206.4454193115234 153.0625152587891 206.2500152587891 C 152.7765808105469 206.0580444335938 151.0004272460938 205.8131408691406 150.2092437744141 207.6833190917969 C 149.5273132324219 209.2955780029297 149.3641510009766 212.7366638183594 149.2829437255859 213.9663848876953 C 150.6009521484375 213.9776916503906 151.1185302734375 214.9697113037109 151.1943054199219 215.3547973632812 C 151.5149536132812 216.9879150390625 149.2596740722656 220.1085357666016 148.8039093017578 220.7173309326172 C 148.7700653076172 220.7631530761719 144.9081268310547 223.5947113037109 143.8663940429688 226.3927917480469 C 143.783203125 226.6170196533203 143.4396820068359 226.8146820068359 143.0713653564453 226.6834869384766 C 142.720458984375 226.5579376220703 142.7146453857422 226.2928924560547 142.822265625 226.0042114257812 C 143.9110260009766 223.0787963867188 147.467529296875 220.4791870117188 147.9606323242188 219.9849090576172 C 149.1531677246094 218.7897033691406 150.3106842041016 216.0783538818359 150.0212097167969 215.4306488037109 C 149.5677185058594 214.4156799316406 147.347900390625 214.6251068115234 145.6572113037109 216.276123046875 C 144.4868621826172 217.4192047119141 142.575927734375 219.6015014648438 142.1465454101562 220.5744323730469 C 141.9605560302734 220.6081390380859 133.9234008789062 221.9336090087891 130.591796875 227.7391510009766 C 130.3532409667969 228.1548767089844 130.1873168945312 228.6304931640625 130.0591125488281 229.1507568359375 C 129.9308624267578 228.6300964355469 129.7572174072266 228.1579742431641 129.5263519287109 227.7375030517578 C 126.9723052978516 223.0907287597656 118.1577758789062 220.6084899902344 117.9716186523438 220.5738983154297 C 117.8134460449219 220.3979187011719 115.3356323242188 217.2699584960938 112.4396820068359 215.5034637451172 C 111.5374603271484 214.9533233642578 109.7850036621094 214.8837585449219 109.3766174316406 215.5699462890625 C 108.94140625 216.3016815185547 110.3243713378906 218.7904510498047 111.5168609619141 219.9852752685547 C 112.0095520019531 220.478759765625 115.56689453125 223.0789947509766 116.6552429199219 226.0045623779297 C 116.762451171875 226.2928161621094 116.7018432617188 226.5967407226562 116.4205017089844 226.7209625244141 C 116.0463562011719 226.8865203857422 115.6942749023438 226.616943359375 115.6111450195312 226.3931121826172 C 114.5677642822266 223.5891571044922 110.7073974609375 220.7627410888672 110.6735992431641 220.7176666259766 C 110.2178344726562 220.1087799072266 107.9618530273438 216.9882507324219 108.2831878662109 215.3550720214844 C 108.3590087890625 214.9700164794922 108.8213348388672 213.9550323486328 110.8360290527344 213.8878631591797 C 110.6996459960938 212.3978271484375 110.3620147705078 209.1334075927734 109.9085388183594 207.68408203125 C 109.4668121337891 206.2734527587891 108.7422332763672 205.918701171875 108.1285552978516 205.9187164306641 M 108.1284790039062 203.9187164306641 C 108.1285095214844 203.9187164306641 108.1285095214844 203.9187164306641 108.1285095214844 203.9187164306641 C 108.9393005371094 203.9186859130859 110.9218444824219 204.227294921875 111.8171539306641 207.0864105224609 C 112.2725830078125 208.5420227050781 112.6026611328125 211.3071899414062 112.8050994873047 213.4618377685547 C 113.0459899902344 213.5573272705078 113.2730102539062 213.6691131591797 113.4808502197266 213.7958374023438 C 115.7340240478516 215.1702575683594 117.7397918701172 217.2221069335938 119.1114501953125 218.8237762451172 C 120.0718383789062 219.1179809570312 121.8021850585938 219.7118072509766 123.7169952392578 220.6185607910156 C 126.4940032958984 221.9336090087891 128.6099548339844 223.4109497070312 130.036376953125 225.0274963378906 C 130.7351989746094 224.1649017333984 131.5575103759766 223.3653411865234 132.4956970214844 222.6374053955078 C 133.6943359375 221.7073974609375 135.0863342285156 220.8906555175781 136.6329956054688 220.2098999023438 C 138.34765625 219.4552001953125 139.8949127197266 219.0228576660156 140.8727722167969 218.7956695556641 C 141.8694152832031 217.3090209960938 143.6057891845703 215.4840698242188 144.259765625 214.8453369140625 C 145.1620788574219 213.9642028808594 146.2494049072266 213.3291015625 147.3393859863281 213.0220642089844 C 147.4958801269531 210.6879730224609 147.7424926757812 208.3813018798828 148.3672332763672 206.9042205810547 C 149.1046752929688 205.1610870361328 150.6131591796875 204.1204833984375 152.4024963378906 204.1204833984375 C 152.804443359375 204.1204833984375 153.5695495605469 204.1814270019531 154.1774291992188 204.589599609375 C 154.9762115478516 205.1265869140625 155.4791564941406 205.9828186035156 155.5581817626953 206.9393768310547 L 156.3420715332031 216.2740173339844 C 156.3844909667969 216.7750549316406 156.3035888671875 217.2874450683594 156.1080322265625 217.7544555664062 C 156.1068420410156 217.7572326660156 156.1056823730469 217.760009765625 156.1045227050781 217.7627868652344 L 152.3708190917969 226.5668487548828 C 152.3696899414062 226.5694732666016 152.3685913085938 226.5720977783203 152.3674621582031 226.57470703125 C 152.103759765625 227.1891784667969 151.6610412597656 227.6950378417969 151.0871734619141 228.03759765625 C 149.253173828125 229.1299285888672 147.1676330566406 230.4523468017578 145.5066528320312 231.5760955810547 C 142.8242645263672 233.390869140625 142.1856689453125 234.0474243164062 142.0896606445312 234.1544494628906 C 142.0648193359375 234.2018127441406 141.9715270996094 234.4107971191406 141.9446411132812 234.9229736328125 C 141.9189758300781 235.4114532470703 141.9661102294922 235.9119262695312 142.0005187988281 236.2773590087891 C 142.0438995361328 236.7344207763672 142.1589965820312 237.9470367431641 141.3161315917969 238.8736724853516 C 140.8215637207031 239.4174194335938 140.1184997558594 239.7168579101562 139.3365020751953 239.7168579101562 L 131.2255401611328 239.7164611816406 C 130.8139495849609 239.7164611816406 130.4205169677734 239.6370544433594 130.0599365234375 239.4928588867188 C 129.6993408203125 239.6370391845703 129.3058471679688 239.7164611816406 128.8942413330078 239.7164611816406 L 120.7817687988281 239.7164611816406 C 120.0107269287109 239.7164611816406 119.3141174316406 239.4178771972656 118.8202056884766 238.8757171630859 C 117.9629669189453 237.9347076416016 118.0792388916016 236.689697265625 118.1174468994141 236.2805786132812 C 118.1521606445312 235.9115753173828 118.1992340087891 235.4113006591797 118.1736602783203 234.9229583740234 C 118.1469116210938 234.4122009277344 118.0542144775391 234.2027740478516 118.0283355712891 234.1534881591797 C 117.9304656982422 234.0448303222656 117.2892150878906 233.3885040283203 114.6117858886719 231.5778198242188 C 112.9509429931641 230.4546051025391 110.8652801513672 229.1322479248047 109.0326232910156 228.0404968261719 C 108.4829254150391 227.7116851806641 108.2576599121094 227.2515258789062 108.0191497802734 226.7643280029297 C 107.8873138427734 226.4950256347656 107.7151794433594 226.1282043457031 107.4929351806641 225.6428985595703 C 107.1320190429688 224.8548583984375 106.6457366943359 223.7683715820312 106.0475463867188 222.4136505126953 C 105.0325012207031 220.1147918701172 104.0302429199219 217.8015289306641 104.0202484130859 217.7784271240234 C 104.0180358886719 217.7733612060547 104.015869140625 217.7682647705078 104.0137176513672 217.7631988525391 C 103.8157653808594 217.2956237792969 103.7336273193359 216.7806854248047 103.7761840820312 216.2740325927734 C 103.7770385742188 216.2637481689453 103.7779998779297 216.2534637451172 103.7790069580078 216.2431793212891 C 103.7815093994141 216.2180633544922 104.0324859619141 213.7022552490234 104.3157806396484 211.1950073242188 C 104.4832000732422 209.7131958007812 104.6294097900391 208.5206756591797 104.7503204345703 207.6505889892578 C 104.8261566162109 207.1049194335938 104.8915863037109 206.6878509521484 104.9503326416016 206.3755493164062 C 105.0462799072266 205.8655548095703 105.1912536621094 205.0948181152344 105.9369506835938 204.5926055908203 C 106.2418365478516 204.3882598876953 107.0579376220703 203.9187469482422 108.1285095214844 203.9187164306641 L 108.1284790039062 203.9187164306641 Z" stroke="none" fill="#1a206d"/>
    </g>
    <path id="Subtraction_3" data-name="Subtraction 3" d="M24.357,30.317H6.247A6.254,6.254,0,0,1,0,24.071V13.613a6.148,6.148,0,0,1,2.284-4.8l9.06-7.4a6.248,6.248,0,0,1,7.907,0L24.3,5.5V2.285a1.064,1.064,0,1,1,2.121,0V7.273l1.891,1.541A6.149,6.149,0,0,1,30.6,13.576V24.071A6.254,6.254,0,0,1,24.357,30.317ZM15.3,12.706a6.254,6.254,0,0,1,6.247,6.247v9.19h2.833a4.129,4.129,0,0,0,4.109-4.109V13.574a4.09,4.09,0,0,0-1.548-3.186l-9.061-7.4a4.126,4.126,0,0,0-5.2,0l-9.06,7.4a4.094,4.094,0,0,0-1.51,3.187V24.034a4.124,4.124,0,0,0,4.118,4.109H9.05v-9.19A6.254,6.254,0,0,1,15.3,12.706Zm0,2.318a4.115,4.115,0,0,0-4.114,3.918v9.2h8.227v-9.2A4.113,4.113,0,0,0,15.3,15.024Z" transform="translate(-1877.533 379.886)" fill="#a8b400"/>
  </g>
</svg>
