<svg xmlns="http://www.w3.org/2000/svg" width="31.191" height="57.807" viewBox="0 0 31.191 57.807">
  <g id="Group_737" data-name="Group 737" transform="translate(2118 -474)">
    <path id="Path_4371" data-name="Path 4371" d="M37.835,149.551a2.079,2.079,0,0,0-2.438-.619l-7.906,3.315a.63.63,0,0,0,.49,1.161l7.906-3.315a.845.845,0,0,1,.967.245.823.823,0,0,1,.168.645.846.846,0,0,1-.361.567c-3.444,2.244-11.273,6.681-11.659,6.9-.013.013-.026.013-.052.026h0a4.633,4.633,0,0,1-3.366.477c-.09-.013-1.883-.232-6.152-.761l-2.3-.284v-8.641c.361-.026.671-.039.813-.039h.077a33.576,33.576,0,0,1,8.848.993l1.161.232a.883.883,0,0,1,.709.864.363.363,0,0,1-.013.1.92.92,0,0,1-.245.516.869.869,0,0,1-.619.258H17.818a.632.632,0,1,0,0,1.264h6.036a2.169,2.169,0,0,0,1.522-.632,2.311,2.311,0,0,0,.632-1.522,2.156,2.156,0,0,0-1.741-2.115c-.387-.077-.774-.155-1.148-.232a34.982,34.982,0,0,0-9.17-1.019h-.064c-.142.013-.451.026-.787.039a.635.635,0,0,0-.606-.477H7.732a.633.633,0,0,0-.632.632V158.9a.633.633,0,0,0,.632.632h4.759a.611.611,0,0,0,.567-.374l2.205.271c2.515.31,5.946.722,6.088.748a7.3,7.3,0,0,0,1.367.129,5.361,5.361,0,0,0,2.85-.761c.013,0,.013-.013.026-.013.077-.052,8.19-4.63,11.737-6.952a2.059,2.059,0,0,0,.929-1.432A2.023,2.023,0,0,0,37.835,149.551Zm-25.976,8.732h-3.5V148.79h3.5Z" transform="translate(-2125.1 371.5)" fill="#1a206d"/>
    <path id="Path_4372" data-name="Path 4372" d="M7.556,158.257a2.079,2.079,0,0,0,2.438.619l7.906-3.315a.63.63,0,0,0-.49-1.161L9.5,157.715a.845.845,0,0,1-.967-.245.823.823,0,0,1-.168-.645.846.846,0,0,1,.361-.567c3.444-2.244,11.273-6.681,11.659-6.9.013-.013.026-.013.052-.026h0a4.633,4.633,0,0,1,3.366-.477c.09.013,1.883.232,6.152.761l2.3.284v8.641c-.361.026-.671.039-.813.039h-.077a33.575,33.575,0,0,1-8.848-.993l-1.161-.232a.883.883,0,0,1-.709-.864.363.363,0,0,1,.013-.1.92.92,0,0,1,.245-.516.869.869,0,0,1,.619-.258h6.049a.632.632,0,0,0,0-1.264H21.537a2.169,2.169,0,0,0-1.522.632,2.311,2.311,0,0,0-.632,1.522,2.156,2.156,0,0,0,1.741,2.115c.387.077.774.155,1.148.232a34.983,34.983,0,0,0,9.17,1.019h.064c.142-.013.451-.026.787-.039a.635.635,0,0,0,.606.477h4.759a.633.633,0,0,0,.632-.632v-10.77a.633.633,0,0,0-.632-.632H32.9a.611.611,0,0,0-.567.374l-2.205-.271c-2.515-.31-5.946-.722-6.088-.748a7.3,7.3,0,0,0-1.367-.129,5.361,5.361,0,0,0-2.85.761c-.013,0-.013.013-.026.013-.077.052-8.19,4.63-11.737,6.952a2.059,2.059,0,0,0-.929,1.432A2.023,2.023,0,0,0,7.556,158.257Zm25.976-8.732h3.5v9.493h-3.5Z" transform="translate(-2125.1 326.5)" fill="#1a206d"/>
    <g id="Group_737-2" data-name="Group 737" transform="translate(-2115.971 490)">
      <path id="Subtraction_6" data-name="Subtraction 6" d="M7.714,1.686a1.86,1.86,0,0,0-.413.041V7.559L2.54,11.569H4.5l-.11.139V24.6a1.027,1.027,0,0,0,.506.363H10.39V15.93l1.48-.16a2.165,2.165,0,0,1,.236-.013H18.56v9.206h5.734a.6.6,0,0,0,.072-.279V11.569h2.165L14.54,1.78,9.03,6.08V1.686H7.714M14.549,0a1.106,1.106,0,0,1,.7.214L28.778,11.263a1.222,1.222,0,0,1,.384.889,1.05,1.05,0,0,1-.951,1.076H26.024V24.684a1.811,1.811,0,0,1-1.616,1.937H4.877a2.328,2.328,0,0,1-2.146-1.937V13.228H1.077a1.187,1.187,0,0,1-.985-.756A1.024,1.024,0,0,1,.3,11.288l5.344-4.5V1.444c0-.86.812-1.416,2.071-1.416H9.351c1.186,0,1.338.756,1.338,1.416V2.682L13.863.205A1.108,1.108,0,0,1,14.549,0ZM16.9,25.263V17.415h-4.8a.541.541,0,0,0-.057,0v7.844Z" transform="translate(0 0)" fill="#a8b400"/>
      <path id="Path_4362_-_Outline" data-name="Path 4362 - Outline" d="M1.086,1.086V4.342H4.342V1.086H1.086M0,0H5.428V5.428H0Z" transform="translate(11.791 8.352)" fill="#a8b400"/>
    </g>
  </g>
</svg>
