<svg id="Group_233" data-name="Group 233" xmlns="http://www.w3.org/2000/svg" width="52.503" height="54.729" viewBox="0 0 52.503 54.729">
  <path id="Path_523" data-name="Path 523" d="M158.264,217.289a1.245,1.245,0,0,1-.093.584l-4.035,9.513a1.233,1.233,0,0,1-.505.577c-3.794,2.26-9.522,5.992-10.378,7.213-.739,1.056-.567,2.876-.485,3.751.052.553.083,1.351-.727,1.351h-8.764a1.233,1.233,0,0,1-1.235-1.229c0-.008,0-.437-.025-1.1-.024.658-.024,1.087-.024,1.1a1.233,1.233,0,0,1-1.235,1.229h-8.766c-.772,0-.779-.8-.727-1.351.082-.875.254-2.7-.485-3.751-.851-1.216-6.581-4.949-10.378-7.21-.227-.136-4.539-10.091-4.539-10.091a1.242,1.242,0,0,1-.093-.586s1.076-10.8,1.389-11.011,2.21-1.244,3.084,1.548a44.4,44.4,0,0,1,1,6.7c-2.177.073-2.677,1.169-2.759,1.585-.347,1.765,2.091,5.137,2.583,5.795.037.049,4.208,3.1,5.335,6.133a.675.675,0,0,0,.875.354.572.572,0,0,0,.254-.774c-1.176-3.161-5.02-5.971-5.552-6.5-1.289-1.291-2.783-3.98-2.313-4.771.441-.741,2.335-.666,3.31-.072a27.248,27.248,0,0,1,5.978,5.479c.2.037,9.726,2.72,12.486,7.741a6.276,6.276,0,0,1,.576,1.527,5.873,5.873,0,0,1,.576-1.525c3.6-6.273,12.285-7.706,12.486-7.742a23.733,23.733,0,0,1,3.794-4.645c1.827-1.784,4.226-2.01,4.716-.914.313.7-.938,3.63-2.227,4.921-.533.534-4.376,3.343-5.552,6.5-.116.312-.11.6.269.734a.678.678,0,0,0,.859-.314c1.126-3.024,5.3-6.083,5.335-6.133.492-.658,2.929-4.03,2.583-5.795a2.06,2.06,0,0,0-2.065-1.5c.088-1.329.264-5.047,1-6.789a2.427,2.427,0,0,1,3.083-1.549,1.228,1.228,0,0,1,.543.923Z" transform="translate(-105.765 -185.55)" fill="#1a0f55"/>
  <path id="Path_524" data-name="Path 524" d="M187.223,50.372h1.994V64.187a2.807,2.807,0,0,0,2.588,2.336h23.553a2.184,2.184,0,0,0,1.949-2.336V50.372h2.636a1.266,1.266,0,0,0,1.147-1.3A1.473,1.473,0,0,0,220.628,48L204.308,34.68a1.5,1.5,0,0,0-1.666-.011l-3.828,2.987V36.162c0-.8-.183-1.707-1.613-1.707h-1.974c-1.518,0-2.5.67-2.5,1.707v6.444l-6.444,5.428a1.234,1.234,0,0,0-.249,1.427,1.431,1.431,0,0,0,1.188.911Zm19.082,14.513h-5.853V55.426a.656.656,0,0,1,.069,0h5.783Z" transform="translate(-175.481 -34.421)" fill="#a8b400"/>
</svg>
