<svg xmlns="http://www.w3.org/2000/svg" width="45.072" height="65.67" viewBox="0 0 45.072 65.67">
  <g id="Group_391" data-name="Group 391" transform="translate(-8908.158 -907.801)">
    <g id="Group_370" data-name="Group 370" transform="translate(8904.441 913.301)">
      <g id="Group_367" data-name="Group 367" transform="translate(23.09 6.856)">
        <path id="Path_658" data-name="Path 658" d="M292.93,131.214a4.527,4.527,0,1,1-4.527-4.527,4.526,4.526,0,0,1,4.527,4.527" transform="translate(-283.876 -126.687)" fill="none" stroke="#1a206d" stroke-width="1"/>
        <g id="nigeria-naira-currency-symbol-svgrepo-com_2_" data-name="nigeria-naira-currency-symbol-svgrepo-com (2)" transform="translate(1.865 2.537)">
          <path id="Path_661" data-name="Path 661" d="M5.262,47.526H4.516v-.717h.746a.2.2,0,1,0,0-.406H4.516v-.995a.48.48,0,0,0-.085-.317A.273.273,0,0,0,4.208,45a.262.262,0,0,0-.214.09.485.485,0,0,0-.084.317V46.4h-1.4l-.6-.9-.146-.228a1.017,1.017,0,0,0-.122-.158.389.389,0,0,0-.119-.083A.394.394,0,0,0,1.361,45a.411.411,0,0,0-.229.069.38.38,0,0,0-.15.174.889.889,0,0,0-.04.3V46.4H.2a.2.2,0,0,0,0,.406H.941v.717H.2a.2.2,0,1,0,0,.406H.941v1.136a.469.469,0,0,0,.088.313.274.274,0,0,0,.223.094.279.279,0,0,0,.221-.094.459.459,0,0,0,.09-.313V47.932h1.27l.687,1.054c.048.07.1.14.146.209a.988.988,0,0,0,.144.162.448.448,0,0,0,.147.09.541.541,0,0,0,.183.029c.186,0,.376-.057.376-.479V47.932h.746a.2.2,0,0,0,0-.406ZM3.91,46.809v.717H3.249l-.474-.717Zm-2.347-.824.273.418H1.563Zm0,1.541v-.717H2.1l.468.717Zm2.347,1-.393-.595H3.91v.595Z" transform="translate(0 -45.001)" fill="#1a206d"/>
        </g>
      </g>
      <g id="Group_368" data-name="Group 368" transform="translate(10.153 -0.265)">
        <path id="Path_659" data-name="Path 659" d="M431.135,55.117a4.528,4.528,0,1,1-4.527-4.527,4.527,4.527,0,0,1,4.527,4.527" transform="translate(-422.08 -50.59)" fill="none" stroke="#1a206d" stroke-width="1"/>
        <g id="nigeria-naira-currency-symbol-svgrepo-com_2_2" data-name="nigeria-naira-currency-symbol-svgrepo-com (2)" transform="translate(1.795 2.29)">
          <path id="Path_661-2" data-name="Path 661" d="M5.262,47.526H4.516v-.717h.746a.2.2,0,1,0,0-.406H4.516v-.995a.48.48,0,0,0-.085-.317A.273.273,0,0,0,4.208,45a.262.262,0,0,0-.214.09.485.485,0,0,0-.084.317V46.4h-1.4l-.6-.9-.146-.228a1.017,1.017,0,0,0-.122-.158.389.389,0,0,0-.119-.083A.394.394,0,0,0,1.361,45a.411.411,0,0,0-.229.069.38.38,0,0,0-.15.174.889.889,0,0,0-.04.3V46.4H.2a.2.2,0,0,0,0,.406H.941v.717H.2a.2.2,0,1,0,0,.406H.941v1.136a.469.469,0,0,0,.088.313.274.274,0,0,0,.223.094.279.279,0,0,0,.221-.094.459.459,0,0,0,.09-.313V47.932h1.27l.687,1.054c.048.07.1.14.146.209a.988.988,0,0,0,.144.162.448.448,0,0,0,.147.09.541.541,0,0,0,.183.029c.186,0,.376-.057.376-.479V47.932h.746a.2.2,0,0,0,0-.406ZM3.91,46.809v.717H3.249l-.474-.717Zm-2.347-.824.273.418H1.563Zm0,1.541v-.717H2.1l.468.717Zm2.347,1-.393-.595H3.91v.595Z" transform="translate(0 -45.001)" fill="#1a206d"/>
        </g>
      </g>
      <g id="Group_369" data-name="Group 369" transform="translate(24.816 -5)">
        <path id="Path_660" data-name="Path 660" d="M307.911,2.8a2.8,2.8,0,1,1-2.8-2.8,2.8,2.8,0,0,1,2.8,2.8" transform="translate(-302.306 0)" fill="none" stroke="#1a206d" stroke-width="1"/>
        <g id="nigeria-naira-currency-symbol-svgrepo-com_2_3" data-name="nigeria-naira-currency-symbol-svgrepo-com (2)" transform="translate(1.132 1.434)">
          <path id="Path_661-3" data-name="Path 661" d="M3.217,46.545H2.761v-.438h.456a.124.124,0,1,0,0-.248H2.761V45.25a.294.294,0,0,0-.052-.194A.167.167,0,0,0,2.573,45a.16.16,0,0,0-.131.055.3.3,0,0,0-.052.194v.608H1.533l-.365-.552-.089-.14A.622.622,0,0,0,1,45.07a.238.238,0,0,0-.073-.051A.241.241,0,0,0,.832,45a.251.251,0,0,0-.14.042A.232.232,0,0,0,.6,45.15a.544.544,0,0,0-.025.186v.523H.124a.124.124,0,0,0,0,.248H.576v.438H.124a.124.124,0,0,0,0,.248H.576v.694a.287.287,0,0,0,.054.192.168.168,0,0,0,.136.057A.171.171,0,0,0,.9,47.679a.281.281,0,0,0,.055-.192v-.695h.776l.42.644.089.128a.6.6,0,0,0,.088.1.274.274,0,0,0,.09.055.332.332,0,0,0,.112.018c.114,0,.23-.035.23-.293v-.651h.456a.124.124,0,0,0,0-.248Zm-.827-.438v.438h-.4l-.29-.438ZM.956,45.6l.167.256H.956Zm0,.942v-.438h.329l.286.438Zm1.435.612-.24-.364h.24v.364Z" transform="translate(0 -45.001)" fill="#1a206d"/>
        </g>
      </g>
      <g id="savings" transform="translate(2.716 14.984)">
        <path id="Path_4332" data-name="Path 4332" d="M42.765,21.756a16.978,16.978,0,0,1,.088,1.754,13.571,13.571,0,0,1-2.865,8.739,11.6,11.6,0,0,1-1.941,1.918c-.26.2-.471.343-.61.431-.069.044-.12.074-.15.091l-.029.016a1.61,1.61,0,0,0-.844,1.416v4.234a1.61,1.61,0,0,1-1.61,1.61h-1.61a3.219,3.219,0,0,0-3.219-3.219H23.536a3.219,3.219,0,0,0-3.219,3.219h-1.61a1.61,1.61,0,0,1-1.61-1.61v-1.94a1.61,1.61,0,0,0-1.38-1.594l-.066-.012c-.065-.013-.171-.035-.311-.07a9.191,9.191,0,0,1-1.183-.39,10.173,10.173,0,0,1-3.426-2.275A12.946,12.946,0,0,1,7.966,29.4a4.593,4.593,0,0,0-3.028-2.933.987.987,0,0,1-.719-.95V22.958a.934.934,0,0,1,.677-.9,4.617,4.617,0,0,0,3.043-3.042,9.3,9.3,0,0,1,2.037-3.551,15.511,15.511,0,0,1,3-2.331c.435-.262.8-.457,1.058-.585.127-.064.225-.11.288-.139l.068-.031.014-.006A1.61,1.61,0,0,0,15.38,10.9V5.507a23.182,23.182,0,0,0,2.252,1.7,12.362,12.362,0,0,0,3.461,1.64,12.942,12.942,0,0,1,1.493-2.986l-.019,0a7.681,7.681,0,0,1-3.172-1.347,22.6,22.6,0,0,1-3.028-2.437,2.493,2.493,0,0,0-2.659-.485,2.445,2.445,0,0,0-1.548,2.267V9.9c-.246.132-.531.292-.842.479a18.722,18.722,0,0,0-3.634,2.828,12.486,12.486,0,0,0-2.8,4.8,1.412,1.412,0,0,1-.871.957A4.153,4.153,0,0,0,1,22.958v2.556a4.206,4.206,0,0,0,3.062,4.048,1.383,1.383,0,0,1,.868.906,16.135,16.135,0,0,0,3.509,5.868,13.386,13.386,0,0,0,4.513,3c.336.136.647.245.925.334v.687a4.829,4.829,0,0,0,4.829,4.829h1.61a3.219,3.219,0,0,0,3.219-3.219h6.439a3.219,3.219,0,0,0,3.219,3.219H34.8a4.829,4.829,0,0,0,4.829-4.829V37c.118-.084.245-.178.38-.282A14.844,14.844,0,0,0,42.5,34.263a16.782,16.782,0,0,0,3.574-10.754,17.425,17.425,0,0,0-.866-5.639A12.911,12.911,0,0,1,42.765,21.756Z" transform="translate(0 0)" fill="#a8b400"/>
        <path id="Path_4333" data-name="Path 4333" d="M33.3,7.986a9.663,9.663,0,0,1-2.932,11.275,4.721,4.721,0,0,1-4.759.324L17.922,16.4a4.721,4.721,0,0,1-3.136-3.593A9.66,9.66,0,0,1,33.3,7.986Zm-4.927,8.749a6.44,6.44,0,1,0-10.394-4.3.667.667,0,0,0,.212.372,2.772,2.772,0,0,0,.959.623l7.691,3.185a2.773,2.773,0,0,0,1.118.237A.667.667,0,0,0,28.376,16.735ZM7.415,19.657A2.415,2.415,0,1,0,5,17.243,2.415,2.415,0,0,0,7.415,19.657Z" transform="translate(8.878 1.382)" fill="#1a206d"/>
      </g>
    </g>
  </g>
</svg>
