<svg xmlns="http://www.w3.org/2000/svg" width="78" height="78" viewBox="0 0 78 78">
  <g id="Group_391" data-name="Group 391" transform="translate(-8893.693 -905.693)">
    <rect id="Rectangle_209" data-name="Rectangle 209" width="78" height="78" transform="translate(8893.693 905.693)" fill="none"/>
    <g id="Group_370" data-name="Group 370" transform="translate(8904.441 913.301)">
      <path id="Path_655" data-name="Path 655" d="M5.794,244.91H.913A.915.915,0,0,1,0,244V231.53a.915.915,0,0,1,.913-.912h4.4A17.685,17.685,0,0,1,7.5,227.16c-.164-.386-2.2-5.147-3.7-8.116-.615-.361,6.776-4.141,12.846,1.491a28.982,28.982,0,0,1,11.023-2.13c13.2,0,23.9,8.458,23.9,18.892,0,.284-.012.565-.028.846a2.3,2.3,0,0,0,.864,1.2,3.368,3.368,0,0,0,.645.368,1.556,1.556,0,0,1-.153-.672,1.627,1.627,0,0,1,.56-1.212,2,2,0,0,1,2.609,0,1.626,1.626,0,0,1,.559,1.212,1.584,1.584,0,0,1-.152.672,3.374,3.374,0,0,0,.643-.368,2.12,2.12,0,0,0,.927-1.671h.66a2.776,2.776,0,0,1-1.189,2.2,4.8,4.8,0,0,1-5.506,0,3.237,3.237,0,0,1-.575-.568,17.084,17.084,0,0,1-5.457,10.133L46.9,258.7a1,1,0,0,1-.721,1.066l-3.29.95a1.006,1.006,0,0,1-1.172-.5l-3.152-6.1a29.673,29.673,0,0,1-21.18.242l-3.026,5.857a1.008,1.008,0,0,1-1.173.5l-3.29-.95a1,1,0,0,1-.722-1.066l.856-8.656a19.147,19.147,0,0,1-4.238-5.136M53.9,239.763a1.342,1.342,0,0,0,1.732,0,.935.935,0,0,0,0-1.441,1.343,1.343,0,0,0-1.732,0,.938.938,0,0,0,0,1.441M16.862,224.029l1.206,2.819a.42.42,0,0,0,.552.221l1.407-.6h0l.022-.01h0l.1-.038c.087-.035.229-.089.415-.154.373-.132.923-.313,1.6-.495a20.832,20.832,0,0,1,5.244-.721,24.187,24.187,0,0,1,5.427.7,25.012,25.012,0,0,1,2.6.753l.01,0,1.434.532a.42.42,0,0,0,.54-.248l1.065-2.876a.42.42,0,0,0-.247-.54l-1.439-.532h0a28.312,28.312,0,0,0-2.9-.855,28.126,28.126,0,0,0-6.5-.843,24.733,24.733,0,0,0-6.173.832,21.781,21.781,0,0,0-2.723.894l-.015.007-1.411.6a.42.42,0,0,0-.222.551" transform="translate(0 -197.116)" fill="#a8b400" stroke="#1a0f55" stroke-width="1"/>
      <path id="Path_656" data-name="Path 656" d="M227.936,269.4l-1.023.437-.876-2.047,1.024-.437.056-.022.143-.057c.12-.047.293-.114.513-.192.439-.157,1.066-.364,1.84-.57a23.927,23.927,0,0,1,6.034-.824,29.688,29.688,0,0,1,9.1,1.643h0l1.045.386-.773,2.088-1.045-.387-.009,0a26.109,26.109,0,0,0-2.7-.783,24.971,24.971,0,0,0-5.62-.721,21.666,21.666,0,0,0-5.461.75c-.705.188-1.277.376-1.667.515-.195.069-.346.126-.446.166l-.1.041-.009,0-.023.009h0Z" transform="translate(-208.239 -240.824)" fill="#fff"/>
      <rect id="Rectangle_208" data-name="Rectangle 208" width="58.712" height="63.641" transform="translate(0)" fill="none"/>
      <g id="Group_367" data-name="Group 367" transform="translate(23.09 11.856)">
        <path id="Path_658" data-name="Path 658" d="M292.93,131.214a4.527,4.527,0,1,1-4.527-4.527,4.526,4.526,0,0,1,4.527,4.527" transform="translate(-283.876 -126.687)" fill="#1a0f55" stroke="#1a0f55" stroke-width="1"/>
        <g id="nigeria-naira-currency-symbol-svgrepo-com_2_" data-name="nigeria-naira-currency-symbol-svgrepo-com (2)" transform="translate(1.865 2.537)">
          <g id="Path_661" data-name="Path 661" transform="translate(0 -45.001)" fill="#fff">
            <path d="M 4.139599800109863 49.97459411621094 C 4.013020038604736 49.97459411621094 3.894439935684204 49.95499420166016 3.78715991973877 49.91634368896484 C 3.675219774246216 49.87611389160156 3.570529937744141 49.81287384033203 3.476369857788086 49.72852325439453 C 3.398889780044556 49.65946197509766 3.325689792633057 49.57742309570312 3.259789943695068 49.48554229736328 C 3.208099842071533 49.41311264038086 3.15697979927063 49.34028244018555 3.107469797134399 49.26810455322266 L 3.104159832000732 49.26328277587891 L 3.100969791412354 49.25838470458984 L 2.561815023422241 48.43162155151367 L 2.062939882278442 48.43162155151367 L 2.062939882278442 49.06740188598633 C 2.062939882278442 49.33785247802734 1.989049792289734 49.55633163452148 1.843339800834656 49.71677398681641 C 1.690199851989746 49.88535308837891 1.485799789428711 49.97445297241211 1.252209901809692 49.97445297241211 C 0.9478898644447327 49.97445297241211 0.7583398222923279 49.83039474487305 0.6529098749160767 49.70954132080078 C 0.5127498507499695 49.54935455322266 0.4414298534393311 49.33312225341797 0.4414298534393311 49.06740188598633 L 0.4414298534393311 48.43162155151367 L 0.2028798460960388 48.43162155151367 C -0.1846901476383209 48.43162155151367 -0.5000001788139343 48.11635208129883 -0.5000001788139343 47.72882461547852 C -0.5000001788139343 47.49967193603516 -0.3897977769374847 47.29578018188477 -0.219614252448082 47.16737365722656 C -0.3897977769374847 47.03897857666016 -0.5000001788139343 46.83511734008789 -0.5000001788139343 46.60600280761719 C -0.5000001788139343 46.21842193603516 -0.1847101598978043 45.90307235717773 0.2028298527002335 45.90304183959961 L 0.4414198398590088 45.90304183959961 L 0.4414198398590088 45.54825210571289 C 0.4414198398590088 45.34960174560547 0.4657798409461975 45.19062423706055 0.5158998370170593 45.06221389770508 L 0.5184098482131958 45.05578231811523 L 0.521099865436554 45.04941177368164 C 0.5903898477554321 44.88543319702148 0.7044698596000671 44.75119400024414 0.8601798415184021 44.65042114257812 C 1.013199806213379 44.55134201049805 1.18179988861084 44.50107192993164 1.361199855804443 44.50107192993164 C 1.49822986125946 44.50107192993164 1.622729897499084 44.52617263793945 1.731249809265137 44.57566452026367 C 1.833499789237976 44.62248229980469 1.923959851264954 44.6860237121582 2.000749826431274 44.76483154296875 C 2.062899827957153 44.82861328125 2.124789953231812 44.90814208984375 2.184679746627808 45.00120162963867 C 2.231184720993042 45.07345962524414 2.279033660888672 45.14865112304688 2.329844951629639 45.22882080078125 L 2.775438547134399 45.90311431884766 L 3.40973973274231 45.90311431884766 L 3.40973973274231 45.40828323364258 C 3.40973973274231 45.13963317871094 3.478789806365967 44.92315292358398 3.61497974395752 44.76484298706055 C 3.7182297706604 44.64463424682617 3.905199766159058 44.50099182128906 4.208169937133789 44.50099182128906 C 4.514969825744629 44.50099182128906 4.703489780426025 44.64359283447266 4.807620048522949 44.76322174072266 C 4.945689678192139 44.92171478271484 5.015749931335449 45.13876342773438 5.015749931335449 45.408203125 L 5.015749931335449 45.90300369262695 L 5.261719703674316 45.90300369262695 C 5.649319648742676 45.90300369262695 5.964659690856934 46.21833419799805 5.964659690856934 46.60593414306641 C 5.964659690856934 46.83489227294922 5.854628086090088 47.03861999511719 5.684639453887939 47.16703414916992 C 5.710593700408936 47.18666076660156 5.735378265380859 47.20822906494141 5.758790016174316 47.23164367675781 C 5.8915696144104 47.36443328857422 5.964669704437256 47.54098129272461 5.964639663696289 47.72876358032227 C 5.964639663696289 48.11628341674805 5.649299621582031 48.43162155151367 5.26168966293335 48.43162155151367 L 5.015729904174805 48.43162155151367 L 5.015729904174805 48.99580383300781 C 5.015729904174805 49.60869216918945 4.688199996948242 49.97459411621094 4.139599800109863 49.97459411621094 Z" stroke="none"/>
            <path d="M 4.139599800109863 49.47459411621094 C 4.325419902801514 49.47459411621094 4.515729904174805 49.41770172119141 4.515729904174805 48.99580383300781 L 4.515729904174805 47.93162155151367 L 5.26168966293335 47.93162155151367 C 5.373779773712158 47.93162155151367 5.464639663696289 47.84077453613281 5.464639663696289 47.72867202758789 C 5.464659690856934 47.61660385131836 5.373799800872803 47.52573394775391 5.261719703674316 47.52573394775391 L 4.515749931335449 47.52573394775391 L 4.515749931335449 46.80881118774414 L 5.261719703674316 46.80881118774414 C 5.373799800872803 46.80881118774414 5.464659690856934 46.71805191040039 5.464659690856934 46.60593414306641 C 5.464659690856934 46.49381256103516 5.373799800872803 46.40300369262695 5.261719703674316 46.40300369262695 L 4.515749931335449 46.40300369262695 L 4.515749931335449 45.408203125 C 4.515749931335449 45.26301193237305 4.487060070037842 45.15644454956055 4.430490016937256 45.09150314331055 C 4.376729965209961 45.02974319458008 4.306049823760986 45.00099182128906 4.208169937133789 45.00099182128906 C 4.114759922027588 45.00099182128906 4.046750068664551 45.02953338623047 3.994019746780396 45.09092330932617 C 3.938119888305664 45.15590286254883 3.90973973274231 45.2626838684082 3.90973973274231 45.40828323364258 L 3.90973973274231 46.40311431884766 L 2.506549835205078 46.40311431884766 L 1.909929871559143 45.50028228759766 C 1.858869791030884 45.41971206665039 1.810849905014038 45.34424209594727 1.764229893684387 45.27179336547852 C 1.722249865531921 45.20656204223633 1.681309819221497 45.1534538269043 1.642639875411987 45.11377334594727 C 1.608399868011475 45.07863235473633 1.569389820098877 45.05147171020508 1.523759841918945 45.03058242797852 C 1.480699896812439 45.01094436645508 1.425959825515747 45.00107192993164 1.361199855804443 45.00107192993164 C 1.278609871864319 45.00107192993164 1.203629851341248 45.02370452880859 1.131829857826233 45.07019424438477 C 1.060779809951782 45.11617279052734 1.011669874191284 45.17303466796875 0.9816798567771912 45.24401473999023 C 0.955349862575531 45.31147384643555 0.9414198398590088 45.41482162475586 0.9414198398590088 45.54825210571289 L 0.9414198398590088 46.40304183959961 L 0.2028698474168777 46.40304183959961 C 0.09079984575510025 46.40305328369141 -1.545715377915258e-07 46.49389266967773 -1.545715377915258e-07 46.60600280761719 C -1.545715377915258e-07 46.71810150146484 0.09079984575510025 46.80885314941406 0.2028798460960388 46.80885314941406 L 0.9414298534393311 46.80885314941406 L 0.9414298534393311 47.52587127685547 L 0.2028798460960388 47.52587127685547 C 0.09079984575510025 47.52587127685547 -1.545715377915258e-07 47.61666107177734 -1.545715377915258e-07 47.72882461547852 C -1.545715377915258e-07 47.84089279174805 0.09079984575510025 47.93162155151367 0.2028798460960388 47.93162155151367 L 0.9414298534393311 47.93162155151367 L 0.9414298534393311 49.06740188598633 C 0.9414298534393311 49.20833206176758 0.9710398316383362 49.31382369995117 1.029689788818359 49.38085174560547 C 1.08545982837677 49.44478225708008 1.156179904937744 49.47445297241211 1.252209901809692 49.47445297241211 C 1.344859838485718 49.47445297241211 1.415029883384705 49.44465255737305 1.473209857940674 49.3806037902832 C 1.53279983997345 49.31499481201172 1.562939882278442 49.20955276489258 1.562939882278442 49.06740188598633 L 1.562939882278442 47.93162155151367 L 2.832669734954834 47.93162155151367 L 3.519779920578003 48.98526382446289 C 3.567559957504272 49.05491256713867 3.616899728775024 49.12519454956055 3.666089773178101 49.19413375854492 C 3.710479736328125 49.25602340698242 3.758909940719604 49.31057357788086 3.810009956359863 49.35611343383789 C 3.856019735336304 49.39733123779297 3.905359745025635 49.42751312255859 3.956639766693115 49.44594192504883 C 4.009429931640625 49.46496200561523 4.07112979888916 49.47459411621094 4.139599800109863 49.47459411621094 M 3.516799926757812 47.93162155151367 L 3.909729957580566 47.93162155151367 L 3.909729957580566 48.52640151977539 L 3.516799926757812 47.93162155151367 M 2.774849891662598 46.80880355834961 L 3.909729957580566 46.80880355834961 L 3.909729957580566 47.52573394775391 L 3.248579740524292 47.52573394775391 L 2.774849891662598 46.80880355834961 M 2.567959785461426 47.52573394775391 L 1.562949895858765 47.52573394775391 L 1.562949895858765 46.80881118774414 L 2.100339889526367 46.80881118774414 L 2.567959785461426 47.52573394775391 M 1.835599899291992 46.40300369262695 L 1.562949895858765 46.40300369262695 L 1.562949895858765 45.98503112792969 L 1.835599899291992 46.40300369262695 M 4.139599800109863 50.47459411621094 C 3.955069780349731 50.47459411621094 3.779469728469849 50.44503402709961 3.617669820785522 50.38674163818359 C 3.445169925689697 50.32474136352539 3.28512978553772 50.22849273681641 3.142739772796631 50.10092163085938 C 3.038789749145508 50.00829315185547 2.94081974029541 49.89870452880859 2.853489875793457 49.77696228027344 C 2.799309730529785 49.70102310180664 2.746399879455566 49.62564468383789 2.695159912109375 49.55095291137695 L 2.682149887084961 49.53150177001953 L 2.545243263244629 49.32156372070312 C 2.494499206542969 49.67390823364258 2.343755722045898 49.90946960449219 2.213459730148315 50.05293273925781 C 1.966539859771729 50.32477188110352 1.62516987323761 50.47445297241211 1.252209901809692 50.47445297241211 C 0.8681698441505432 50.47445297241211 0.5215298533439636 50.31953430175781 0.2761298418045044 50.03823471069336 C 0.1239698454737663 49.86433410644531 -0.05857015401124954 49.55364227294922 -0.05857015401124954 49.06740188598633 L -0.05857015401124954 48.90300750732422 C -0.5965666770935059 48.78332901000977 -1.00000011920929 48.30230712890625 -1.00000011920929 47.72882461547852 C -1.00000011920929 47.52619552612305 -0.9496287703514099 47.33507919311523 -0.8607749938964844 47.16738891601562 C -0.9496287703514099 46.99971389770508 -1.00000011920929 46.80861282348633 -1.00000011920929 46.60600280761719 C -1.00000011920929 46.03160095214844 -0.5952823758125305 45.54990768432617 -0.05607958883047104 45.43111419677734 C -0.04682835191488266 45.22021484375 -0.01183755602687597 45.03916931152344 0.05011984705924988 44.88042449951172 L 0.06052984669804573 44.85481262207031 C 0.1679798513650894 44.60048294067383 0.3505598306655884 44.38465118408203 0.5885198712348938 44.23065185546875 C 0.8204198479652405 44.08050155639648 1.087679862976074 44.00107192993164 1.361199855804443 44.00107192993164 C 1.570319890975952 44.00107192993164 1.76462984085083 44.04134368896484 1.938739895820618 44.12075424194336 C 2.097939729690552 44.19363403320312 2.238849878311157 44.29273223876953 2.358859777450562 44.4158935546875 C 2.445499897003174 44.50479125976562 2.52606987953186 44.60776138305664 2.60513973236084 44.73061370849609 C 2.651403188705444 44.80251312255859 2.698985576629639 44.87726593017578 2.749432325363159 44.95684051513672 L 2.919277906417847 45.21385955810547 C 2.950226306915283 44.90760803222656 3.056360244750977 44.64751434326172 3.235929727554321 44.43877410888672 C 3.478239774703979 44.15667343139648 3.823689937591553 44.00099182128906 4.208169937133789 44.00099182128906 C 4.59434986114502 44.00099182128906 4.941169738769531 44.15510177612305 5.184759616851807 44.43493270874023 C 5.404309749603271 44.68697357177734 5.515749931335449 45.01451110839844 5.515749931335449 45.408203125 L 5.515749931335449 45.42999267578125 C 6.057475090026855 45.54689788818359 6.464659690856934 46.02975463867188 6.464659690856934 46.60593414306641 C 6.464659690856934 46.80822372436523 6.414462566375732 46.99901580810547 6.325868606567383 47.16650009155273 C 6.416584968566895 47.33771133422852 6.464676856994629 47.52959060668945 6.464639663696289 47.72885131835938 C 6.464639663696289 48.30488204956055 6.057461261749268 48.78772735595703 5.515729904174805 48.90463256835938 L 5.515729904174805 48.99580383300781 C 5.515729904174805 50.01734161376953 4.824569702148438 50.47459411621094 4.139599800109863 50.47459411621094 Z" stroke="none" fill="#1a0f55"/>
          </g>
        </g>
      </g>
      <g id="Group_368" data-name="Group 368" transform="translate(10.153 4.735)">
        <path id="Path_659" data-name="Path 659" d="M431.135,55.117a4.528,4.528,0,1,1-4.527-4.527,4.527,4.527,0,0,1,4.527,4.527" transform="translate(-422.08 -50.59)" fill="#1a0f55" stroke="#1a0f55" stroke-width="1"/>
        <g id="nigeria-naira-currency-symbol-svgrepo-com_2_2" data-name="nigeria-naira-currency-symbol-svgrepo-com (2)" transform="translate(1.795 2.29)">
          <g id="Path_661-2" data-name="Path 661" transform="translate(0 -45.001)" fill="#fff">
            <path d="M 4.139599800109863 49.97459411621094 C 4.013020038604736 49.97459411621094 3.894439935684204 49.95499420166016 3.78715991973877 49.91634368896484 C 3.675219774246216 49.87611389160156 3.570529937744141 49.81287384033203 3.476369857788086 49.72852325439453 C 3.398889780044556 49.65946197509766 3.325689792633057 49.57742309570312 3.259789943695068 49.48554229736328 C 3.208099842071533 49.41311264038086 3.15697979927063 49.34028244018555 3.107469797134399 49.26810455322266 L 3.104159832000732 49.26328277587891 L 3.100969791412354 49.25838470458984 L 2.561815023422241 48.43162155151367 L 2.062939882278442 48.43162155151367 L 2.062939882278442 49.06740188598633 C 2.062939882278442 49.33785247802734 1.989049792289734 49.55633163452148 1.843339800834656 49.71677398681641 C 1.690199851989746 49.88535308837891 1.485799789428711 49.97445297241211 1.252209901809692 49.97445297241211 C 0.9478898644447327 49.97445297241211 0.7583398222923279 49.83039474487305 0.6529098749160767 49.70954132080078 C 0.5127498507499695 49.54935455322266 0.4414298534393311 49.33312225341797 0.4414298534393311 49.06740188598633 L 0.4414298534393311 48.43162155151367 L 0.2028798460960388 48.43162155151367 C -0.1846901476383209 48.43162155151367 -0.5000001788139343 48.11635208129883 -0.5000001788139343 47.72882461547852 C -0.5000001788139343 47.49967193603516 -0.3897977769374847 47.29578018188477 -0.219614252448082 47.16737365722656 C -0.3897977769374847 47.03897857666016 -0.5000001788139343 46.83511734008789 -0.5000001788139343 46.60600280761719 C -0.5000001788139343 46.21842193603516 -0.1847101598978043 45.90307235717773 0.2028298527002335 45.90304183959961 L 0.4414198398590088 45.90304183959961 L 0.4414198398590088 45.54825210571289 C 0.4414198398590088 45.34960174560547 0.4657798409461975 45.19062423706055 0.5158998370170593 45.06221389770508 L 0.5184098482131958 45.05578231811523 L 0.521099865436554 45.04941177368164 C 0.5903898477554321 44.88543319702148 0.7044698596000671 44.75119400024414 0.8601798415184021 44.65042114257812 C 1.013199806213379 44.55134201049805 1.18179988861084 44.50107192993164 1.361199855804443 44.50107192993164 C 1.49822986125946 44.50107192993164 1.622729897499084 44.52617263793945 1.731249809265137 44.57566452026367 C 1.833499789237976 44.62248229980469 1.923959851264954 44.6860237121582 2.000749826431274 44.76483154296875 C 2.062899827957153 44.82861328125 2.124789953231812 44.90814208984375 2.184679746627808 45.00120162963867 C 2.231184720993042 45.07345962524414 2.279033660888672 45.14865112304688 2.329844951629639 45.22882080078125 L 2.775438547134399 45.90311431884766 L 3.40973973274231 45.90311431884766 L 3.40973973274231 45.40828323364258 C 3.40973973274231 45.13963317871094 3.478789806365967 44.92315292358398 3.61497974395752 44.76484298706055 C 3.7182297706604 44.64463424682617 3.905199766159058 44.50099182128906 4.208169937133789 44.50099182128906 C 4.514969825744629 44.50099182128906 4.703489780426025 44.64359283447266 4.807620048522949 44.76322174072266 C 4.945689678192139 44.92171478271484 5.015749931335449 45.13876342773438 5.015749931335449 45.408203125 L 5.015749931335449 45.90300369262695 L 5.261719703674316 45.90300369262695 C 5.649319648742676 45.90300369262695 5.964659690856934 46.21833419799805 5.964659690856934 46.60593414306641 C 5.964659690856934 46.83489227294922 5.854628086090088 47.03861999511719 5.684639453887939 47.16703414916992 C 5.710593700408936 47.18666076660156 5.735378265380859 47.20822906494141 5.758790016174316 47.23164367675781 C 5.8915696144104 47.36443328857422 5.964669704437256 47.54098129272461 5.964639663696289 47.72876358032227 C 5.964639663696289 48.11628341674805 5.649299621582031 48.43162155151367 5.26168966293335 48.43162155151367 L 5.015729904174805 48.43162155151367 L 5.015729904174805 48.99580383300781 C 5.015729904174805 49.60869216918945 4.688199996948242 49.97459411621094 4.139599800109863 49.97459411621094 Z" stroke="none"/>
            <path d="M 4.139599800109863 49.47459411621094 C 4.325419902801514 49.47459411621094 4.515729904174805 49.41770172119141 4.515729904174805 48.99580383300781 L 4.515729904174805 47.93162155151367 L 5.26168966293335 47.93162155151367 C 5.373779773712158 47.93162155151367 5.464639663696289 47.84077453613281 5.464639663696289 47.72867202758789 C 5.464659690856934 47.61660385131836 5.373799800872803 47.52573394775391 5.261719703674316 47.52573394775391 L 4.515749931335449 47.52573394775391 L 4.515749931335449 46.80881118774414 L 5.261719703674316 46.80881118774414 C 5.373799800872803 46.80881118774414 5.464659690856934 46.71805191040039 5.464659690856934 46.60593414306641 C 5.464659690856934 46.49381256103516 5.373799800872803 46.40300369262695 5.261719703674316 46.40300369262695 L 4.515749931335449 46.40300369262695 L 4.515749931335449 45.408203125 C 4.515749931335449 45.26301193237305 4.487060070037842 45.15644454956055 4.430490016937256 45.09150314331055 C 4.376729965209961 45.02974319458008 4.306049823760986 45.00099182128906 4.208169937133789 45.00099182128906 C 4.114759922027588 45.00099182128906 4.046750068664551 45.02953338623047 3.994019746780396 45.09092330932617 C 3.938119888305664 45.15590286254883 3.90973973274231 45.2626838684082 3.90973973274231 45.40828323364258 L 3.90973973274231 46.40311431884766 L 2.506549835205078 46.40311431884766 L 1.909929871559143 45.50028228759766 C 1.858869791030884 45.41971206665039 1.810849905014038 45.34424209594727 1.764229893684387 45.27179336547852 C 1.722249865531921 45.20656204223633 1.681309819221497 45.1534538269043 1.642639875411987 45.11377334594727 C 1.608399868011475 45.07863235473633 1.569389820098877 45.05147171020508 1.523759841918945 45.03058242797852 C 1.480699896812439 45.01094436645508 1.425959825515747 45.00107192993164 1.361199855804443 45.00107192993164 C 1.278609871864319 45.00107192993164 1.203629851341248 45.02370452880859 1.131829857826233 45.07019424438477 C 1.060779809951782 45.11617279052734 1.011669874191284 45.17303466796875 0.9816798567771912 45.24401473999023 C 0.955349862575531 45.31147384643555 0.9414198398590088 45.41482162475586 0.9414198398590088 45.54825210571289 L 0.9414198398590088 46.40304183959961 L 0.2028698474168777 46.40304183959961 C 0.09079984575510025 46.40305328369141 -1.545715377915258e-07 46.49389266967773 -1.545715377915258e-07 46.60600280761719 C -1.545715377915258e-07 46.71810150146484 0.09079984575510025 46.80885314941406 0.2028798460960388 46.80885314941406 L 0.9414298534393311 46.80885314941406 L 0.9414298534393311 47.52587127685547 L 0.2028798460960388 47.52587127685547 C 0.09079984575510025 47.52587127685547 -1.545715377915258e-07 47.61666107177734 -1.545715377915258e-07 47.72882461547852 C -1.545715377915258e-07 47.84089279174805 0.09079984575510025 47.93162155151367 0.2028798460960388 47.93162155151367 L 0.9414298534393311 47.93162155151367 L 0.9414298534393311 49.06740188598633 C 0.9414298534393311 49.20833206176758 0.9710398316383362 49.31382369995117 1.029689788818359 49.38085174560547 C 1.08545982837677 49.44478225708008 1.156179904937744 49.47445297241211 1.252209901809692 49.47445297241211 C 1.344859838485718 49.47445297241211 1.415029883384705 49.44465255737305 1.473209857940674 49.3806037902832 C 1.53279983997345 49.31499481201172 1.562939882278442 49.20955276489258 1.562939882278442 49.06740188598633 L 1.562939882278442 47.93162155151367 L 2.832669734954834 47.93162155151367 L 3.519779920578003 48.98526382446289 C 3.567559957504272 49.05491256713867 3.616899728775024 49.12519454956055 3.666089773178101 49.19413375854492 C 3.710479736328125 49.25602340698242 3.758909940719604 49.31057357788086 3.810009956359863 49.35611343383789 C 3.856019735336304 49.39733123779297 3.905359745025635 49.42751312255859 3.956639766693115 49.44594192504883 C 4.009429931640625 49.46496200561523 4.07112979888916 49.47459411621094 4.139599800109863 49.47459411621094 M 3.516799926757812 47.93162155151367 L 3.909729957580566 47.93162155151367 L 3.909729957580566 48.52640151977539 L 3.516799926757812 47.93162155151367 M 2.774849891662598 46.80880355834961 L 3.909729957580566 46.80880355834961 L 3.909729957580566 47.52573394775391 L 3.248579740524292 47.52573394775391 L 2.774849891662598 46.80880355834961 M 2.567959785461426 47.52573394775391 L 1.562949895858765 47.52573394775391 L 1.562949895858765 46.80881118774414 L 2.100339889526367 46.80881118774414 L 2.567959785461426 47.52573394775391 M 1.835599899291992 46.40300369262695 L 1.562949895858765 46.40300369262695 L 1.562949895858765 45.98503112792969 L 1.835599899291992 46.40300369262695 M 4.139599800109863 50.47459411621094 C 3.955069780349731 50.47459411621094 3.779469728469849 50.44503402709961 3.617669820785522 50.38674163818359 C 3.445169925689697 50.32474136352539 3.28512978553772 50.22849273681641 3.142739772796631 50.10092163085938 C 3.038789749145508 50.00829315185547 2.94081974029541 49.89870452880859 2.853489875793457 49.77696228027344 C 2.799309730529785 49.70102310180664 2.746399879455566 49.62564468383789 2.695159912109375 49.55095291137695 L 2.682149887084961 49.53150177001953 L 2.545243263244629 49.32156372070312 C 2.494499206542969 49.67390823364258 2.343755722045898 49.90946960449219 2.213459730148315 50.05293273925781 C 1.966539859771729 50.32477188110352 1.62516987323761 50.47445297241211 1.252209901809692 50.47445297241211 C 0.8681698441505432 50.47445297241211 0.5215298533439636 50.31953430175781 0.2761298418045044 50.03823471069336 C 0.1239698454737663 49.86433410644531 -0.05857015401124954 49.55364227294922 -0.05857015401124954 49.06740188598633 L -0.05857015401124954 48.90300750732422 C -0.5965666770935059 48.78332901000977 -1.00000011920929 48.30230712890625 -1.00000011920929 47.72882461547852 C -1.00000011920929 47.52619552612305 -0.9496287703514099 47.33507919311523 -0.8607749938964844 47.16738891601562 C -0.9496287703514099 46.99971389770508 -1.00000011920929 46.80861282348633 -1.00000011920929 46.60600280761719 C -1.00000011920929 46.03160095214844 -0.5952823758125305 45.54990768432617 -0.05607958883047104 45.43111419677734 C -0.04682835191488266 45.22021484375 -0.01183755602687597 45.03916931152344 0.05011984705924988 44.88042449951172 L 0.06052984669804573 44.85481262207031 C 0.1679798513650894 44.60048294067383 0.3505598306655884 44.38465118408203 0.5885198712348938 44.23065185546875 C 0.8204198479652405 44.08050155639648 1.087679862976074 44.00107192993164 1.361199855804443 44.00107192993164 C 1.570319890975952 44.00107192993164 1.76462984085083 44.04134368896484 1.938739895820618 44.12075424194336 C 2.097939729690552 44.19363403320312 2.238849878311157 44.29273223876953 2.358859777450562 44.4158935546875 C 2.445499897003174 44.50479125976562 2.52606987953186 44.60776138305664 2.60513973236084 44.73061370849609 C 2.651403188705444 44.80251312255859 2.698985576629639 44.87726593017578 2.749432325363159 44.95684051513672 L 2.919277906417847 45.21385955810547 C 2.950226306915283 44.90760803222656 3.056360244750977 44.64751434326172 3.235929727554321 44.43877410888672 C 3.478239774703979 44.15667343139648 3.823689937591553 44.00099182128906 4.208169937133789 44.00099182128906 C 4.59434986114502 44.00099182128906 4.941169738769531 44.15510177612305 5.184759616851807 44.43493270874023 C 5.404309749603271 44.68697357177734 5.515749931335449 45.01451110839844 5.515749931335449 45.408203125 L 5.515749931335449 45.42999267578125 C 6.057475090026855 45.54689788818359 6.464659690856934 46.02975463867188 6.464659690856934 46.60593414306641 C 6.464659690856934 46.80822372436523 6.414462566375732 46.99901580810547 6.325868606567383 47.16650009155273 C 6.416584968566895 47.33771133422852 6.464676856994629 47.52959060668945 6.464639663696289 47.72885131835938 C 6.464639663696289 48.30488204956055 6.057461261749268 48.78772735595703 5.515729904174805 48.90463256835938 L 5.515729904174805 48.99580383300781 C 5.515729904174805 50.01734161376953 4.824569702148438 50.47459411621094 4.139599800109863 50.47459411621094 Z" stroke="none" fill="#1a0f55"/>
          </g>
        </g>
      </g>
      <g id="Group_369" data-name="Group 369" transform="translate(24.816 0)">
        <path id="Path_660" data-name="Path 660" d="M307.911,2.8a2.8,2.8,0,1,1-2.8-2.8,2.8,2.8,0,0,1,2.8,2.8" transform="translate(-302.306 0)" fill="#1a0f55" stroke="#1a0f55" stroke-width="0.6"/>
        <g id="nigeria-naira-currency-symbol-svgrepo-com_2_3" data-name="nigeria-naira-currency-symbol-svgrepo-com (2)" transform="translate(1.132 1.434)">
          <g id="Path_661-3" data-name="Path 661" transform="translate(0 -45.001)" fill="#fff">
            <path d="M 2.53123927116394 48.03646850585938 C 2.454619169235229 48.03646850585938 2.382819175720215 48.02462005615234 2.3178391456604 48.00124740600586 C 2.249889135360718 47.97681045532227 2.186559200286865 47.93853759765625 2.129569292068481 47.88751983642578 C 2.082399129867554 47.84547805786133 2.037909269332886 47.79559707641602 1.997889161109924 47.73976898193359 C 1.966379165649414 47.69562911987305 1.935129165649414 47.65107727050781 1.904859185218811 47.60696792602539 L 1.90286922454834 47.60406875610352 L 1.900949120521545 47.60111999511719 L 1.569575428962708 47.09298706054688 L 1.255689144134521 47.09298706054688 L 1.255689144134521 47.48749923706055 C 1.255689144134521 47.6513786315918 1.211019158363342 47.78366851806641 1.122929215431213 47.88068008422852 C 1.030319213867188 47.98258972167969 0.9068191647529602 48.03639984130859 0.7656891942024231 48.03639984130859 C 0.5817591547966003 48.03639984130859 0.4672191739082336 47.94934844970703 0.403529167175293 47.87631988525391 C 0.3188091814517975 47.77954864501953 0.2756591737270355 47.64857864379883 0.2756591737270355 47.48746871948242 L 0.2756591737270355 47.09298706054688 L 0.1240591704845428 47.09298706054688 C -0.1097708269953728 47.09298706054688 -0.3000008165836334 46.90277862548828 -0.3000008165836334 46.66896820068359 C -0.3000008165836334 46.52797317504883 -0.230838879942894 46.4028205871582 -0.1246780455112457 46.32566452026367 C -0.230838879942894 46.2485237121582 -0.3000008165836334 46.12339019775391 -0.3000008165836334 45.98241806030273 C -0.3000008165836334 45.74856948852539 -0.1097708269953728 45.55831909179688 0.1240491718053818 45.55831909179688 L 0.2756491601467133 45.55831909179688 L 0.2756491601467133 45.33562850952148 C 0.2756491601467133 45.21490859985352 0.2904191613197327 45.11837768554688 0.3207891881465912 45.0405387878418 L 0.3223091661930084 45.03664779663086 L 0.3239291608333588 45.03281021118164 C 0.365859180688858 44.93358993530273 0.4348991811275482 44.85237884521484 0.5291391611099243 44.79141998291016 C 0.6216991543769836 44.73147964477539 0.7237491607666016 44.7010383605957 0.8323391675949097 44.7010383605957 C 0.9153091907501221 44.7010383605957 0.9906491637229919 44.71621704101562 1.05626916885376 44.74615859985352 C 1.118219137191772 44.7745475769043 1.17293918132782 44.8129997253418 1.21933913230896 44.86064910888672 C 1.25701916217804 44.89930725097656 1.294609189033508 44.9476203918457 1.331019163131714 45.00416946411133 C 1.359402298927307 45.04826736450195 1.388576745986938 45.09415817260742 1.419555425643921 45.14302825927734 L 1.694019317626953 45.558349609375 L 2.090689182281494 45.558349609375 L 2.090689182281494 45.25004959106445 C 2.090689182281494 45.087158203125 2.132459163665771 44.95602798461914 2.214839220046997 44.86030960083008 C 2.27717924118042 44.78772735595703 2.390119075775146 44.70098876953125 2.573169231414795 44.70098876953125 C 2.758549213409424 44.70098876953125 2.87243914604187 44.78707885742188 2.935339212417603 44.85928726196289 C 3.018899202346802 44.95526885986328 3.061249256134033 45.08670806884766 3.061249256134033 45.2499885559082 L 3.061249256134033 45.55827713012695 L 3.217389106750488 45.55827713012695 C 3.451229095458984 45.55827713012695 3.641479253768921 45.74852752685547 3.641479253768921 45.98238754272461 C 3.641479253768921 46.12326049804688 3.572410821914673 46.24831390380859 3.466369867324829 46.32546997070312 C 3.484278917312622 46.33850860595703 3.501291990280151 46.35304260253906 3.517259120941162 46.3690071105957 C 3.597369194030762 46.44911956787109 3.641489267349243 46.55563735961914 3.641469240188599 46.66893005371094 C 3.641469240188599 46.90274047851562 3.451219081878662 47.09298706054688 3.217369079589844 47.09298706054688 L 3.061239242553711 47.09298706054688 L 3.061239242553711 47.44371032714844 C 3.061239242553711 47.81488037109375 2.863109111785889 48.03646850585938 2.53123927116394 48.03646850585938 Z" stroke="none"/>
            <path d="M 2.53123927116394 47.73646926879883 C 2.644869089126587 47.73646926879883 2.761239290237427 47.70170974731445 2.761239290237427 47.44371032714844 L 2.761239290237427 46.79298782348633 L 3.217369079589844 46.79298782348633 C 3.285909175872803 46.79298782348633 3.341469287872314 46.7374267578125 3.341469287872314 46.66888809204102 C 3.341479063034058 46.60035705566406 3.285919189453125 46.54480743408203 3.217389106750488 46.54480743408203 L 2.76124906539917 46.54480743408203 L 2.76124906539917 46.10643005371094 L 3.217389106750488 46.10643005371094 C 3.285919189453125 46.10643005371094 3.341479063034058 46.05089950561523 3.341479063034058 45.98238754272461 C 3.341479063034058 45.913818359375 3.285919189453125 45.85828018188477 3.217389106750488 45.85828018188477 L 2.76124906539917 45.85828018188477 L 2.76124906539917 45.2499885559082 C 2.76124906539917 45.16121673583984 2.743699073791504 45.09605026245117 2.709119081497192 45.05632781982422 C 2.676239252090454 45.01857757568359 2.633019208908081 45.0009880065918 2.573169231414795 45.0009880065918 C 2.516059160232544 45.0009880065918 2.474469184875488 45.01845932006836 2.442229270935059 45.05598831176758 C 2.408039093017578 45.09571838378906 2.390689134597778 45.16100692749023 2.390689134597778 45.25004959106445 L 2.390689134597778 45.85834884643555 L 1.532679200172424 45.85834884643555 L 1.167859196662903 45.30629730224609 C 1.13663911819458 45.25703811645508 1.107279181480408 45.21085739135742 1.078779220581055 45.16656875610352 C 1.053109169006348 45.1266975402832 1.028069138526917 45.09421920776367 1.004429221153259 45.0699577331543 C 0.9834891557693481 45.04845809936523 0.9596391916275024 45.03187942504883 0.9317291975021362 45.01908874511719 C 0.9054091572761536 45.007080078125 0.8719391822814941 45.00103759765625 0.8323391675949097 45.00103759765625 C 0.7818291783332825 45.00103759765625 0.7359791994094849 45.01487731933594 0.6920791864395142 45.04330825805664 C 0.6486392021179199 45.07140731811523 0.6186091899871826 45.1061897277832 0.6002691984176636 45.14958953857422 C 0.5841691493988037 45.19084930419922 0.5756492018699646 45.2540397644043 0.5756492018699646 45.33562850952148 L 0.5756492018699646 45.85831832885742 L 0.1240491718053818 45.85831832885742 C 0.05551917478442192 45.85831832885742 -8.261108632723335e-07 45.91384887695312 -8.261108632723335e-07 45.98241806030273 C -8.261108632723335e-07 46.05094909667969 0.05551917478442192 46.1064567565918 0.1240591704845428 46.1064567565918 L 0.5756591558456421 46.1064567565918 L 0.5756591558456421 46.54485702514648 L 0.1240591704845428 46.54485702514648 C 0.05551917478442192 46.54485702514648 -8.261108632723335e-07 46.60041809082031 -8.261108632723335e-07 46.66896820068359 C -8.261108632723335e-07 46.73749923706055 0.05551917478442192 46.79298782348633 0.1240591704845428 46.79298782348633 L 0.5756591558456421 46.79298782348633 L 0.5756591558456421 47.48746871948242 C 0.5756591558456421 47.57365798950195 0.5937591791152954 47.63816833496094 0.6296191811561584 47.67912673950195 C 0.663729190826416 47.71823883056641 0.7069692015647888 47.73639678955078 0.7656891942024231 47.73639678955078 C 0.8223491907119751 47.73639678955078 0.8652491569519043 47.71815872192383 0.9008291959762573 47.67900848388672 C 0.9372591972351074 47.63888931274414 0.9556891918182373 47.57442855834961 0.9556891918182373 47.48749923706055 L 0.9556891918182373 46.79298782348633 L 1.732089161872864 46.79298782348633 L 2.152239084243774 47.43724822998047 C 2.181459188461304 47.47983932495117 2.211629152297974 47.5228385925293 2.241709232330322 47.56497955322266 C 2.26884913444519 47.60284042358398 2.29845929145813 47.63617706298828 2.32970929145813 47.66402816772461 C 2.35784912109375 47.68922805786133 2.388009071350098 47.70766830444336 2.419369220733643 47.71894836425781 C 2.451649188995361 47.73056030273438 2.48936915397644 47.73646926879883 2.53123927116394 47.73646926879883 M 2.150419235229492 46.79298782348633 L 2.390679121017456 46.79298782348633 L 2.390679121017456 47.15667724609375 L 2.150419235229492 46.79298782348633 M 1.696739196777344 46.10643005371094 L 2.390679121017456 46.10643005371094 L 2.390679121017456 46.54480743408203 L 1.986409187316895 46.54480743408203 L 1.696739196777344 46.10643005371094 M 1.570229172706604 46.54480743408203 L 0.9556991457939148 46.54480743408203 L 0.9556991457939148 46.10643005371094 L 1.28429913520813 46.10643005371094 L 1.570229172706604 46.54480743408203 M 1.122409224510193 45.85828018188477 L 0.9556991457939148 45.85828018188477 L 0.9556991457939148 45.60269927978516 L 1.122409224510193 45.85828018188477 M 2.53123927116394 48.33646774291992 C 2.419909238815308 48.33646774291992 2.313949108123779 48.31865692138672 2.216309070587158 48.28353881835938 C 2.111839056015015 48.24596786499023 2.015329122543335 48.18791961669922 1.929439187049866 48.11100006103516 C 1.866319179534912 48.05474853515625 1.806949138641357 47.98832702636719 1.754059195518494 47.91454696655273 C 1.721129179000854 47.868408203125 1.688799142837524 47.82233047485352 1.65748918056488 47.77668762207031 L 1.649669170379639 47.76499938964844 L 1.548928618431091 47.61052322387695 C 1.523001194000244 47.84025573730469 1.427257299423218 47.99179458618164 1.34502911567688 48.08234786987305 C 1.196079134941101 48.24625015258789 0.990399181842804 48.33639907836914 0.7656891942024231 48.33639907836914 C 0.5342091917991638 48.33639907836914 0.3252891600131989 48.24303817749023 0.1774391680955887 48.0734977722168 C 0.08578917384147644 47.96883010864258 -0.02434082701802254 47.78133773803711 -0.02434082701802254 47.48746871948242 L -0.02434082701802254 47.37770080566406 C -0.3526405394077301 47.30904388427734 -0.60000079870224 47.0173454284668 -0.60000079870224 46.66896820068359 C -0.60000079870224 46.54482650756836 -0.5686107277870178 46.42789840698242 -0.5133388042449951 46.32567596435547 C -0.5686107277870178 46.22346496582031 -0.60000079870224 46.10654830932617 -0.60000079870224 45.98241806030273 C -0.60000079870224 45.63359451293945 -0.352071225643158 45.34158706665039 -0.02319526858627796 45.27336883544922 C -0.01819952018558979 45.14190673828125 0.003038615453988314 45.02957534790039 0.04131917282938957 44.93148040771484 L 0.04758917540311813 44.91603851318359 C 0.1124291718006134 44.76260757446289 0.2225991785526276 44.63240814208984 0.3661991655826569 44.53952026367188 C 0.5079991817474365 44.44768905639648 0.6649191975593567 44.40103912353516 0.8323391675949097 44.40103912353516 C 0.9585891962051392 44.40103912353516 1.075829148292542 44.42532730102539 1.180809140205383 44.47322845458984 C 1.276959180831909 44.51729965209961 1.361939191818237 44.57707977294922 1.43424916267395 44.65132904052734 C 1.486579179763794 44.70501708984375 1.535349130630493 44.76734924316406 1.583259224891663 44.84175872802734 C 1.611610651016235 44.88582992553711 1.64072048664093 44.93158721923828 1.671578288078308 44.98026275634766 L 1.79365599155426 45.16499328613281 C 1.807839155197144 44.96579742431641 1.872849345207214 44.79778289794922 1.987439155578613 44.66461944580078 C 2.133369207382202 44.49475860595703 2.341499090194702 44.4009895324707 2.573169231414795 44.4009895324707 C 2.805859088897705 44.4009895324707 3.014819145202637 44.49377822875977 3.161559104919434 44.66225051879883 C 3.294099092483521 44.81448745727539 3.361249208450317 45.01219940185547 3.361249208450317 45.2499885559082 L 3.361249208450317 45.27263259887695 C 3.691822528839111 45.33954620361328 3.941479206085205 45.63236236572266 3.941479206085205 45.98238754272461 C 3.941479206085205 46.1063232421875 3.910189151763916 46.22306060791016 3.855075836181641 46.32516098022461 C 3.911529541015625 46.4295539855957 3.941488027572632 46.54696273803711 3.941469192504883 46.66897964477539 C 3.941469192504883 47.01891708374023 3.691819190979004 47.31172180175781 3.361239194869995 47.37863540649414 L 3.361239194869995 47.44371032714844 C 3.361239194869995 48.06041717529297 2.944379091262817 48.33646774291992 2.53123927116394 48.33646774291992 Z" stroke="none" fill="#1a0f55"/>
          </g>
        </g>
      </g>
    </g>
  </g>
</svg>
