<svg id="Group_154" data-name="Group 154" xmlns="http://www.w3.org/2000/svg" width="40.363" height="51.896" viewBox="0 0 40.363 51.896">
  <g id="report" transform="translate(0 0)">
    <rect id="Rectangle_108" data-name="Rectangle 108" width="40.363" height="51.896" rx="1" fill="#a8b400"/>
    <rect id="Rectangle_111" data-name="Rectangle 111" width="5.766" height="2.883" transform="translate(4.837 5.179)" fill="#1a0f55"/>
    <rect id="Rectangle_112" data-name="Rectangle 112" width="17.299" height="2.883" transform="translate(10.603 5.179)" fill="#1a0f55"/>
    <rect id="Rectangle_113" data-name="Rectangle 113" width="23.065" height="2.883" transform="translate(4.837 10.945)" fill="#1a0f55"/>
    <rect id="Rectangle_114" data-name="Rectangle 114" width="23.065" height="2.883" transform="translate(4.837 16.711)" fill="#1a0f55"/>
  </g>
  <path id="verify" d="M17.006,2.187a1.488,1.488,0,0,1,.154.244l.174.348a1.839,1.839,0,0,0,2.027.976l.38-.081a1.489,1.489,0,0,1,1.8,1.434l.006.389a1.839,1.839,0,0,0,1.4,1.759l.378.092a1.489,1.489,0,0,1,1,2.072l-.163.353a1.839,1.839,0,0,0,.5,2.193l.3.247a1.489,1.489,0,0,1,0,2.3l-.3.247a1.839,1.839,0,0,0-.5,2.193l.163.353a1.489,1.489,0,0,1-1,2.072l-.378.092a1.839,1.839,0,0,0-1.4,1.759l-.006.389a1.489,1.489,0,0,1-1.8,1.434l-.38-.081a1.839,1.839,0,0,0-2.027.976l-.174.348a1.488,1.488,0,0,1-2.243.512l-.308-.238a1.839,1.839,0,0,0-2.25,0l-.308.238A1.489,1.489,0,0,1,9.809,24.3l-.174-.348a1.839,1.839,0,0,0-2.027-.976l-.38.081a1.489,1.489,0,0,1-1.8-1.434l-.006-.389a1.839,1.839,0,0,0-1.4-1.759l-.378-.092a1.489,1.489,0,0,1-1-2.072l.163-.353a1.839,1.839,0,0,0-.5-2.193l-.3-.247a1.489,1.489,0,0,1,0-2.3l.3-.247a1.839,1.839,0,0,0,.5-2.193l-.163-.353a1.489,1.489,0,0,1,1-2.072l.378-.092A1.839,1.839,0,0,0,5.424,5.5l.006-.389a1.489,1.489,0,0,1,1.8-1.434l.38.081a1.839,1.839,0,0,0,2.027-.976l.174-.348a1.489,1.489,0,0,1,2.243-.512l.308.238a1.839,1.839,0,0,0,2.25,0l.308-.238A1.489,1.489,0,0,1,17.006,2.187Zm1.347,8.079a.945.945,0,0,0-1.281.019h0l-3.867,3.672a1.1,1.1,0,0,1-1.509.01h0l-1.619-1.5a1.017,1.017,0,0,0-1.419.037q-.027.028-.052.058a.909.909,0,0,0,.127,1.279h0L11.363,16a1.839,1.839,0,0,0,2.449-.1h0l4.567-4.442.039-.041A.812.812,0,0,0,18.353,10.266Z" transform="translate(4.889 24.34)" fill="#1a0f55" fill-rule="evenodd"/>
</svg>
