<svg xmlns="http://www.w3.org/2000/svg" width="17.53" height="17.53" viewBox="0 0 17.53 17.53">
  <g id="vuesax_bold_sms" data-name="vuesax/bold/sms" transform="translate(-556 -252)">
    <g id="sms" transform="translate(556 252)">
      <path id="Vector" d="M0,0H17.53V17.53H0Z" fill="none" opacity="0"/>
      <path id="Vector-2" data-name="Vector" d="M10.147,0H3.382C1.353,0,0,.929,0,3.1V7.433c0,2.168,1.353,3.1,3.382,3.1h6.765c2.029,0,3.382-.929,3.382-3.1V3.1C13.53.929,12.177,0,10.147,0Zm.318,3.772L8.348,5.321a2.683,2.683,0,0,1-1.583.489,2.668,2.668,0,0,1-1.583-.489L3.065,3.772a.449.449,0,0,1-.081-.657.538.538,0,0,1,.71-.074L5.811,4.59a1.736,1.736,0,0,0,1.9,0L9.83,3.041a.531.531,0,0,1,.71.074A.443.443,0,0,1,10.465,3.772Z" transform="translate(2 3.5)" fill="#a8b400"/>
    </g>
  </g>
</svg>
