<svg xmlns="http://www.w3.org/2000/svg" width="16.544" height="16.901" viewBox="0 0 16.544 16.901">
  <path id="Path_4380" data-name="Path 4380" d="M472.808,5.055h-1.057a1.187,1.187,0,0,0-1.257,1.221v.189h5.524a1.334,1.334,0,0,0,1.345-1.4h-1.771l.006-.007Zm3.482,4.527h-6.2v.19a1.158,1.158,0,0,0,1.1,1.207h6.16v-.426a1.117,1.117,0,0,0-1.06-.97Zm1.093-2.274h-6.495a1.19,1.19,0,0,0-1.219,1.23v.188h6.549a1.193,1.193,0,0,0,1.164-1.231V7.308Zm4.445,4.509h1.6a8.226,8.226,0,0,1-2.4,3.242c-.151.116-.3.232-.459.343a8.393,8.393,0,0,1-.984.59l-.2.1c-.09.042-.181.082-.272.121-.157.066-.315.134-.468.188l-.034.014a9.191,9.191,0,0,1-1.73.424,8.449,8.449,0,1,1,6.574-11.809l.022.067a5.615,5.615,0,0,1,.28.773l.074.246h-4.121c-1.136,0-1.49-.59-1.49-1.06V4.3a.089.089,0,0,0-.1-.1h-1.4a.866.866,0,0,0-.124.008h-2.381a1.965,1.965,0,0,1,2.165-1.4h1.755a1.4,1.4,0,0,1,1.5,1.372V4.7h2.01a7.047,7.047,0,0,0-1.649-1.814,6.933,6.933,0,0,0-4.251-1.437,7.023,7.023,0,1,0,.006,14.046,6.948,6.948,0,0,0,5.2-2.251h-.069l-5.664-.006h-2.46a1.282,1.282,0,0,1-1.162-1.222v-.19h10.226Z" transform="translate(-467.283 -0.016)" fill="#a3b53a" fill-rule="evenodd"/>
</svg>
