<svg id="Group_234" data-name="Group 234" xmlns="http://www.w3.org/2000/svg" width="58.606" height="34.758" viewBox="0 0 58.606 34.758">
  <path id="Path_512" data-name="Path 512" d="M20.559,86.348h0c0,.014,0,.028,0,.041Z" transform="translate(-19.21 -55.729)" fill="#f2b241"/>
  <path id="Path_513" data-name="Path 513" d="M30.958,86.389c0-.014,0-.027,0-.041h0Z" transform="translate(-28.317 -55.729)" fill="#f2b241"/>
  <path id="Path_525" data-name="Path 525" d="M182.436,334.205a5.311,5.311,0,0,0-6.264,6.264,5.324,5.324,0,0,0,10.44-2.088A5.46,5.46,0,0,0,182.436,334.205Zm1.183,5.708a2.219,2.219,0,0,1-1.81,1.809,2.322,2.322,0,0,1-2.714-2.715,2.219,2.219,0,0,1,1.809-1.81A2.277,2.277,0,0,1,183.619,339.913Z" transform="translate(-168.377 -309.984)" fill="#1a0f55"/>
  <path id="Path_526" data-name="Path 526" d="M408.676,334.205a5.311,5.311,0,0,0-6.264,6.264,5.324,5.324,0,1,0,10.44-2.088A5.273,5.273,0,0,0,408.676,334.205Zm1.252,5.708a2.219,2.219,0,0,1-1.809,1.809,2.322,2.322,0,0,1-2.715-2.715,2.219,2.219,0,0,1,1.81-1.81A2.322,2.322,0,0,1,409.928,339.913Z" transform="translate(-366.496 -309.984)" fill="#1a0f55"/>
  <path id="Path_527" data-name="Path 527" d="M172.147,206.1h-.417a1.535,1.535,0,0,0,.069-.557v-5.777c0-4.872-4.246-4.872-5.917-5.29-1.949-.487-3.063-.835-3.828-2.3l-2.575-5.22a5.6,5.6,0,0,0-4.455-2.715H145.7a1.8,1.8,0,0,0-1.809,1.81v10.371a.522.522,0,0,1-.07.348,1.958,1.958,0,0,1-1.671.9H116.465a1.465,1.465,0,0,0-1.462,1.6V206.1h-.766v1.74a.7.7,0,0,0,.7.7h5.359v-.9a6.972,6.972,0,0,1,13.921.557v.348h13.781a1.188,1.188,0,0,0,.487-.069v-.278a6.961,6.961,0,0,1,13.921-.139v.487h9.745a.7.7,0,0,0,.7-.7v-1.044a.749.749,0,0,0-.7-.7Zm-13.155-12.737h-8.909v-6.264a.7.7,0,0,1,.7-.7h3.132a5.016,5.016,0,0,1,3.968,2.436l1.74,3.619c.278.348-.07.905-.627.905Z" transform="translate(-114.237 -178.742)" fill="#a8b400"/>
  <path id="Path_528" data-name="Path 528" d="M124.351,148.689h23.874c.974,0,1.74-.376,1.74-.855v-6.979c0-.479-.766-.855-1.74-.855H124.351c-.974,0-1.74.376-1.74.855V147.8c-.07.479.766.889,1.74.889Z" transform="translate(-121.567 -140)" fill="#1a0f55"/>
  <path id="Path_529" data-name="Path 529" d="M123.451,148.689H135a.84.84,0,0,0,.842-.855v-6.979A.84.84,0,0,0,135,140H123.451a.84.84,0,0,0-.842.855V147.8a.849.849,0,0,0,.842.889Z" transform="translate(-121.567 -130.678)" fill="#1a0f55"/>
  <path id="Path_530" data-name="Path 530" d="M123.451,148.689H135a.84.84,0,0,0,.842-.855v-6.979A.84.84,0,0,0,135,140H123.451a.84.84,0,0,0-.842.855V147.8a.849.849,0,0,0,.842.889Z" transform="translate(-107.443 -130.678)" fill="#1a0f55"/>
</svg>
