<svg id="user-Filled" xmlns="http://www.w3.org/2000/svg" width="24" height="24" viewBox="0 0 24 24">
  <rect id="Path" width="24" height="24" fill="rgba(255,255,255,0)"/>
  <path id="user-Filled_1_" d="M690,2704.5a5,5,0,1,1,5,5A5.006,5.006,0,0,1,690,2704.5Zm9.117,6.071a2.3,2.3,0,0,0-1.67.218,5.046,5.046,0,0,1-4.894,0,2.315,2.315,0,0,0-1.67-.218,4.509,4.509,0,0,0-3.383,4.4v1.011a3.536,3.536,0,0,0,.493,1.806,1.5,1.5,0,0,0,1.285.717h11.443a1.493,1.493,0,0,0,1.285-.718,3.53,3.53,0,0,0,.493-1.8v-1.011A4.507,4.507,0,0,0,699.117,2710.571Z" transform="translate(-683 -2697)" fill="#1a0f55"/>
</svg>
