<svg xmlns="http://www.w3.org/2000/svg" width="20.819" height="20.819" viewBox="0 0 20.819 20.819">
  <g id="clander" transform="translate(-492 -188)">
    <g id="calendar" transform="translate(492 188)">
      <path id="Vector" d="M0,0H20.819V20.819H0Z" fill="none" opacity="0"/>
      <path id="Vector-2" data-name="Vector" d="M11.894,2V.651a.651.651,0,0,0-1.3,0v1.3H4.954V.651a.651.651,0,1,0-1.3,0V2A3.685,3.685,0,0,0,0,5.691a.436.436,0,0,0,.434.46H15.112a.43.43,0,0,0,.434-.46A3.685,3.685,0,0,0,11.894,2Z" transform="translate(2.636 1.084)" fill="#a8b400"/>
      <path id="Vector-3" data-name="Vector" d="M14.747,0H.867A.87.87,0,0,0,0,.867V6.211c0,2.6,1.3,4.337,4.337,4.337h6.94c3.036,0,4.337-1.735,4.337-4.337V.867A.87.87,0,0,0,14.747,0ZM5.387,7.261a1.367,1.367,0,0,1-.13.1.657.657,0,0,1-.156.078.551.551,0,0,1-.156.052,1.176,1.176,0,0,1-.173.017.863.863,0,0,1-.33-.069.9.9,0,0,1-.286-.182.88.88,0,0,1,0-1.232.9.9,0,0,1,.286-.182.829.829,0,0,1,.5-.052.551.551,0,0,1,.156.052.657.657,0,0,1,.156.078l.13.1a.88.88,0,0,1,0,1.232Zm0-3.036a.88.88,0,0,1-1.232,0,.88.88,0,0,1,0-1.232A.866.866,0,0,1,5.1,2.811a.81.81,0,0,1,.286.182.88.88,0,0,1,0,1.232ZM8.423,7.261A.871.871,0,0,1,7.191,6.029.871.871,0,0,1,8.423,7.261Zm0-3.036-.13.1a.657.657,0,0,1-.156.078.551.551,0,0,1-.156.052,1.176,1.176,0,0,1-.173.017.859.859,0,0,1-.867-.867.912.912,0,0,1,.252-.616.81.81,0,0,1,.286-.182.866.866,0,0,1,.946.182.88.88,0,0,1,0,1.232Zm3.036,3.036a.871.871,0,0,1-1.232-1.232.871.871,0,0,1,1.232,1.232Zm0-3.036-.13.1a.657.657,0,0,1-.156.078.551.551,0,0,1-.156.052,1.3,1.3,0,0,1-.173.017.859.859,0,0,1-.867-.867.912.912,0,0,1,.252-.616.9.9,0,0,1,.286-.182.829.829,0,0,1,.5-.052.551.551,0,0,1,.156.052.657.657,0,0,1,.156.078l.13.1a.88.88,0,0,1,0,1.232Z" transform="translate(2.602 8.536)" fill="#a8b400"/>
    </g>
  </g>
</svg>
