<svg xmlns="http://www.w3.org/2000/svg" width="20.819" height="20.819" viewBox="0 0 20.819 20.819">
  <g id="phone" transform="translate(-108 -188)">
    <g id="call" transform="translate(108 188)">
      <path id="Vector" d="M7.851,11.234l-1.6,1.6a.872.872,0,0,1-1.223.009c-.1-.1-.191-.182-.286-.278a24.648,24.648,0,0,1-2.42-2.837,15.465,15.465,0,0,1-1.7-2.958A7.448,7.448,0,0,1,0,3.938,4.488,4.488,0,0,1,.312,2.264a3.993,3.993,0,0,1,1-1.449A2.542,2.542,0,0,1,3.114,0a1.63,1.63,0,0,1,.7.156A1.414,1.414,0,0,1,4.4.642L6.411,3.479a2.969,2.969,0,0,1,.347.607,1.371,1.371,0,0,1,.121.529,1.178,1.178,0,0,1-.182.616,2.951,2.951,0,0,1-.486.616l-.659.685a.464.464,0,0,0-.139.347.788.788,0,0,0,.026.2c.026.069.052.121.069.173a7.2,7.2,0,0,0,.807,1.11c.39.451.807.911,1.258,1.371.087.087.182.173.269.26A.869.869,0,0,1,7.851,11.234Z" transform="translate(1.735 1.735)" fill="#a8b400"/>
      <path id="Vector-2" data-name="Vector" d="M10.731,3.721a2.2,2.2,0,0,1-.13.737,2.119,2.119,0,0,1-.087.208,3.579,3.579,0,0,1-.59.885A3.911,3.911,0,0,1,8.5,6.575c-.009,0-.017.009-.026.009a4.382,4.382,0,0,1-1.666.321,7.229,7.229,0,0,1-2.828-.633A15.236,15.236,0,0,1,1,4.554c-.338-.252-.677-.5-1-.772L2.837.946a4.874,4.874,0,0,0,.642.416c.043.017.1.043.156.069a.6.6,0,0,0,.217.035.477.477,0,0,0,.356-.147L4.866.668A2.662,2.662,0,0,1,5.491.182,1.155,1.155,0,0,1,6.107,0a1.384,1.384,0,0,1,.529.113,3.355,3.355,0,0,1,.607.338L10.115,2.49a1.316,1.316,0,0,1,.477.555A1.78,1.78,0,0,1,10.731,3.721Z" transform="translate(8.328 12.179)" fill="#a8b400"/>
      <path id="Vector-3" data-name="Vector" d="M0,0H20.819V20.819H0Z" transform="translate(20.819 20.819) rotate(180)" fill="none" opacity="0"/>
    </g>
  </g>
</svg>
