<svg xmlns="http://www.w3.org/2000/svg" width="559.999" height="559.992" viewBox="0 0 559.999 559.992">
  <g id="Group_364" data-name="Group 364" transform="translate(-2008 -1053)">
    <path id="Path_423" data-name="Path 423" d="M601.17,217.78H548.779a20.116,20.116,0,0,1-14.226-34.336L571.6,146.413a28.853,28.853,0,0,0,0-40.785L524.381,58.413c-10.891-10.891-29.879-10.91-40.785,0L446.565,95.444a20.115,20.115,0,0,1-34.344-14.219V28.83A28.862,28.862,0,0,0,383.393,0H316.6A28.862,28.862,0,0,0,287.776,28.83V81.221A20.109,20.109,0,0,1,253.44,95.436L216.409,58.4c-10.91-10.91-29.9-10.891-40.785,0L128.409,105.62a28.853,28.853,0,0,0,0,40.785l37.043,37.031a20.122,20.122,0,0,1-14.23,34.344h-52.4A28.862,28.862,0,0,0,70,246.608v66.773a28.866,28.866,0,0,0,28.828,28.844h52.391a20.116,20.116,0,0,1,14.227,34.336L128.4,413.592a28.853,28.853,0,0,0,0,40.785l47.215,47.215c10.9,10.9,29.879,10.922,40.785,0l37.031-37.043a20.116,20.116,0,0,1,34.336,14.227v52.391A28.86,28.86,0,0,0,316.6,559.995h66.773A28.86,28.86,0,0,0,412.2,531.167V478.776a20.116,20.116,0,0,1,34.336-14.227l37.031,37.043c10.91,10.91,29.9,10.891,40.785,0l47.215-47.215a28.853,28.853,0,0,0,0-40.785l-37.043-37.031a20.116,20.116,0,0,1,14.253-34.336h52.391A28.86,28.86,0,0,0,629.993,313.4l0-66.789a28.862,28.862,0,0,0-28.828-28.828Zm8.086,95.617a8.1,8.1,0,0,1-8.086,8.086H548.779a40.862,40.862,0,0,0-28.894,69.754l37.043,37.031a8.091,8.091,0,0,1,0,11.449l-47.215,47.215a8.1,8.1,0,0,1-11.449,0l-37.031-37.043a40.862,40.862,0,0,0-69.754,28.895v52.391a8.1,8.1,0,0,1-8.086,8.086H316.6a8.1,8.1,0,0,1-8.086-8.086V478.783a40.224,40.224,0,0,0-25.223-37.75,41.321,41.321,0,0,0-15.9-3.227,40.291,40.291,0,0,0-28.633,12.07L201.733,486.92a8.1,8.1,0,0,1-11.449,0L143.069,439.7a8.091,8.091,0,0,1,0-11.449l37.043-37.031a40.852,40.852,0,0,0-28.891-69.742h-52.4A8.1,8.1,0,0,1,90.74,313.4V246.608a8.1,8.1,0,0,1,8.086-8.086h52.391a40.862,40.862,0,0,0,28.895-69.754l-37.043-37.031a8.091,8.091,0,0,1,0-11.449l47.215-47.215a8.091,8.091,0,0,1,11.449,0L238.764,110.1a40.862,40.862,0,0,0,69.754-28.879v-52.4a8.1,8.1,0,0,1,8.086-8.086h66.773a8.1,8.1,0,0,1,8.1,8.086V81.222a40.862,40.862,0,0,0,69.754,28.895l37.031-37.031a8.091,8.091,0,0,1,11.449,0L556.927,120.3a8.091,8.091,0,0,1,0,11.449L519.884,168.78a40.862,40.862,0,0,0,28.895,69.754H601.17a8.08,8.08,0,0,1,8.086,8.074Z" transform="translate(1938.002 1052.998)" fill="#fff"/>
    <path id="Path_424" data-name="Path 424" d="M350,186.67A93.332,93.332,0,1,0,443.332,280,93.431,93.431,0,0,0,350,186.67Zm0,165.93a72.594,72.594,0,1,1,72.594-72.594A72.687,72.687,0,0,1,350,352.6Z" transform="translate(1938.002 1052.998)" fill="#fff"/>
  </g>
</svg>
