<svg width="56" height="1047" viewBox="0 0 56 1047" fill="none" xmlns="http://www.w3.org/2000/svg">
<path d="M26 82H33.5647V214.673H26V82Z" fill="#A2BB06"/>
<path d="M22 334H29.5647V466.673H22V334Z" fill="#A2BB06"/>
<path d="M22 589H29.5647V721.673H22V589Z" fill="#A2BB06"/>
<path d="M26 829H33.5647V961.673H26V829Z" fill="#A2BB06"/>
<path d="M52 1021C52 1035.36 40.3594 1047 26 1047C11.6406 1047 0 1035.36 0 1021C0 1006.64 11.6406 995 26 995C40.3594 995 52 1006.64 52 1021Z" fill="#A2BB06"/>
<path d="M40 1021C40 1028.73 33.732 1035 26 1035C18.268 1035 12 1028.73 12 1021C12 1013.27 18.268 1007 26 1007C33.732 1007 40 1013.27 40 1021Z" fill="white"/>
<path d="M56 784C56 798.359 44.3594 810 30 810C15.6406 810 4 798.359 4 784C4 769.641 15.6406 758 30 758C44.3594 758 56 769.641 56 784Z" fill="#A2BB06"/>
<path d="M44 784C44 791.732 37.732 798 30 798C22.268 798 16 791.732 16 784C16 776.268 22.268 770 30 770C37.732 770 44 776.268 44 784Z" fill="white"/>
<path d="M52 525C52 539.359 40.3594 551 26 551C11.6406 551 0 539.359 0 525C0 510.641 11.6406 499 26 499C40.3594 499 52 510.641 52 525Z" fill="#A2BB06"/>
<path d="M40 525C40 532.732 33.732 539 26 539C18.268 539 12 532.732 12 525C12 517.268 18.268 511 26 511C33.732 511 40 517.268 40 525Z" fill="white"/>
<path d="M52 272C52 286.359 40.3594 298 26 298C11.6406 298 0 286.359 0 272C0 257.641 11.6406 246 26 246C40.3594 246 52 257.641 52 272Z" fill="#A2BB06"/>
<path d="M40 272C40 279.732 33.732 286 26 286C18.268 286 12 279.732 12 272C12 264.268 18.268 258 26 258C33.732 258 40 264.268 40 272Z" fill="white"/>
<path d="M52 26C52 40.3594 40.3594 52 26 52C11.6406 52 0 40.3594 0 26C0 11.6406 11.6406 0 26 0C40.3594 0 52 11.6406 52 26Z" fill="#A2BB06"/>
<path d="M40 26C40 33.732 33.732 40 26 40C18.268 40 12 33.732 12 26C12 18.268 18.268 12 26 12C33.732 12 40 18.268 40 26Z" fill="white"/>
</svg>
