<svg width="52" height="1047" viewBox="0 0 52 1047" fill="none" xmlns="http://www.w3.org/2000/svg">
<circle cx="26" cy="26" r="26" fill="#A2BB06"/>
<path d="M23.0001 33L16.0001 26L13.6667 28.3333L23.0001 37.6667L43.0001 17.6667L40.6667 15.3333L23.0001 33Z" fill="white"/>
<circle cx="26" cy="272" r="26" fill="#A2BB06"/>
<path d="M23.0001 279L16.0001 272L13.6667 274.333L23.0001 283.667L43.0001 263.667L40.6667 261.333L23.0001 279Z" fill="white"/>
<circle cx="26" cy="525" r="26" fill="#A2BB06"/>
<path d="M23.0001 532L16.0001 525L13.6667 527.333L23.0001 536.667L43.0001 516.667L40.6667 514.333L23.0001 532Z" fill="white"/>
<circle cx="26" cy="779" r="26" fill="#A2BB06"/>
<path d="M23.0001 786L16.0001 779L13.6667 781.333L23.0001 790.667L43.0001 770.667L40.6667 768.333L23.0001 786Z" fill="white"/>
<rect x="26.7095" y="82.7095" width="6.14572" height="131.254" fill="#A2BB06" stroke="#A2BB06" stroke-width="1.41896"/>
<rect x="22.7095" y="334.709" width="6.14572" height="131.254" fill="#A2BB06" stroke="#A2BB06" stroke-width="1.41896"/>
<rect x="22.7095" y="589.709" width="6.14572" height="131.254" fill="#A2BB06" stroke="#A2BB06" stroke-width="1.41896"/>
<rect x="26.7095" y="829.709" width="6.14572" height="131.254" fill="#A2BB06" stroke="#A2BB06" stroke-width="1.41896"/>
<circle cx="26" cy="1021" r="26" fill="#A2BB06"/>
<circle cx="26" cy="1021" r="26" stroke="#13027B"/>
<circle cx="26" cy="1021" r="14" fill="white"/>
<circle cx="26" cy="1021" r="14" stroke="#A2BB06"/>
</svg>
