<svg width="52" height="1047" viewBox="0 0 52 1047" fill="none" xmlns="http://www.w3.org/2000/svg">
<circle cx="26" cy="26" r="26" fill="#A2BB06"/>
<path d="M23 33L16 26L13.6666 28.3333L23 37.6667L43 17.6667L40.6666 15.3333L23 33Z" fill="white"/>
<circle cx="26" cy="272" r="26" fill="#A2BB06"/>
<path d="M23 279L16 272L13.6666 274.333L23 283.667L43 263.667L40.6666 261.333L23 279Z" fill="white"/>
<circle cx="26" cy="525" r="26" fill="#A2BB06"/>
<path d="M23 532L16 525L13.6666 527.333L23 536.667L43 516.667L40.6666 514.333L23 532Z" fill="white"/>
<circle cx="26" cy="779" r="26" fill="#A2BB06"/>
<path d="M23 786L16 779L13.6666 781.333L23 790.667L43 770.667L40.6666 768.333L23 786Z" fill="white"/>
<circle cx="26" cy="1021" r="26" fill="#A2BB06"/>
<path d="M23 1028L16 1021L13.6666 1023.33L23 1032.67L43 1012.67L40.6666 1010.33L23 1028Z" fill="white"/>
<rect x="26.7095" y="82.7095" width="6.14572" height="131.254" fill="#A2BB06" stroke="#A2BB06" stroke-width="1.41896"/>
<rect x="22.7095" y="334.709" width="6.14572" height="131.254" fill="#A2BB06" stroke="#A2BB06" stroke-width="1.41896"/>
<rect x="22.7095" y="589.709" width="6.14572" height="131.254" fill="#A2BB06" stroke="#A2BB06" stroke-width="1.41896"/>
<rect x="26.7095" y="829.709" width="6.14572" height="131.254" fill="#A2BB06" stroke="#A2BB06" stroke-width="1.41896"/>
</svg>
