<svg width="60" height="54" viewBox="0 0 60 54" fill="none" xmlns="http://www.w3.org/2000/svg">
<path d="M45.3333 22.9333L40.6 18.2L26.4666 32.3666L19.4 25.2666L14.6666 30L26.4666 41.8L45.3333 22.9333Z" fill="#A2BB06"/>
<path d="M53.3333 0H6.66667C4.89856 0 3.20286 0.702379 1.95262 1.95262C0.702379 3.20286 0 4.89856 0 6.66667V46.6667C0 48.4348 0.702379 50.1305 1.95262 51.3807C3.20286 52.631 4.89856 53.3333 6.66667 53.3333H53.3333C57 53.3333 60 50.3333 60 46.6667V6.66667C60 4.89856 59.2976 3.20286 58.0474 1.95262C56.7971 0.702379 55.1014 0 53.3333 0ZM53.3333 46.6667H6.66667V13.3333H53.3333V46.6667Z" fill="#A2BB06"/>
</svg>
