<svg width="60" height="64" viewBox="0 0 60 64" fill="none" xmlns="http://www.w3.org/2000/svg">
<path d="M25.2632 0L48.3095 7.296C48.9522 7.49934 49.514 7.90554 49.9128 8.45532C50.3117 9.0051 50.5266 9.66967 50.5263 10.352V16H56.8421C57.6796 16 58.4829 16.3371 59.0751 16.9373C59.6673 17.5374 60 18.3513 60 19.2V25.6H18.9474V19.2C18.9474 18.3513 19.2801 17.5374 19.8723 16.9373C20.4645 16.3371 21.2677 16 22.1053 16H44.2105V12.704L25.2632 6.7008L6.31579 12.704V36.3968C6.31534 38.3559 6.75868 40.289 7.61168 42.0472C8.46467 43.8053 9.70455 45.3416 11.2358 46.5376L11.8326 46.9728L25.2632 56.256L37.2063 48H22.1053C21.2677 48 20.4645 47.6629 19.8723 47.0627C19.2801 46.4626 18.9474 45.6487 18.9474 44.8V32H60V44.8C60 45.6487 59.6673 46.4626 59.0751 47.0627C58.4829 47.6629 57.6796 48 56.8421 48L46.6737 48.0032C45.4516 49.6352 43.9674 51.0752 42.2526 52.2592L25.2632 64L8.27368 52.2624C5.72375 50.5006 3.63711 48.1344 2.19518 45.3693C0.753247 42.6043 -0.000319651 39.5242 1.01715e-07 36.3968V10.352C0.000380862 9.67021 0.215642 9.00637 0.614407 8.45723C1.01317 7.9081 1.57459 7.50237 2.21684 7.2992L25.2632 0Z" fill="#A2BB06"/>
</svg>
