<svg width="60" height="66" viewBox="0 0 60 66" fill="none" xmlns="http://www.w3.org/2000/svg">
<path d="M27.0185 0.645117C26.5851 0.232056 25.9974 0 25.3846 0C24.7718 0 24.1841 0.232056 23.7508 0.645117C23.3175 1.05818 23.074 1.61841 23.074 2.20257C23.074 2.78673 23.3175 3.34696 23.7508 3.76002L29.0585 8.81954C23.1679 8.99585 17.4622 10.8222 12.6538 14.0705C7.84533 17.3188 4.1471 21.8453 2.02072 27.0848C-0.10566 32.3243 -0.565979 38.0448 0.697223 43.5322C1.96043 49.0196 4.89119 54.0307 9.12366 57.9401C13.3561 61.8495 18.7028 64.484 24.4963 65.5146C30.2898 66.5453 36.2734 65.9265 41.7002 63.7354C47.127 61.5444 51.7566 57.8782 55.0111 53.1945C58.2655 48.5108 60.0007 43.0171 60 37.3992V37.2232C59.994 36.9517 59.9319 36.6839 59.8173 36.4352C59.7028 36.1865 59.5379 35.9618 59.3322 35.7738C59.1264 35.5859 58.8839 35.4384 58.6183 35.3399C58.3528 35.2413 58.0695 35.1936 57.7846 35.1994H57.5908C56.9925 35.2133 56.4245 35.4525 56.011 35.8649C55.5975 36.2772 55.3722 36.8289 55.3846 37.3992C55.3846 42.1455 53.9202 46.787 51.1738 50.746C48.4274 54.705 44.5203 57.8067 39.9387 59.6649C35.357 61.5232 30.3033 62.0561 25.4063 61.1972C20.5094 60.3383 15.9856 58.1255 12.398 54.8344C8.81031 51.5432 6.31724 47.319 5.22905 42.6874C4.14086 38.0558 4.5056 33.2215 6.27788 28.786C8.05015 24.3506 11.1517 20.5099 15.1965 17.742C19.2413 14.9741 24.0507 13.4012 29.0262 13.2191L23.7508 18.2434C23.5362 18.448 23.366 18.6908 23.2499 18.958C23.1338 19.2252 23.074 19.5116 23.074 19.8009C23.074 20.0901 23.1338 20.3765 23.2499 20.6438C23.366 20.911 23.5362 21.1538 23.7508 21.3583C23.9653 21.5629 24.2201 21.7251 24.5004 21.8358C24.7807 21.9465 25.0812 22.0035 25.3846 22.0035C25.6881 22.0035 25.9885 21.9465 26.2689 21.8358C26.5492 21.7251 26.8039 21.5629 27.0185 21.3583L36.2492 12.5592C36.4641 12.3548 36.6346 12.1121 36.751 11.8448C36.8673 11.5776 36.9272 11.2911 36.9272 11.0017C36.9272 10.7124 36.8673 10.4259 36.751 10.1586C36.6346 9.89137 36.4641 9.64862 36.2492 9.44428L27.0185 0.645117ZM45.48 27.0426C45.6949 27.2469 45.8654 27.4897 45.9818 27.7569C46.0981 28.0242 46.158 28.3107 46.158 28.6C46.158 28.8894 46.0981 29.1759 45.9818 29.4432C45.8654 29.7104 45.6949 29.9532 45.48 30.1575L31.6339 43.3562C31.4195 43.5611 31.1648 43.7236 30.8845 43.8345C30.6041 43.9454 30.3035 44.0025 30 44.0025C29.6965 44.0025 29.3959 43.9454 29.1155 43.8345C28.8352 43.7236 28.5805 43.5611 28.3662 43.3562L21.4431 36.7569C21.2285 36.5523 21.0583 36.3095 20.9422 36.0423C20.8261 35.7751 20.7663 35.4887 20.7663 35.1994C20.7663 34.9102 20.8261 34.6238 20.9422 34.3565C21.0583 34.0893 21.2285 33.8465 21.4431 33.642C21.6576 33.4374 21.9124 33.2752 22.1927 33.1645C22.473 33.0538 22.7735 32.9968 23.0769 32.9968C23.3804 32.9968 23.6808 33.0538 23.9612 33.1645C24.2415 33.2752 24.4962 33.4374 24.7108 33.642L30 38.6883L42.2123 27.0426C42.4267 26.8377 42.6813 26.6752 42.9617 26.5643C43.2421 26.4534 43.5426 26.3963 43.8462 26.3963C44.1497 26.3963 44.4503 26.4534 44.7306 26.5643C45.011 26.6752 45.2656 26.8377 45.48 27.0426Z" fill="#A2BB06"/>
</svg>
