<svg width="60" height="64" viewBox="0 0 60 64" fill="none" xmlns="http://www.w3.org/2000/svg">
<path d="M27.3 0.506132L3.96667 9.63117C1.56667 10.5701 0 12.6826 0 15.0006V28.7908C0 45.0751 12.8 60.303 30 64C47.2 60.303 60 45.0751 60 28.7908V15.0006C60 12.6826 58.4333 10.5701 56.0333 9.63117L32.7 0.506132C31 -0.168711 29 -0.168711 27.3 0.506132ZM20.9667 44.3122L12.3333 36.7129C12.0247 36.4412 11.7799 36.1188 11.6129 35.7638C11.4459 35.4089 11.3599 35.0285 11.3599 34.6444C11.3599 34.2602 11.4459 33.8798 11.6129 33.5249C11.7799 33.17 12.0247 32.8475 12.3333 32.5758C12.6419 32.3042 13.0083 32.0887 13.4115 31.9417C13.8147 31.7947 14.2469 31.719 14.6833 31.719C15.1198 31.719 15.5519 31.7947 15.9551 31.9417C16.3584 32.0887 16.7247 32.3042 17.0333 32.5758L23.3333 38.0919L42.9333 20.8394C43.2419 20.5678 43.6083 20.3523 44.0115 20.2053C44.4147 20.0583 44.8469 19.9826 45.2833 19.9826C45.7198 19.9826 46.1519 20.0583 46.5551 20.2053C46.9584 20.3523 47.3247 20.5678 47.6333 20.8394C47.9419 21.1111 48.1867 21.4336 48.3538 21.7885C48.5208 22.1434 48.6067 22.5238 48.6067 22.908C48.6067 23.2921 48.5208 23.6725 48.3538 24.0275C48.1867 24.3824 47.9419 24.7049 47.6333 24.9765L25.6667 44.3122C25.3583 44.5842 24.992 44.8 24.5887 44.9472C24.1855 45.0945 23.7532 45.1703 23.3167 45.1703C22.8801 45.1703 22.4478 45.0945 22.0446 44.9472C21.6413 44.8 21.275 44.5842 20.9667 44.3122Z" fill="#A2BB06"/>
</svg>
