<svg xmlns="http://www.w3.org/2000/svg" width="20" height="20" viewBox="0 0 20 20">
  <g id="vuesax_bold_quote-down-circle" data-name="vuesax/bold/quote-down-circle" transform="translate(-428 -316)">
    <g id="quote-down-circle" transform="translate(428 316)">
      <path id="Vector" d="M0,0H20V20H0Z" transform="translate(20 20) rotate(180)" fill="none" opacity="0"/>
      <path id="Vector-2" data-name="Vector" d="M8.333,0a8.333,8.333,0,1,0,8.333,8.333A8.336,8.336,0,0,0,8.333,0ZM8.008,10.7a1.6,1.6,0,0,1-1.617,1.617H5.158A1.618,1.618,0,0,1,3.542,10.7V8.475c0-2.567.558-3.142,2.05-4.025a.634.634,0,0,1,.858.225.631.631,0,0,1-.217.858A2.137,2.137,0,0,0,4.808,7.842H6.4A1.6,1.6,0,0,1,8.017,9.458V10.7Zm5.117,0a1.6,1.6,0,0,1-1.617,1.617H10.267A1.618,1.618,0,0,1,8.65,10.7V8.475c0-2.567.558-3.142,2.05-4.025a.634.634,0,0,1,.858.225.631.631,0,0,1-.217.858A2.171,2.171,0,0,0,9.917,7.858h1.592a1.6,1.6,0,0,1,1.617,1.617V10.7Z" transform="translate(1.667 1.667)" fill="#b0b500"/>
    </g>
  </g>
</svg>
