<svg xmlns="http://www.w3.org/2000/svg" width="20" height="20" viewBox="0 0 20 20">
  <g id="Group_200" data-name="Group 200" transform="translate(-3615.07 -503.07)">
    <rect id="Rectangle_146" data-name="Rectangle 146" width="20" height="20" transform="translate(3615.07 503.07)" fill="none"/>
    <g id="Group_199" data-name="Group 199" transform="translate(3617.099 506.21)">
      <path id="Path_476" data-name="Path 476" d="M70.9,37.941a.25.25,0,0,1,.15-.125s7.029-2.281,7.154-2.306h.012a.9.9,0,0,1,.573.05l.262.087-.037-.125A.752.752,0,0,0,78.286,35a.783.783,0,0,0-.237.037L70.9,37.343a.761.761,0,0,0-.436.374.73.73,0,0,0-.037.561l2.941,8.911V45.606l-2.48-7.478a.245.245,0,0,1,.012-.187Z" transform="translate(-70.383 -34.999)" fill="#fff"/>
      <path id="Path_477" data-name="Path 477" d="M152.225,217.733l.461,1.408a.421.421,0,0,0,.162.224v-1.334l-.15-.461.15-.05V217l-.312.1A.506.506,0,0,0,152.225,217.733Z" transform="translate(-149.868 -211.813)" fill="#fff"/>
      <path id="Path_478" data-name="Path 478" d="M323.712,70a.737.737,0,0,0-.71.511l-.125.361h.523l.062-.2a.268.268,0,0,1,.237-.174.158.158,0,0,1,.075.012l1.122.361h1.633l-2.6-.835a.582.582,0,0,0-.212-.037Z" transform="translate(-315.684 -69.003)" fill="#fff"/>
      <path id="Path_479" data-name="Path 479" d="M454.56,497.009h.76a.749.749,0,0,0,.685-.449Z" transform="translate(-443.616 -483.411)" fill="#fff"/>
      <path id="Path_480" data-name="Path 480" d="M521.373,123.827a.27.27,0,0,1,.1.062.786.786,0,0,1,.573.125.753.753,0,0,0-.075-.287.762.762,0,0,0-.436-.374l-2.655-.847a1.336,1.336,0,0,1,.175.573Z" transform="translate(-506.104 -120.013)" fill="#fff"/>
      <path id="Path_481" data-name="Path 481" d="M383.114,191.54l-2.393,2.081H380.7l-1.022-1.072c-.012-.013-.012-.025-.012-.05l3.677-4.449a.247.247,0,1,0-.337-.361l-.037.037-3.689,4.462a.549.549,0,0,0-.037.6,2.882,2.882,0,0,1-1.359.3h-.15a.337.337,0,0,0-.324.237l-1.034,3.49a.133.133,0,0,0,.075.175.174.174,0,0,0,.112,0l3.427-1.072a.352.352,0,0,0,.237-.349,2.791,2.791,0,0,1,.312-1.483.506.506,0,0,0,.511-.087l2.393-2.081a.241.241,0,0,0,0-.349.263.263,0,0,0-.324-.025Zm-3.39,3.938-1.982.611,1.1-1.1h.012a.374.374,0,1,0-.374-.374v.025l-1.346,1.346.71-2.405h.025a3.264,3.264,0,0,0,1.707-.424l.573.6a3.2,3.2,0,0,0-.424,1.72Z" transform="translate(-367.645 -183.277)" fill="#fff"/>
      <path id="Path_482" data-name="Path 482" d="M526.44,286.017l-1.658,1.6a.247.247,0,0,0,.324.374l.012-.013,1.658-1.6a.241.241,0,0,0-.012-.349A.247.247,0,0,0,526.44,286.017Z" transform="translate(-511.757 -278.814)" fill="#fff"/>
      <path id="Path_483" data-name="Path 483" d="M346.389,176.466c-.025-.012-.037-.025-.062-.037a.3.3,0,0,0-.15,0c-.025.012-.037.025-.062.037s-.025.037-.037.05a.112.112,0,0,0-.012.062v.125h.386v-.112A.173.173,0,0,0,346.389,176.466Z" transform="translate(-338.211 -172.391)" fill="#fff"/>
      <path id="Path_484" data-name="Path 484" d="M200.726,118.12h-7.478a.75.75,0,0,0-.748.748v9.721a.75.75,0,0,0,.748.748h3.988a.969.969,0,0,1,.025-.2c0-.012.274-.91.536-1.782H194.12a.249.249,0,1,1,0-.5h3.826l.15-.5H194.12a.249.249,0,1,1,0-.5h4.125l.062-.2a.729.729,0,0,1,.174-.3H194.12a.249.249,0,0,1,0-.5h5.708a.26.26,0,0,1,.2.1h.025a1.158,1.158,0,0,1,.212-.6l.013-.012,1.209-1.458v-4.026a.769.769,0,0,0-.76-.748Zm-6.107,3.863h4.736a.25.25,0,0,1,.249.249v1a.25.25,0,0,1-.249.249h-4.736a.25.25,0,0,1-.249-.249v-1A.25.25,0,0,1,194.619,121.983Z" transform="translate(-189.021 -115.752)" fill="#fff"/>
    </g>
  </g>
</svg>
