<svg xmlns="http://www.w3.org/2000/svg" width="20" height="20" viewBox="0 0 20 20">
  <g id="emal" transform="translate(-556 -252)">
    <g id="sms" transform="translate(556 252)">
      <path id="Vector" d="M0,0H20V20H0Z" fill="none" opacity="0"/>
      <path id="Vector-2" data-name="Vector" d="M12.5,0H4.167C1.667,0,0,1.25,0,4.167V10c0,2.917,1.667,4.167,4.167,4.167H12.5c2.5,0,4.167-1.25,4.167-4.167V4.167C16.668,1.25,15,0,12.5,0Zm.392,5.076L10.284,7.16a3.217,3.217,0,0,1-3.9,0L3.775,5.076a.641.641,0,0,1-.1-.883.623.623,0,0,1,.875-.1L7.159,6.176a1.988,1.988,0,0,0,2.342,0l2.609-2.084a.615.615,0,0,1,.875.1A.632.632,0,0,1,12.893,5.076Z" transform="translate(1.666 2.915)" fill="#a8b400"/>
    </g>
  </g>
</svg>
