<svg xmlns="http://www.w3.org/2000/svg" width="20" height="20" viewBox="0 0 20 20">
  <g id="Group_196" data-name="Group 196" transform="translate(-3433.242 -185.242)">
    <rect id="Rectangle_144" data-name="Rectangle 144" width="20" height="20" transform="translate(3433.242 185.242)" fill="none"/>
    <g id="Group_195" data-name="Group 195" transform="translate(3435.53 187.306)">
      <path id="Path_471" data-name="Path 471" d="M539.392,32.945a.828.828,0,0,0-.828.828v2.735h1.655V33.773a.828.828,0,0,0-.828-.828Z" transform="translate(-524.796 -32.945)" fill="#fff"/>
      <path id="Path_472" data-name="Path 472" d="M121.03,467.56H109.9a2.179,2.179,0,0,0,2.16,1.911h9.233a1.312,1.312,0,0,1-.263-.79Z" transform="translate(-109.9 -453.6)" fill="#fff"/>
      <path id="Path_473" data-name="Path 473" d="M301.962,77.656l-1.36.648v1.439a1.47,1.47,0,1,0,2.78-.021V78.307Zm.989,1.606-1.177,1.177a.265.265,0,0,1-.373,0l-.37-.368a.266.266,0,0,1,.376-.376l.18.183.992-.992a.263.263,0,0,1,.373,0A.266.266,0,0,1,302.951,79.262Z" transform="translate(-294.477 -76.219)" fill="#fff"/>
      <path id="Path_474" data-name="Path 474" d="M166.374,32.931a.75.75,0,0,0-.749.749V46.362h9.6a.262.262,0,0,1,.264.264V48.01a.791.791,0,0,0,1.582,0V33.758a1.338,1.338,0,0,1,.288-.828Zm3.058,1.918a.262.262,0,0,1,.151-.238l1.621-.772a.267.267,0,0,1,.225,0l1.685.772a.264.264,0,0,1,.156.241v1.584a2.578,2.578,0,0,1-1.836,2.478l-.04.013a.257.257,0,0,1-.077.011.277.277,0,0,1-.079-.013,2.578,2.578,0,0,1-1.807-2.468Zm6.443,10.257h-9.049a.264.264,0,1,1,0-.529h9.049a.264.264,0,1,1,0,.529Zm0-1.733h-9.049a.264.264,0,1,1,0-.529h9.049a.264.264,0,1,1,0,.529Zm0-1.733h-9.049a.264.264,0,1,1,0-.529h9.049a.264.264,0,1,1,0,.529Zm0-1.73h-9.049a.264.264,0,1,1,0-.529h9.049a.264.264,0,1,1,0,.529Z" transform="translate(-163.835 -32.93)" fill="#fff"/>
    </g>
  </g>
</svg>
