<svg xmlns="http://www.w3.org/2000/svg" width="20" height="20" viewBox="0 0 20 20">
  <g id="Group_198" data-name="Group 198" transform="translate(-3485 -513)">
    <rect id="Rectangle_145" data-name="Rectangle 145" width="20" height="20" transform="translate(3485 513)" fill="none"/>
    <g id="Group_197" data-name="Group 197" transform="translate(3487.451 517.244)">
      <path id="Path_475" data-name="Path 475" d="M116.2,89.85a.568.568,0,0,1-.163.4L113.8,92.444a.548.548,0,0,1-.785,0l-2.194-2.194a.574.574,0,0,1,0-.8h1.729a3.939,3.939,0,0,0-3.9-3.69,3.87,3.87,0,0,0-2.942,1.36L104.3,86.068a5.605,5.605,0,0,1,4.354-2.084A5.7,5.7,0,0,1,114.3,89.45h1.734a.568.568,0,0,1,.162.4Zm-14.935.181H103a5.7,5.7,0,0,0,5.648,5.466A5.6,5.6,0,0,0,113,93.413l-1.413-1.052a3.87,3.87,0,0,1-2.942,1.36,3.939,3.939,0,0,1-3.9-3.69h1.729a.573.573,0,0,0,0-.8l-2.194-2.194a.549.549,0,0,0-.786,0l-2.232,2.194a.573.573,0,0,0,0,.8Z" transform="translate(-101.101 -83.984)" fill="#fff"/>
    </g>
  </g>
</svg>
