<svg xmlns="http://www.w3.org/2000/svg" width="62.783" height="62.783" viewBox="0 0 62.783 62.783">
  <g id="vuesax_bold_tick-circle" data-name="vuesax/bold/tick-circle" transform="translate(-748 -188)">
    <g id="tick-circle" transform="translate(748 188)">
      <g id="Vector" transform="translate(2 2)" fill="none">
        <path d="M29.392,0A29.392,29.392,0,1,0,58.783,29.392,29.44,29.44,0,0,0,29.392,0ZM43.441,22.632,26.776,39.3a2.2,2.2,0,0,1-3.116,0l-8.318-8.318a2.2,2.2,0,0,1,3.116-3.116l6.76,6.76L40.325,19.516a2.2,2.2,0,1,1,3.116,3.116Z" stroke="none"/>
        <path d="M 29.3916015625 2.5 C 25.77081298828125 2.5 22.25537109375 3.212162017822266 18.94292068481445 4.616691589355469 C 15.7419319152832 5.973960876464844 12.8644905090332 7.916561126708984 10.39052200317383 10.39052200317383 C 7.916561126708984 12.8644905090332 5.973960876464844 15.7419319152832 4.616691589355469 18.94292068481445 C 3.212162017822266 22.25537109375 2.5 25.77081298828125 2.5 29.3916015625 C 2.5 33.01239013671875 3.212162017822266 36.52783203125 4.616691589355469 39.84027099609375 C 5.973960876464844 43.041259765625 7.916561126708984 45.9187126159668 10.39052200317383 48.39266967773438 C 12.8644905090332 50.86664199829102 15.7419319152832 52.80924224853516 18.94292068481445 54.16651153564453 C 22.25537109375 55.57104110717773 25.77081298828125 56.283203125 29.3916015625 56.283203125 C 33.01239013671875 56.283203125 36.52783203125 55.57104110717773 39.84027099609375 54.16651153564453 C 43.041259765625 52.80924224853516 45.9187126159668 50.86664199829102 48.39266967773438 48.39266967773438 C 50.86664199829102 45.9187126159668 52.80924224853516 43.041259765625 54.16651153564453 39.84027099609375 C 55.57104110717773 36.52783203125 56.283203125 33.01239013671875 56.283203125 29.3916015625 C 56.283203125 25.77081298828125 55.57104110717773 22.25537109375 54.16651153564453 18.94292068481445 C 52.80924224853516 15.7419319152832 50.86664199829102 12.8644905090332 48.39266967773438 10.39052200317383 C 45.9187126159668 7.916561126708984 43.041259765625 5.973960876464844 39.84027099609375 4.616691589355469 C 36.52783203125 3.212162017822266 33.01239013671875 2.5 29.3916015625 2.5 M 25.21799087524414 42.44319152832031 C 23.96266174316406 42.44319152832031 22.78164291381836 41.95349884033203 21.89247131347656 41.0643424987793 L 13.57463073730469 32.74651336669922 C 11.74095153808594 30.91280174255371 11.74095153808594 27.92916107177734 13.57464218139648 26.0954704284668 C 14.45907211303711 25.21105194091797 15.64010238647461 24.72397232055664 16.90017318725586 24.72397232055664 C 18.16024017333984 24.72397232055664 19.34126281738281 25.21105194091797 20.22569274902344 26.0954704284668 L 25.21799087524414 31.0877628326416 L 38.55749130249023 17.74827194213867 C 39.44190979003906 16.86383056640625 40.62294006347656 16.37675094604492 41.88303375244141 16.37675094604492 C 43.14310073852539 16.37675094604492 44.32413101196289 16.86383056640625 45.20857238769531 17.74826049804688 C 47.01130294799805 19.55102157592773 47.02463150024414 22.52110290527344 45.23827362060547 24.36908340454102 L 45.20856094360352 24.3993034362793 L 28.54350090026855 41.06436157226562 C 27.65432167053223 41.95351409912109 26.47330093383789 42.44319152832031 25.21799087524414 42.44319152832031 M 29.3916015625 0 C 45.58637237548828 0 58.783203125 13.19682312011719 58.783203125 29.3916015625 C 58.783203125 45.58637237548828 45.58637237548828 58.783203125 29.3916015625 58.783203125 C 13.19682312011719 58.783203125 0 45.58637237548828 0 29.3916015625 C 0 13.19682312011719 13.19682312011719 0 29.3916015625 0 Z M 25.21799087524414 39.94319152832031 C 25.80582046508789 39.94319152832031 26.36426162719727 39.70805358886719 26.77575302124023 39.29656982421875 L 43.44079208374023 22.63153076171875 C 44.29314041137695 21.74978256225586 44.29314041137695 20.36838150024414 43.44079208374023 19.51602172851562 C 42.58843231201172 18.66365432739258 41.17763137817383 18.66366195678711 40.32527923583984 19.51602172851562 L 25.21799087524414 34.6233024597168 L 18.45792007446289 27.86324119567871 C 17.60557174682617 27.0108814239502 16.19477462768555 27.0108814239502 15.34241104125977 27.86324119567871 C 14.49006271362305 28.71559143066406 14.49006271362305 30.12639236450195 15.34241104125977 30.97875213623047 L 23.66024017333984 39.29656982421875 C 24.07172012329102 39.70805358886719 24.63016128540039 39.94319152832031 25.21799087524414 39.94319152832031 Z" stroke="none" fill="#a8b400"/>
      </g>
      <path id="Vector-2" data-name="Vector" d="M0,0H62.783V62.783H0Z" transform="translate(62.783 62.783) rotate(180)" fill="none" opacity="0"/>
    </g>
  </g>
</svg>
