<svg xmlns="http://www.w3.org/2000/svg" width="17.53" height="17.53" viewBox="0 0 17.53 17.53">
  <g id="vuesax_bold_call" data-name="vuesax/bold/call" transform="translate(-108 -188)">
    <g id="call" transform="translate(108 188)">
      <path id="Vector" d="M6.682,9.561,5.316,10.927a.742.742,0,0,1-1.041.007c-.081-.081-.162-.155-.244-.236a20.978,20.978,0,0,1-2.06-2.414A13.163,13.163,0,0,1,.524,5.766,6.339,6.339,0,0,1,0,3.352,3.819,3.819,0,0,1,.266,1.927,3.4,3.4,0,0,1,1.115.694,2.163,2.163,0,0,1,2.651,0a1.387,1.387,0,0,1,.6.133,1.2,1.2,0,0,1,.495.413L5.456,2.961a2.527,2.527,0,0,1,.3.517,1.167,1.167,0,0,1,.1.45,1,1,0,0,1-.155.524,2.511,2.511,0,0,1-.413.524l-.561.583a.4.4,0,0,0-.118.3.67.67,0,0,0,.022.17c.022.059.044.1.059.148a6.127,6.127,0,0,0,.687.945c.332.384.687.775,1.071,1.167.074.074.155.148.229.221A.74.74,0,0,1,6.682,9.561Z" transform="translate(1.477 1.477)" fill="#a8b400"/>
      <path id="Vector-2" data-name="Vector" d="M9.133,3.167a1.875,1.875,0,0,1-.111.628,1.8,1.8,0,0,1-.074.177,3.046,3.046,0,0,1-.5.753A3.329,3.329,0,0,1,7.236,5.6c-.007,0-.015.007-.022.007A3.73,3.73,0,0,1,5.8,5.877a6.153,6.153,0,0,1-2.407-.539A12.968,12.968,0,0,1,.849,3.876C.561,3.662.273,3.448,0,3.219L2.414.8a4.148,4.148,0,0,0,.546.354c.037.015.081.037.133.059a.51.51,0,0,0,.185.03.406.406,0,0,0,.3-.126L4.142.569A2.265,2.265,0,0,1,4.674.155.983.983,0,0,1,5.2,0a1.178,1.178,0,0,1,.45.1,2.855,2.855,0,0,1,.517.288L8.609,2.119a1.12,1.12,0,0,1,.406.473A1.515,1.515,0,0,1,9.133,3.167Z" transform="translate(6.898 10.176)" fill="#a8b400"/>
      <path id="Vector-3" data-name="Vector" d="M0,0H17.53V17.53H0Z" transform="translate(17.53 17.53) rotate(180)" fill="none" opacity="0"/>
    </g>
  </g>
</svg>
