<svg xmlns="http://www.w3.org/2000/svg" xmlns:xlink="http://www.w3.org/1999/xlink" width="268.136" height="261.907" viewBox="0 0 268.136 261.907">
  <defs>
    <clipPath id="clip-path">
      <rect id="Rectangle_179" data-name="Rectangle 179" width="268.136" height="201.601" fill="none"/>
    </clipPath>
    <clipPath id="clip-path-2">
      <rect id="Rectangle_177" data-name="Rectangle 177" width="267.353" height="196.105" fill="none"/>
    </clipPath>
    <clipPath id="clip-path-3">
      <rect id="Rectangle_178" data-name="Rectangle 178" width="155.638" height="119.841" fill="none"/>
    </clipPath>
    <clipPath id="clip-path-4">
      <rect id="Rectangle_180" data-name="Rectangle 180" width="13.614" height="15.943" fill="none"/>
    </clipPath>
    <clipPath id="clip-path-5">
      <rect id="Rectangle_184" data-name="Rectangle 184" width="234.245" height="3.415" fill="#fff"/>
    </clipPath>
  </defs>
  <g id="Group_279" data-name="Group 279" transform="translate(-61 -135.093)">
    <g id="Group_278" data-name="Group 278" transform="translate(61 135.093)">
      <g id="Group_437" data-name="Group 437">
        <g id="Group_263" data-name="Group 263">
          <g id="Group_262" data-name="Group 262" clip-path="url(#clip-path)">
            <path id="Path_565" data-name="Path 565" d="M45.949,190.977s-33.39-23.778-43-64.251S8.006,37.182,35.831,12.392,113.74,4.3,136,25.04l22.26,20.742a104.143,104.143,0,0,0,49.073,10.624c27.825-1.012,52.614,36.931,59.191,66.78s-9.107,69.31-9.107,69.31Z" transform="translate(0 0)" fill="#e8e8e7"/>
            <g id="Group_258" data-name="Group 258" transform="translate(0.522 1.449)" style="mix-blend-mode: multiply;isolation: isolate">
              <g id="Group_257" data-name="Group 257">
                <g id="Group_256" data-name="Group 256" clip-path="url(#clip-path-2)">
                  <path id="Path_566" data-name="Path 566" d="M31.1,197.969S7.831,185.321,1.76,155.979,22,99.823,24.526,85.152,21.491,52.268,44.763,38.1,109.519,29,125.2,25.455,159.1-2.37,190.464,3.195s61.72,22.26,63.238,58.685-10.118,37.438,1.518,57.168,16.189,33.39,10.624,53.626-17.2,25.8-17.2,25.8Z" transform="translate(-0.854 -2.37)" fill="#e8e8e7"/>
                </g>
              </g>
            </g>
            <g id="Group_261" data-name="Group 261" transform="translate(69.221 77.207)" style="mix-blend-mode: multiply;isolation: isolate">
              <g id="Group_260" data-name="Group 260">
                <g id="Group_259" data-name="Group 259" clip-path="url(#clip-path-3)">
                  <path id="Path_567" data-name="Path 567" d="M123.377,239.563c-1.448-1.518-22.679-44.014.965-82.969s83-34.4,106.643-19.224,35.226,34.907,37.639,55.65-13.512,53.121-13.512,53.121Z" transform="translate(-113.234 -126.298)" fill="#ddecff"/>
                </g>
              </g>
            </g>
          </g>
        </g>
        <g id="Group_274" data-name="Group 274">
          <g id="Group_438" data-name="Group 438">
            <path id="Path_568" data-name="Path 568" d="M382.878,182H355.6a3.057,3.057,0,0,1-3.057-3.057V165.328a3.057,3.057,0,0,1,3.057-3.057h27.277a3.057,3.057,0,0,1,3.057,3.057v13.617A3.057,3.057,0,0,1,382.878,182" transform="translate(-137.032 -63.074)" fill="#a8b400"/>
            <path id="Path_569" data-name="Path 569" d="M377.106,200.653l4.323-10.245h-8.645Z" transform="translate(-144.899 -74.011)" fill="#a8b400"/>
            <path id="Path_570" data-name="Path 570" d="M379.685,170.786h7.808v1.143l3.828-2.207-3.828-2.207v1.143h-7.808Z" transform="translate(-147.582 -65.112)" fill="#1a0f55"/>
            <path id="Path_571" data-name="Path 571" d="M391.321,179.484h-7.808v-1.143l-3.828,2.207,3.828,2.207v-1.143h7.808Z" transform="translate(-147.582 -69.321)" fill="#fff"/>
            <path id="Path_572" data-name="Path 572" d="M368.291,177.207l-.372.135a11.792,11.792,0,0,1-1.76-2.763,9.917,9.917,0,0,1-.622-3.2l.271-.113-1.651-3.951a3.245,3.245,0,0,0-.8.909c-.935,1.579-.842,4,.1,6.369s1.945,4.479,3.779,5.807a3.623,3.623,0,0,0,2.729.807Z" transform="translate(-140.98 -65.034)" fill="#1a0f55"/>
            <path id="Path_573" data-name="Path 573" d="M373.458,182.7l-.513.186,1.69,4.046a3,3,0,0,0,.511-.221.984.984,0,0,0,.444-1.226l-.883-2.224a.982.982,0,0,0-1.249-.561" transform="translate(-144.962 -70.99)" fill="#1a0f55"/>
            <path id="Path_574" data-name="Path 574" d="M366.774,166.143a3.875,3.875,0,0,0-.661.311l1.686,4.036.568-.237a.983.983,0,0,0,.537-1.264l-.886-2.275a.98.98,0,0,0-1.243-.57" transform="translate(-142.306 -64.557)" fill="#1a0f55"/>
            <path id="Path_575" data-name="Path 575" d="M116.917,260.037V214.505s-.506-12.268,5.944-15.81,33.643-1.644,33.643-1.644v62.986Z" transform="translate(-45.441 -76.396)" fill="#a8b400"/>
            <path id="Path_576" data-name="Path 576" d="M191.719,127.65s-1.644,13.786-2.277,14.924l-.632,1.138-3.162,2.15s6.071,8.6,13.532,9.992,6.83-3.036,6.83-3.036l-1.138-2.4,1.518-13.153s-13.533-6.2-14.671-9.612" transform="translate(-72.16 -49.617)" fill="#ff9d8c"/>
            <path id="Path_577" data-name="Path 577" d="M179.234,157.938l4.933-2.15a23.216,23.216,0,0,0,10.5,8.221c7.336,3.036,7.462,1.265,7.842,0a4.808,4.808,0,0,0-.127-2.656l.543-4.428,2.934.978,10.183,82.372-26.181,1.265Z" transform="translate(-69.667 -60.554)" fill="#f8f8f8"/>
            <path id="Path_578" data-name="Path 578" d="M218.751,157.788s1.77,4.09,3.415,13.7a326.7,326.7,0,0,1,3.541,36.931c.38,11.13.633,36.552.633,36.552h33.01c.379,0,2.656-12.521,2.656-12.521s-14.419-12.353-15.177-14.376c-.506-1.349-.253-26.35-2.4-37.859s-4.933-13.828-10.75-16.7a126.313,126.313,0,0,0-14.924-5.733" transform="translate(-85.027 -61.331)" fill="#1a0f55"/>
            <path id="Path_579" data-name="Path 579" d="M246.292,243.02a.306.306,0,0,1-.306-.306c0-.9-.161-13.752-.316-26.177s-.316-25.276-.316-26.185a.306.306,0,1,1,.611,0c0,.9.161,13.752.315,26.177s.317,25.276.317,26.185a.306.306,0,0,1-.306.306" transform="translate(-95.368 -73.87)" fill="#8593b6"/>
            <path id="Path_580" data-name="Path 580" d="M139.142,271.648l-.253,17.581h38.449s1.644-14.924,1.012-16.316-39.208-1.265-39.208-1.265" transform="translate(-53.985 -105.587)" fill="#1a0f55"/>
            <g id="Group_266" data-name="Group 266" transform="translate(120.615 79.524)" style="mix-blend-mode: multiply;isolation: isolate">
              <g id="Group_265" data-name="Group 265">
                <g id="Group_264" data-name="Group 264" clip-path="url(#clip-path-4)">
                  <path id="Path_581" data-name="Path 581" d="M204.641,143.143a20.122,20.122,0,0,0,5.379,2.89l.9-7.822s-10.165-4.656-13.614-8.121a21.2,21.2,0,0,0,7.333,13.054" transform="translate(-197.308 -130.089)" fill="#8e9bbb"/>
                </g>
              </g>
            </g>
            <path id="Path_582" data-name="Path 582" d="M220.737,83.849A27.362,27.362,0,0,1,223.9,93.967c.506,5.565,0,19.856-4.553,25.927s-14.039,4.3-18.339.633c-3.947-3.366-7.841-7.083-8.854-14.418s2.151-21.248,11.13-24.158,17.454,1.9,17.454,1.9" transform="translate(-74.618 -31.491)" fill="#ff9d8c"/>
            <path id="Path_583" data-name="Path 583" d="M236.527,280.623s-.446,0-1.125-.018c-.159-.006-.336,0-.52-.006-.654-.018-1.449-.037-2.25-.061l-.538-.018c-.795-.018-1.473.079-2.109.043h-.018c-.134-.006-.33.012-.489.018a1.187,1.187,0,0,1-.2.006,2.971,2.971,0,0,1-.837-.33,56.864,56.864,0,0,0-13.119-1.748c-5.648.024-10.716.41-11.541-.281s-1.333-7.8,3.491-8.265l5.93,2.25s13.54-1.608,18.5,2.054,4.823,6.358,4.823,6.358" transform="translate(-78.999 -104.933)" fill="#ff9d8c"/>
            <path id="Path_584" data-name="Path 584" d="M242.036,284.745c-.134-.006-.33.012-.489.018a5.741,5.741,0,0,0-.52-.7c-1.528-1.559-5.221-2.567-6.559-2.891a.23.23,0,0,1-.171-.275.235.235,0,0,1,.281-.171c1.95.471,6.089,1.675,7.262,3.649.037.055.134.245.2.367" transform="translate(-91.067 -109.116)" fill="#1a0f55"/>
            <path id="Path_585" data-name="Path 585" d="M245.813,283.742c-.178,0-.361-.009-.539-.019-1.668-3.043-4.4-3.917-7.772-5l-.2-.066a.23.23,0,1,1,.145-.436l.194.066c3.568,1.144,6.437,2.064,8.171,5.458" transform="translate(-92.177 -108.137)" fill="#1a0f55"/>
            <path id="Path_586" data-name="Path 586" d="M249.808,282.933c-.159,0-.336,0-.52-.007a13.33,13.33,0,0,0-8.793-6.518.23.23,0,0,1-.189-.268.236.236,0,0,1,.268-.183c4.565.857,8.247,4.585,9.234,6.976" transform="translate(-93.404 -107.262)" fill="#1a0f55"/>
            <path id="Path_587" data-name="Path 587" d="M191.436,93.983a11.839,11.839,0,0,0,4.743-5.059,14.4,14.4,0,0,0,1.707-7.083,21.861,21.861,0,0,1,8.853,1.012c5.312,1.581,11.636,3.731,16.948.7s5.312-7.9,2.719-9.928c-2.9-2.266-8.664-.885-8.664-.885s2.214-2.15,1.012-3.415-5.565.38-5.565.38-5.312-4.237-15.367-3.731-14.861,7.525-15.43,15.367a43.416,43.416,0,0,0,2.277,15.683Z" transform="translate(-70.866 -25.625)" fill="#1a0f55"/>
            <path id="Path_594" data-name="Path 594" d="M191.441,129.19s.506,1.96,3.415,4.237a33.712,33.712,0,0,0,7.125,3.942l.337-1.475s-4.363-1.9-6.388-3.984-2.277-3.225-2.277-3.225Z" transform="translate(-74.412 -50.019)" fill="#a8b400"/>
            <path id="Path_595" data-name="Path 595" d="M208.79,138.689a3.658,3.658,0,0,1,3.811,2.94c.163,1.2-.962,2.541-3.593,1.361-3.269-1.465-2.558-4.192-.218-4.3" transform="translate(-80.379 -53.906)" fill="#1a0f55"/>
            <path id="Path_596" data-name="Path 596" d="M191.1,90.577s1.01-7.268,5.881-12.2c9.3-9.422,17.2-8.853,17.2-8.853s-.063-1.328-3.035-2.34c-2.791-.951-4.047-.443-4.047-.443A23.418,23.418,0,0,0,193,74.515a30.284,30.284,0,0,0-7.146,16.252Z" transform="translate(-72.24 -25.888)" fill="#a8b400"/>
            <path id="Path_597" data-name="Path 597" d="M187.1,104.284c-6.09-1.032-9.486,3.731-9.739,8.537s3.239,8.46,7.9,8.095c10.5-.822,9.3-15.367,1.834-16.632" transform="translate(-68.935 -40.479)" fill="#a8b400"/>
            <path id="Path_598" data-name="Path 598" d="M185.594,117.921a4.15,4.15,0,0,1-3.743-2.231,4.624,4.624,0,0,1,.178-4.779.229.229,0,1,1,.379.258,4.162,4.162,0,0,0-.154,4.3,3.685,3.685,0,0,0,3.457,1.99,4.013,4.013,0,0,0,3.321-1.792,5.067,5.067,0,0,0,.5-4.491,3.418,3.418,0,0,0-3.411-2.243.229.229,0,0,1-.061-.454,3.833,3.833,0,0,1,3.9,2.534,5.54,5.54,0,0,1-.55,4.909,4.461,4.461,0,0,1-3.689,2l-.129,0" transform="translate(-70.459 -42.155)" fill="#fff"/>
            <path id="Path_599" data-name="Path 599" d="M159.14,156.409s-18.466,4.553-24.916,11.889-9.486,43.508-9.612,50.211,4.553,9.486,7.336,11.383S147,235.2,156.863,235.71s19.224,0,19.224,0a13.138,13.138,0,0,1,1.486-5.312c1.408-2.933,3.193-3.542,3.193-3.542l-8.474-3.035s-1.484-26.588-3.794-39.461a114.379,114.379,0,0,0-9.359-27.951" transform="translate(-48.435 -60.795)" fill="#1a0f55"/>
            <path id="Path_600" data-name="Path 600" d="M227.834,220.545a.306.306,0,0,1-.279-.429c1.73-3.9,3.523-11.567,4.532-16.944l.083-.435c.306-1.581.686-3.549-.073-4.906-.387-.693-1.261-2.2-2.1-3.64-.872-1.5-1.7-2.917-1.924-3.339-.446-.826.957-3.031,2.987-6.057.548-.818,1.022-1.524,1.3-2,.724-1.252.242-2.4-.315-3.727l-.19-.457c-.506-1.241-1.08-2.484-1.635-3.687-.227-.491-.455-.983-.679-1.478q-.445-.981-.9-1.992a116.56,116.56,0,0,0-6-12.084.306.306,0,1,1,.525-.312A117.032,117.032,0,0,1,229.2,171.2q.453,1.009.9,1.99.337.739.677,1.473c.559,1.209,1.136,2.459,1.647,3.712l.188.452c.569,1.354,1.157,2.755.281,4.269-.287.5-.765,1.21-1.32,2.036-1.058,1.578-3.261,4.862-2.956,5.426.224.414,1.045,1.827,1.915,3.322.842,1.448,1.719,2.954,2.107,3.648.868,1.553.463,3.642.139,5.32l-.083.432c-.367,1.958-2.316,11.983-4.574,17.078a.3.3,0,0,1-.279.182" transform="translate(-86.522 -61.767)" fill="#8593b6"/>
            <path id="Path_601" data-name="Path 601" d="M191.746,220.977a.3.3,0,0,1-.217-.09c-1.437-1.448-8.368-13.449-8.883-15.706-.283-1.235.427-4.369,1.112-7.4.531-2.348,1.081-4.776.925-5.433-.234-.983-2.006-2.431-3.72-3.83-2.071-1.691-4.211-3.44-4.626-5.016-.471-1.791-.068-13,.2-20.417.1-2.667.171-4.774.171-5.525a.306.306,0,0,1,.611,0c0,.763-.075,2.874-.171,5.548-.249,6.933-.666,18.535-.218,20.24.364,1.383,2.52,3.144,4.422,4.7,1.875,1.532,3.646,2.979,3.927,4.162.189.795-.326,3.072-.922,5.709-.639,2.826-1.364,6.029-1.113,7.13.506,2.212,7.311,13.988,8.722,15.41a.306.306,0,0,1-.217.521" transform="translate(-68.456 -61.124)" fill="#8593b6"/>
            <path id="Path_602" data-name="Path 602" d="M160.832,229.818a.336.336,0,0,1-.043,0,.306.306,0,0,1-.26-.345c.225-1.59,3.733-33.256,3.894-35.681a.3.3,0,0,1,.326-.285.305.305,0,0,1,.284.325c-.161,2.429-3.674,34.134-3.9,35.726a.307.307,0,0,1-.3.263" transform="translate(-62.396 -75.213)" fill="#8593b6"/>
            <path id="Path_603" data-name="Path 603" d="M181.9,259.511a.319.319,0,0,1-.115-.022c-.777-.315-4.213-1.474-8.561-2.94-8.778-2.96-20.8-7.014-23.085-8.2a.305.305,0,1,1,.282-.542c2.244,1.166,14.734,5.377,23,8.164,4.359,1.47,7.8,2.631,8.6,2.953a.306.306,0,0,1-.115.589" transform="translate(-58.294 -96.307)" fill="#8593b6"/>
            <path id="Path_604" data-name="Path 604" d="M173.5,283.781a126.452,126.452,0,0,1-25.3-2.932,77.092,77.092,0,0,1-8.774-2.485.306.306,0,0,1,.2-.577C154,282.872,174.1,283.74,177.841,282.9a.306.306,0,1,1,.134.6,24.386,24.386,0,0,1-4.477.284" transform="translate(-54.113 -107.968)" fill="#8593b6"/>
            <path id="Path_605" data-name="Path 605" d="M48.416,149.3c2.4,2.11,5.436,3.462,7.54,5.9.828.96,1.572,1.981,2.341,2.987.559.732,2.053,1.947,2.3,2.868.106.405.084-.144-.023-.55,0-.017-.013-.034-.018-.051-.21-1.864-.361-3.735-.425-5.61s.051-3.747-.066-5.614c-.166-2.634-.988-5.184-3.14-6.834-1.053-.807-2.4-1.3-3.373-2.193-.918-.85-.55-1.823-.01-2.77a9.438,9.438,0,0,0,1.314-2.779,4.906,4.906,0,0,0-.8-3.345c-1.253-2.1-4.03-4.447-6.661-4.132-2.193.262-2.442,2.792-2.411,4.556.031,1.713.2,3.422.216,5.137.017,1.762-.282,3.491-.307,5.245a9.1,9.1,0,0,0,3.529,7.185" transform="translate(-17.447 -49.421)" fill="#b7c3d1"/>
            <path id="Path_606" data-name="Path 606" d="M66.178,184.733a28.151,28.151,0,0,1,2.376-4.529,34.874,34.874,0,0,0,3.593-6.148c.886-2.272.756-4.7.844-7.094.064-1.758.586-3.511.446-5.273-.068-.845-.555-2.213-1.649-2.073-.851.109-1.356,1.164-1.684,1.837a32.349,32.349,0,0,0-1.39,3.66c-.166.482-.323.973-.532,1.438-.122.271-.509.931-.874.841-.621-.154-.057-2.691.035-3.14a41.242,41.242,0,0,0,1.26-6.677c.141-3.367-.121-7.375-3.414-9.217a2.357,2.357,0,0,0-2.77-.048,4.61,4.61,0,0,0-1.155,2.954,20.242,20.242,0,0,0,1.361,8.98c.823,2.416,1.8,4.909,1.875,7.492.069,2.487-1.225,4.691-1.832,7.039a22.259,22.259,0,0,0-.772,6.941c-.006,1.518.049,3.021.16,4.536.1,1.392.223,2.785.393,4.17.034.281.066.573.1.866-.535-1.288-.722-2.764-1.165-4.058-.787-2.3-1.7-4.554-2.457-6.866a56.966,56.966,0,0,0-2.038-5.67,13.737,13.737,0,0,0-3.149-4.809,4.594,4.594,0,0,0-3.094-1.2,8.549,8.549,0,0,0-2.127.452,2.4,2.4,0,0,1-2.287-.4c-2.36-1.814-3.078-5.068-4.826-7.364-1.3-1.714-4.4-4.634-6.669-2.766-1.206.992-1.539,2.907-1.476,4.375a10.6,10.6,0,0,0,1.843,5.066c1.02,1.638,2.336,3.1,3.274,4.788a5.086,5.086,0,0,1,.552,3.071,7.313,7.313,0,0,0,.186,3.1c1.081,3.063,4.46,2.635,7.088,2.715a19.664,19.664,0,0,1,5.557.918,6.177,6.177,0,0,1,4.051,3.988c.522,1.445.8,3.084,1.784,4.311a4.589,4.589,0,0,0,1.747,1.3c1.025.453,4.149.65,4.172.365a14.013,14.013,0,0,1,.814-2.87c.532-1.7,1.157-3.358,1.846-5" transform="translate(-12.927 -57.479)" fill="#b7c3d1"/>
            <path id="Path_607" data-name="Path 607" d="M99.726,203.789c-.271-1.751-.219-3.681-1.048-5.288a.239.239,0,0,0-.323-.084c-.594.329-.619,1.289-.668,1.877-.081.976-.021,1.954-.141,2.926a21.946,21.946,0,0,1-1.221,5.082,5.465,5.465,0,0,1-3.8,3.425,9.631,9.631,0,0,0-3.329,1.468,7.014,7.014,0,0,0-1.953,2.693,40.324,40.324,0,0,0-2.383,8.778c-.384,1.982-.7,3.973-1.178,5.935a58.366,58.366,0,0,0-1.273,5.915c-.046.1-.1.2-.139.3-.126.3.343.462.5.213a19.69,19.69,0,0,1,7.37-7.158c1.426-.727,3.319-.878,4.508-2.021a3.952,3.952,0,0,0,.894-3.377,10.618,10.618,0,0,0-1.7-4.156,3.509,3.509,0,0,1-.757-2.39,3.082,3.082,0,0,1,1.544-1.874c1.312-.815,2.846-1.182,3.921-2.356a6.438,6.438,0,0,0,1.662-3.917,27.017,27.017,0,0,0-.49-5.993" transform="translate(-31.969 -77.112)" fill="#b7c3d1"/>
            <path id="Path_608" data-name="Path 608" d="M61.681,219.41a25.228,25.228,0,0,0-5.976-5.533c-1.214-.806-4.08-2.4-4.658-.018-.339,1.394,1.026,2.766,1.924,3.64a36.832,36.832,0,0,1,4.05,3.961c-1.41.45-2.884.537-4.109,1.512-1.45,1.154-2.1,3.384-.663,4.8a9.116,9.116,0,0,0,2.5,1.534c1.135.55,2.29,1.047,3.453,1.533a29.155,29.155,0,0,1,7.2,3.831c2.182,1.751,4.233,4.712,4.407,7.569.017.273-.086.024.076-.1.089.079.388-.063.386-.223a30.136,30.136,0,0,0-2.539-12.159,50.775,50.775,0,0,0-6.051-10.345" transform="translate(-19.822 -82.638)" fill="#b7c3d1"/>
            <path id="Path_609" data-name="Path 609" d="M58.992,159c.925,1.919,1.892,3.794,2.918,5.665a45.61,45.61,0,0,1,2.714,5.512c.91,2.367,1.864,4.7,2.827,7.043a69.515,69.515,0,0,1,2.611,7.458,88.53,88.53,0,0,1,2.954,15.167,61.6,61.6,0,0,1,.308,7.839c-.056,2.044-.286,4.067-.479,6.1a36.137,36.137,0,0,0-.167,6.381c.148,1.775.43,3.885,1.808,5.152a.317.317,0,0,0,.5-.382c-1.637-3.358-1.545-7.017-1.232-10.658.172-2.009.413-4.009.48-6.026a60.338,60.338,0,0,0-.256-7.7A91.056,91.056,0,0,0,71.2,185.7a67.079,67.079,0,0,0-2.442-7.355c-.952-2.41-2.052-4.755-2.975-7.178-1.669-4.381-4.214-8.265-6.466-12.349-.117-.212-.424-.026-.322.188" transform="translate(-22.922 -61.694)" fill="#43578e"/>
            <path id="Path_610" data-name="Path 610" d="M81.9,206.547a36.264,36.264,0,0,1,1.623-9.307c.5-1.419,1.11-2.8,1.594-4.225.4-1.178,1-2.794.69-4.045a.144.144,0,0,0-.276,0c-.206.715-.183,1.5-.331,2.232a19.776,19.776,0,0,1-.559,2.108c-.472,1.474-1.089,2.888-1.623,4.338a21.472,21.472,0,0,0-1.336,8.9.11.11,0,0,0,.219,0" transform="translate(-31.727 -73.412)" fill="#43578e"/>
            <path id="Path_611" data-name="Path 611" d="M51.817,187.66c1.266,3.06,5.073,3.236,7.846,3.921a7.356,7.356,0,0,1,4.491,3.525,26.943,26.943,0,0,1,2.565,6.172.019.019,0,0,0,.037-.01c-.775-3.667-1.886-8.083-5.667-9.789-3.029-1.367-7.021-.681-8.958-3.953-.1-.161-.392-.053-.314.133" transform="translate(-20.136 -72.86)" fill="#43578e"/>
            <path id="Path_612" data-name="Path 612" d="M78.789,216.956c.15.2.289.416.444.616a1.658,1.658,0,0,0,.252.271.589.589,0,0,0,.353.18.077.077,0,0,0,.066-.115,1.212,1.212,0,0,0-.264-.241c-.09-.08-.183-.159-.271-.242-.177-.167-.339-.349-.512-.52-.033-.033-.1.012-.067.052" transform="translate(-30.622 -84.305)" fill="#43578e"/>
            <path id="Path_613" data-name="Path 613" d="M65.807,232.694a30.819,30.819,0,0,1,5.8,6.24,37.733,37.733,0,0,1,2.113,3.475,38.78,38.78,0,0,1,1.707,4.028c.042.1.23.105.216-.029-.3-2.877-2.126-5.343-3.585-7.737a18.447,18.447,0,0,0-2.715-3.283A24.1,24.1,0,0,0,66,232.439c-.149-.105-.34.138-.2.255" transform="translate(-25.559 -90.338)" fill="#43578e"/>
            <path id="Path_614" data-name="Path 614" d="M90.151,227.317c-1.052.6-1.086,2.258-1.107,3.319-.04,2.039.465,3.954-.43,5.9a45.9,45.9,0,0,1-3.115,4.849,10.556,10.556,0,0,0-1.866,5.312c0,.106.164.165.213.057a22.127,22.127,0,0,0,.794-2.653,11.133,11.133,0,0,1,1.3-2.739A44.868,44.868,0,0,0,88.9,236.84c.835-1.715.713-3.415.658-5.274-.035-1.186-.154-3.09.8-3.972.15-.138-.042-.375-.214-.278" transform="translate(-32.507 -88.348)" fill="#43578e"/>
            <path id="Path_615" data-name="Path 615" d="M74.958,259.273c-4.238-.059-12.311-.105-12.311-.105l2,14.831a6.725,6.725,0,0,0,6.664,5.827h7.3A6.725,6.725,0,0,0,85.271,274l2-14.831s-8.072.046-12.31.105" transform="translate(-24.351 -100.737)" fill="#fff"/>
            <path id="Path_616" data-name="Path 616" d="M357.695,214.325l-24.178,47.893-70.49.505,21.754-49.073Z" transform="translate(-102.237 -83.045)" fill="#1a0f55"/>
            <path id="Path_617" data-name="Path 617" d="M186.5,261.728l.013-3.833h45.632l20.995-46.037h72.978l1.834,1.77H256.657L234.84,261.689s-48.343-.087-48.343.039" transform="translate(-72.49 -82.348)" fill="#7f7e81"/>
            <path id="Path_618" data-name="Path 618" d="M347.487,255.1c-.8,2.389-5.118,4.233-9.654,4.12s-7.566-2.142-6.77-4.531,5.118-4.233,9.654-4.12,7.567,2.142,6.77,4.531" transform="translate(-128.633 -97.394)" fill="#010103"/>
            <path id="Path_619" data-name="Path 619" d="M265.385,262.927a.311.311,0,0,1-.127-.028.306.306,0,0,1-.152-.4L287,214.254h71.489a.306.306,0,1,1,0,.611H287.4l-21.736,47.882a.306.306,0,0,1-.278.179" transform="translate(-103.035 -83.279)" fill="#fff"/>
            <rect id="Rectangle_182" data-name="Rectangle 182" width="83.854" height="18.592" transform="translate(26.977 183.01)" fill="#1a0f55"/>
            <path id="Path_850" data-name="Path 850" d="M0,0H150.87V18.592H0Z" transform="translate(110.352 183.01)" fill="#1a0f55"/>
            <g id="Group_272" data-name="Group 272" transform="translate(26.977 183.009)" style="mix-blend-mode: multiply;isolation: isolate">
              <g id="Group_271" data-name="Group 271">
                <g id="Group_270" data-name="Group 270" clip-path="url(#clip-path-5)">
                  <path id="Path_620" data-name="Path 620" d="M127.984,299.375H44.13v3.415H278.375v-3.415Z" transform="translate(-44.13 -299.375)" fill="#1a0f55"/>
                </g>
              </g>
            </g>
            <rect id="Rectangle_185" data-name="Rectangle 185" width="91.569" height="4.553" transform="translate(22.499 179.342)" fill="#1a0f55"/>
            <rect id="Rectangle_186" data-name="Rectangle 186" width="150.87" height="4.553" transform="translate(114.02 179.342)" fill="#c4c4c4"/>
            <path id="Path_621" data-name="Path 621" d="M125.739,120.189h-29.6a3.317,3.317,0,0,1-3.317-3.317V102.095a3.318,3.318,0,0,1,3.317-3.318h29.6a3.317,3.317,0,0,1,3.317,3.318v14.778a3.317,3.317,0,0,1-3.317,3.317" transform="translate(-36.079 -38.394)" fill="#fff"/>
            <path id="Path_622" data-name="Path 622" d="M158.827,113.307l-11.118-4.691V118Z" transform="translate(-57.414 -42.219)" fill="#fff"/>
            <path id="Path_623" data-name="Path 623" d="M111.716,114.988a2.048,2.048,0,1,1-2.048-2.048,2.048,2.048,0,0,1,2.048,2.048" transform="translate(-41.831 -43.899)" fill="#a8b400"/>
            <path id="Path_624" data-name="Path 624" d="M123.2,114.988a2.048,2.048,0,1,1-2.048-2.048,2.048,2.048,0,0,1,2.048,2.048" transform="translate(-46.297 -43.899)" fill="#a8b400"/>
            <path id="Path_625" data-name="Path 625" d="M134.692,114.988a2.048,2.048,0,1,1-2.048-2.048,2.048,2.048,0,0,1,2.048,2.048" transform="translate(-50.762 -43.899)" fill="#a8b400"/>
            <path id="Path_626" data-name="Path 626" d="M344.693,24.409h-68.34a7.947,7.947,0,0,0-7.947,7.947V64.777a7.947,7.947,0,0,0,7.947,7.947h6.125a28.067,28.067,0,0,1-2.7,12.9,34.335,34.335,0,0,0,14.816-12.9h50.1a7.947,7.947,0,0,0,7.947-7.947V32.356a7.947,7.947,0,0,0-7.947-7.947" transform="translate(-104.328 -9.488)"/>
            <path id="Path_627" data-name="Path 627" d="M322.884,47.541h-33.9a1.686,1.686,0,1,1,0-3.373h33.9a1.686,1.686,0,1,1,0,3.373" transform="translate(-111.673 -17.168)" fill="#fff"/>
            <path id="Path_628" data-name="Path 628" d="M347.189,64.441H288.335a1.033,1.033,0,1,1,0-2.066h58.854a1.033,1.033,0,1,1,0,2.066" transform="translate(-111.673 -24.245)" fill="#e8e8e7"/>
            <path id="Path_629" data-name="Path 629" d="M347.189,73.82H288.335a1.033,1.033,0,1,1,0-2.066h58.854a1.033,1.033,0,1,1,0,2.066" transform="translate(-111.673 -27.89)" fill="#e8e8e7"/>
            <path id="Path_630" data-name="Path 630" d="M334.352,83.82H288.336a1.033,1.033,0,0,1,0-2.066h46.016a1.033,1.033,0,1,1,0,2.066" transform="translate(-111.673 -31.777)" fill="#e8e8e7"/>
            <path id="Path_631" data-name="Path 631" d="M373.159,47.541h-16.17a1.686,1.686,0,0,1,0-3.373h16.17a1.686,1.686,0,1,1,0,3.373" transform="translate(-138.104 -17.168)" fill="#fff"/>
            <path id="Path_632" data-name="Path 632" d="M305.395,162.12h-18.36a1.222,1.222,0,0,1-1.223-1.223V148.356a1.222,1.222,0,0,1,1.223-1.223h18.36a1.222,1.222,0,0,1,1.223,1.223V160.9a1.222,1.222,0,0,1-1.223,1.223" transform="translate(-111.094 -57.19)" fill="#fff"/>
            <path id="Path_633" data-name="Path 633" d="M296.391,157.084a.458.458,0,0,1-.292-.105l-9.992-8.253a.459.459,0,0,1,.584-.707l9.692,8.006,9.446-8.219a.458.458,0,0,1,.6.692l-9.739,8.474a.458.458,0,0,1-.3.112" transform="translate(-111.144 -57.408)" fill="#1a0f55"/>
            <path id="Path_634" data-name="Path 634" d="M286.4,165.836a.458.458,0,0,1-.332-.774l6.988-7.347a.458.458,0,1,1,.664.632l-6.988,7.347a.456.456,0,0,1-.332.142" transform="translate(-111.143 -61.247)" fill="#1a0f55"/>
            <path id="Path_635" data-name="Path 635" d="M314.249,165.63a.456.456,0,0,1-.325-.134l-6.96-6.979a.459.459,0,0,1,.649-.648l6.96,6.979a.459.459,0,0,1-.325.782" transform="translate(-119.263 -61.31)" fill="#1a0f55"/>
            <path id="Path_636" data-name="Path 636" d="M323.639,142.473a6.134,6.134,0,1,1-6.134-6.134,6.134,6.134,0,0,1,6.134,6.134" transform="translate(-121.028 -52.994)" fill="#a8b400"/>
          </g>
        </g>
        <text id="_85" data-name="85" transform="translate(192.165 91.733)" fill="#fff" font-size="7" font-family="Quicksand-Bold, Quicksand" font-weight="700"><tspan x="0" y="0">85</tspan></text>
        <g id="Group_276" data-name="Group 276">
          <g id="Group_275" data-name="Group 275" clip-path="url(#clip-path)">
            <path id="Path_637" data-name="Path 637" d="M397.849,136.006H362.013a2.445,2.445,0,0,1-2.445-2.445v-5.607a2.445,2.445,0,0,1,2.445-2.445h35.835a2.445,2.445,0,0,1,2.445,2.445v5.607a2.445,2.445,0,0,1-2.445,2.445" transform="translate(-139.762 -48.785)" fill="#1a0f55"/>
            <path id="Path_638" data-name="Path 638" d="M366.229,135.1a.483.483,0,0,1-.387-.172.577.577,0,0,1-.13-.43l.155-1.359c.011-.034.005-.057-.017-.069a.088.088,0,0,0-.086.017l-1.118.809a.529.529,0,0,1-.43.112.535.535,0,0,1-.361-.267.52.52,0,0,1-.061-.482.553.553,0,0,1,.318-.292l1.256-.568c.034-.012.051-.029.051-.052s-.017-.04-.051-.051l-1.256-.568a.513.513,0,0,1-.31-.327.565.565,0,0,1,.052-.447.539.539,0,0,1,.361-.267.564.564,0,0,1,.43.095l1.118.826a.085.085,0,0,0,.086.017c.023-.011.028-.034.017-.068l-.155-1.36a.558.558,0,0,1,.138-.43.528.528,0,0,1,.413-.172.511.511,0,0,1,.516.6l-.155,1.36c-.012.034-.006.057.018.068a.084.084,0,0,0,.086-.017l1.119-.809a.542.542,0,0,1,.438-.112.491.491,0,0,1,.353.267.518.518,0,0,1,.06.482.554.554,0,0,1-.318.292l-1.256.568c-.035.012-.052.029-.052.051s.017.04.052.052l1.256.568a.542.542,0,0,1,.318.326.5.5,0,0,1-.06.447.487.487,0,0,1-.353.267.577.577,0,0,1-.438-.094l-1.119-.826a.087.087,0,0,0-.086-.017c-.024.012-.029.035-.018.069l.155,1.359a.5.5,0,0,1-.128.43.559.559,0,0,1-.422.172" transform="translate(-141.391 -50.372)" fill="#fff"/>
            <path id="Path_639" data-name="Path 639" d="M378.354,135.1a.483.483,0,0,1-.387-.172.577.577,0,0,1-.13-.43l.155-1.359c.011-.034.005-.057-.017-.069a.088.088,0,0,0-.086.017l-1.118.809a.529.529,0,0,1-.43.112.535.535,0,0,1-.361-.267.52.52,0,0,1-.061-.482.553.553,0,0,1,.318-.292l1.256-.568c.034-.012.051-.029.051-.052s-.017-.04-.051-.051l-1.256-.568a.513.513,0,0,1-.31-.327.565.565,0,0,1,.052-.447.539.539,0,0,1,.361-.267.564.564,0,0,1,.43.095l1.118.826a.085.085,0,0,0,.086.017c.023-.011.028-.034.017-.068l-.155-1.36a.558.558,0,0,1,.138-.43.528.528,0,0,1,.413-.172.511.511,0,0,1,.516.6l-.155,1.36c-.012.034-.006.057.018.068a.084.084,0,0,0,.086-.017l1.119-.809a.543.543,0,0,1,.439-.112.492.492,0,0,1,.352.267.516.516,0,0,1,.06.482.554.554,0,0,1-.318.292l-1.256.568c-.035.012-.052.029-.052.051s.017.04.052.052l1.256.568a.542.542,0,0,1,.318.326.5.5,0,0,1-.06.447.488.488,0,0,1-.352.267.578.578,0,0,1-.439-.094l-1.119-.826a.087.087,0,0,0-.086-.017c-.024.012-.029.035-.018.069l.155,1.359a.5.5,0,0,1-.128.43.559.559,0,0,1-.422.172" transform="translate(-146.104 -50.372)" fill="#fff"/>
            <path id="Path_640" data-name="Path 640" d="M390.478,135.1a.483.483,0,0,1-.387-.172.577.577,0,0,1-.13-.43l.155-1.359c.011-.034.005-.057-.017-.069a.088.088,0,0,0-.086.017l-1.118.809a.529.529,0,0,1-.43.112.535.535,0,0,1-.361-.267.52.52,0,0,1-.061-.482.553.553,0,0,1,.318-.292l1.256-.568c.034-.012.051-.029.051-.052s-.017-.04-.051-.051l-1.256-.568a.513.513,0,0,1-.31-.327.565.565,0,0,1,.052-.447.539.539,0,0,1,.361-.267.564.564,0,0,1,.43.095l1.118.826a.085.085,0,0,0,.086.017c.023-.011.028-.034.017-.068l-.155-1.36a.558.558,0,0,1,.138-.43.528.528,0,0,1,.413-.172.511.511,0,0,1,.516.6l-.155,1.36c-.012.034-.006.057.018.068a.084.084,0,0,0,.086-.017l1.119-.809a.542.542,0,0,1,.438-.112.491.491,0,0,1,.353.267.518.518,0,0,1,.06.482.553.553,0,0,1-.318.292l-1.256.568c-.035.012-.052.029-.052.051s.017.04.052.052l1.256.568a.542.542,0,0,1,.318.326.5.5,0,0,1-.06.447.487.487,0,0,1-.353.267.577.577,0,0,1-.438-.094l-1.119-.826a.087.087,0,0,0-.086-.017c-.024.012-.029.035-.018.069l.155,1.359a.5.5,0,0,1-.128.43.559.559,0,0,1-.422.172" transform="translate(-150.817 -50.372)" fill="#fff"/>
            <path id="Path_641" data-name="Path 641" d="M402.6,135.1a.483.483,0,0,1-.387-.172.577.577,0,0,1-.13-.43l.155-1.359c.011-.034.005-.057-.017-.069a.088.088,0,0,0-.086.017l-1.118.809a.529.529,0,0,1-.43.112.535.535,0,0,1-.361-.267.52.52,0,0,1-.061-.482.553.553,0,0,1,.318-.292l1.256-.568c.034-.012.051-.029.051-.052s-.017-.04-.051-.051l-1.256-.568a.513.513,0,0,1-.31-.327.565.565,0,0,1,.052-.447.539.539,0,0,1,.361-.267.564.564,0,0,1,.43.095l1.118.826a.085.085,0,0,0,.086.017c.023-.011.028-.034.017-.068l-.155-1.36a.558.558,0,0,1,.138-.43.528.528,0,0,1,.413-.172.511.511,0,0,1,.516.6l-.155,1.36c-.012.034-.006.057.018.068a.084.084,0,0,0,.086-.017l1.119-.809a.542.542,0,0,1,.438-.112.491.491,0,0,1,.353.267.516.516,0,0,1,.06.482.553.553,0,0,1-.318.292l-1.256.568c-.035.012-.052.029-.052.051s.017.04.052.052l1.256.568a.542.542,0,0,1,.318.326.5.5,0,0,1-.06.447.487.487,0,0,1-.353.267.577.577,0,0,1-.438-.094l-1.119-.826a.087.087,0,0,0-.086-.017c-.024.012-.029.035-.018.069l.155,1.359a.5.5,0,0,1-.128.43.559.559,0,0,1-.422.172" transform="translate(-155.53 -50.372)" fill="#fff"/>
            <path id="Path_642" data-name="Path 642" d="M414.728,135.1a.483.483,0,0,1-.387-.172.577.577,0,0,1-.13-.43l.155-1.359c.011-.034.005-.057-.017-.069a.088.088,0,0,0-.086.017l-1.118.809a.529.529,0,0,1-.43.112.535.535,0,0,1-.361-.267.52.52,0,0,1-.061-.482.553.553,0,0,1,.318-.292l1.256-.568c.034-.012.051-.029.051-.052s-.017-.04-.051-.051l-1.256-.568a.513.513,0,0,1-.31-.327.565.565,0,0,1,.052-.447.539.539,0,0,1,.361-.267.564.564,0,0,1,.43.095l1.118.826a.085.085,0,0,0,.086.017c.023-.011.028-.034.017-.068l-.155-1.36a.558.558,0,0,1,.138-.43.528.528,0,0,1,.413-.172.511.511,0,0,1,.516.6l-.155,1.36c-.012.034-.006.057.018.068a.084.084,0,0,0,.086-.017l1.119-.809a.542.542,0,0,1,.438-.112.491.491,0,0,1,.353.267.516.516,0,0,1,.06.482.553.553,0,0,1-.318.292l-1.256.568c-.034.012-.052.029-.052.051s.018.04.052.052l1.256.568a.542.542,0,0,1,.318.326.5.5,0,0,1-.06.447.487.487,0,0,1-.353.267.577.577,0,0,1-.438-.094l-1.119-.826a.087.087,0,0,0-.086-.017c-.024.012-.029.035-.018.069l.155,1.359a.5.5,0,0,1-.128.43.559.559,0,0,1-.422.172" transform="translate(-160.242 -50.372)" fill="#a8b400"/>
          </g>
        </g>
      </g>
    </g>
    <text id="We_are_Here_to_serve_you_24_7_Hours" data-name="We are Here to serve you 
24/7 Hours" transform="translate(203 361)" fill="#1a0f55" font-size="20" font-family="BlissPro-Bold, Bliss Pro" font-weight="700"><tspan x="-108" y="0">We are Here to serve you</tspan><tspan y="0" font-size="18"> </tspan><tspan fill="#a8b400" font-size="24"><tspan x="-57" y="30">24/7 Hours</tspan></tspan></text>
  </g>
</svg>
