<svg xmlns="http://www.w3.org/2000/svg" width="67" height="71.61" viewBox="0 0 67 71.61">
  <g id="Group_371" data-name="Group 371" transform="translate(-8438.171 -1692.171)">
    <rect id="Rectangle_210" data-name="Rectangle 210" width="67" height="67" transform="translate(8438.171 1692.171)" fill="none"/>
    <path id="umbrella_1_" data-name="umbrella (1)" d="M46.1,21.3A23.239,23.239,0,0,0,27.067,2.266a21.147,21.147,0,0,0-2.9-.329V.968a.968.968,0,0,0-1.937,0v.968a21.05,21.05,0,0,0-2.9.329A23.239,23.239,0,0,0,.285,21.418c-.1.658-.174,1.317-.232,1.937a.968.968,0,0,0,1.724.7L2.3,23.49a7.746,7.746,0,0,1,11.058.155,2.808,2.808,0,0,0,.988.7h0a3.04,3.04,0,0,0,1.007.232,2.924,2.924,0,0,0,2.188-.91,7.746,7.746,0,0,1,4.667-2.324V43.03a3.389,3.389,0,0,0,6.778,0,.968.968,0,1,0-1.937,0,1.452,1.452,0,0,1-2.9,0V21.4a7.746,7.746,0,0,1,4.667,2.324,2.866,2.866,0,0,0,2.072.91h.058a3.06,3.06,0,0,0,1.007-.232h.116a2.75,2.75,0,0,0,.91-.658,7.746,7.746,0,0,1,11.058-.174l.523.562a.968.968,0,0,0,1.724-.7A11.836,11.836,0,0,0,46.1,21.3Zm-32.592-.968v1.007A9.683,9.683,0,0,0,2.3,20.992,21.3,21.3,0,0,1,18.237,4.473C15.448,7.649,13.511,13.556,13.511,20.334Zm17.332,2.343a.91.91,0,0,1-.62-.31,9.683,9.683,0,0,0-14.059,0,.871.871,0,0,1-.62.31,19.442,19.442,0,0,1-.1-2.343c0-8.927,3.544-16.461,7.746-16.461s7.746,7.533,7.746,16.461A19.442,19.442,0,0,1,30.843,22.677Zm7.843-3.311a9.683,9.683,0,0,0-5.81,1.937V20.276c0-6.72-1.937-12.626-4.725-15.8A21.3,21.3,0,0,1,44.07,20.992,9.683,9.683,0,0,0,38.687,19.365Z" transform="translate(8440.041 1697.588)" fill="#1a206d" stroke="#1a206d" stroke-width="1"/>
    <path id="investment-partnership" d="M56.258,45.427H54.284V43.611A8.425,8.425,0,0,0,57.245,37.2V36.071a6.443,6.443,0,0,0-6.435-6.435h-.947a6.443,6.443,0,0,0-6.435,6.435v1.123a8.425,8.425,0,0,0,2.961,6.415v1.818H43.721a6.909,6.909,0,0,0-6.216-3.948H35.531V39.663a8.425,8.425,0,0,0,2.961-6.415V32.123a6.443,6.443,0,0,0-6.435-6.435H31.11a6.443,6.443,0,0,0-6.435,6.435v1.123a8.425,8.425,0,0,0,2.961,6.417v1.816H25.662a6.909,6.909,0,0,0-6.216,3.948H16.779V43.611A8.425,8.425,0,0,0,19.74,37.2V36.071A6.443,6.443,0,0,0,13.3,29.636h-.948a6.443,6.443,0,0,0-6.435,6.435v1.123a8.425,8.425,0,0,0,2.961,6.415v1.818H6.909A6.909,6.909,0,0,0,0,52.336v5.922a2.961,2.961,0,0,0,2.961,2.961H60.206a2.961,2.961,0,0,0,2.961-2.961V52.336a6.909,6.909,0,0,0-6.909-6.909ZM7.9,37.2V36.071a4.467,4.467,0,0,1,4.461-4.461H13.3a4.467,4.467,0,0,1,4.461,4.461v1.123a6.459,6.459,0,0,1-3.928,5.948,2.566,2.566,0,0,1-2.013,0A6.459,6.459,0,0,1,7.9,37.2ZM14.8,44.861v.567a1.974,1.974,0,0,1-3.948,0v-.569c.067.03.126.071.2.1a4.57,4.57,0,0,0,3.553,0c.071-.03.13-.069.2-.1ZM8.883,59.245V52.336a.987.987,0,0,0-1.974,0v6.909H2.961a.987.987,0,0,1-.987-.987V52.336A4.935,4.935,0,0,1,6.909,47.4H9.432a3.912,3.912,0,0,0,6.8,0h2.623a6.82,6.82,0,0,0-.1.987v9.87a2.927,2.927,0,0,0,.182.987Zm17.766-26V32.123a4.467,4.467,0,0,1,4.461-4.461h.946a4.467,4.467,0,0,1,4.461,4.461v1.123a6.459,6.459,0,0,1-3.928,5.948,2.566,2.566,0,0,1-2.013,0A6.459,6.459,0,0,1,26.649,33.248Zm6.909,7.663v.569a1.974,1.974,0,0,1-3.948,0v-.569c.067.03.126.071.2.1a4.57,4.57,0,0,0,3.553,0C33.431,40.982,33.49,40.942,33.557,40.911ZM42.44,58.258a.987.987,0,0,1-.987.987H38.492V52.336a.987.987,0,0,0-1.974,0v6.909h-9.87V52.336a.987.987,0,0,0-1.974,0v6.909H21.714a.987.987,0,0,1-.987-.987v-9.87a4.935,4.935,0,0,1,4.935-4.935h2.523a3.912,3.912,0,0,0,6.8,0h2.523a4.935,4.935,0,0,1,4.935,4.935ZM45.4,37.2V36.071a4.467,4.467,0,0,1,4.461-4.461h.946a4.467,4.467,0,0,1,4.463,4.461v1.123a6.459,6.459,0,0,1-3.928,5.948,2.566,2.566,0,0,1-2.013,0A6.459,6.459,0,0,1,45.4,37.2Zm6.909,7.665v.567a1.974,1.974,0,1,1-3.948,0v-.569c.067.03.126.071.2.1a4.57,4.57,0,0,0,3.553,0c.071-.03.13-.069.2-.1Zm8.883,13.4a.987.987,0,0,1-.987.987H56.258V52.336a.987.987,0,0,0-1.974,0v6.909H44.233a2.927,2.927,0,0,0,.182-.987v-9.87a6.821,6.821,0,0,0-.1-.987h2.623a3.912,3.912,0,0,0,6.8,0h2.523a4.935,4.935,0,0,1,4.935,4.935Z" transform="translate(8440.088 1702.061)" fill="#a8b400" stroke="#a8b400" stroke-width="1"/>
  </g>
</svg>
