<svg xmlns="http://www.w3.org/2000/svg" width="17.53" height="17.53" viewBox="0 0 17.53 17.53">
  <g id="vuesax_bold_global" data-name="vuesax/bold/global" transform="translate(-172 -252)">
    <path id="Vector" d="M3.384,3.369c-.022,0-.052.015-.074.015A7.376,7.376,0,0,1,0,.074C0,.052.015.022.015,0a23.511,23.511,0,0,0,2.75.619A24.732,24.732,0,0,0,3.384,3.369Z" transform="translate(174.256 263.883)" fill="#a8b400"/>
    <path id="Vector-2" data-name="Vector" d="M3.428.081A7.441,7.441,0,0,1,0,3.45,22.531,22.531,0,0,0,.671.619,23.06,23.06,0,0,0,3.413,0C3.406.029,3.428.059,3.428.081Z" transform="translate(183.846 263.883)" fill="#a8b400"/>
    <path id="Vector-3" data-name="Vector" d="M3.487,3.487A23.328,23.328,0,0,0,.671,2.816,20.578,20.578,0,0,0,0,0,7.41,7.41,0,0,1,3.487,3.487Z" transform="translate(183.846 254.197)" fill="#a8b400"/>
    <path id="Vector-4" data-name="Vector" d="M3.443.022a23.036,23.036,0,0,0-.612,2.742A21.283,21.283,0,0,0,0,3.428,7.441,7.441,0,0,1,3.369,0C3.391,0,3.421.022,3.443.022Z" transform="translate(174.197 254.256)" fill="#a8b400"/>
    <path id="Vector-5" data-name="Vector" d="M5.146,3.384A23.1,23.1,0,0,0,0,3.384,20.917,20.917,0,0,1,.752.391,1.205,1.205,0,0,0,.767.229,7.671,7.671,0,0,1,2.573,0a7.609,7.609,0,0,1,1.8.229,1.224,1.224,0,0,0,.022.162A21.166,21.166,0,0,1,5.146,3.384Z" transform="translate(178.192 253.474)" fill="#a8b400"/>
    <path id="Vector-6" data-name="Vector" d="M3.384,5.146A20.673,20.673,0,0,1,.391,4.394a1.205,1.205,0,0,0-.162-.015A7.671,7.671,0,0,1,0,2.573,7.609,7.609,0,0,1,.229.774,1.224,1.224,0,0,0,.391.752,21.947,21.947,0,0,1,3.384,0,24.014,24.014,0,0,0,3.384,5.146Z" transform="translate(173.474 258.192)" fill="#a8b400"/>
    <path id="Vector-7" data-name="Vector" d="M3.384,2.573a7.671,7.671,0,0,1-.229,1.806,1.205,1.205,0,0,0-.162.015A22.222,22.222,0,0,1,0,5.146,23.1,23.1,0,0,0,0,0,20.917,20.917,0,0,1,2.993.752a.614.614,0,0,0,.162.022A7.658,7.658,0,0,1,3.384,2.573Z" transform="translate(184.672 258.192)" fill="#a8b400"/>
    <path id="Vector-8" data-name="Vector" d="M5.146,0a20.673,20.673,0,0,1-.752,2.993,1.224,1.224,0,0,0-.022.162,7.609,7.609,0,0,1-1.8.229A7.671,7.671,0,0,1,.767,3.155a1.206,1.206,0,0,0-.015-.162A21.947,21.947,0,0,1,0,0,23.067,23.067,0,0,0,2.573.162,22.956,22.956,0,0,0,5.146,0Z" transform="translate(178.192 264.672)" fill="#a8b400"/>
    <path id="Vector-9" data-name="Vector" d="M5.723,5.723a22.145,22.145,0,0,1-5.549,0,22.145,22.145,0,0,1,0-5.549,22.145,22.145,0,0,1,5.549,0A22.145,22.145,0,0,1,5.723,5.723Z" transform="translate(177.816 257.816)" fill="#a8b400"/>
    <path id="Vector-10" data-name="Vector" d="M0,0H17.53V17.53H0Z" transform="translate(172 252)" fill="none" opacity="0"/>
    <path id="Vector-11" data-name="Vector" d="M0,0H17.53V17.53H0Z" transform="translate(189.53 269.53) rotate(180)" fill="none" opacity="0"/>
  </g>
</svg>
