<svg xmlns="http://www.w3.org/2000/svg" width="72.217" height="51.924" viewBox="0 0 72.217 51.924">
  <g id="Group_726" data-name="Group 726" transform="translate(2373.108 -759.614)">
    <g id="Group_726-2" data-name="Group 726" transform="translate(-2393.108 747.978)">
      <path id="Subtraction_6" data-name="Subtraction 6" d="M42.139,49.043H11.585V45.988H19.14V29.347l2.727-.3a3.9,3.9,0,0,1,.434-.025H34.192v16.96h7.947v3.055ZM22.3,32.082c-.026,0-.052,0-.078,0l-.027,0V46.541h8.941V32.083Zm25.643-4.026H44.889V21.313h3.987L26.788,3.279,16.635,11.2V3.106H14.211a3.5,3.5,0,0,0-.76.076V13.925L4.68,21.313H8.289l-.2.257v4.958H5.032v-2.16H1.985A2.188,2.188,0,0,1,.169,22.977,1.891,1.891,0,0,1,.55,20.8L10.4,12.5V2.659c0-1.584,1.5-2.608,3.815-2.608h3.015c2.185,0,2.465,1.394,2.465,2.608V4.942L25.539.378a2.289,2.289,0,0,1,2.545.016L53.017,20.749a2.249,2.249,0,0,1,.707,1.636,1.935,1.935,0,0,1-1.753,1.983H47.944v3.688Z" transform="translate(34.386 11.636)" fill="#a8b400"/>
      <g id="Group_724" data-name="Group 724" transform="translate(20 34.053)">
        <path id="Path_535" data-name="Path 535" d="M402.779,379.349c-.367.471-1.415,1.781-2.149,2.672a2.8,2.8,0,0,0,2.463,1.415h.1l4.768-.157a1.454,1.454,0,0,0,1.415-1.467,1.411,1.411,0,0,0-1.467-1.362l-4.768.1-.367-1.205m0-1.731a1.731,1.731,0,0,1,1.64,1.177l3.457-.076h.038A3.146,3.146,0,1,1,408,385.01l-4.745.156h-.162a4.551,4.551,0,0,1-3.955-2.268,1.731,1.731,0,0,1,.156-1.979c.709-.861,1.758-2.172,2.119-2.635A1.731,1.731,0,0,1,402.779,377.618Z" transform="translate(-386.37 -362.158)" fill="#1a206d"/>
        <path id="Path_536" data-name="Path 536" d="M486.03,277.546a1.383,1.383,0,0,0-.336.041c-.314.053-.943.157-1.415.262l-.524.1c-.524.1-.838.157-3.039,3.616a.27.27,0,0,1-.209.1l-2.935-.209a1.148,1.148,0,0,0-1.258,1.1,1.191,1.191,0,0,0,1.1,1.31l2.934.209a2.54,2.54,0,0,0,2.41-1.2c.209-.314.419-.629.576-.891l1.73,4.558-1.31,1.624a12.169,12.169,0,0,0-1.834,3.458l-1.31,4.139a1.516,1.516,0,0,0,.943,1.834,1.026,1.026,0,0,0,.419.052,1.445,1.445,0,0,0,1.362-1l1.31-4.139a8.989,8.989,0,0,1,1.362-2.515s2.358-2.935,2.934-3.72a2.032,2.032,0,0,0,.262-2.044c-.21-.838-1.31-5.816-2.306-6.445a1.764,1.764,0,0,0-.869-.251m0-1.731h0a3.457,3.457,0,0,1,1.728.479l.066.04c.947.6,1.738,1.961,2.981,7.158.034.141.061.254.08.33a3.727,3.727,0,0,1-.556,3.5c-.6.814-2.8,3.557-2.964,3.758a7.263,7.263,0,0,0-1.077,1.99l-1.3,4.111-.008.025a3.17,3.17,0,0,1-3,2.179,2.649,2.649,0,0,1-1.072-.179,3.233,3.233,0,0,1-1.963-3.885q.01-.038.022-.076l1.31-4.139.008-.025a13.927,13.927,0,0,1,2.092-3.95l.037-.048.687-.851-.372-.98a4.211,4.211,0,0,1-2.112.578,4.1,4.1,0,0,1-.415-.021l-2.9-.207h-.009a2.908,2.908,0,0,1-2.7-3.1,2.87,2.87,0,0,1,2.894-2.767c.072,0,.145,0,.217.008l2.045.146c1.8-2.774,2.457-3.384,3.67-3.627l.511-.1c.487-.107,1.091-.209,1.432-.266A3.124,3.124,0,0,1,486.03,275.815Z" transform="translate(-474.579 -269.88)" fill="#1a206d"/>
        <path id="Path_537" data-name="Path 537" d="M508.59,223.3h0a3.54,3.54,0,1,1,.829-.1A3.526,3.526,0,0,1,508.589,223.3Zm0-5.346a1.807,1.807,0,0,0,0,3.615h0a1.807,1.807,0,0,0,0-3.615Z" transform="translate(-499.27 -216.224)" fill="#1a206d"/>
        <g id="Group_236" data-name="Group 236" transform="translate(12.843 5.929)">
          <path id="Path_534" data-name="Path 534" d="M394.662,280.306a2.423,2.423,0,0,0,2.483-2.7c0-3.495-4.944-4.091-7.715-3.793.512.6.98,1.79,1.662,4.433a4.6,4.6,0,0,0,3.569,2.057m0,1.731a6.3,6.3,0,0,1-4.971-2.772,1.732,1.732,0,0,1-.274-.583,13.151,13.151,0,0,0-1.3-3.739,1.731,1.731,0,0,1,1.129-2.848,14.012,14.012,0,0,1,1.492-.077,12.3,12.3,0,0,1,4.985.973,5,5,0,0,1,3.154,4.618,4.425,4.425,0,0,1-1.237,3.247A4.165,4.165,0,0,1,394.662,282.037Z" transform="translate(-387.7 -272.018)" fill="#1a206d"/>
        </g>
      </g>
      <g id="Group_726-3" data-name="Group 726" transform="translate(76.652 39.06)">
        <path id="_5378810_burn_fire_flame_games_hot_icon" data-name="5378810_burn_fire_flame_games_hot_icon" d="M175.891,127.5a.633.633,0,0,1,.456.193,13.364,13.364,0,0,1,2.059,3.027,11.816,11.816,0,0,1,1.333,5.538,6.311,6.311,0,0,0,1.282-3.448.633.633,0,0,1,1.112-.387c2.3,2.667,2.309,8.674,2.214,9.746a8.942,8.942,0,0,1-2.4,5.424,7.4,7.4,0,0,1-5.37,2.289,7.778,7.778,0,0,1-7.769-7.769c0-.007,0-.013,0-.02a5.865,5.865,0,0,1,.232-1.456,9.59,9.59,0,0,1,2.495-4.25c1.48-1.479,4.813-5.227,3.761-8.031a.633.633,0,0,1,.593-.855Zm3.007,11.2a.633.633,0,0,1-.619-.765,10.5,10.5,0,0,0-1.57-7.652c-.392,2.7-2.694,5.414-4.279,7a8.326,8.326,0,0,0-2.168,3.694l0,.009a4.6,4.6,0,0,0-.182,1.136,6.51,6.51,0,0,0,6.5,6.493c3.432,0,6.167-2.758,6.505-6.559a19.236,19.236,0,0,0-1.1-7.453,8.459,8.459,0,0,1-2.708,3.971A.633.633,0,0,1,178.9,138.7Z" transform="translate(-168.81 -127.5)" fill="#1a206d"/>
        <path id="_5378810_burn_fire_flame_games_hot_icon-2" data-name="5378810_burn_fire_flame_games_hot_icon" d="M172.043,127.5a.632.632,0,0,1,.456.193,5.944,5.944,0,0,1,1.253,2.189.633.633,0,0,1,1.095-.266c1.011,1.17,1.032,3.658.983,4.211a3.591,3.591,0,0,1-3.509,3.455,3.515,3.515,0,0,1-3.511-3.511c0-.007,0-.013,0-.02a2.743,2.743,0,0,1,.108-.679,4.247,4.247,0,0,1,1.1-1.88c1.135-1.134,1.67-2.2,1.429-2.838a.633.633,0,0,1,.593-.856Zm1.213,5.274a.633.633,0,0,1-.619-.765,3.529,3.529,0,0,0-.186-2,7.7,7.7,0,0,1-1.536,2.087,2.982,2.982,0,0,0-.778,1.324l0,.009a1.476,1.476,0,0,0-.058.358,2.248,2.248,0,0,0,2.245,2.235,2.35,2.35,0,0,0,2.247-2.3,7.91,7.91,0,0,0-.146-1.939,3.776,3.776,0,0,1-.784.869A.633.633,0,0,1,173.256,132.774Z" transform="translate(-164.543 -117.433)" fill="#1a206d"/>
      </g>
    </g>
    <path id="Path_4362" data-name="Path 4362" d="M0,0H10V10H0Z" transform="translate(-2337 775)" fill="#fff"/>
    <path id="Path_4362_-_Outline" data-name="Path 4362 - Outline" d="M2,2V8H8V2H2M0,0H10V10H0Z" transform="translate(-2337 775)" fill="#a8b400"/>
  </g>
</svg>
