<svg id="Group_29" data-name="Group 29" xmlns="http://www.w3.org/2000/svg" xmlns:xlink="http://www.w3.org/1999/xlink" width="107.45" height="81.135" viewBox="0 0 107.45 81.135">
  <defs>
    <clipPath id="clip-path">
      <rect id="Rectangle_31" data-name="Rectangle 31" width="107.45" height="81.135" fill="none"/>
    </clipPath>
    <clipPath id="clip-path-3">
      <rect id="Rectangle_16" data-name="Rectangle 16" width="46.529" height="65.768" fill="none"/>
    </clipPath>
    <clipPath id="clip-path-4">
      <rect id="Rectangle_29" data-name="Rectangle 29" width="50.83" height="61.279" fill="none"/>
    </clipPath>
  </defs>
  <g id="Group_28" data-name="Group 28" clip-path="url(#clip-path)">
    <g id="Group_27" data-name="Group 27">
      <g id="Group_26" data-name="Group 26" clip-path="url(#clip-path)">
        <path id="Path_63" data-name="Path 63" d="M103.767,98.724H15.377S-.274,86.949,4.457,71.363C7,63,14.2,61.749,16.364,55.514c3.055-8.8-2.171-15.695,5.817-24.689C32.915,18.742,60.388,20.07,75.545,24.383c30.648,8.72,43.16,40.929,28.222,74.342" transform="translate(-2.945 -17.589)" fill="#a8b400" opacity="0.23"/>
        <rect id="Rectangle_13" data-name="Rectangle 13" width="107.158" height="0.348" transform="translate(0.292 80.787)" fill="#1a0f55"/>
        <path id="Path_64" data-name="Path 64" d="M300.326,107.194l-49.678-.062a2.592,2.592,0,0,1-2.588-2.595l.083-70.208a2.592,2.592,0,0,1,2.595-2.589l49.678.062A2.592,2.592,0,0,1,303,34.4l-.083,70.208a2.592,2.592,0,0,1-2.6,2.589" transform="translate(-204.835 -26.209)" fill="#1a0f55"/>
        <path id="Path_65" data-name="Path 65" d="M290.236,107.194l-49.678-.062a2.592,2.592,0,0,1-2.588-2.595l.083-70.208a2.592,2.592,0,0,1,2.595-2.589l49.678.062a2.592,2.592,0,0,1,2.588,2.595l-.083,70.208a2.592,2.592,0,0,1-2.6,2.589" transform="translate(-196.504 -26.209)" fill="#1a0f55"/>
        <path id="Path_66" data-name="Path 66" d="M311.254,106.961c-.315,0-.61,0-.786,0l.005-.348c.522.008,2.1,0,2.115,0h0a2.337,2.337,0,0,0,1.684-.715,2.474,2.474,0,0,0,.7-1.736l.083-69.913a2.423,2.423,0,0,0-2.382-2.457l-49.972-.063v-.348l49.972.063a2.772,2.772,0,0,1,2.73,2.806l-.083,69.913a2.819,2.819,0,0,1-.8,1.979,2.682,2.682,0,0,1-1.932.82h0c-.01,0-.711,0-1.335,0" transform="translate(-216.93 -25.91)" fill="#1a0f55"/>
        <path id="Path_67" data-name="Path 67" d="M289.015,106.957l-49.972-.063a2.772,2.772,0,0,1-2.73-2.806l.083-69.913a2.819,2.819,0,0,1,.8-1.979,2.682,2.682,0,0,1,1.932-.82h0l49.972.063a2.772,2.772,0,0,1,2.73,2.806l-.015,12.21h-.349l.015-12.21a2.423,2.423,0,0,0-2.382-2.457l-49.972-.063a2.314,2.314,0,0,0-1.686.715,2.473,2.473,0,0,0-.7,1.736l-.083,69.913a2.423,2.423,0,0,0,2.382,2.457l49.972.063Z" transform="translate(-195.136 -25.91)" fill="#fff"/>
        <rect id="Rectangle_14" data-name="Rectangle 14" width="0.348" height="24.38" transform="translate(96.316 24.816)" fill="#fff"/>
        <g id="Group_22" data-name="Group 22" transform="translate(47.024 11.767)" opacity="0.36">
          <g id="Group_21" data-name="Group 21">
            <g id="Group_20" data-name="Group 20" clip-path="url(#clip-path-3)">
              <rect id="Rectangle_15" data-name="Rectangle 15" width="65.71" height="46.451" transform="translate(-0.002 65.71) rotate(-89.928)" fill="#45272a"/>
            </g>
          </g>
        </g>
        <rect id="Rectangle_17" data-name="Rectangle 17" width="65.71" height="46.451" transform="translate(45.671 76.083) rotate(-89.928)" fill="#fff"/>
        <rect id="Rectangle_18" data-name="Rectangle 18" width="8.441" height="8.441" transform="translate(54.348 27.07)" fill="#f7efe2"/>
        <rect id="Rectangle_19" data-name="Rectangle 19" width="8.441" height="8.441" transform="translate(54.348 40.183)" fill="#f7efe2"/>
        <rect id="Rectangle_20" data-name="Rectangle 20" width="8.441" height="8.441" transform="translate(54.348 53.296)" fill="#f7efe2"/>
        <path id="Path_68" data-name="Path 68" d="M349.108,163.944h-2.55v-.3h2.255v-8.293h.3Z" transform="translate(-286.172 -128.286)" fill="#1a0f55"/>
        <path id="Path_69" data-name="Path 69" d="M338.93,239.2h-4.7v-.3h4.4V230.61h.3Z" transform="translate(-275.993 -190.427)" fill="#1a0f55"/>
        <path id="Path_70" data-name="Path 70" d="M320.493,314.452H311.9v-.3H320.2v-8.293h.3Z" transform="translate(-257.556 -252.568)" fill="#1a0f55"/>
        <rect id="Rectangle_21" data-name="Rectangle 21" width="9.723" height="0.295" transform="translate(64.598 29.667)" fill="#45272a"/>
        <rect id="Rectangle_22" data-name="Rectangle 22" width="14.546" height="0.295" transform="translate(64.598 32.619)" fill="#1a0f55"/>
        <rect id="Rectangle_23" data-name="Rectangle 23" width="11.945" height="0.295" transform="translate(64.598 42.78)" fill="#1a0f55"/>
        <rect id="Rectangle_24" data-name="Rectangle 24" width="21.02" height="0.295" transform="translate(64.598 45.732)" fill="#1a0f55"/>
        <rect id="Rectangle_25" data-name="Rectangle 25" width="11.945" height="0.295" transform="translate(64.598 55.893)" fill="#1a0f55"/>
        <rect id="Rectangle_26" data-name="Rectangle 26" width="21.02" height="0.295" transform="translate(64.598 58.844)" fill="#1a0f55"/>
        <path id="Path_71" data-name="Path 71" d="M346.531,4.307V4.264a4.321,4.321,0,0,0-8.641.022V4.3l-5.668-.007a1.273,1.273,0,0,0-1.284,1.261l-.007,5.609a1.273,1.273,0,0,0,1.281,1.265l19.976.025a1.273,1.273,0,0,0,1.284-1.262l.007-5.609A1.273,1.273,0,0,0,352.2,4.314Zm-4.034.462a1.226,1.226,0,1,1,.926-.911,1.223,1.223,0,0,1-.926.911" transform="translate(-273.267 0)" fill="#a8b400"/>
        <path id="Path_72" data-name="Path 72" d="M388.956,15.3a1.425,1.425,0,0,1-1.014-.419,1.391,1.391,0,0,1,.689-2.341,1.436,1.436,0,0,1,1.335.384,1.39,1.39,0,0,1-.688,2.34,1.509,1.509,0,0,1-.321.035m0-2.446a1.149,1.149,0,0,0-.246.027,1.055,1.055,0,0,0-.793.783,1.032,1.032,0,0,0,.276.972,1.091,1.091,0,0,0,1.014.289,1.053,1.053,0,0,0,.793-.779,1.034,1.034,0,0,0-.277-.975,1.077,1.077,0,0,0-.767-.316" transform="translate(-320.01 -10.327)" fill="#fff"/>
        <rect id="Rectangle_27" data-name="Rectangle 27" width="38.196" height="7.485" transform="translate(49.84 16.318)" fill="#f7efe2"/>
        <rect id="Rectangle_28" data-name="Rectangle 28" width="0.571" height="3.951" transform="translate(52.786 18.086)" fill="#1a0f55"/>
        <path id="Path_73" data-name="Path 73" d="M315.533,107.744h-.574l-2.18-3.044v3.044H312.2v-3.951h.574l2.186,3.058v-3.058h.568Z" transform="translate(-257.804 -85.708)" fill="#1a0f55"/>
        <path id="Path_74" data-name="Path 74" d="M337.148,105.726a2.8,2.8,0,0,1-1.069-.473.871.871,0,0,1-.335-.693.927.927,0,0,1,.409-.772,1.734,1.734,0,0,1,1.063-.305,1.918,1.918,0,0,1,.8.158,1.277,1.277,0,0,1,.541.434,1.04,1.04,0,0,1,.192.605h-.574a.692.692,0,0,0-.25-.565,1.081,1.081,0,0,0-.7-.206,1.113,1.113,0,0,0-.659.17.549.549,0,0,0-.236.472.5.5,0,0,0,.224.409,2.312,2.312,0,0,0,.764.306,3.748,3.748,0,0,1,.845.306,1.241,1.241,0,0,1,.452.389.927.927,0,0,1,.147.524.9.9,0,0,1-.41.769,1.872,1.872,0,0,1-1.1.289,2.2,2.2,0,0,1-.833-.156,1.389,1.389,0,0,1-.6-.427.981.981,0,0,1-.21-.616h.574a.659.659,0,0,0,.29.566,1.3,1.3,0,0,0,.775.208,1.2,1.2,0,0,0,.693-.168.53.53,0,0,0,.241-.458.519.519,0,0,0-.223-.449,2.708,2.708,0,0,0-.809-.313" transform="translate(-277.128 -85.451)" fill="#1a0f55"/>
        <path id="Path_75" data-name="Path 75" d="M360.505,103.794v2.686a1.2,1.2,0,0,1-.385.914,1.628,1.628,0,0,1-1.037.4l-.152.005a1.72,1.72,0,0,1-1.133-.35,1.2,1.2,0,0,1-.429-.963v-2.692h.565v2.675a.859.859,0,0,0,.259.666,1.275,1.275,0,0,0,1.48,0,.857.857,0,0,0,.257-.665v-2.678Z" transform="translate(-295.099 -85.708)" fill="#1a0f55"/>
        <path id="Path_76" data-name="Path 76" d="M382.109,106.146h-1.017v1.6h-.574v-3.951h1.433a1.813,1.813,0,0,1,1.126.3,1.049,1.049,0,0,1,.394.884,1,1,0,0,1-.219.643,1.3,1.3,0,0,1-.608.41l1.017,1.677v.033h-.613Zm-1.017-.426h.877a1.053,1.053,0,0,0,.677-.2.654.654,0,0,0,.251-.538.685.685,0,0,0-.239-.563,1.079,1.079,0,0,0-.692-.2h-.874Z" transform="translate(-314.214 -85.708)" fill="#1a0f55"/>
        <path id="Path_77" data-name="Path 77" d="M402.463,106.711h-1.814l-.407,1.034h-.589l1.654-3.95h.5l1.657,3.95h-.586Zm-1.642-.426h1.472l-.738-1.848Z" transform="translate(-330.014 -85.708)" fill="#1a0f55"/>
        <path id="Path_78" data-name="Path 78" d="M428.192,107.744h-.574l-2.18-3.044v3.044h-.574v-3.951h.574l2.186,3.058v-3.058h.568Z" transform="translate(-350.832 -85.708)" fill="#1a0f55"/>
        <path id="Path_79" data-name="Path 79" d="M452.266,106.234a1.408,1.408,0,0,1-.507.967,1.766,1.766,0,0,1-1.135.34,1.592,1.592,0,0,1-1.23-.5,1.905,1.905,0,0,1-.462-1.343v-.38a2.082,2.082,0,0,1,.216-.969,1.519,1.519,0,0,1,.611-.642,1.828,1.828,0,0,1,.916-.224,1.659,1.659,0,0,1,1.107.351,1.42,1.42,0,0,1,.485.973h-.574a1.091,1.091,0,0,0-.323-.686,1.035,1.035,0,0,0-.694-.212,1.061,1.061,0,0,0-.858.369,1.588,1.588,0,0,0-.311,1.051v.383a1.63,1.63,0,0,0,.294,1.024.983.983,0,0,0,.824.38,1.173,1.173,0,0,0,.73-.2,1.054,1.054,0,0,0,.338-.685Z" transform="translate(-370.707 -85.451)" fill="#1a0f55"/>
        <path id="Path_80" data-name="Path 80" d="M474.987,105.918H473.11v1.4h2.18v.426h-2.751v-3.951h2.721v.426h-2.15v1.272h1.877Z" transform="translate(-390.201 -85.708)" fill="#1a0f55"/>
        <g id="Group_25" data-name="Group 25" transform="translate(1.99 19.48)" opacity="0.32">
          <g id="Group_24" data-name="Group 24">
            <g id="Group_23" data-name="Group 23" clip-path="url(#clip-path-4)">
              <path id="Path_81" data-name="Path 81" d="M59.621,140.869c-.006.025-.012.048-.02.073-2.569,10.489-8.25,22.369-18.18,29.86a35.6,35.6,0,0,1-3.4,2.274H34.956c-24.628-14.465-23.529-54.018-23.529-54.018,4.32-.436,9.146-2.275,14.182-4.7a25.764,25.764,0,0,1,22.366-.02c5.072,2.433,9.937,4.28,14.269,4.718a92.384,92.384,0,0,1-2.622,21.811" transform="translate(-11.42 -111.797)" fill="#d1b397"/>
            </g>
          </g>
        </g>
        <path id="Path_82" data-name="Path 82" d="M49.5,134.607c-.006.025-.012.049-.019.073-2.6,10.489-7.724,22.37-17.779,29.86a35.988,35.988,0,0,1-5.316,3.286c-.231-.116-.459-.234-.685-.356C-.451,153.586.7,112.8.7,112.8c4.374-.436,9.261-2.276,14.361-4.7a26.389,26.389,0,0,1,22.65-.019c5.137,2.432,10.064,4.279,14.451,4.717A91.261,91.261,0,0,1,49.5,134.607" transform="translate(-0.568 -87.146)" fill="#a8b400"/>
        <path id="Path_83" data-name="Path 83" d="M168.042,134.615c-.006.025-.012.049-.019.073-2.665,10.457-7.82,22.227-17.779,29.86a35.984,35.984,0,0,1-5.316,3.286c-.231-.116-.459-.234-.685-.356,2.906-5.94,20.451-44.082.982-61.934a26.354,26.354,0,0,1,11.023,2.542c5.137,2.432,10.064,4.279,14.451,4.717a91.26,91.26,0,0,1-2.656,21.811" transform="translate(-119.108 -87.153)" fill="#a8b400"/>
        <path id="Path_84" data-name="Path 84" d="M47.077,187.9l-.175-.088a32.1,32.1,0,0,1-12.665-11.8,51.945,51.945,0,0,1-6.223-15.018,75.48,75.48,0,0,1-2.274-18.4l.01-.343.341-.034c3.1-.311,6.783-1.516,11.581-3.8a21.86,21.86,0,0,1,18.8-.016c4.833,2.288,8.536,3.5,11.654,3.811l.342.034.009.343a75.589,75.589,0,0,1-2.306,18.4,52.07,52.07,0,0,1-6.244,15.018,32.165,32.165,0,0,1-12.675,11.8ZM26.515,142.946a75.637,75.637,0,0,0,2.259,17.869c2.25,8.844,7.251,20.546,18.3,26.21,11.053-5.664,16.071-17.367,18.335-26.211a75.725,75.725,0,0,0,2.29-17.868c-3.134-.373-6.823-1.6-11.563-3.844a21.082,21.082,0,0,0-18.133.016c-4.706,2.235-8.371,3.457-11.491,3.829" transform="translate(-21.251 -112.535)" fill="#fff"/>
        <path id="Path_85" data-name="Path 85" d="M25.749,215.878c-.254-.128-.48-.245-.689-.358-9.438-5.011-16.4-14.03-20.687-26.806A91.051,91.051,0,0,1,0,163.568l.312-.01c.293,9.18,2.953,40.039,24.9,51.688.208.112.43.228.682.354Z" transform="translate(0 -135.059)" fill="#1a0f55"/>
        <path id="Path_86" data-name="Path 86" d="M178.333,214.753l-.186-.25c8.412-6.267,14.375-16.284,17.721-29.773.009-.029.014-.049.019-.071a95.187,95.187,0,0,0,2.6-18.468l.311.012a95.481,95.481,0,0,1-2.609,18.528c-.006.027-.013.055-.022.082a67.017,67.017,0,0,1-6.107,16.083,42.506,42.506,0,0,1-11.728,13.856" transform="translate(-147.105 -137.234)" fill="#45272a"/>
        <path id="Path_87" data-name="Path 87" d="M60.77,111.9a52.218,52.218,0,0,1-12.375-4.42,26.041,26.041,0,0,0-10.958-2.527A26.454,26.454,0,0,0,25.879,107.5a52.29,52.29,0,0,1-12.106,4.366l-.06-.306a51.994,51.994,0,0,0,12.032-4.342,26.744,26.744,0,0,1,11.695-2.577A26.353,26.353,0,0,1,48.529,107.2a51.929,51.929,0,0,0,12.3,4.4Z" transform="translate(-11.324 -86.407)" fill="#1a0f55"/>
        <path id="Path_88" data-name="Path 88" d="M98.58,229.135,87.887,215.629l3.386-2.681,7.263,9.175,11.071-14.351,3.419,2.638Z" transform="translate(-72.573 -171.568)" fill="#fff"/>
        <path id="Path_89" data-name="Path 89" d="M442.391,369.131a4.418,4.418,0,1,1-4.418-4.418,4.418,4.418,0,0,1,4.418,4.418" transform="translate(-358.01 -301.163)" fill="#f7efe2"/>
        <path id="Path_90" data-name="Path 90" d="M445.833,380.973,443.4,377.9l.771-.61,1.654,2.089,2.52-3.267.778.6Z" transform="translate(-366.137 -310.574)" fill="#a8b400"/>
        <path id="Path_91" data-name="Path 91" d="M430.9,367.964a5.911,5.911,0,1,1,2.183-11.406l-.129.324a5.563,5.563,0,1,0,3.486,5.674l.347.031a5.878,5.878,0,0,1-5.887,5.376" transform="translate(-350.933 -294.085)" fill="#a8b400"/>
        <path id="Path_92" data-name="Path 92" d="M484.006,369.71a5.54,5.54,0,0,0-1-1.667l.263-.229a5.892,5.892,0,0,1,1.063,1.772Z" transform="translate(-398.844 -303.723)" fill="#a8b400"/>
      </g>
    </g>
  </g>
</svg>
