<svg xmlns="http://www.w3.org/2000/svg" width="48.866" height="69.759" viewBox="0 0 48.866 69.759">
  <g id="investment_1_" data-name="investment (1)" transform="translate(-11.001 -2.024)">
    <path id="Path_744" data-name="Path 744" d="M58.547,3.1a17.993,17.993,0,0,0-23.2,11.21,23.825,23.825,0,0,1,12.292-4.3c.523,0-6.861,2.489-9.757,5.373-.6.593-1.442.965-2.1,1.593C42.6,20.518,52,20.281,56.745,14.219a14.216,14.216,0,0,0,2.57-10.14,1.145,1.145,0,0,0-.768-.977ZM24.556,15.836a10.11,10.11,0,0,1,5.652,2.721C31.115,10.633,23.489,3.8,14.776,6.521a1.17,1.17,0,0,0-.8.884c-1.865,7.071,5.207,17.465,14.955,13.234a6.518,6.518,0,0,0-1.337-1.954C26.137,17.115,24.207,15.836,24.556,15.836Z" transform="translate(0.435 0)" fill="#a8b400"/>
    <path id="Path_745" data-name="Path 745" d="M35.387,13.789c.07-.256.2-.663.4-1.2a12.649,12.649,0,0,0-4.221,5.4,7.675,7.675,0,0,0-.919-1.151c-.036,1.074-.238,1.757-1.279,2.082,1.472,1.665,1.208,3.5,1.312,5.554-6.484-3.738-14.267,4.82-8.394,10.831a3.45,3.45,0,0,0,.081,4.524C15.548,43.28,11,50.036,11,56.107c0,8.477,8.222,13.955,20.932,13.955s20.932-5.477,20.932-13.955c0-6.07-4.547-12.827-11.361-16.28a3.486,3.486,0,0,0,.093-4.535c5.888-6.2-2.027-14.585-8.6-10.758a10.851,10.851,0,0,1,3.218-9.278A1.213,1.213,0,0,1,35.387,13.789ZM31.933,37.5a23.122,23.122,0,0,0-6.977,1.163,1.163,1.163,0,0,1,0-2.326H38.911a1.165,1.165,0,1,1-.128,2.326A20.807,20.807,0,0,0,31.933,37.5Z" transform="translate(0 1.721)" fill="#1a0f55"/>
  </g>
</svg>
