<svg xmlns="http://www.w3.org/2000/svg" width="50.428" height="46.45" viewBox="0 0 50.428 46.45">
  <g id="ship-svgrepo-com" transform="translate(-0.4 -21.879)">
    <g id="Group_655" data-name="Group 655" transform="translate(0 28.677)">
      <g id="Group_654" data-name="Group 654" transform="translate(0)">
        <path id="Subtraction_4" data-name="Subtraction 4" d="M1706.072-536.511a13.108,13.108,0,0,1-8.065-2.727l-.245-.193-.247.191a13.281,13.281,0,0,1-8.1,2.723,13.28,13.28,0,0,1-8.1-2.724l-.246-.19-.246.192a12.748,12.748,0,0,1-2.794,1.657l-.02.01a1.171,1.171,0,0,1-.131.056l-.016.006a12.637,12.637,0,0,1-3.389.887,1.2,1.2,0,0,1-.15.009,1.27,1.27,0,0,1-1.259-1.123,1.266,1.266,0,0,1,.266-.935,1.263,1.263,0,0,1,.849-.474,10.083,10.083,0,0,0,1.246-.226l.42-.1-3.743-11.229a1.256,1.256,0,0,1,.175-1.144,1.257,1.257,0,0,1,1.031-.527h3.184v-8.753a4.616,4.616,0,0,1,4.611-4.612h2.07v-5.411a1.272,1.272,0,0,1,1.271-1.271h5.411v-2.07a1.272,1.272,0,0,1,1.271-1.271h6.682a1.272,1.272,0,0,1,1.271,1.271v8.752h2.07a4.617,4.617,0,0,1,4.612,4.612v2.07h15.433a1.257,1.257,0,0,1,1.03.528,1.255,1.255,0,0,1,.176,1.144l-5.526,16.578.266.167a10.22,10.22,0,0,0,4.193,1.492,1.272,1.272,0,0,1,1.11,1.413,1.27,1.27,0,0,1-1.259,1.119,1.226,1.226,0,0,1-.153-.009,12.7,12.7,0,0,1-6.31-2.613l-.245-.192-.247.191A13.358,13.358,0,0,1,1706.072-536.511Zm-8.307-5.907a1.262,1.262,0,0,1,.9.372,10.57,10.57,0,0,0,7.454,2.983,10.57,10.57,0,0,0,7.454-2.983,1.266,1.266,0,0,1,.872-.371l.282-.005,4.7-14.1h-14.061l-2.2,5.856a1.278,1.278,0,0,1-1.19.825h-26.913l3.115,9.345.436-.29a10.008,10.008,0,0,0,1.548-1.265,1.262,1.262,0,0,1,.9-.372,1.263,1.263,0,0,1,.9.372,10.567,10.567,0,0,0,7.454,2.983,10.566,10.566,0,0,0,7.453-2.983A1.263,1.263,0,0,1,1697.765-542.417ZM1681.1-563.2a2.073,2.073,0,0,0-2.07,2.071v8.753h22.07l2.116-5.642v-3.11a2.073,2.073,0,0,0-2.071-2.071Zm11.293-10.022v7.482h4.141v-7.482Zm-6.682,3.342v4.14h4.14v-4.14Z" transform="translate(-1671.629 576.163)" fill="#a8b400"/>
      </g>
    </g>
    <g id="Group_657" data-name="Group 657" transform="translate(11.137 45.381)">
      <g id="Group_656" data-name="Group 656">
        <path id="Path_4295" data-name="Path 4295" d="M116.32,256.767h-3.341a1.67,1.67,0,1,0,0,3.341h3.341a1.67,1.67,0,1,0,0-3.341Z" transform="translate(-111.309 -256.767)" fill="#1a206d"/>
        <path id="Path_4295_-_Outline" data-name="Path 4295 - Outline" d="M112.979,257.767a.67.67,0,1,0,0,1.341h3.341a.67.67,0,1,0,0-1.341h-3.341m0-1h3.341a1.67,1.67,0,1,1,0,3.341h-3.341a1.67,1.67,0,1,1,0-3.341Z" transform="translate(-111.309 -256.767)" fill="#1a206d"/>
      </g>
    </g>
    <g id="Group_659" data-name="Group 659" transform="translate(21.16 45.381)">
      <g id="Group_658" data-name="Group 658">
        <path id="Path_4296" data-name="Path 4296" d="M216.49,256.767h-3.341a1.67,1.67,0,1,0,0,3.341h3.341a1.67,1.67,0,1,0,0-3.341Z" transform="translate(-211.479 -256.767)" fill="#1a206d"/>
        <path id="Path_4296_-_Outline" data-name="Path 4296 - Outline" d="M213.149,257.767a.67.67,0,1,0,0,1.341h3.341a.67.67,0,1,0,0-1.341h-3.341m0-1h3.341a1.67,1.67,0,1,1,0,3.341h-3.341a1.67,1.67,0,1,1,0-3.341Z" transform="translate(-211.479 -256.767)" fill="#1a206d"/>
      </g>
    </g>
    <g id="Group_661" data-name="Group 661" transform="translate(35.358 52.063)">
      <g id="Group_660" data-name="Group 660" transform="translate(0 0)">
        <path id="Path_4297" data-name="Path 4297" d="M358.4,323.547h-3.341a1.67,1.67,0,0,0,0,3.341H358.4a1.67,1.67,0,0,0,0-3.341Z" transform="translate(-353.386 -323.547)" fill="#1a206d"/>
        <path id="Path_4297_-_Outline" data-name="Path 4297 - Outline" d="M355.056,324.547a.67.67,0,0,0,0,1.341H358.4a.67.67,0,0,0,0-1.341h-3.341m0-1H358.4a1.67,1.67,0,0,1,0,3.341h-3.341a1.67,1.67,0,0,1,0-3.341Z" transform="translate(-353.386 -323.547)" fill="#1a206d"/>
      </g>
    </g>
    <g id="Group_663" data-name="Group 663" transform="translate(1.115 21.879)">
      <g id="Group_662" data-name="Group 662" transform="translate(0 0)">
        <path id="Path_4298" data-name="Path 4298" d="M27.563,24.41a5.687,5.687,0,0,0-9.461,0,2.342,2.342,0,0,1-3.9,0,1.67,1.67,0,1,0-2.78,1.853,5.687,5.687,0,0,0,9.461,0,2.342,2.342,0,0,1,3.9,0,1.67,1.67,0,1,0,2.78-1.853Z" transform="translate(-11.14 -21.879)" fill="#1a206d"/>
        <path id="Path_4298_-_Outline" data-name="Path 4298 - Outline" d="M22.833,21.879v1a4.615,4.615,0,0,0-3.9,2.085,3.342,3.342,0,0,1-5.566,0,.67.67,0,1,0-1.116.744,4.687,4.687,0,0,0,7.8,0,3.342,3.342,0,0,1,5.566,0,.67.67,0,1,0,1.116-.744,4.614,4.614,0,0,0-3.9-2.085v-1m0,0a5.642,5.642,0,0,1,4.73,2.53,1.67,1.67,0,1,1-2.78,1.853,2.342,2.342,0,0,0-3.9,0,5.687,5.687,0,0,1-9.461,0A1.67,1.67,0,1,1,14.2,24.41a2.342,2.342,0,0,0,3.9,0A5.644,5.644,0,0,1,22.833,21.879Z" transform="translate(-11.14 -21.879)" fill="#1a206d"/>
      </g>
    </g>
  </g>
</svg>
