<svg xmlns="http://www.w3.org/2000/svg" width="46.13" height="53.453" viewBox="0 0 46.13 53.453">
  <g id="Group_694" data-name="Group 694" transform="translate(1.235 0.582)">
    <path id="Path_644" data-name="Path 644" d="M25.915,1a2.827,2.827,0,0,1,.743.1L46.747,6.578h0A2.833,2.833,0,0,1,48.83,9.305V24.372c0,12.9-7.1,24.157-17.685,28.037a17.422,17.422,0,0,1-5.058,1.712l-.172.03-.172-.03a17.4,17.4,0,0,1-5.061-1.712C10.1,48.525,3,37.267,3,24.372V9.305A2.832,2.832,0,0,1,5.083,6.578L25.172,1.1A2.827,2.827,0,0,1,25.915,1ZM46.221,8.508,26.132,3.029a.83.83,0,0,0-.434,0L5.609,8.508a.828.828,0,0,0-.609.8V24.372c0,12.084,6.6,22.6,16.43,26.18l.064.023.06.031a15.4,15.4,0,0,0,4.361,1.513,15.423,15.423,0,0,0,4.36-1.513l.06-.032.064-.023C40.227,46.981,46.83,36.46,46.83,24.372V9.305a.828.828,0,0,0-.609-.8Z" transform="translate(-4.085 -1.432)" fill="#a8b400" stroke="#a8b400" stroke-width="0.3"/>
    <path id="Path_4299" data-name="Path 4299" d="M-10.9-1.192a.771.771,0,0,1-.268.14,1.259,1.259,0,0,1-.38.052,1.345,1.345,0,0,1-.476-.072.383.383,0,0,1-.244-.248q-.224-.7-.368-1.14t-.224-.764h-.04q-.024.472-.036.86t-.016.756q0,.368-.016.744T-13-.032a1.434,1.434,0,0,1-.272.068,2.041,2.041,0,0,1-.336.028,1.113,1.113,0,0,1-.548-.112.429.429,0,0,1-.2-.408l.232-4.08a.766.766,0,0,1,.28-.224,1.266,1.266,0,0,1,.608-.12,1.389,1.389,0,0,1,.664.132.78.78,0,0,1,.352.428q.072.192.156.44t.168.512q.084.264.164.524l.144.468h.04q.192-.672.384-1.3t.352-1.052a1.283,1.283,0,0,1,.308-.108,1.847,1.847,0,0,1,.42-.044,1.518,1.518,0,0,1,.64.116.46.46,0,0,1,.288.332q.032.16.068.492t.076.748q.04.416.08.88t.076.892q.036.428.06.784t.032.548a1.045,1.045,0,0,1-.284.116,1.652,1.652,0,0,1-.38.036,1.137,1.137,0,0,1-.512-.1.44.44,0,0,1-.224-.408q-.048-.872-.06-1.568t-.036-1.168h-.04q-.08.312-.232.784T-10.9-1.192Zm3.408.2q-.088-.2-.188-.448t-.208-.568q-.108-.32-.224-.732t-.244-.948a.991.991,0,0,1,.3-.2,1,1,0,0,1,.412-.084.855.855,0,0,1,.464.116.712.712,0,0,1,.272.436l.632,2.2h.032q.1-.272.188-.592t.18-.66q.088-.34.164-.68t.132-.668a1.333,1.333,0,0,1,.632-.152.833.833,0,0,1,.464.12.459.459,0,0,1,.184.416,2.624,2.624,0,0,1-.056.5q-.056.284-.148.6t-.216.66q-.124.34-.26.668t-.28.62q-.144.292-.28.524a5.6,5.6,0,0,1-.416.64,2.272,2.272,0,0,1-.368.388,1.047,1.047,0,0,1-.352.192,1.292,1.292,0,0,1-.368.052.752.752,0,0,1-.544-.2A.841.841,0,0,1-7.832.7q.256-.2.512-.444a5.371,5.371,0,0,0,.464-.5.755.755,0,0,1-.292-.188A1.853,1.853,0,0,1-7.488-.992Zm7.256-.2a.771.771,0,0,1-.268.14A1.259,1.259,0,0,1-.88-1a1.345,1.345,0,0,1-.476-.072A.383.383,0,0,1-1.6-1.32q-.224-.7-.368-1.14t-.224-.764h-.04q-.024.472-.036.86t-.016.756q0,.368-.016.744t-.036.832a1.434,1.434,0,0,1-.272.068,2.04,2.04,0,0,1-.336.028,1.113,1.113,0,0,1-.548-.112.429.429,0,0,1-.2-.408l.232-4.08a.766.766,0,0,1,.28-.224,1.266,1.266,0,0,1,.608-.12,1.389,1.389,0,0,1,.664.132.78.78,0,0,1,.352.428q.072.192.156.44t.168.512q.084.264.164.524l.144.468h.04q.192-.672.384-1.3t.352-1.052a1.283,1.283,0,0,1,.308-.108,1.847,1.847,0,0,1,.42-.044,1.518,1.518,0,0,1,.64.116.46.46,0,0,1,.288.332q.032.16.068.492t.076.748q.04.416.08.88t.076.892q.036.428.06.784T1.9-.088A1.045,1.045,0,0,1,1.62.028a1.652,1.652,0,0,1-.38.036,1.137,1.137,0,0,1-.512-.1A.44.44,0,0,1,.5-.448Q.456-1.32.444-2.016T.408-3.184H.368q-.08.312-.232.784T-.232-1.192ZM6.68-1.944a2.409,2.409,0,0,1-.152.884A1.792,1.792,0,0,1,6.1-.408a1.82,1.82,0,0,1-.66.4,2.551,2.551,0,0,1-.856.136,2.422,2.422,0,0,1-.856-.144,1.884,1.884,0,0,1-.66-.412A1.838,1.838,0,0,1,2.64-1.08a2.331,2.331,0,0,1-.152-.864A2.308,2.308,0,0,1,2.64-2.8a1.838,1.838,0,0,1,.428-.652,1.884,1.884,0,0,1,.66-.412,2.422,2.422,0,0,1,.856-.144,2.363,2.363,0,0,1,.856.148,1.932,1.932,0,0,1,.66.416,1.838,1.838,0,0,1,.428.652A2.285,2.285,0,0,1,6.68-1.944Zm-2.8,0a1.265,1.265,0,0,0,.188.748.61.61,0,0,0,.524.26A.587.587,0,0,0,5.108-1.2a1.311,1.311,0,0,0,.18-.744,1.269,1.269,0,0,0-.184-.74.6.6,0,0,0-.52-.26.6.6,0,0,0-.52.26A1.269,1.269,0,0,0,3.88-1.944ZM8.7-1.336a.329.329,0,0,0,.132.3.667.667,0,0,0,.372.088,1.606,1.606,0,0,0,.248-.02,1.394,1.394,0,0,0,.224-.052.978.978,0,0,1,.124.2.6.6,0,0,1,.052.26.618.618,0,0,1-.228.5,1.272,1.272,0,0,1-.8.192A1.638,1.638,0,0,1,7.74-.2a1.288,1.288,0,0,1-.38-1.04V-4.664q.088-.024.252-.052a2.067,2.067,0,0,1,.348-.028,1.023,1.023,0,0,1,.548.124.579.579,0,0,1,.2.524v.512H9.752a1.369,1.369,0,0,1,.092.22.919.919,0,0,1,.044.292.555.555,0,0,1-.124.4.449.449,0,0,1-.332.124H8.7Zm5.816-.608a2.409,2.409,0,0,1-.152.884,1.792,1.792,0,0,1-.428.652,1.82,1.82,0,0,1-.66.4,2.551,2.551,0,0,1-.856.136,2.422,2.422,0,0,1-.856-.144,1.884,1.884,0,0,1-.66-.412,1.838,1.838,0,0,1-.428-.652,2.331,2.331,0,0,1-.152-.864A2.308,2.308,0,0,1,10.48-2.8a1.838,1.838,0,0,1,.428-.652,1.884,1.884,0,0,1,.66-.412,2.422,2.422,0,0,1,.856-.144,2.363,2.363,0,0,1,.856.148,1.932,1.932,0,0,1,.66.416,1.838,1.838,0,0,1,.428.652A2.285,2.285,0,0,1,14.52-1.944Zm-2.8,0a1.265,1.265,0,0,0,.188.748.61.61,0,0,0,.524.26.587.587,0,0,0,.516-.264,1.311,1.311,0,0,0,.18-.744,1.269,1.269,0,0,0-.184-.74.6.6,0,0,0-.52-.26.6.6,0,0,0-.52.26A1.269,1.269,0,0,0,11.72-1.944ZM-9.436,8.072q-.352-.12-.64-.244a1.964,1.964,0,0,1-.5-.3,1.244,1.244,0,0,1-.324-.42,1.381,1.381,0,0,1-.116-.6,1.309,1.309,0,0,1,.524-1.088A2.339,2.339,0,0,1-9.02,5.016a4,4,0,0,1,.64.048,1.908,1.908,0,0,1,.508.148.885.885,0,0,1,.332.256.58.58,0,0,1,.12.364.64.64,0,0,1-.1.356,1,1,0,0,1-.232.252,1.809,1.809,0,0,0-.472-.2,2.367,2.367,0,0,0-.648-.084,1.068,1.068,0,0,0-.528.1.291.291,0,0,0-.168.252.233.233,0,0,0,.1.2,1.08,1.08,0,0,0,.312.14l.424.136A3.069,3.069,0,0,1-7.568,7.6a1.308,1.308,0,0,1,.4,1.012,1.331,1.331,0,0,1-.536,1.1,2.519,2.519,0,0,1-1.576.42,3.669,3.669,0,0,1-.684-.06,2.165,2.165,0,0,1-.552-.176A1.02,1.02,0,0,1-10.88,9.6a.633.633,0,0,1-.132-.4.6.6,0,0,1,.136-.4,1.037,1.037,0,0,1,.3-.252,2.176,2.176,0,0,0,.548.3,1.91,1.91,0,0,0,.708.128.95.95,0,0,0,.552-.12.346.346,0,0,0,.16-.28.274.274,0,0,0-.128-.244,1.657,1.657,0,0,0-.36-.164Zm6.768,1.92a1.854,1.854,0,0,1-.252.048,2.574,2.574,0,0,1-.356.024,1.882,1.882,0,0,1-.316-.024.538.538,0,0,1-.236-.1.462.462,0,0,1-.148-.2.849.849,0,0,1-.052-.324V7.648a.56.56,0,0,0-.164-.46.624.624,0,0,0-.4-.132,1.131,1.131,0,0,0-.3.04.868.868,0,0,0-.232.1v2.8a1.854,1.854,0,0,1-.252.048,2.574,2.574,0,0,1-.356.024,1.882,1.882,0,0,1-.316-.024.538.538,0,0,1-.236-.1.462.462,0,0,1-.148-.2.849.849,0,0,1-.052-.324V4.784l.26-.044a2.162,2.162,0,0,1,.348-.028,1.882,1.882,0,0,1,.316.024.538.538,0,0,1,.236.1.462.462,0,0,1,.148.2.849.849,0,0,1,.052.324v.784a2.827,2.827,0,0,1,.316-.092,1.965,1.965,0,0,1,.468-.052,1.792,1.792,0,0,1,1.236.4,1.5,1.5,0,0,1,.444,1.18Zm.808-4.96a.7.7,0,0,1,.2-.512.722.722,0,0,1,.54-.208.722.722,0,0,1,.54.208.7.7,0,0,1,.2.512.7.7,0,0,1-.2.512.722.722,0,0,1-.54.208.722.722,0,0,1-.54-.208A.7.7,0,0,1-1.86,5.032Zm1.424,4.96-.26.044a2.162,2.162,0,0,1-.348.028,1.882,1.882,0,0,1-.316-.024.538.538,0,0,1-.236-.1.462.462,0,0,1-.148-.2A.849.849,0,0,1-1.8,9.424V6.168l.26-.044A2.162,2.162,0,0,1-1.188,6.1a1.882,1.882,0,0,1,.316.024.538.538,0,0,1,.236.1.462.462,0,0,1,.148.2.849.849,0,0,1,.052.324Zm2.92.136A2.805,2.805,0,0,1,1.608,10a1.985,1.985,0,0,1-.7-.4,1.834,1.834,0,0,1-.472-.664A2.355,2.355,0,0,1,.26,8a2.189,2.189,0,0,1,.172-.908,1.757,1.757,0,0,1,1.092-.984,2.386,2.386,0,0,1,.736-.116,2.222,2.222,0,0,1,.772.128,1.857,1.857,0,0,1,.6.352,1.567,1.567,0,0,1,.392.536,1.642,1.642,0,0,1,.14.68.546.546,0,0,1-.152.416.76.76,0,0,1-.424.184l-1.976.3a.664.664,0,0,0,.36.4,1.412,1.412,0,0,0,.624.132,2.233,2.233,0,0,0,.62-.084,1.971,1.971,0,0,0,.476-.2.67.67,0,0,1,.216.224.587.587,0,0,1-.248.84,1.781,1.781,0,0,1-.576.184A4.057,4.057,0,0,1,2.484,10.128ZM2.26,6.984a.793.793,0,0,0-.332.064.668.668,0,0,0-.228.164.681.681,0,0,0-.132.224.922.922,0,0,0-.052.252l1.368-.224a.6.6,0,0,0-.176-.32A.589.589,0,0,0,2.26,6.984ZM6.2,9.992l-.26.044a2.162,2.162,0,0,1-.348.028,1.882,1.882,0,0,1-.316-.024.538.538,0,0,1-.236-.1.462.462,0,0,1-.148-.2.849.849,0,0,1-.052-.324V4.784L5.1,4.74a2.162,2.162,0,0,1,.348-.028,1.882,1.882,0,0,1,.316.024.538.538,0,0,1,.236.1.462.462,0,0,1,.148.2.849.849,0,0,1,.052.324Zm.688-1.936a2.394,2.394,0,0,1,.16-.916A1.749,1.749,0,0,1,7.5,6.5a1.824,1.824,0,0,1,.664-.38,2.628,2.628,0,0,1,.82-.124,1.719,1.719,0,0,1,.312.028,1.244,1.244,0,0,1,.248.068v-1.3A2.174,2.174,0,0,1,9.8,4.74a2.288,2.288,0,0,1,.36-.028,1.882,1.882,0,0,1,.316.024.538.538,0,0,1,.236.1.434.434,0,0,1,.144.2.913.913,0,0,1,.048.324V9.144a.683.683,0,0,1-.352.6,2.438,2.438,0,0,1-.6.268,3.121,3.121,0,0,1-1.78-.028,1.893,1.893,0,0,1-.7-.416,1.789,1.789,0,0,1-.432-.652A2.355,2.355,0,0,1,6.892,8.056Zm2.272-1A.865.865,0,0,0,8.5,7.3a1.067,1.067,0,0,0-.232.752,1.123,1.123,0,0,0,.216.748.777.777,0,0,0,.624.252.728.728,0,0,0,.26-.044.592.592,0,0,0,.18-.1V7.152A.733.733,0,0,0,9.164,7.056Z" transform="translate(21.267 23.448)" fill="#1a206d"/>
  </g>
</svg>
