<svg xmlns="http://www.w3.org/2000/svg" xmlns:xlink="http://www.w3.org/1999/xlink" width="178.677" height="178.677" viewBox="0 0 178.677 178.677">
  <defs>
    <clipPath id="clip-path">
      <rect id="Rectangle_314" data-name="Rectangle 314" width="167.037" height="167.035" transform="translate(0 0)" fill="none"/>
    </clipPath>
  </defs>
  <g id="Group_639" data-name="Group 639" transform="translate(-5682 191)">
    <g id="Group_638" data-name="Group 638" transform="translate(5691.884 -189.242)" clip-path="url(#clip-path)">
      <path id="Path_4268" data-name="Path 4268" d="M172.66,84.517A83.518,83.518,0,1,1,89.141,1,83.518,83.518,0,0,1,172.66,84.517" transform="translate(-5.623 -1)" fill="#5dc90a"/>
    </g>
    <rect id="Rectangle_315" data-name="Rectangle 315" width="167.037" height="167.035" transform="translate(5691.884 -189.242)" fill="none"/>
    <path id="Path_4269" data-name="Path 4269" d="M172.66,84.517a83.443,83.443,0,1,1-53.08-77.8,83.518,83.518,0,0,1,53.08,77.8" transform="translate(5686.261 -190.242)" fill="#a8b400"/>
    <path id="Path_4270" data-name="Path 4270" d="M89.9,170.551a85.276,85.276,0,1,1,85.275-85.277A85.374,85.374,0,0,1,89.9,170.551m0-167.036a81.76,81.76,0,1,0,81.76,81.76A81.854,81.854,0,0,0,89.9,3.515" transform="translate(5685.502 -191)" fill="#a8b400"/>
    <path id="Path_4271" data-name="Path 4271" d="M84.835,174.795A85.219,85.219,0,0,1,1.87,107.761a1.318,1.318,0,0,1,2.578-.552,82.295,82.295,0,0,0,105.857,60.928,1.319,1.319,0,0,1,.817,2.508,84.791,84.791,0,0,1-26.288,4.15m55.918-21.482a1.317,1.317,0,0,1-.882-2.3,82.356,82.356,0,0,0,27.163-61.056v-.337a1.317,1.317,0,0,1,1.308-1.327h.011a1.319,1.319,0,0,1,1.318,1.308v.357a85.005,85.005,0,0,1-28.033,63.016,1.329,1.329,0,0,1-.884.337M1.318,91.364A1.247,1.247,0,0,1,0,90.133v-.174a85.018,85.018,0,0,1,27.9-62.9,1.318,1.318,0,1,1,1.768,1.955A82.379,82.379,0,0,0,2.636,89.959a1.4,1.4,0,0,1-1.318,1.4M166.474,73.583a1.318,1.318,0,0,1-1.287-1.041A82.292,82.292,0,0,0,59.2,11.837a1.319,1.319,0,0,1-.823-2.506A84.932,84.932,0,0,1,167.764,71.987a1.318,1.318,0,0,1-1.011,1.566,1.26,1.26,0,0,1-.279.03" transform="translate(5682 -187.118)"/>
    <path id="Union_5" data-name="Union 5" d="M0,50.6,15.836,34.759,38.616,57.54,96.157,0l15.836,15.836L38.616,89.214Z" transform="translate(5719.347 -146.77)" fill="#fff" stroke="rgba(0,0,0,0)" stroke-miterlimit="10" stroke-width="1"/>
  </g>
</svg>
