<svg xmlns="http://www.w3.org/2000/svg" width="353.934" height="268.562" viewBox="0 0 353.934 268.562">
  <g id="undraw_personal_file_re_5joy" transform="translate(0 0)">
    <path id="Path_746" data-name="Path 746" d="M522.675,224.019c-4.312,7.429,3.808,19.945-4.376,22.545l.674-.674c4.94-6.076-5.385-18.936-.445-25.012a14.848,14.848,0,0,0,1.963-2.917" transform="translate(-381.043 -198.114)" fill="#2f2e41"/>
    <path id="Path_747" data-name="Path 747" d="M588.054,413.093a5.176,5.176,0,0,0-5.026-6.143L572.37,375.982l-5.9,7.52,11.27,28.936a5.2,5.2,0,0,0,10.315.654Z" transform="translate(-406.039 -278.204)" fill="#ffb8b8"/>
    <path id="Path_748" data-name="Path 748" d="M515.23,292.663s-.332-11.21,9.693-4.788,31.85,66.578,31.85,66.578l-10.861,5.876-24.657-55.049Z" transform="translate(-380.068 -232.542)" fill="#a8b400"/>
    <path id="Path_749" data-name="Path 749" d="M317.962,491.646l-5.006,2.139L302.324,475.5l7.388-3.157Z" transform="translate(-153.227 -239.395)" fill="#ffb6b6"/>
    <path id="Path_750" data-name="Path 750" d="M568.92,692.51l-3.59,1.534-2.089-3.115-.193,4.09-9.521,4.068a2.327,2.327,0,0,1-2.883-3.382l5.359-8.5-1.464-3.426,8.2-2.94Z" transform="translate(-397.836 -432.715)"/>
    <path id="Path_751" data-name="Path 751" d="M167.731,502.112l-5.437-.266-1.563-21.1,8.025.392Z" transform="translate(-81.463 -243.657)" fill="#ffb6b6"/>
    <path id="Path_752" data-name="Path 752" d="M401.518,706.639l-3.9-.191-.516-3.715-1.962,3.594-10.341-.505a2.327,2.327,0,0,1-1.114-4.3l8.537-5.3.182-3.722,8.661.943Z" transform="translate(-312.841 -438.624)"/>
    <path id="Path_753" data-name="Path 753" d="M739.123,629.867a1.758,1.758,0,0,0,1.245-3.058l-.125-.478a4.722,4.722,0,0,1,8.753-.166c2.129,4.856,4.873,9.877,3.584,15.26,8.677-18.853,5.443-42.17-7.8-58.1a14.406,14.406,0,0,1-7.4-9.575c1.8.59,4.014-.888,2.65-2.761-.59-.715-1.186-1.425-1.777-2.14,6.732-7.308,14.943,4,7.551,13.845a56.356,56.356,0,0,1,6.423,9.839,23.7,23.7,0,0,1,1.31-11.018c1.323-3.279,3.834-6.054,6.042-8.9a4.864,4.864,0,0,1,8.7,2.43c-2.5.848-2.791,4.473.082,4.942a24.257,24.257,0,0,1-13.183,19.275,56.572,56.572,0,0,1,3.316,23.616c1.2-9.376,11.23-11.744,18.22-15.532a2.737,2.737,0,0,1,4.2,2.732,15.8,15.8,0,0,0-2.757,1.488,2.389,2.389,0,0,0,1.151,4.35,24.119,24.119,0,0,1-21.96,14.827,58.152,58.152,0,0,1-3.8,11.442l-13.956.133c-.052-.155-.1-.314-.145-.469a15.863,15.863,0,0,0,3.859-.267c-3.456-4.014-6.119-6.053-4.184-11.721Z" transform="translate(-492.66 -374.774)" fill="#e8e8e7"/>
    <path id="Path_754" data-name="Path 754" d="M419.283,418.393s-11.056,30.131-11.235,33.5-3.332,46.012-5.976,48.489-10.729,40.888-4.439,43.892,26.138-1.973,26.138-1.973l6.9-45.372,2.345-34.76s7.141,81.855,20.091,81.614,28.732-5.172,28.732-5.172l-18.127-49.572s.256-58.687-3.945-70.523S419.283,418.393,419.283,418.393Z" transform="translate(-319.281 -297.08)" fill="#1a0f55"/>
    <path id="Path_755" data-name="Path 755" d="M473.643,266.293l-14.807,1.356-2.385,7.323s-12.392,6.805-9.648,9.9-.614,23.927-.614,23.927l.758,16.912s-.815,11.717-3.252,14.417-8.815,9.32-4.309,6.152c15.8-11.1,43.418-1.735,43.418-1.735l-3.945-24.165s8.961-39.565,5.425-42.906a13.587,13.587,0,0,0-6.873-3.764Z" transform="translate(-340.833 -222.611)" fill="#a8b400"/>
    <path id="Path_756" data-name="Path 756" d="M346.337,390a5.176,5.176,0,0,0,3.9-6.915L375.206,361.9l-9.151-2.762L343.2,380.154a5.2,5.2,0,0,0,3.14,9.847Z" transform="translate(-291.332 -269.666)" fill="#ffb8b8"/>
    <path id="Path_757" data-name="Path 757" d="M416.242,300.553s4.921-10.078-6.859-8.356-56.451,47.543-56.451,47.543l7.476,9.829,45.147-40Z" transform="translate(-297.812 -235.639)" fill="#a8b400"/>
    <path id="Path_758" data-name="Path 758" d="M393.332,272.723l-46.7,59.834a4.972,4.972,0,0,0,.859,6.967c10.846,26.335,43.294,45.863,81.465,63.588a4.968,4.968,0,0,0,6.967-.859l46.7-59.834a4.968,4.968,0,0,0-.859-6.967c-32.032-18.087-59.564-39.043-81.465-63.588a4.971,4.971,0,0,0-6.967.859Z" transform="translate(-294.086 -224.903)" fill="#e6e6e6"/>
    <path id="Path_759" data-name="Path 759" d="M483.6,344.83l-14.216,18.213a53.219,53.219,0,0,1-74.48,9.179l-39.841-31.1a2.828,2.828,0,0,1-.492-3.964L399.7,279.341a2.828,2.828,0,0,1,3.965-.485c20.154,26.024,47.131,46.276,79.446,62.012A2.825,2.825,0,0,1,483.6,344.83Z" transform="translate(-298.34 -228.675)" fill="#fff"/>
    <path id="Path_760" data-name="Path 760" d="M428.238,338.417l-9.258,11.861a1.5,1.5,0,1,1-2.372-1.852l9.259-11.861a1.5,1.5,0,1,1,2.372,1.852Z" transform="translate(-329.923 -257.933)" fill="#ccc"/>
    <path id="Path_761" data-name="Path 761" d="M452.07,320.576l-20.332,26.048a1.5,1.5,0,0,1-2.372-1.852L449.7,318.724a1.5,1.5,0,1,1,2.372,1.852Z" transform="translate(-336.389 -248.891)" fill="#ccc"/>
    <circle id="Ellipse_33" data-name="Ellipse 33" cx="9.911" cy="9.911" r="9.911" transform="translate(71.093 95.312)" fill="#a8b400"/>
    <path id="Path_762" data-name="Path 762" d="M449.589,362.449l-24.972,31.993a1.514,1.514,0,0,1-2.372-1.852L447.217,360.6a1.514,1.514,0,0,1,2.372,1.852Z" transform="translate(-332.828 -270.177)" fill="#ccc"/>
    <path id="Path_763" data-name="Path 763" d="M472.282,347.638l-34.855,44.654a1.514,1.514,0,0,1-2.372-1.852l34.855-44.654a1.514,1.514,0,0,1,2.372,1.852Z" transform="translate(-339.321 -262.67)" fill="#ccc"/>
    <path id="Path_764" data-name="Path 764" d="M482.192,387.9,457.22,419.891a1.514,1.514,0,0,1-2.372-1.852l24.972-31.993a1.514,1.514,0,0,1,2.372,1.852Z" transform="translate(-349.353 -283.075)" fill="#ccc"/>
    <path id="Path_765" data-name="Path 765" d="M549.192,395.9,524.22,427.891a1.514,1.514,0,0,1-2.372-1.852l24.972-31.993a1.514,1.514,0,0,1,2.372,1.852Z" transform="translate(-383.31 -287.13)" fill="#a8b400"/>
    <path id="Path_766" data-name="Path 766" d="M504.885,373.087l-34.855,44.654a1.514,1.514,0,0,1-2.372-1.852l34.855-44.654a1.514,1.514,0,0,1,2.372,1.852Z" transform="translate(-355.845 -275.569)" fill="#ccc"/>
    <path id="Path_767" data-name="Path 767" d="M460.126,212.847a14.708,14.708,0,1,0,25.3-10.2l-.071-.071c-.118-.124-.235-.247-.359-.365l0,0a.006.006,0,0,1,0,0c-.153-.141-.306-.282-.465-.418a14.7,14.7,0,0,0-24.4,11.06Z" transform="translate(-352.141 -188.068)" fill="#2f2e41"/>
    <circle id="Ellipse_34" data-name="Ellipse 34" cx="12.333" cy="12.333" r="12.333" transform="translate(113.984 15.849)" fill="#ffb8b8"/>
    <path id="Path_768" data-name="Path 768" d="M470.249,222.1a16.577,16.577,0,0,1,4.336-15.146,13.907,13.907,0,0,1,14.523-2.815c.31.125.62.262.925.405l.142.067v.021l.082.059a.473.473,0,0,0,.2.112A7.6,7.6,0,0,1,496.2,207.2c1.912,2.074,2.812,5.426,2.536,9.438l-.009.125-.107.067a42.147,42.147,0,0,1-4.5,2.479c-5.414,2.546-10.357,3.018-15.108,1.44l-.087-.029-1.994-3.342c-.409,2.3-.191,9.95-2.54,10.364l-4.093-5.408Z" transform="translate(-357.08 -190.636)" fill="#2f2e41"/>
    <path id="Path_769" data-name="Path 769" d="M402.623,219.925c4.2-2.166-1.2-10.028-.116-14.625s8.9-6.075,9.393-10.772,1.668-9.541,4.767-13.1c1.98-2.277,4.9-3.959,7.9-3.673a7.106,7.106,0,0,1,6.228,8.775,2.184,2.184,0,0,1,3.617.429,2.216,2.216,0,0,1-1.856,2.819c-1.657,2.047-3.555,4.219-6.151,4.632a2.8,2.8,0,0,1-2.387-.551,1.453,1.453,0,0,1,.066-2.2c-3.263,1.3-5.176,4.824-5.66,8.3s.186,7,.627,10.479.632,7.147-.734,10.381a13.219,13.219,0,0,1-9.383,7.439,17.993,17.993,0,0,1-12.042-1.914,28.468,28.468,0,0,1-9.23-8.2C391.972,221.2,397.93,222.348,402.623,219.925Z" transform="translate(-315.416 -177.719)" fill="#2f2e41"/>
    <path id="Path_770" data-name="Path 770" d="M479.675,227.019c-4.312,7.429,3.808,19.945-4.376,22.545l.674-.674c4.94-6.076-5.385-18.936-.445-25.012a14.845,14.845,0,0,0,1.963-2.917" transform="translate(-359.249 -199.634)" fill="#2f2e41"/>
    <path id="Path_771" data-name="Path 771" d="M471.8,223.09a25.087,25.087,0,0,1,19.314-16.785c.018-.006.076-.029.153-.065.047-.029.106-.059.165-.088-.176-.1-.347-.188-.524-.277l0,0a.006.006,0,0,1,0,0c-.153-.141-.306-.282-.465-.418l-.447.018S474.282,202.982,471.8,223.09Z" transform="translate(-358.06 -191.734)" fill="#a8b400"/>
    <path id="Path_772" data-name="Path 772" d="M241.165,720.488a.585.585,0,0,0,.587.587h352.76a.587.587,0,0,0,0-1.174H241.752a.585.585,0,0,0-.587.587Z" transform="translate(-241.165 -452.512)" fill="#ccc"/>
  </g>
</svg>
