<svg xmlns="http://www.w3.org/2000/svg" width="47.384" height="47.383" viewBox="0 0 47.384 47.383">
  <g id="Group_687" data-name="Group 687" transform="translate(1498 -1039)">
    <path id="renewable-house" d="M4.452,34.118a.746.746,0,0,1-1.292.748A23.075,23.075,0,0,1,.143,20.843a.754.754,0,0,1,.012-.115A23.191,23.191,0,0,1,25.581.147.747.747,0,0,1,25.7.159,23.075,23.075,0,0,1,36.91,4.5l-.483-1.694A.748.748,0,0,1,37.865,2.4L39,6.378a.748.748,0,0,1-.746.952l-4.085.147a.746.746,0,1,1-.053-1.491L36.3,5.908A21.586,21.586,0,0,0,25.486,1.637h0a21.7,21.7,0,0,0-23.853,19.3h0A21.6,21.6,0,0,0,4.452,34.118ZM10,43.626a.748.748,0,0,1-1.438.409L7.424,40.054a.748.748,0,0,1,.746-.952l4.085-.147a.746.746,0,0,1,.053,1.491l-2.183.078a21.55,21.55,0,0,0,10.814,4.271h0a21.7,21.7,0,0,0,23.852-19.3h0a21.6,21.6,0,0,0-2.818-13.176.746.746,0,1,1,1.292-.748,23.073,23.073,0,0,1,3.017,14.023.742.742,0,0,1-.012.115A23.191,23.191,0,0,1,20.843,46.285a.747.747,0,0,1-.116-.012A23.11,23.11,0,0,1,9.514,41.933Z" transform="translate(-1497.521 1039.475)" fill="#a8b400" fill-rule="evenodd"/>
    <path id="renewable-house_-_Outline" data-name="renewable-house - Outline" d="M21.74,44.907A23.2,23.2,0,0,0,44.768,24.2a.742.742,0,0,0,.012-.115,23.073,23.073,0,0,0-3.017-14.023.746.746,0,1,0-1.292.748A21.6,21.6,0,0,1,43.29,23.988h0a21.7,21.7,0,0,1-23.852,19.3h0A21.55,21.55,0,0,1,8.623,39.023l2.183-.078a.746.746,0,0,0-.053-1.491L6.668,37.6a.748.748,0,0,0-.746.952l1.136,3.982A.748.748,0,1,0,8.5,42.125l-.483-1.694a23.11,23.11,0,0,0,11.213,4.341.746.746,0,0,0,.116.012,23.421,23.421,0,0,0,2.4.123M2.305,33.737a.747.747,0,0,0,.645-1.121A21.6,21.6,0,0,1,.132,19.441h0A21.7,21.7,0,0,1,21.685.015a21.968,21.968,0,0,1,2.3.121h0A21.586,21.586,0,0,1,34.8,4.407l-2.183.078a.746.746,0,0,0,.053,1.491l4.085-.147a.748.748,0,0,0,.746-.952L36.364.9a.748.748,0,0,0-1.438.409L35.409,3A23.075,23.075,0,0,0,24.2-1.342a.748.748,0,0,0-.116-.012A23.191,23.191,0,0,0-1.345,19.227a.755.755,0,0,0-.012.115A23.075,23.075,0,0,0,1.659,33.365a.746.746,0,0,0,.647.372M21.74,45.406a24.03,24.03,0,0,1-2.432-.124,1.251,1.251,0,0,1-.151-.016A23.606,23.606,0,0,1,8.874,41.629l.1.359a1.247,1.247,0,0,1-1.2,1.588,1.251,1.251,0,0,1-1.2-.905L5.443,38.689A1.247,1.247,0,0,1,6.666,37.1l4.07-.146h.045a1.245,1.245,0,0,1,.043,2.489l-.7.025A21.042,21.042,0,0,0,19.47,42.8l.02,0a21.556,21.556,0,0,0,2.247.118,21.2,21.2,0,0,0,21.055-18.96l0-.02a21.106,21.106,0,0,0-2.753-12.872A1.245,1.245,0,1,1,42.2,9.815a23.572,23.572,0,0,1,3.083,14.308,1.247,1.247,0,0,1-.016.15,23.864,23.864,0,0,1-.984,4.661,23.564,23.564,0,0,1-4.427,8.02,23.8,23.8,0,0,1-10.122,7.057A23.5,23.5,0,0,1,21.74,45.406ZM2.305,34.236a1.25,1.25,0,0,1-1.078-.621A23.574,23.574,0,0,1-1.856,19.307a1.259,1.259,0,0,1,.016-.15A23.865,23.865,0,0,1-.856,14.5a23.563,23.563,0,0,1,4.427-8.02A23.8,23.8,0,0,1,13.693-.582a23.492,23.492,0,0,1,7.989-1.395,24.036,24.036,0,0,1,2.433.124,1.251,1.251,0,0,1,.151.016A23.568,23.568,0,0,1,34.549,1.8l-.1-.359a1.247,1.247,0,0,1,1.2-1.588,1.251,1.251,0,0,1,1.2.906L37.98,4.74a1.247,1.247,0,0,1-1.223,1.588l-4.07.146h-.044A1.245,1.245,0,0,1,32.6,3.986l.7-.025A21.081,21.081,0,0,0,23.953.634l-.02,0A21.554,21.554,0,0,0,21.685.514,21.2,21.2,0,0,0,.631,19.473l0,.02A21.106,21.106,0,0,0,3.382,32.366a1.245,1.245,0,0,1-1.076,1.871Z" transform="translate(-1496.02 1040.977)" fill="#a8b400"/>
    <g id="Group_675" data-name="Group 675" transform="translate(-1485.528 1049.726)">
      <path id="Path_195" data-name="Path 195" d="M823.239,651.2a1.883,1.883,0,0,1-1-.286c-9.6-5.978-9.734-13.787-9.834-19.49q-.009-.482-.018-.948a1.887,1.887,0,0,1,1.885-1.93c.056,0,.114,0,.17.008.125.011.261.017.406.017a10.915,10.915,0,0,0,7.095-3.058,1.533,1.533,0,0,1,1.108-.458,2,2,0,0,1,1.17.408c2.579,1.928,7.108,2.315,8.435,2.388a1.879,1.879,0,0,1,1.773,1.688c1.556,15.029-8.376,20.531-10.382,21.482A1.9,1.9,0,0,1,823.239,651.2Zm-8.433-20.223q0,.2.007.4c.094,5.384.212,12.072,8.457,17.335a16.175,16.175,0,0,0,5.418-4.653c2.739-3.673,3.878-8.328,3.389-13.841-2.041-.147-6.087-.675-8.9-2.557a13.451,13.451,0,0,1-8.325,3.311Z" transform="translate(-812.388 -625.055)" fill="#a8b400"/>
      <path id="Union_8" data-name="Union 8" d="M9.023-1a1.426,1.426,0,0,1,.893.314,1.432,1.432,0,0,1,.224,2.012L4.434,8.459a1.433,1.433,0,0,1-2.349-.1L-.76,4.089A1.425,1.425,0,0,1-1,3.3,1.432,1.432,0,0,1,1.623,2.5L3.4,5.167,7.9-.463A1.429,1.429,0,0,1,9.023-1Z" transform="translate(7.268 9.304)" fill="#1a206d"/>
    </g>
  </g>
</svg>
