<svg xmlns="http://www.w3.org/2000/svg" width="42.961" height="50.769" viewBox="0 0 42.961 50.769">
  <g id="Group_697" data-name="Group 697" transform="translate(1898 -1211.274)">
    <g id="Group_678" data-name="Group 678" transform="translate(-4 -4.987)">
      <path id="Path_4321" data-name="Path 4321" d="M40.566,42.222h21.3a1.065,1.065,0,0,0,0-2.13h-21.3a1.065,1.065,0,0,0,0,2.13m0-7.1h21.3a1.065,1.065,0,0,0,0-2.13h-21.3a1.065,1.065,0,0,0,0,2.13m0,14.2h21.3a1.065,1.065,0,0,0,0-2.13h-21.3a1.065,1.065,0,0,0,0,2.13" transform="translate(-1923.545 1192.673)" fill="#a8b400"/>
      <path id="Path_297" data-name="Path 297" d="M63.454,71.269H31.5a5.51,5.51,0,0,1-5.5-5.5V26a5.511,5.511,0,0,1,5.5-5.5H63.455a5.511,5.511,0,0,1,5.5,5.5V65.765A5.51,5.51,0,0,1,63.454,71.269ZM31.5,22.989A3.019,3.019,0,0,0,28.488,26v39.76A3.019,3.019,0,0,0,31.5,68.78h31.95a3.019,3.019,0,0,0,3.016-3.015V26a3.019,3.019,0,0,0-3.016-3.016Z" transform="translate(-1919.999 1195.761)" fill="#a8b400"/>
    </g>
    <path id="validate-svgrepo-com" d="M8.462,16.923a2.8,2.8,0,0,1-2.28-1.676,6.251,6.251,0,0,0-.356-.531,5.977,5.977,0,0,0-.641.163c-.793.232-1.99.582-2.857-.284s-.516-2.064-.284-2.857a5.977,5.977,0,0,0,.163-.641,6.251,6.251,0,0,0-.531-.356A2.8,2.8,0,0,1,0,8.462a2.8,2.8,0,0,1,1.676-2.28,6.251,6.251,0,0,0,.531-.356,5.977,5.977,0,0,0-.163-.641c-.232-.793-.582-1.99.284-2.857s2.064-.516,2.857-.284a5.978,5.978,0,0,0,.641.163,6.251,6.251,0,0,0,.356-.531A2.8,2.8,0,0,1,8.462,0a2.8,2.8,0,0,1,2.28,1.676,6.251,6.251,0,0,0,.356.531,5.977,5.977,0,0,0,.641-.163c.793-.232,1.99-.582,2.857.284s.516,2.064.284,2.857a5.977,5.977,0,0,0-.163.641,6.251,6.251,0,0,0,.531.356,2.8,2.8,0,0,1,1.676,2.28,2.8,2.8,0,0,1-1.676,2.28,6.251,6.251,0,0,0-.531.356,5.977,5.977,0,0,0,.163.641c.232.793.582,1.99-.284,2.857s-2.064.516-2.857.284a5.978,5.978,0,0,0-.641-.163,6.251,6.251,0,0,0-.356.531A2.8,2.8,0,0,1,8.462,16.923ZM5.935,12.711a1.62,1.62,0,0,1,1.2.47,5.542,5.542,0,0,1,.744,1.006c.149.239.46.736.584.736s.435-.5.584-.736a5.541,5.541,0,0,1,.744-1.006A2.4,2.4,0,0,1,12.3,12.96a4.552,4.552,0,0,0,.854.194,4.551,4.551,0,0,0-.194-.854,2.4,2.4,0,0,1,.221-2.511,5.541,5.541,0,0,1,1.006-.744c.239-.149.736-.46.736-.584s-.5-.435-.736-.584a5.542,5.542,0,0,1-1.006-.744,2.4,2.4,0,0,1-.221-2.511,4.551,4.551,0,0,0,.194-.854,4.552,4.552,0,0,0-.854.194A2.4,2.4,0,0,1,9.79,3.742a5.541,5.541,0,0,1-.744-1.006C8.9,2.5,8.586,2,8.462,2s-.435.5-.584.736a5.541,5.541,0,0,1-.744,1.006,2.4,2.4,0,0,1-2.511.221,4.553,4.553,0,0,0-.854-.194,4.552,4.552,0,0,0,.194.854,2.4,2.4,0,0,1-.221,2.511,5.541,5.541,0,0,1-1.006.744C2.5,8.027,2,8.338,2,8.462s.5.435.736.584a5.541,5.541,0,0,1,1.006.744A2.4,2.4,0,0,1,3.963,12.3a4.552,4.552,0,0,0-.194.854,4.551,4.551,0,0,0,.854-.194A4.774,4.774,0,0,1,5.935,12.711ZM7.105,11.5A1,1,0,0,1,6.4,11.2L4.363,9.169A1,1,0,0,1,5.777,7.755L7.132,9.11l2.946-2.721a1,1,0,1,1,1.357,1.469L7.784,11.231A1,1,0,0,1,7.105,11.5Z" transform="translate(-1885.5 1240.538)" fill="#1a206d"/>
  </g>
</svg>
