<svg xmlns="http://www.w3.org/2000/svg" width="54.189" height="54.082" viewBox="0 0 54.189 54.082">
  <g id="_5724977_coronavirus_infection_tourist_transmission_travel_icon" data-name="5724977_coronavirus_infection_tourist_transmission_travel_icon" transform="translate(-0.868 -1.988)">
    <path id="Path_4358" data-name="Path 4358" d="M54.994,40.672l-3.418-8.542a.886.886,0,0,0,.695-.422l2.659-4.432a.886.886,0,0,0-.32-1.226l-3.1-1.773V17.068a4.422,4.422,0,0,0-3.031-4.183,6.2,6.2,0,1,0-8.121,0,4.422,4.422,0,0,0-3.027,4.183v3.5L32.2,27.161a.886.886,0,0,0,.073,1.171l.5.5-6.494,6.493-5.64-5.641a2.724,2.724,0,0,0-3.761,0L3.081,43.471,1.517,45.037A2.216,2.216,0,1,0,4.65,48.172l.94-.941,3.76,3.761-.942.94a2.216,2.216,0,1,0,3.134,3.134L13.11,53.5,26.9,39.71a2.659,2.659,0,0,0,.511-3.018l6.609-6.609,1.8,1.8a.886.886,0,0,0,.627.26H36.5a.886.886,0,0,0,.645-.341l.647-.835a11.362,11.362,0,0,0,1.659,3.421l-2.062,8.925-5.23,7.843a.886.886,0,0,0,.183,1.184l4.432,3.546a.892.892,0,0,0,1.272-.174l7.091-9.751a.9.9,0,0,0,.132-.266l1.213-4.031,1.484,1.484V54.3a.886.886,0,0,0,.886.886H54.17a.886.886,0,0,0,.886-.886V41A.9.9,0,0,0,54.994,40.672ZM3.4,46.918a.443.443,0,1,1-.627-.628l.94-.94.628.627Zm6.268,6.895a.443.443,0,0,1,0-.627l.94-.94.628.627-.938.94a.443.443,0,0,1-.629,0ZM25.646,38.456,12.484,51.619,4.961,44.1,18.125,30.935a.907.907,0,0,1,1.253,0L25.646,37.2a.886.886,0,0,1,0,1.254ZM39.988,8.2a4.432,4.432,0,1,1,4.432,4.432A4.432,4.432,0,0,1,39.988,8.2Zm-3.63,21.709-2.281-2.282,3.251-4.181v4.281c0,.293.021.584.043.874Zm7.256,15.121-6.457,8.878-3.072-2.458,4.867-7.3a.886.886,0,0,0,.126-.293l1.8-7.8,4.177,4.177Zm9.67,8.378H49.738V42.774a.886.886,0,0,0-.26-.627l-7.526-7.526a9.682,9.682,0,0,1-2.852-6.89V17.068a2.659,2.659,0,0,1,2.659-2.659h5.319a2.659,2.659,0,0,1,2.659,2.659v6.2L48.7,22.671l-1.666-5-1.684.56,1.773,5.319a.886.886,0,0,0,.4.489l5.419,3.1L51.17,30.09,45.1,27.054l-3.416-7.687-1.62.72,3.546,7.978a.886.886,0,0,0,.414.433l5.718,2.857v.782a.9.9,0,0,0,.063.33l3.483,8.7Z" fill="#a8b400"/>
    <rect id="Rectangle_318" data-name="Rectangle 318" width="6.268" height="1.773" transform="translate(12.768 43.034) rotate(-45)" fill="#1a206d"/>
    <rect id="Rectangle_321" data-name="Rectangle 321" width="2.507" height="1.773" transform="translate(18.973 36.829) rotate(-45)" fill="#1a206d"/>
  </g>
</svg>
