<svg id="Group_692" data-name="Group 692" xmlns="http://www.w3.org/2000/svg" width="58.606" height="34.758" viewBox="0 0 58.606 34.758">
  <path id="Path_512" data-name="Path 512" d="M20.559,86.348h0c0,.014,0,.028,0,.041Z" transform="translate(-19.21 -55.729)" fill="#f2b241"/>
  <path id="Path_513" data-name="Path 513" d="M30.958,86.389c0-.014,0-.027,0-.041h0Z" transform="translate(-28.317 -55.729)" fill="#f2b241"/>
  <path id="Path_525" data-name="Path 525" d="M182.436,334.205a5.311,5.311,0,0,0-6.264,6.264,5.324,5.324,0,0,0,10.44-2.088A5.46,5.46,0,0,0,182.436,334.205Zm1.183,5.708a2.219,2.219,0,0,1-1.81,1.809,2.322,2.322,0,0,1-2.714-2.715,2.219,2.219,0,0,1,1.809-1.81A2.277,2.277,0,0,1,183.619,339.913Z" transform="translate(-168.377 -309.984)" fill="#1a206d"/>
  <path id="Path_526" data-name="Path 526" d="M408.676,334.205a5.311,5.311,0,0,0-6.264,6.264,5.324,5.324,0,1,0,10.44-2.088A5.273,5.273,0,0,0,408.676,334.205Zm1.252,5.708a2.219,2.219,0,0,1-1.809,1.809,2.322,2.322,0,0,1-2.715-2.715,2.219,2.219,0,0,1,1.81-1.81A2.322,2.322,0,0,1,409.928,339.913Z" transform="translate(-366.496 -309.984)" fill="#1a206d"/>
  <path id="Path_527" data-name="Path 527" d="M169.231,206.033a2.5,2.5,0,0,1,.069-.522v-5.748c0-1.442-.523-1.8-.747-1.955a6.359,6.359,0,0,0-2.31-.714c-.339-.061-.658-.118-.966-.195a9.016,9.016,0,0,1-4.13-1.846,3.282,3.282,0,0,1-2.153.807h-8.909a2.5,2.5,0,0,1-2.5-2.5v-6.264a3.219,3.219,0,0,1,.019-.353h-1.214v9.681a2.976,2.976,0,0,1-.538,1.81,4.437,4.437,0,0,1-3.7,1.943h-9.866a9.492,9.492,0,0,1,4.184,5.858h9.763a9.462,9.462,0,0,1,18.427,0h4.575m-51.213,0a9.51,9.51,0,0,1,4.212-5.858H117.5v5.858h.515m54.129,2.5H162.4v-.487a6.961,6.961,0,0,0-13.921.139v.278a1.188,1.188,0,0,1-.487.069H134.213v-.348a6.972,6.972,0,0,0-13.921-.557v.9h-5.359a.7.7,0,0,1-.7-.7V206.1H115v-6.821a1.465,1.465,0,0,1,1.462-1.6h25.684a1.958,1.958,0,0,0,1.671-.9.522.522,0,0,0,.07-.348V186.05a1.8,1.8,0,0,1,1.809-1.81h9.327a5.6,5.6,0,0,1,4.455,2.715l2.575,5.22c.766,1.462,1.879,1.809,3.828,2.3,1.671.418,5.917.418,5.917,5.29v5.777a1.535,1.535,0,0,1-.069.557h.417a.749.749,0,0,1,.7.7v1.044A.7.7,0,0,1,172.147,208.533ZM150.779,186.4a.7.7,0,0,0-.7.7v6.264h8.909c.557,0,.9-.557.627-.905l-1.74-3.619a5.016,5.016,0,0,0-3.968-2.436Z" transform="translate(-114.237 -178.742)" fill="#a8b400"/>
  <path id="Path_528" data-name="Path 528" d="M147.465,146.189V142.5H125.111v3.689h22.354m.76,2.5H124.351c-.974,0-1.81-.41-1.74-.889v-6.945c0-.479.766-.855,1.74-.855h23.874c.974,0,1.74.376,1.74.855v6.979C149.965,148.313,149.2,148.689,148.225,148.689Z" transform="translate(-121.567 -140)" fill="#1a206d"/>
  <path id="Path_529" data-name="Path 529" d="M133.341,146.189V142.5h-8.232v3.689h8.232m1.658,2.5H123.451a.849.849,0,0,1-.842-.889v-6.945a.84.84,0,0,1,.842-.855H135a.84.84,0,0,1,.842.855v6.979A.84.84,0,0,1,135,148.689Z" transform="translate(-121.567 -130.678)" fill="#1a206d"/>
  <path id="Path_530" data-name="Path 530" d="M133.341,146.189V142.5h-8.232v3.689h8.232m1.658,2.5H123.451a.849.849,0,0,1-.842-.889v-6.945a.84.84,0,0,1,.842-.855H135a.84.84,0,0,1,.842.855v6.979A.84.84,0,0,1,135,148.689Z" transform="translate(-107.443 -130.678)" fill="#1a206d"/>
</svg>
