<svg xmlns="http://www.w3.org/2000/svg" width="24" height="24.5" viewBox="0 0 24 24.5">
  <g id="user-Filled" transform="translate(0 0.5)">
    <rect id="Path" width="24" height="24" fill="rgba(255,255,255,0)"/>
    <path id="user-Filled_1_" d="M690,2702.5a5,5,0,1,1,5,5A5,5,0,0,1,690,2702.5Zm9.117,8.071a2.3,2.3,0,0,0-1.67.218,5.047,5.047,0,0,1-4.894,0,2.316,2.316,0,0,0-1.67-.218,4.509,4.509,0,0,0-3.383,4.4v1.011a3.536,3.536,0,0,0,.493,1.806,1.5,1.5,0,0,0,1.285.717h11.443a1.494,1.494,0,0,0,1.285-.718,3.529,3.529,0,0,0,.493-1.8v-1.011a4.507,4.507,0,0,0-3.382-4.406Z" transform="translate(-683 -2697)" fill="none" stroke="#fff" stroke-width="2"/>
  </g>
</svg>
